<svg width="275" height="202" viewBox="0 0 275 202" fill="none" xmlns="http://www.w3.org/2000/svg">
<path d="M246.763 188.182H228.618V188.319H246.763V188.182Z" fill="#EBEBEB"/>
<path d="M181.743 189.672H176.982V189.809H181.743V189.672Z" fill="#EBEBEB"/>
<path d="M228.071 183.1H217.558V183.237H228.071V183.1Z" fill="#EBEBEB"/>
<path d="M52.6849 184.02H29.0229V184.156H52.6849V184.02Z" fill="#EBEBEB"/>
<path d="M61.0343 184.02H57.5664V184.156H61.0343V184.02Z" fill="#EBEBEB"/>
<path d="M123.633 186.332H72.3096V186.469H123.633V186.332Z" fill="#EBEBEB"/>
<path d="M130.891 154.934H25.0999C24.2703 154.934 23.4746 154.604 22.8879 154.018C22.3013 153.431 21.9717 152.635 21.9717 151.806V3.10087C21.9789 2.27596 22.3117 1.48729 22.8976 0.906541C23.4834 0.32579 24.275 -3.16255e-05 25.0999 2.30239e-09H130.891C131.302 2.3024e-09 131.709 0.0809141 132.088 0.238124C132.468 0.395334 132.813 0.62576 133.103 0.916246C133.393 1.20673 133.624 1.55159 133.781 1.93113C133.938 2.31067 134.019 2.71745 134.019 3.12826V151.806C134.019 152.216 133.938 152.623 133.781 153.003C133.624 153.382 133.393 153.727 133.103 154.018C132.813 154.308 132.468 154.538 132.088 154.696C131.709 154.853 131.302 154.934 130.891 154.934ZM25.0999 0.109572C24.307 0.11102 23.547 0.426638 22.9864 0.987301C22.4257 1.54796 22.1101 2.30797 22.1086 3.10087V151.806C22.1101 152.598 22.4257 153.358 22.9864 153.919C23.547 154.48 24.307 154.795 25.0999 154.797H130.891C131.684 154.795 132.444 154.48 133.005 153.919C133.565 153.358 133.881 152.598 133.882 151.806V3.10087C133.881 2.30797 133.565 1.54796 133.005 0.987301C132.444 0.426638 131.684 0.11102 130.891 0.109572H25.0999Z" fill="#EBEBEB"/>
<path d="M249.394 154.934H143.603C142.773 154.934 141.978 154.604 141.391 154.018C140.804 153.431 140.475 152.635 140.475 151.806V3.10087C140.482 2.27596 140.815 1.48729 141.4 0.906541C141.986 0.32579 142.778 -3.16255e-05 143.603 2.30239e-09H249.394C250.224 2.3024e-09 251.019 0.329584 251.606 0.916246C252.193 1.50291 252.522 2.29859 252.522 3.12826V151.806C252.522 152.635 252.193 153.431 251.606 154.018C251.019 154.604 250.224 154.934 249.394 154.934ZM143.603 0.109572C142.81 0.11102 142.05 0.426638 141.489 0.987301C140.929 1.54796 140.613 2.30797 140.612 3.10087V151.806C140.613 152.598 140.929 153.358 141.489 153.919C142.05 154.48 142.81 154.795 143.603 154.797H249.394C250.187 154.795 250.947 154.48 251.507 153.919C252.068 153.358 252.384 152.598 252.385 151.806V3.10087C252.384 2.30797 252.068 1.54796 251.507 0.987301C250.947 0.426638 250.187 0.11102 249.394 0.109572H143.603Z" fill="#EBEBEB"/>
<path d="M274.21 179.367H0.282227V179.504H274.21V179.367Z" fill="#EBEBEB"/>
<path d="M221.841 19.9043H207.109C202.438 19.9043 198.65 23.6915 198.65 28.3632V43.0951C198.65 47.7668 202.438 51.554 207.109 51.554H221.841C226.513 51.554 230.3 47.7668 230.3 43.0951V28.3632C230.3 23.6915 226.513 19.9043 221.841 19.9043Z" fill="#F0F0F0"/>
<path d="M218.412 31.2564C218.412 33.9519 217.043 36.1323 214.347 36.1323C211.652 36.1323 210.282 33.9409 210.282 31.2564C210.282 28.5719 211.652 26.375 214.347 26.375C217.043 26.375 218.412 28.5609 218.412 31.2564Z" fill="#FAFAFA"/>
<path d="M214.347 45.0774H221.869V40.6068C221.869 38.136 218.5 36.1309 214.347 36.1309C210.194 36.1309 206.825 38.136 206.825 40.6068V45.0774H214.347Z" fill="#FAFAFA"/>
<path d="M83.2776 30.5156H72.9889C69.7272 30.5156 67.083 33.1598 67.083 36.4215V46.7103C67.083 49.972 69.7272 52.6161 72.9889 52.6161H83.2776C86.5394 52.6161 89.1835 49.972 89.1835 46.7103V36.4215C89.1835 33.1598 86.5394 30.5156 83.2776 30.5156Z" fill="#E6E6E6"/>
<path d="M77.6832 42.7607C78.0151 42.2997 78.3994 41.8787 78.8282 41.5061C79.1209 41.2473 79.3921 40.9652 79.6391 40.6624C79.8081 40.4384 79.8986 40.165 79.8966 39.8845C79.9026 39.6929 79.8606 39.5028 79.7745 39.3315C79.6884 39.1603 79.5609 39.0132 79.4035 38.9038C79.0157 38.6496 78.5572 38.5249 78.0941 38.5477C77.6086 38.5362 77.1281 38.6474 76.6971 38.8709C76.2885 39.091 75.9361 39.4022 75.6671 39.7804L73.6455 38.597C74.116 37.8868 74.7714 37.3185 75.5411 36.9534C76.4291 36.5415 77.4004 36.3409 78.379 36.3672C79.4666 36.3159 80.5436 36.6009 81.4634 37.1835C81.8322 37.432 82.1321 37.7698 82.3352 38.1655C82.5383 38.5611 82.6379 39.0017 82.6249 39.4462C82.6339 39.8597 82.5555 40.2704 82.3948 40.6515C82.2618 40.9719 82.0766 41.2681 81.8469 41.528C81.6278 41.7691 81.3484 42.043 81.0032 42.3553C80.6729 42.6362 80.3702 42.9481 80.0993 43.2866C79.9047 43.5491 79.8043 43.8695 79.8144 44.1961H77.2887C77.2685 43.6883 77.4063 43.1868 77.6832 42.7607ZM77.4148 47.9489C77.2643 47.8097 77.1453 47.6399 77.0659 47.4509C76.9866 47.2619 76.9486 47.0581 76.9546 46.8532C76.9502 46.6547 76.9885 46.4575 77.067 46.2751C77.1454 46.0926 77.2622 45.9292 77.4093 45.7958C77.7302 45.5201 78.1394 45.3684 78.5625 45.3684C78.9857 45.3684 79.3948 45.5201 79.7158 45.7958C79.8619 45.9297 79.9776 46.0934 80.0551 46.2758C80.1326 46.4582 80.1701 46.6551 80.165 46.8532C80.171 47.0581 80.133 47.2619 80.0536 47.4509C79.9742 47.6399 79.8553 47.8097 79.7048 47.9489C79.3919 48.2346 78.9835 48.3929 78.5598 48.3929C78.1361 48.3929 77.7277 48.2346 77.4148 47.9489Z" fill="#FAFAFA"/>
<path d="M220.324 106.17H228.284C229.498 106.17 230.661 106.652 231.519 107.51C232.377 108.368 232.859 109.531 232.859 110.745V118.705C232.859 119.917 232.378 121.079 231.521 121.936C230.664 122.793 229.502 123.274 228.29 123.274H220.324C219.112 123.274 217.95 122.793 217.093 121.936C216.236 121.079 215.755 119.917 215.755 118.705V110.745C215.755 109.533 216.236 108.371 217.093 107.514C217.95 106.657 219.112 106.175 220.324 106.175V106.17Z" fill="#EBEBEB"/>
<path d="M223.951 115.648C224.209 115.292 224.507 114.967 224.839 114.679C225.067 114.478 225.278 114.258 225.469 114.021C225.6 113.85 225.669 113.64 225.666 113.424C225.672 113.276 225.64 113.129 225.573 112.996C225.506 112.864 225.406 112.751 225.283 112.668C224.984 112.468 224.628 112.37 224.269 112.389C223.902 112.378 223.538 112.459 223.211 112.626C222.883 112.793 222.603 113.039 222.395 113.342L220.829 112.427C221.191 111.873 221.699 111.429 222.297 111.145C222.983 110.827 223.733 110.672 224.488 110.69C225.331 110.649 226.166 110.872 226.877 111.326C227.163 111.519 227.396 111.781 227.553 112.089C227.711 112.397 227.787 112.739 227.775 113.084C227.782 113.404 227.722 113.721 227.6 114.016C227.497 114.265 227.352 114.494 227.173 114.695C226.968 114.921 226.75 115.135 226.521 115.336C226.267 115.555 226.032 115.795 225.82 116.054C225.673 116.26 225.596 116.508 225.6 116.761H223.65C223.633 116.368 223.738 115.979 223.951 115.648ZM223.743 119.664C223.629 119.558 223.539 119.429 223.478 119.286C223.418 119.142 223.388 118.987 223.393 118.831C223.389 118.678 223.418 118.525 223.478 118.384C223.537 118.242 223.626 118.115 223.738 118.01C223.987 117.797 224.303 117.68 224.631 117.68C224.958 117.68 225.275 117.797 225.524 118.01C225.637 118.114 225.726 118.242 225.787 118.383C225.847 118.525 225.877 118.678 225.874 118.831C225.878 118.988 225.848 119.143 225.786 119.286C225.725 119.43 225.634 119.559 225.518 119.664C225.401 119.778 225.262 119.868 225.11 119.927C224.957 119.987 224.794 120.014 224.631 120.009C224.467 120.013 224.305 119.985 224.152 119.926C224 119.866 223.861 119.777 223.743 119.664Z" fill="#FAFAFA"/>
<path d="M64.4427 63.6602H54.1539C50.8922 63.6602 48.248 66.3043 48.248 69.566V79.8548C48.248 83.1165 50.8922 85.7607 54.1539 85.7607H64.4427C67.7044 85.7607 70.3486 83.1165 70.3486 79.8548V69.566C70.3486 66.3043 67.7044 63.6602 64.4427 63.6602Z" fill="#EBEBEB"/>
<path d="M59.2982 68.4824C58.6416 68.4824 57.9914 68.6118 57.3849 68.8633C56.7783 69.1147 56.2273 69.4832 55.7632 69.9478C55.2992 70.4123 54.9313 70.9638 54.6805 71.5706C54.4297 72.1774 54.301 72.8277 54.3018 73.4844C54.3018 76.2236 56.537 82.8637 59.2982 82.8637C62.0594 82.8637 64.2947 76.2401 64.2947 73.4844C64.2954 72.8277 64.1667 72.1774 63.9159 71.5706C63.6651 70.9638 63.2972 70.4123 62.8332 69.9478C62.3691 69.4832 61.8181 69.1147 61.2115 68.8633C60.605 68.6118 59.9548 68.4824 59.2982 68.4824ZM59.2982 74.991C59.0002 74.991 58.7089 74.9026 58.4612 74.737C58.2134 74.5715 58.0203 74.3362 57.9063 74.0609C57.7923 73.7856 57.7624 73.4827 57.8206 73.1904C57.8787 72.8982 58.0222 72.6297 58.2329 72.419C58.4436 72.2083 58.712 72.0648 59.0043 72.0067C59.2965 71.9486 59.5995 71.9784 59.8748 72.0924C60.1501 72.2065 60.3854 72.3996 60.5509 72.6473C60.7165 72.8951 60.8048 73.1864 60.8048 73.4844C60.7991 73.8801 60.6378 74.2577 60.3559 74.5355C60.0739 74.8134 59.694 74.9691 59.2982 74.969V74.991Z" fill="#FAFAFA"/>
<path d="M61.5061 104.88C61.6668 103.865 61.6668 102.832 61.5061 101.817L59.9666 101.615C59.8424 101.049 59.6588 100.498 59.4187 99.971L60.5473 98.9027C60.0781 97.9891 59.47 97.1537 58.7449 96.4264L57.3752 97.1715C56.9518 96.7878 56.4891 96.4499 55.9946 96.1634L56.2795 94.6349C55.3696 94.1667 54.3915 93.845 53.3814 93.6816L52.7185 95.0787C52.439 95.0513 52.1706 95.0348 51.8638 95.0348C51.557 95.0348 51.2831 95.0348 51.0037 95.0787L50.3408 93.6816C49.3253 93.8416 48.3415 94.1615 47.4262 94.6294L47.711 96.158C47.2166 96.4444 46.7538 96.7823 46.3305 97.166L44.9608 96.4209C44.2356 97.1483 43.6276 97.9836 43.1584 98.8972L44.2869 99.9656C44.0469 100.493 43.8633 101.043 43.7391 101.609L42.2051 101.812C42.0371 102.826 42.0371 103.86 42.2051 104.874L43.7391 105.077C43.8633 105.643 44.0469 106.194 44.2869 106.721L43.1584 107.789C43.6265 108.703 44.2347 109.539 44.9608 110.265L46.3305 109.52C46.7538 109.904 47.2166 110.242 47.711 110.528L47.4262 112.057C48.3415 112.525 49.3253 112.845 50.3408 113.005L51.0037 111.608C51.2831 111.635 51.5515 111.651 51.8638 111.651C52.1761 111.651 52.4117 111.651 52.7185 111.608L53.3814 113.005C54.3969 112.845 55.3806 112.525 56.296 112.057L56.0111 110.528C56.5055 110.242 56.9683 109.904 57.3917 109.52L58.7613 110.265C59.4865 109.538 60.0945 108.703 60.5638 107.789L59.4516 106.71C59.691 106.182 59.8746 105.632 59.9995 105.066L61.5061 104.88ZM51.8638 106.759C51.1883 106.76 50.5276 106.561 49.9655 106.186C49.4034 105.811 48.9651 105.278 48.706 104.655C48.447 104.031 48.379 103.344 48.5105 102.681C48.642 102.019 48.9672 101.41 49.4449 100.932C49.9225 100.455 50.5312 100.13 51.1938 99.998C51.8564 99.8665 52.5431 99.9345 53.167 100.194C53.7909 100.453 54.3239 100.891 54.6985 101.453C55.0732 102.015 55.2726 102.676 55.2715 103.351C55.27 104.255 54.9105 105.121 54.2718 105.759C53.633 106.398 52.7671 106.758 51.8638 106.759Z" fill="#EBEBEB"/>
<path d="M66.447 115.905C66.4864 115.651 66.5065 115.395 66.5073 115.138C66.5069 114.881 66.4868 114.625 66.447 114.371L65.6746 114.272C65.616 113.992 65.5278 113.718 65.4116 113.456L65.9594 112.908C65.725 112.449 65.42 112.029 65.0555 111.665L64.3707 112.037C64.1579 111.847 63.9266 111.678 63.6804 111.533L63.8228 110.772C63.3654 110.536 62.8735 110.375 62.3655 110.295L62.0368 110.996C61.8943 110.996 61.7519 110.996 61.6095 110.996C61.467 110.996 61.3191 110.996 61.1767 110.996L60.8479 110.295C60.3399 110.375 59.848 110.536 59.3906 110.772L59.5331 111.533C59.2868 111.678 59.0556 111.847 58.8428 112.037L58.158 111.665C57.7935 112.029 57.4884 112.449 57.254 112.908L57.8019 113.456C57.6856 113.718 57.5975 113.992 57.5389 114.272L56.7719 114.371C56.7294 114.624 56.7092 114.881 56.7116 115.138C56.7097 115.395 56.7298 115.651 56.7719 115.905L57.5389 116.004C57.5975 116.282 57.6856 116.554 57.8019 116.814L57.254 117.362C57.4889 117.82 57.7939 118.237 58.158 118.6L58.8428 118.228C59.0528 118.422 59.2844 118.591 59.5331 118.732L59.3906 119.493C59.848 119.729 60.3399 119.89 60.8479 119.97L61.1767 119.269C61.4626 119.298 61.7508 119.298 62.0368 119.269L62.3655 119.97C62.8735 119.89 63.3654 119.729 63.8228 119.493L63.6804 118.732C63.9291 118.591 64.1607 118.422 64.3707 118.228L65.0555 118.6C65.4195 118.237 65.7245 117.82 65.9594 117.362L65.4116 116.814C65.5278 116.554 65.616 116.282 65.6746 116.004L66.447 115.905ZM61.6259 116.842C61.2889 116.842 60.9595 116.742 60.6793 116.555C60.3991 116.367 60.1807 116.101 60.0518 115.79C59.9228 115.479 59.8891 115.136 59.9548 114.806C60.0205 114.475 60.1828 114.171 60.4211 113.933C60.6594 113.695 60.963 113.533 61.2935 113.467C61.624 113.401 61.9666 113.435 62.2779 113.564C62.5893 113.693 62.8554 113.911 63.0426 114.191C63.2298 114.472 63.3297 114.801 63.3297 115.138C63.3283 115.587 63.1506 116.017 62.8349 116.335C62.5193 116.654 62.0909 116.836 61.6423 116.842H61.6259Z" fill="#E0E0E0"/>
<path d="M235.718 104.848C235.925 104.696 236.121 104.529 236.304 104.349C236.485 104.167 236.652 103.971 236.803 103.763L236.332 103.15C236.487 102.911 236.616 102.655 236.715 102.388H237.493C237.653 101.9 237.734 101.39 237.734 100.876L236.984 100.657C236.973 100.371 236.928 100.088 236.852 99.8131L237.493 99.3748C237.338 98.8848 237.103 98.4239 236.797 98.0107L236.069 98.2681C235.98 98.1571 235.885 98.0511 235.784 97.9504C235.68 97.8463 235.576 97.7532 235.466 97.66L235.724 96.9314C235.307 96.631 234.847 96.3964 234.359 96.2356L233.921 96.8766C233.643 96.8057 233.359 96.7617 233.072 96.7451L232.853 96C232.339 95.9985 231.829 96.0799 231.341 96.2411V97.0136C231.074 97.1167 230.819 97.247 230.579 97.4025L229.96 96.9314C229.541 97.238 229.171 97.6076 228.864 98.0271L229.336 98.6407C229.181 98.883 229.051 99.1399 228.947 99.4077H228.174C228.016 99.8961 227.934 100.406 227.933 100.92L228.678 101.139C228.694 101.424 228.738 101.706 228.81 101.983L228.169 102.426C228.329 102.914 228.564 103.374 228.864 103.791L229.593 103.528C229.686 103.637 229.779 103.747 229.883 103.851C229.988 103.955 230.092 104.048 230.201 104.136L229.944 104.864C230.357 105.17 230.818 105.405 231.308 105.56L231.746 104.919C232.021 104.995 232.305 105.039 232.59 105.051L232.809 105.801C233.324 105.801 233.836 105.719 234.327 105.56V104.782C234.593 104.681 234.848 104.552 235.088 104.399L235.718 104.848ZM231.648 102.109C231.409 101.87 231.247 101.567 231.182 101.236C231.116 100.906 231.15 100.563 231.279 100.252C231.408 99.9407 231.626 99.6747 231.906 99.4875C232.187 99.3004 232.516 99.2005 232.853 99.2005C233.19 99.2005 233.519 99.3004 233.799 99.4875C234.079 99.6747 234.298 99.9407 234.427 100.252C234.556 100.563 234.59 100.906 234.524 101.236C234.458 101.567 234.296 101.87 234.058 102.109C233.9 102.267 233.712 102.393 233.505 102.479C233.298 102.564 233.076 102.608 232.852 102.608C232.628 102.607 232.406 102.562 232.199 102.476C231.993 102.389 231.805 102.263 231.648 102.103V102.109Z" fill="#F0F0F0"/>
<path d="M137.247 201.999C195.913 201.999 243.471 199.223 243.471 195.797C243.471 192.372 195.913 189.596 137.247 189.596C78.581 189.596 31.0229 192.372 31.0229 195.797C31.0229 199.223 78.581 201.999 137.247 201.999Z" fill="#F5F5F5"/>
<path d="M156.728 32.1917V23.6561L160.924 23.0645V31.6001L156.728 32.1917Z" fill="#263238"/>
<path d="M142.772 36.9483L139.627 31.9409L142.306 30.0234L145.446 35.0254L142.772 36.9483Z" fill="#263238"/>
<path d="M172.198 31.2609L175.342 25.377L178.016 26.5439L174.877 32.4333L172.198 31.2609Z" fill="#263238"/>
<g opacity="0.5">
<path d="M156.726 32.1917V23.6561L160.922 23.0645V31.6001L156.726 32.1917Z" fill="white"/>
<path d="M142.772 36.9464L139.627 31.939L142.306 30.0215L145.445 35.0234L142.772 36.9464Z" fill="white"/>
<path d="M172.197 31.259L175.342 25.375L178.016 26.5419L174.876 32.4314L172.197 31.259Z" fill="white"/>
</g>
<path d="M161.521 24.4406L156.13 25.2021C155.934 25.2383 155.733 25.2301 155.541 25.1782C155.349 25.1262 155.171 25.0319 155.02 24.902C154.869 24.7722 154.749 24.6102 154.669 24.428C154.589 24.2457 154.551 24.0479 154.558 23.8489C154.57 23.4139 154.734 22.9969 155.021 22.6699C155.308 22.3428 155.7 22.1262 156.13 22.0574L161.521 21.3014C161.716 21.2654 161.917 21.2735 162.109 21.3251C162.301 21.3767 162.478 21.4706 162.629 21.5998C162.78 21.729 162.9 21.8903 162.98 22.0719C163.06 22.2534 163.099 22.4507 163.093 22.6491C163.08 23.0838 162.916 23.5003 162.629 23.8271C162.342 24.154 161.95 24.3709 161.521 24.4406Z" fill="#263238"/>
<path d="M143.178 29.8867L139.184 32.7575C139.101 32.8269 139.005 32.8785 138.901 32.9091C138.797 32.9396 138.688 32.9485 138.581 32.9352C138.473 32.9218 138.37 32.8865 138.277 32.8314C138.184 32.7763 138.103 32.7027 138.039 32.615C137.934 32.4141 137.907 32.1812 137.964 31.9615C138.02 31.7418 138.157 31.551 138.346 31.4262L142.345 28.5609C142.428 28.4908 142.524 28.4386 142.627 28.4077C142.731 28.3767 142.839 28.3676 142.947 28.381C143.054 28.3944 143.157 28.43 143.25 28.4855C143.342 28.541 143.422 28.6152 143.485 28.7033C143.59 28.9035 143.617 29.1355 143.56 29.3543C143.503 29.573 143.367 29.7629 143.178 29.8867Z" fill="#263238"/>
<path d="M178.466 27.235L174.467 25.4928C174.372 25.4443 174.287 25.3766 174.22 25.2939C174.152 25.2112 174.102 25.1153 174.073 25.0123C174.044 24.9093 174.037 24.8014 174.052 24.6955C174.067 24.5896 174.104 24.488 174.16 24.3971C174.26 24.192 174.432 24.0311 174.644 23.9452C174.855 23.8592 175.091 23.8543 175.305 23.9314L179.299 25.6791C179.396 25.7262 179.481 25.7933 179.55 25.8758C179.619 25.9584 179.67 26.0546 179.698 26.1581C179.727 26.2616 179.734 26.37 179.718 26.4763C179.702 26.5826 179.664 26.6843 179.606 26.7748C179.506 26.9784 179.335 27.138 179.124 27.2229C178.914 27.3078 178.68 27.3121 178.466 27.235Z" fill="#263238"/>
<path opacity="0.7" d="M161.521 24.4406L156.13 25.2021C155.934 25.2383 155.733 25.2301 155.541 25.1782C155.349 25.1262 155.171 25.0319 155.02 24.902C154.869 24.7722 154.749 24.6102 154.669 24.428C154.589 24.2457 154.551 24.0479 154.558 23.8489C154.57 23.4139 154.734 22.9969 155.021 22.6699C155.308 22.3428 155.7 22.1262 156.13 22.0574L161.521 21.3014C161.716 21.2654 161.917 21.2735 162.109 21.3251C162.301 21.3767 162.478 21.4706 162.629 21.5998C162.78 21.729 162.9 21.8903 162.98 22.0719C163.06 22.2534 163.099 22.4507 163.093 22.6491C163.08 23.0838 162.916 23.5003 162.629 23.8271C162.342 24.154 161.95 24.3709 161.521 24.4406Z" fill="white"/>
<path opacity="0.7" d="M143.178 29.8867L139.184 32.7575C139.101 32.8269 139.005 32.8785 138.901 32.9091C138.797 32.9396 138.688 32.9485 138.581 32.9352C138.473 32.9218 138.37 32.8865 138.277 32.8314C138.184 32.7763 138.103 32.7027 138.039 32.615C137.934 32.4141 137.907 32.1812 137.964 31.9615C138.02 31.7418 138.157 31.551 138.346 31.4262L142.345 28.5609C142.428 28.4908 142.524 28.4386 142.627 28.4077C142.731 28.3767 142.839 28.3676 142.947 28.381C143.054 28.3944 143.157 28.43 143.25 28.4855C143.342 28.541 143.422 28.6152 143.485 28.7033C143.59 28.9035 143.617 29.1355 143.56 29.3543C143.503 29.573 143.367 29.7629 143.178 29.8867Z" fill="white"/>
<path opacity="0.7" d="M178.466 27.235L174.467 25.4928C174.372 25.4443 174.287 25.3766 174.22 25.2939C174.152 25.2112 174.102 25.1153 174.073 25.0123C174.044 24.9093 174.037 24.8014 174.052 24.6955C174.067 24.5896 174.104 24.488 174.16 24.3971C174.26 24.192 174.432 24.0311 174.644 23.9452C174.855 23.8592 175.091 23.8543 175.305 23.9314L179.299 25.6791C179.396 25.7262 179.481 25.7933 179.55 25.8758C179.619 25.9584 179.67 26.0546 179.698 26.1581C179.727 26.2616 179.734 26.37 179.718 26.4763C179.702 26.5826 179.664 26.6843 179.606 26.7748C179.506 26.9784 179.335 27.138 179.124 27.2229C178.914 27.3078 178.68 27.3121 178.466 27.235Z" fill="white"/>
<path d="M158.825 85.6312C144.236 87.6802 132.408 77.5174 132.408 62.928C132.408 48.3386 144.236 34.8449 158.825 32.7959C173.415 30.7469 185.243 40.9097 185.243 55.4991L188.848 54.9951C188.848 38.4114 175.403 26.8626 158.825 29.191C142.247 31.5194 128.803 46.8539 128.803 63.432C128.803 80.0102 142.242 91.5645 158.825 89.2361V85.6312Z" fill="#407BFF"/>
<path d="M148.329 77.9269L146.358 81.6191L147.131 82.032L149.103 78.3398L148.329 77.9269Z" fill="#263238"/>
<path d="M170.509 36.3898L168.538 40.082L169.311 40.4949L171.282 36.8027L170.509 36.3898Z" fill="#263238"/>
<path d="M138.076 49.6654L137.726 50.4688L141.14 51.9596L141.49 51.1563L138.076 49.6654Z" fill="#263238"/>
<path d="M147.458 40.2893L146.713 40.7539L148.679 43.9065L149.424 43.442L147.458 40.2893Z" fill="#263238"/>
<path d="M141.068 71.4338L137.649 73.8867L138.16 74.5989L141.579 72.146L141.068 71.4338Z" fill="#263238"/>
<path d="M179.488 43.842L176.069 46.2949L176.58 47.0071L179.999 44.5542L179.488 43.842Z" fill="#263238"/>
<path d="M139.811 60.9994L134.554 61.7383L134.798 63.4744L140.055 62.7355L139.811 60.9994Z" fill="#263238"/>
<path d="M159.703 35.0625H157.95V40.3219H159.703V35.0625Z" fill="#263238"/>
<path d="M159.703 78.1035H157.95V83.3629H159.703V78.1035Z" fill="#263238"/>
<path d="M152.036 53.5158C151.832 53.7211 151.718 53.9989 151.718 54.2883C151.718 54.5778 151.832 54.8555 152.036 55.0608L157.92 60.112L159.46 58.3534L153.581 53.2967C153.466 53.2087 153.334 53.1444 153.194 53.1078C153.053 53.0711 152.907 53.0627 152.763 53.0831C152.619 53.1035 152.481 53.1523 152.356 53.2266C152.232 53.3008 152.123 53.3992 152.036 53.5158Z" fill="#407BFF"/>
<path opacity="0.4" d="M152.036 53.5158C151.832 53.7211 151.718 53.9989 151.718 54.2883C151.718 54.5778 151.832 54.8555 152.036 55.0608L157.92 60.112L159.46 58.3534L153.581 53.2967C153.466 53.2087 153.334 53.1444 153.194 53.1078C153.053 53.0711 152.907 53.0627 152.763 53.0831C152.619 53.1035 152.481 53.1523 152.356 53.2266C152.232 53.3008 152.123 53.3992 152.036 53.5158Z" fill="white"/>
<path d="M191.417 54.1953L187.029 60.0738L182.646 55.428L191.417 54.1953Z" fill="#407BFF"/>
<path d="M168.835 47.6307C168.719 47.5427 168.587 47.4784 168.447 47.4418C168.306 47.4051 168.16 47.3967 168.016 47.4171C167.873 47.4375 167.734 47.4863 167.61 47.5605C167.485 47.6348 167.376 47.7332 167.29 47.8498L159.324 56.9333C158.897 56.8795 158.464 56.933 158.063 57.0889C157.662 57.2449 157.307 57.4983 157.028 57.8263C156.13 58.8563 156.13 60.3191 157.028 61.1134C157.927 61.9078 159.395 61.6613 160.315 60.6532C160.599 60.3371 160.798 59.9543 160.894 59.5404C160.99 59.1266 160.979 58.6952 160.863 58.2865L168.829 49.1976C168.934 49.0959 169.017 48.9743 169.074 48.84C169.131 48.7056 169.161 48.5612 169.162 48.4153C169.162 48.2693 169.133 48.1247 169.077 47.99C169.021 47.8553 168.939 47.7331 168.835 47.6307Z" fill="#407BFF"/>
<path d="M170.276 80.6786L177.124 79.7144L176.516 82.8755L164.173 84.6122L164.666 82.0976L172.095 75.2329C172.793 74.6012 173.422 73.8959 173.969 73.1291C174.309 72.647 174.499 72.0754 174.516 71.4856C174.531 71.2467 174.482 71.0083 174.374 70.7946C174.266 70.581 174.103 70.3997 173.903 70.2693C173.356 69.9806 172.725 69.897 172.122 70.0338C171.448 70.1296 170.804 70.3707 170.232 70.7405C169.616 71.1295 169.079 71.6313 168.649 72.2197L166.112 70.735C166.822 69.6858 167.758 68.8096 168.852 68.171C170.025 67.4685 171.33 67.0136 172.687 66.8343C173.682 66.6674 174.702 66.7141 175.678 66.9712C176.463 67.1747 177.163 67.6216 177.678 68.2478C178.159 68.8647 178.41 69.6297 178.39 70.4118C178.38 71.4551 178.09 72.4768 177.552 73.3702C176.747 74.6181 175.768 75.7437 174.642 76.7121L170.276 80.6786Z" fill="#263238"/>
<path d="M193.445 77.0728L190.771 77.4509L190.092 80.9681L186.416 81.4831L187.101 77.9604L178.335 79.1985L178.823 76.5907L188.416 64.8995L192.541 64.3242L183.594 75.3854L187.884 74.7828L188.487 71.6436L192.004 71.1505L191.396 74.2842L194.075 73.9117L193.445 77.0728Z" fill="#263238"/>
<path d="M204.205 59.3766L207.607 58.8945L195.636 82.5181L192.262 82.9893L204.205 59.3766Z" fill="#263238"/>
<path d="M219.736 60.5L219.249 63.0147L210.538 78.0917L206.347 78.6834L214.707 64.2802L209.42 65.0253L208.872 67.7646L205.52 68.2357L206.659 62.3463L219.736 60.5Z" fill="#263238"/>
<path d="M166.046 100.806C165.527 100.749 165.024 100.588 164.567 100.335L165.367 98.6915C165.772 98.9284 166.218 99.0882 166.682 99.1627C167.177 99.2423 167.682 99.2423 168.177 99.1627C168.636 99.1167 169.077 98.9627 169.465 98.7134C169.603 98.631 169.719 98.5151 169.802 98.3763C169.884 98.2375 169.93 98.0803 169.936 97.9191C169.942 97.7989 169.908 97.6802 169.84 97.5811C169.771 97.4821 169.672 97.4083 169.558 97.3712C169.169 97.2405 168.766 97.1523 168.358 97.1082C167.904 97.0414 167.454 96.9481 167.01 96.8288C166.665 96.7281 166.351 96.5393 166.101 96.281C165.83 95.9658 165.694 95.5563 165.723 95.1414C165.72 94.578 165.886 94.0266 166.2 93.5581C166.548 93.0513 167.017 92.639 167.564 92.3583C168.201 92.0244 168.893 91.8073 169.607 91.7173C170.151 91.6355 170.703 91.6226 171.251 91.679C171.707 91.7165 172.153 91.8372 172.566 92.0351L171.826 93.6458C171.494 93.4659 171.132 93.3489 170.758 93.3006C170.345 93.246 169.927 93.246 169.514 93.3006C169.041 93.3499 168.587 93.5155 168.194 93.7827C168.051 93.8674 167.931 93.9865 167.846 94.129C167.761 94.2716 167.713 94.4331 167.706 94.599C167.702 94.6837 167.718 94.768 167.755 94.8446C167.791 94.9211 167.846 94.9873 167.914 95.0373C168.068 95.1543 168.246 95.2349 168.435 95.2729C168.643 95.3167 168.939 95.366 169.322 95.4208C169.774 95.4711 170.22 95.5553 170.659 95.6729C170.999 95.7755 171.307 95.9642 171.552 96.2207C171.683 96.3695 171.784 96.5432 171.847 96.7314C171.91 96.9196 171.934 97.1185 171.919 97.3164C171.925 97.8845 171.756 98.4408 171.437 98.9107C171.082 99.4154 170.61 99.827 170.062 100.11C169.415 100.466 168.71 100.701 167.98 100.806C167.339 100.899 166.687 100.899 166.046 100.806Z" fill="#263238"/>
<path d="M176.111 92.588L175.744 94.4891L179.694 93.9412L179.393 95.519L175.432 96.0669L175.043 98.094L179.683 97.442L179.355 99.0856L172.78 100.011L174.479 91.2458L180.91 90.3418L180.582 91.9854L176.111 92.588Z" fill="#263238"/>
<path d="M188.772 93.9296C188.325 94.572 187.706 95.0752 186.986 95.3815L188.465 97.7975L186.389 98.0934L185.052 95.9019L183.375 96.1375L182.899 98.5864L180.921 98.8658L182.619 90.1001L186.087 89.6125C186.919 89.428 187.79 89.5526 188.536 89.9632C188.83 90.1617 189.066 90.4347 189.22 90.7542C189.374 91.0738 189.44 91.4284 189.413 91.782C189.427 92.5471 189.203 93.2976 188.772 93.9296ZM186.882 93.6228C187.062 93.4457 187.204 93.233 187.299 92.9982C187.393 92.7634 187.437 92.5116 187.429 92.2587C187.446 92.093 187.416 91.9261 187.344 91.7762C187.271 91.6264 187.159 91.4995 187.019 91.4095C186.653 91.2309 186.238 91.1807 185.841 91.2671L184.285 91.4862L183.688 94.5268L185.364 94.2912C185.928 94.2353 186.46 94.0012 186.882 93.6228Z" fill="#263238"/>
<path d="M199.729 87.7129L194.349 96.9717L192.415 97.2401L190.432 89.0223L192.464 88.7374L193.834 94.6049L197.669 87.9978L199.729 87.7129Z" fill="#263238"/>
<path d="M200.43 87.6114L202.413 87.332L200.715 96.0977L198.731 96.3771L200.43 87.6114Z" fill="#263238"/>
<path d="M204.961 95.1695C204.364 94.9773 203.847 94.5918 203.493 94.0737C203.141 93.5179 202.963 92.8689 202.984 92.211C202.979 91.2717 203.207 90.3457 203.646 89.5156C204.09 88.6765 204.731 87.9582 205.515 87.4228C206.331 86.8591 207.27 86.4968 208.254 86.3654C208.926 86.254 209.614 86.2914 210.27 86.475C210.808 86.6185 211.278 86.9485 211.596 87.4063L210.171 88.7705C209.934 88.4682 209.614 88.2408 209.251 88.1154C208.888 87.9901 208.496 87.9722 208.122 88.0638C207.527 88.1436 206.961 88.3736 206.479 88.7321C206.013 89.0891 205.637 89.5508 205.383 90.0799C205.12 90.6189 204.985 91.2113 204.989 91.8111C204.968 92.0887 205.014 92.3671 205.123 92.6234C205.232 92.8797 205.4 93.1064 205.613 93.2848C205.868 93.4578 206.156 93.5762 206.458 93.6328C206.761 93.6894 207.072 93.6828 207.372 93.6135C208.264 93.4904 209.074 93.0247 209.629 92.3151L210.796 93.3396C210.361 93.8939 209.818 94.3547 209.2 94.6946C208.583 95.0344 207.903 95.2462 207.202 95.3174C206.454 95.4476 205.686 95.3969 204.961 95.1695Z" fill="#263238"/>
<path d="M214.965 87.1532L214.598 89.0488L218.548 88.5009L218.247 90.0733L214.286 90.6212L213.897 92.6427L218.537 91.9908L218.209 93.6344L211.634 94.5602L213.338 85.7945L219.754 84.918L219.425 86.5615L214.965 87.1532Z" fill="#263238"/>
<path d="M107.92 49.0176C102.064 49.0176 97.3193 52.4745 97.3193 56.7369C97.3193 59.8323 99.834 62.5003 103.455 63.7275C103.067 65.5052 102.4 67.2101 101.478 68.7788C102.792 68.5832 104.044 68.0915 105.141 67.3407C106.237 66.59 107.148 65.5999 107.805 64.4452H107.92C113.777 64.4452 118.521 60.9937 118.521 56.7314C118.521 52.4691 113.777 49.0176 107.92 49.0176Z" fill="#407BFF"/>
<path opacity="0.7" d="M107.92 49.0176C102.064 49.0176 97.3193 52.4745 97.3193 56.7369C97.3193 59.8323 99.834 62.5003 103.455 63.7275C103.067 65.5052 102.4 67.2101 101.478 68.7788C102.792 68.5832 104.044 68.0915 105.141 67.3407C106.237 66.59 107.148 65.5999 107.805 64.4452H107.92C113.777 64.4452 118.521 60.9937 118.521 56.7314C118.521 52.4691 113.777 49.0176 107.92 49.0176Z" fill="white"/>
<path d="M103.247 58.2211C103.843 58.2211 104.327 57.7378 104.327 57.1418C104.327 56.5457 103.843 56.0625 103.247 56.0625C102.651 56.0625 102.168 56.5457 102.168 57.1418C102.168 57.7378 102.651 58.2211 103.247 58.2211Z" fill="#263238"/>
<path d="M108.928 57.1426C108.928 57.3593 108.863 57.5711 108.743 57.7513C108.623 57.9315 108.452 58.072 108.251 58.1549C108.051 58.2378 107.831 58.2595 107.618 58.2172C107.406 58.175 107.21 58.0706 107.057 57.9174C106.904 57.7641 106.8 57.5689 106.757 57.3564C106.715 57.1438 106.737 56.9235 106.82 56.7233C106.903 56.5231 107.043 56.3519 107.223 56.2315C107.403 56.1111 107.615 56.0469 107.832 56.0469C108.123 56.0469 108.401 56.1623 108.607 56.3678C108.812 56.5733 108.928 56.852 108.928 57.1426Z" fill="#263238"/>
<path d="M112.451 58.2211C113.047 58.2211 113.53 57.7378 113.53 57.1418C113.53 56.5457 113.047 56.0625 112.451 56.0625C111.855 56.0625 111.372 56.5457 111.372 57.1418C111.372 57.7378 111.855 58.2211 112.451 58.2211Z" fill="#263238"/>
<path d="M204.084 167.123C204.084 167.123 204.155 159.809 201.492 160.773C198.83 161.737 204.084 167.123 204.084 167.123Z" fill="#407BFF"/>
<path d="M206.944 160.35C206.944 160.35 210.472 154.499 207.284 153.661C204.095 152.823 206.944 160.35 206.944 160.35Z" fill="#407BFF"/>
<path d="M220.887 156.221C220.887 156.221 228.212 155.843 226.557 153.098C224.902 150.354 220.887 156.221 220.887 156.221Z" fill="#407BFF"/>
<path d="M209.3 158.166C209.3 158.166 216.97 156.435 215.534 160.741C214.099 165.047 209.3 158.166 209.3 158.166Z" fill="#407BFF"/>
<path d="M203.727 173.736C203.727 173.736 200.796 167.096 199.153 169.457C197.509 171.818 203.727 173.736 203.727 173.736Z" fill="#407BFF"/>
<path d="M212.088 156.784C212.088 156.784 219.901 154.735 217.468 151.853C215.036 148.971 212.088 156.784 212.088 156.784Z" fill="#407BFF"/>
<path d="M217.994 155.979C217.994 155.979 224.173 159.014 221.325 160.997C218.476 162.98 217.994 155.979 217.994 155.979Z" fill="#407BFF"/>
<path d="M204.857 164.181C204.857 164.181 209.136 159.031 210.456 162.773C211.776 166.515 204.857 164.181 204.857 164.181Z" fill="#407BFF"/>
<g opacity="0.4">
<path d="M203.727 173.738C203.727 173.738 200.796 167.098 199.152 169.459C197.509 171.82 203.727 173.738 203.727 173.738Z" fill="white"/>
<path d="M212.087 156.786C212.087 156.786 219.9 154.737 217.467 151.855C215.035 148.973 212.087 156.786 212.087 156.786Z" fill="white"/>
<path d="M217.993 155.98C217.993 155.98 224.173 159.016 221.324 160.999C218.475 162.982 217.993 155.98 217.993 155.98Z" fill="white"/>
<path d="M204.855 164.183C204.855 164.183 209.134 159.033 210.454 162.775C211.774 166.517 204.855 164.183 204.855 164.183Z" fill="white"/>
</g>
<path d="M203.684 170.863C203.684 170.863 206.752 164.289 209.222 167.604C211.693 170.918 203.684 170.863 203.684 170.863Z" fill="#407BFF"/>
<path d="M203.734 177.778C202.804 173.494 202.938 169.048 204.123 164.827C206.632 156.609 214.329 154.675 222.109 155.919C222.728 156.017 222.454 156.949 221.84 156.85C217.71 156.193 213.075 156.127 209.475 158.625C206.9 160.428 205.443 163.293 204.742 166.295C203.919 169.997 203.899 173.832 204.682 177.543C204.808 178.156 203.865 178.397 203.734 177.784V177.778Z" fill="#407BFF"/>
<g opacity="0.3">
<path d="M203.734 177.778C202.804 173.494 202.938 169.048 204.123 164.827C206.632 156.609 214.329 154.675 222.109 155.919C222.728 156.017 222.454 156.949 221.84 156.85C217.71 156.193 213.075 156.127 209.475 158.625C206.9 160.428 205.443 163.293 204.742 166.295C203.919 169.997 203.899 173.832 204.682 177.543C204.808 178.156 203.865 178.397 203.734 177.784V177.778Z" fill="black"/>
</g>
<path d="M197.635 164.904C197.635 164.904 193.8 155.963 191.313 158.297C188.826 160.631 197.635 164.904 197.635 164.904Z" fill="#407BFF"/>
<path d="M197.307 155.395C197.307 155.395 198.217 146.733 194.141 147.105C190.065 147.478 197.307 155.395 197.307 155.395Z" fill="#407BFF"/>
<path d="M210.999 144.283C210.999 144.283 219.134 140.629 215.792 138.01C212.45 135.391 210.999 144.283 210.999 144.283Z" fill="#407BFF"/>
<path d="M198.831 151.707C198.831 151.707 206.659 146.228 207.3 152.123C207.941 158.018 198.831 151.707 198.831 151.707Z" fill="#407BFF"/>
<path d="M200.759 173.09C200.759 173.09 193.861 166.307 193.242 169.89C192.623 173.473 200.759 173.09 200.759 173.09Z" fill="#407BFF"/>
<path d="M201.267 148.808C201.267 148.808 209.08 142.902 204.773 140.453C200.467 138.004 201.267 148.808 201.267 148.808Z" fill="#407BFF"/>
<path d="M207.573 145.252C207.573 145.252 216.223 146.255 214.027 149.909C211.83 153.563 207.573 145.252 207.573 145.252Z" fill="#407BFF"/>
<path d="M196.961 160.963C196.961 160.963 199.098 152.828 202.593 156.811C206.089 160.794 196.961 160.963 196.961 160.963Z" fill="#407BFF"/>
<g opacity="0.4">
<path d="M200.76 173.088C200.76 173.088 193.863 166.306 193.244 169.889C192.625 173.471 200.76 173.088 200.76 173.088Z" fill="white"/>
<path d="M201.27 148.808C201.27 148.808 209.082 142.902 204.776 140.453C200.47 138.004 201.27 148.808 201.27 148.808Z" fill="white"/>
<path d="M207.575 145.252C207.575 145.252 216.226 146.255 214.029 149.909C211.832 153.563 207.575 145.252 207.575 145.252Z" fill="white"/>
<path d="M196.963 160.963C196.963 160.963 199.1 152.828 202.595 156.811C206.09 160.794 196.963 160.963 196.963 160.963Z" fill="white"/>
</g>
<path d="M199.187 169.615C199.187 169.615 199.187 160.263 203.756 163.227C208.325 166.191 199.187 169.615 199.187 169.615Z" fill="#407BFF"/>
<path d="M202.906 178.009C199.696 173.314 197.22 167.6 196.475 162.078C194.973 150.989 202.698 145.264 212.225 143.379C212.981 143.231 213.162 144.475 212.417 144.639C207.36 145.637 202.008 147.592 199.269 152.194C197.291 155.509 197.148 159.634 197.943 163.59C199 168.497 201.006 173.149 203.849 177.286C203.895 177.349 203.928 177.42 203.947 177.495C203.965 177.571 203.969 177.649 203.957 177.726C203.945 177.803 203.919 177.877 203.878 177.943C203.838 178.01 203.785 178.067 203.723 178.113C203.66 178.16 203.589 178.193 203.514 178.211C203.438 178.23 203.36 178.234 203.283 178.222C203.206 178.21 203.132 178.183 203.066 178.143C202.999 178.103 202.941 178.05 202.895 177.987L202.906 178.009Z" fill="#407BFF"/>
<g opacity="0.3">
<path d="M202.907 178.009C199.696 173.314 197.22 167.6 196.475 162.078C194.974 150.989 202.699 145.264 212.226 143.379C212.982 143.231 213.163 144.475 212.418 144.639C207.361 145.637 202.008 147.592 199.269 152.194C197.291 155.509 197.149 159.634 197.943 163.59C199 168.497 201.006 173.149 203.849 177.286C203.895 177.349 203.928 177.42 203.947 177.495C203.966 177.571 203.969 177.649 203.957 177.726C203.946 177.803 203.919 177.877 203.879 177.943C203.839 178.01 203.786 178.067 203.723 178.113C203.661 178.16 203.589 178.193 203.514 178.211C203.439 178.23 203.36 178.234 203.283 178.222C203.207 178.21 203.133 178.183 203.066 178.143C203 178.103 202.942 178.05 202.896 177.987L202.907 178.009Z" fill="black"/>
</g>
<path d="M196.727 167.254C196.727 167.254 198.546 161.189 200.496 162.668C202.447 164.147 196.727 167.254 196.727 167.254Z" fill="#407BFF"/>
<path d="M196.092 160.92C196.092 160.92 194.684 155.173 197.532 155.305C200.381 155.436 196.092 160.92 196.092 160.92Z" fill="#407BFF"/>
<path d="M185.632 153.947C185.632 153.947 179.677 151.756 181.753 149.909C183.83 148.063 185.632 153.947 185.632 153.947Z" fill="#407BFF"/>
<path d="M194.711 158.506C194.711 158.506 188.805 155.104 188.899 159.054C188.992 163.004 194.711 158.506 194.711 158.506Z" fill="#407BFF"/>
<path d="M195.319 172.806C195.319 172.806 199.472 168.089 200.223 170.455C200.973 172.822 195.319 172.806 195.319 172.806Z" fill="#407BFF"/>
<path d="M192.761 156.647C192.761 156.647 186.833 152.943 189.583 151.168C192.333 149.393 192.761 156.647 192.761 156.647Z" fill="#407BFF"/>
<path d="M188.081 154.496C188.081 154.496 182.197 155.416 184.044 157.783C185.89 160.15 188.081 154.496 188.081 154.496Z" fill="#407BFF"/>
<path d="M196.837 164.621C196.837 164.621 194.645 159.263 192.569 162.018C190.492 164.774 196.837 164.621 196.837 164.621Z" fill="#407BFF"/>
<g opacity="0.4">
<path d="M195.316 172.806C195.316 172.806 199.469 168.089 200.22 170.455C200.97 172.822 195.316 172.806 195.316 172.806Z" fill="white"/>
<path d="M192.759 156.649C192.759 156.649 186.831 152.945 189.582 151.17C192.332 149.395 192.759 156.649 192.759 156.649Z" fill="white"/>
<path d="M188.08 154.496C188.08 154.496 182.196 155.416 184.042 157.783C185.888 160.15 188.08 154.496 188.08 154.496Z" fill="white"/>
<path d="M196.834 164.621C196.834 164.621 194.643 159.263 192.566 162.018C190.49 164.774 196.834 164.621 196.834 164.621Z" fill="white"/>
</g>
<path d="M196.081 170.443C196.081 170.443 195.243 164.213 192.345 166.323C189.446 168.432 196.081 170.443 196.081 170.443Z" fill="#407BFF"/>
<path d="M194.266 176.142C196.137 172.843 197.168 169.135 197.269 165.344C197.307 157.915 191.451 154.332 184.701 153.356C184.153 153.28 184.153 154.123 184.701 154.2C188.284 154.715 192.146 155.844 194.458 158.846C196.102 160.994 196.595 163.738 196.403 166.395C196.131 169.667 195.161 172.843 193.56 175.709C193.297 176.18 194.014 176.624 194.283 176.147L194.266 176.142Z" fill="#407BFF"/>
<g opacity="0.3">
<path d="M194.268 176.142C196.138 172.843 197.169 169.135 197.27 165.344C197.309 157.915 191.452 154.332 184.702 153.356C184.155 153.28 184.155 154.123 184.702 154.2C188.285 154.715 192.148 155.844 194.46 158.846C196.103 160.994 196.596 163.738 196.405 166.395C196.132 169.667 195.163 172.843 193.561 175.709C193.298 176.18 194.016 176.624 194.284 176.147L194.268 176.142Z" fill="black"/>
</g>
<path d="M211.316 174.602L209.196 190.593C209.063 191.588 208.574 192.5 207.819 193.161C207.064 193.822 206.095 194.187 205.092 194.187H191.905C190.902 194.187 189.933 193.822 189.178 193.161C188.424 192.5 187.935 191.588 187.802 190.593L185.682 174.602H211.316Z" fill="#407BFF"/>
<path opacity="0.3" d="M211.316 174.602L209.196 190.593C209.063 191.588 208.574 192.5 207.819 193.161C207.064 193.822 206.095 194.187 205.092 194.187H191.905C190.902 194.187 189.933 193.822 189.178 193.161C188.424 192.5 187.935 191.588 187.802 190.593L185.682 174.602H211.316Z" fill="white"/>
<path d="M92.2518 143.885H88.6523V167.541H92.2518V143.885Z" fill="#263238"/>
<path opacity="0.5" d="M92.2518 143.885H88.6523V167.541H92.2518V143.885Z" fill="white"/>
<path d="M101.389 185.259L92.9574 183.736V166.807C92.9582 166.683 92.9342 166.559 92.8868 166.444C92.8394 166.328 92.7696 166.224 92.6815 166.135C92.5933 166.047 92.4885 165.977 92.3732 165.93C92.2579 165.883 92.1343 165.859 92.0097 165.859H88.8924C88.7674 165.859 88.6436 165.883 88.528 165.93C88.4123 165.977 88.3072 166.047 88.2186 166.135C88.13 166.223 88.0597 166.328 88.0118 166.443C87.9638 166.559 87.9391 166.682 87.9391 166.807V183.736L79.5131 185.259C78.9215 185.364 78.386 185.675 78.0003 186.136C77.6147 186.596 77.4035 187.178 77.4038 187.779L90.4483 186.601L103.498 187.779C103.497 187.179 103.286 186.597 102.9 186.137C102.515 185.676 101.98 185.366 101.389 185.259Z" fill="#263238"/>
<path d="M80.1431 190.337C80.1431 190.879 79.9825 191.408 79.6815 191.859C79.3805 192.309 78.9526 192.66 78.4521 192.868C77.9516 193.075 77.4008 193.129 76.8694 193.024C76.3381 192.918 75.85 192.657 75.4669 192.274C75.0838 191.891 74.8229 191.403 74.7172 190.871C74.6115 190.34 74.6657 189.789 74.8731 189.289C75.0804 188.788 75.4315 188.36 75.882 188.059C76.3324 187.758 76.8621 187.598 77.4038 187.598C78.1303 187.598 78.8271 187.886 79.3408 188.4C79.8545 188.914 80.1431 189.61 80.1431 190.337Z" fill="#407BFF"/>
<path d="M106.238 190.337C106.238 190.879 106.077 191.408 105.776 191.859C105.475 192.309 105.047 192.66 104.547 192.868C104.046 193.075 103.496 193.129 102.964 193.024C102.433 192.918 101.945 192.657 101.562 192.274C101.179 191.891 100.918 191.403 100.812 190.871C100.706 190.34 100.76 189.789 100.968 189.289C101.175 188.788 101.526 188.36 101.977 188.059C102.427 187.758 102.957 187.598 103.499 187.598C103.858 187.598 104.214 187.669 104.547 187.806C104.879 187.944 105.181 188.146 105.436 188.4C105.69 188.654 105.892 188.956 106.029 189.289C106.167 189.621 106.238 189.977 106.238 190.337Z" fill="#407BFF"/>
<path d="M92.5908 190.337C92.5908 191.849 91.9662 193.076 90.4487 193.076C88.9311 193.076 88.312 191.849 88.312 190.337C88.312 188.825 88.9366 187.598 90.4487 187.598C91.9607 187.598 92.5908 188.825 92.5908 190.337Z" fill="#407BFF"/>
<g opacity="0.5">
<path d="M93.041 183.746V186.836L94.06 186.929V183.932L93.041 183.746Z" fill="black"/>
<path d="M86.8667 183.927V186.924L87.8857 186.836V183.746L86.8667 183.927Z" fill="black"/>
</g>
<path d="M66.9513 122.336C66.7242 122.336 66.4999 122.386 66.2943 122.483C66.0887 122.579 65.9069 122.72 65.7616 122.895C65.6163 123.069 65.5112 123.273 65.4535 123.493C65.3959 123.713 65.3873 123.942 65.4282 124.166L68.7701 142.174C68.9212 142.992 69.3541 143.732 69.9936 144.264C70.6331 144.797 71.4388 145.088 72.2709 145.088H124.936C125.247 145.088 125.554 145.027 125.841 144.908C126.128 144.789 126.389 144.615 126.608 144.395C126.827 144.175 127.001 143.914 127.119 143.627C127.238 143.34 127.298 143.032 127.298 142.722C127.298 141.831 126.944 140.977 126.314 140.347C125.684 139.717 124.83 139.363 123.939 139.363H93.8894C93.0929 139.364 92.3193 139.097 91.6918 138.607C91.0643 138.116 90.619 137.43 90.4269 136.657L87.7369 125.798C87.4923 124.811 86.9241 123.933 86.1229 123.305C85.3216 122.678 84.3334 122.337 83.3157 122.336H66.9513Z" fill="#263238"/>
<path d="M74.0624 136.657L71.3725 125.798C71.1278 124.811 70.5596 123.933 69.7584 123.305C68.9571 122.678 67.969 122.337 66.9513 122.336C66.7242 122.336 66.4999 122.386 66.2943 122.483C66.0887 122.579 65.9069 122.72 65.7616 122.895C65.6163 123.069 65.5112 123.273 65.4535 123.493C65.3959 123.713 65.3873 123.942 65.4282 124.166L68.7701 142.174C68.9212 142.992 69.3541 143.732 69.9936 144.264C70.6331 144.797 71.4388 145.088 72.2709 145.088H108.566C108.877 145.089 109.186 145.028 109.473 144.91C109.76 144.791 110.022 144.617 110.242 144.397C110.461 144.177 110.636 143.916 110.754 143.628C110.873 143.341 110.934 143.033 110.933 142.722C110.932 141.831 110.577 140.978 109.948 140.349C109.318 139.719 108.465 139.365 107.575 139.363H77.5304C76.7327 139.366 75.9574 139.1 75.3285 138.61C74.6997 138.119 74.2539 137.431 74.0624 136.657Z" fill="#263238"/>
<path opacity="0.2" d="M74.0624 136.657L71.3725 125.798C71.1278 124.811 70.5596 123.933 69.7584 123.305C68.9571 122.678 67.969 122.337 66.9513 122.336C66.7242 122.336 66.4999 122.386 66.2943 122.483C66.0887 122.579 65.9069 122.72 65.7616 122.895C65.6163 123.069 65.5112 123.273 65.4535 123.493C65.3959 123.713 65.3873 123.942 65.4282 124.166L68.7701 142.174C68.9212 142.992 69.3541 143.732 69.9936 144.264C70.6331 144.797 71.4388 145.088 72.2709 145.088H108.566C108.877 145.089 109.186 145.028 109.473 144.91C109.76 144.791 110.022 144.617 110.242 144.397C110.461 144.177 110.636 143.916 110.754 143.628C110.873 143.341 110.934 143.033 110.933 142.722C110.932 141.831 110.577 140.978 109.948 140.349C109.318 139.719 108.465 139.365 107.575 139.363H77.5304C76.7327 139.366 75.9574 139.1 75.3285 138.61C74.6997 138.119 74.2539 137.431 74.0624 136.657Z" fill="white"/>
<path d="M96.3105 70.8105C96.3105 70.8105 102.304 72.5966 99.5046 77.0287L96.9022 73.2375L96.3105 70.8105Z" fill="#263238"/>
<path d="M117.901 93.6553L120.515 89.8203L123.101 90.6421L123.572 91.683L120.35 96.2905L117.901 93.6553Z" fill="#DBB178"/>
<path d="M121.775 94.6581C119.156 98.767 115.026 104.761 113.448 104.404C108.813 103.369 102.441 98.9806 99.1706 94.1595C98.6769 93.4322 98.4745 92.5459 98.6033 91.6763C98.7322 90.8067 99.183 90.0173 99.8664 89.4644V89.4315C100.223 89.1404 100.634 88.9224 101.075 88.7902C101.516 88.6579 101.978 88.6139 102.436 88.6607C102.894 88.7075 103.339 88.8442 103.744 89.063C104.149 89.2817 104.507 89.5783 104.797 89.9355C104.857 90.0068 104.912 90.0835 104.967 90.1602C107.865 94.3184 111.541 98.263 112.144 98.5971C112.851 99.0026 114.686 97.2659 118.57 92.3571L121.775 94.6581Z" fill="#407BFF"/>
<path opacity="0.6" d="M121.775 94.6581C119.156 98.767 115.026 104.761 113.448 104.404C108.813 103.369 102.441 98.9806 99.1706 94.1595C98.6769 93.4322 98.4745 92.5459 98.6033 91.6763C98.7322 90.8067 99.183 90.0173 99.8664 89.4644V89.4315C100.223 89.1404 100.634 88.9224 101.075 88.7902C101.516 88.6579 101.978 88.6139 102.436 88.6607C102.894 88.7075 103.339 88.8442 103.744 89.063C104.149 89.2817 104.507 89.5783 104.797 89.9355C104.857 90.0068 104.912 90.0835 104.967 90.1602C107.865 94.3184 111.541 98.263 112.144 98.5971C112.851 99.0026 114.686 97.2659 118.57 92.3571L121.775 94.6581Z" fill="white"/>
<path d="M121.834 91.3431L127.012 92.3566L124.601 88.0176C124.601 88.0176 121.467 88.0176 120.514 89.82L121.834 91.3431Z" fill="#DBB178"/>
<path opacity="0.2" d="M106.841 101.409C103.089 98.8445 102.59 92.8291 102.59 92.8291L100.464 91.8594L99.4453 94.5658C101.482 97.2707 103.987 99.5883 106.841 101.409Z" fill="black"/>
<path d="M130.672 90.5009L128.458 86.9727L124.607 88.0191L127.012 92.3581L130.672 90.5009Z" fill="#DBB178"/>
<path d="M101.92 114.578L83.5556 115.783C83.5556 115.783 83.4242 110.853 82.7832 106.311C82.5843 104.73 82.2693 103.166 81.8408 101.632C81.3642 100.065 80.7451 98.3066 80.0329 96.2631C79.9398 96.0111 79.8467 95.7591 79.7426 95.4961C79.5015 94.8606 79.255 94.1977 78.9756 93.5074V93.4745C78.7274 92.7999 78.7543 92.0549 79.0505 91.4C79.3467 90.7451 79.8884 90.2328 80.5589 89.9737C80.6851 89.9246 80.8152 89.8861 80.9478 89.8587C82.1148 89.6121 83.2927 89.3875 84.487 89.2012L85.517 89.0478C88.2668 88.6381 91.0382 88.3893 93.817 88.3027C95.2579 88.3027 96.7973 88.3466 98.1122 88.4068L99.2079 88.4616C100.599 88.5438 101.564 88.6315 101.564 88.6315C101.564 88.6315 102.166 88.752 102.522 91.9789C102.53 92.1624 102.549 92.3453 102.577 92.5267C102.621 93.1951 102.659 94.0388 102.676 95.0523C102.731 99.1941 102.484 106.146 101.92 114.578Z" fill="#407BFF"/>
<path opacity="0.6" d="M101.92 114.578L83.5556 115.783C83.5556 115.783 83.4242 110.853 82.7832 106.311C82.5843 104.73 82.2693 103.166 81.8408 101.632C81.3642 100.065 80.7451 98.3066 80.0329 96.2631C79.9398 96.0111 79.8467 95.7591 79.7426 95.4961C79.5015 94.8606 79.255 94.1977 78.9756 93.5074V93.4745C78.7274 92.7999 78.7543 92.0549 79.0505 91.4C79.3467 90.7451 79.8884 90.2328 80.5589 89.9737C80.6851 89.9246 80.8152 89.8861 80.9478 89.8587C82.1148 89.6121 83.2927 89.3875 84.487 89.2012L85.517 89.0478C88.2668 88.6381 91.0382 88.3893 93.817 88.3027C95.2579 88.3027 96.7973 88.3466 98.1122 88.4068L99.2079 88.4616C100.599 88.5438 101.564 88.6315 101.564 88.6315C101.564 88.6315 102.166 88.752 102.522 91.9789C102.53 92.1624 102.549 92.3453 102.577 92.5267C102.621 93.1951 102.659 94.0388 102.676 95.0523C102.731 99.1941 102.484 106.146 101.92 114.578Z" fill="white"/>
<path d="M86.1582 88.9601L90.7383 95.0632L94.0254 92.2473L98.2987 94.3072L95.9867 88.3301C95.2745 88.3301 94.5404 88.3301 93.8337 88.3301C91.2656 88.3995 88.7032 88.6099 86.1582 88.9601Z" fill="#407BFF"/>
<path opacity="0.9" d="M86.1582 88.9601L90.7383 95.0632L94.0254 92.2473L98.2987 94.3072L95.9867 88.3301C95.2745 88.3301 94.5404 88.3301 93.8337 88.3301C91.2656 88.3995 88.7032 88.6099 86.1582 88.9601Z" fill="white"/>
<path d="M126.694 188.228H122.788L124.568 158.742H131.877L126.694 188.228Z" fill="#DBB178"/>
<path d="M122.356 187.856C122.312 187.483 126.975 187.133 126.975 187.133C126.975 187.133 130.218 189.631 133.067 189.872C135.916 190.113 134.606 192.003 131.522 192.431L123.89 193.526C121.699 193.85 122.806 191.751 122.356 187.856Z" fill="#263238"/>
<path d="M129.313 188.012C128.718 187.977 128.131 187.865 127.565 187.678C127.543 187.673 127.522 187.661 127.505 187.645C127.494 187.608 127.494 187.568 127.505 187.53C127.505 187.481 127.762 186.325 128.36 185.985C128.449 185.931 128.549 185.896 128.653 185.884C128.757 185.872 128.863 185.882 128.962 185.914C129.253 186.002 129.329 186.166 129.335 186.281C129.335 186.517 129.11 186.78 128.787 187.021C129.099 186.933 129.428 186.933 129.74 187.021C129.808 187.046 129.87 187.085 129.923 187.135C129.975 187.185 130.018 187.245 130.047 187.311C130.093 187.397 130.112 187.495 130.104 187.592C130.095 187.69 130.058 187.782 129.998 187.859C129.798 187.998 129.552 188.053 129.313 188.012ZM128.058 187.519C128.76 187.7 129.581 187.821 129.762 187.623C129.806 187.585 129.795 187.503 129.762 187.404C129.749 187.372 129.729 187.343 129.703 187.32C129.678 187.296 129.647 187.278 129.614 187.267C129.082 187.204 128.543 187.291 128.058 187.519ZM128.694 186.15C128.612 186.149 128.533 186.172 128.464 186.215C128.152 186.487 127.931 186.849 127.834 187.251C128.436 186.906 129.039 186.473 129.039 186.287C129.039 186.254 128.973 186.21 128.869 186.172C128.812 186.156 128.753 186.148 128.694 186.15Z" fill="#407BFF"/>
<path opacity="0.2" d="M124.256 163.898L130.935 164.1L131.877 158.742H124.569L124.256 163.898Z" fill="black"/>
<path d="M107.948 188.725L104.206 188.227L110.128 155.58L117.513 157.689L107.948 188.725Z" fill="#DBB178"/>
<path d="M103.718 187.708C103.718 187.324 108.386 187.708 108.386 187.708C108.386 187.708 111.218 190.661 113.996 191.323C116.773 191.986 115.201 193.668 112.089 193.624L104.375 193.531C102.145 193.509 103.57 191.641 103.718 187.708Z" fill="#263238"/>
<path d="M110.84 188.924C110.157 188.84 109.495 188.636 108.884 188.321L108.846 188.288C108.843 188.282 108.842 188.276 108.842 188.269C108.842 188.263 108.843 188.256 108.846 188.25C108.837 188.233 108.833 188.214 108.833 188.195C108.833 188.176 108.837 188.158 108.846 188.141C108.846 188.097 109.273 187.001 109.941 186.743C110.036 186.7 110.139 186.678 110.243 186.678C110.347 186.678 110.449 186.7 110.544 186.743C110.818 186.88 110.867 187.045 110.856 187.16C110.856 187.395 110.56 187.62 110.215 187.806C110.537 187.767 110.863 187.818 111.157 187.954C111.221 187.988 111.276 188.034 111.319 188.091C111.363 188.148 111.394 188.213 111.41 188.283C111.445 188.372 111.451 188.47 111.429 188.563C111.406 188.656 111.356 188.74 111.283 188.803C111.155 188.896 110.997 188.939 110.84 188.924ZM109.377 188.223C110.045 188.508 110.84 188.771 111.021 188.584C111.064 188.551 111.075 188.475 111.021 188.365C111.012 188.333 110.997 188.302 110.976 188.276C110.956 188.249 110.93 188.228 110.9 188.212C110.4 188.082 109.875 188.086 109.377 188.223ZM110.144 186.963C110.084 186.965 110.024 186.978 109.969 187.001C109.624 187.22 109.354 187.539 109.196 187.916C109.865 187.669 110.495 187.313 110.506 187.138C110.506 187.105 110.451 187.05 110.358 187.006C110.299 186.977 110.236 186.959 110.171 186.952L110.144 186.963Z" fill="#407BFF"/>
<path opacity="0.2" d="M117.513 157.689L110.128 155.58L108.961 162.017L115.798 163.25L117.513 157.689Z" fill="black"/>
<path d="M122.635 161.273L132.031 161.766C134.436 150.689 136.835 138.477 136.359 135.798C135.455 130.665 128.48 125.438 101.405 121.006L88.8047 139.94C88.8047 139.94 107.235 139.08 124.032 139.08C124.026 139.091 123.09 149.631 122.635 161.273Z" fill="#407BFF"/>
<path opacity="0.1" d="M122.635 161.273L132.031 161.766C134.436 150.689 136.835 138.477 136.359 135.798C135.455 130.665 128.48 125.438 101.405 121.006L88.8047 139.94C88.8047 139.94 107.235 139.08 124.032 139.08C124.026 139.091 123.09 149.631 122.635 161.273Z" fill="black"/>
<path d="M122.006 159.799L122.286 162.259L132.58 162.609L133.084 160.347L122.006 159.799Z" fill="#407BFF"/>
<path d="M95.4071 88.3203H93.8183C91.5392 88.3915 89.2656 88.5778 87.0029 88.8682C87.9891 90.0461 91.0626 91.8814 93.1225 91.8814C95.9987 91.8595 95.3577 89.7228 95.4071 88.3203Z" fill="#DBB178"/>
<path d="M108.03 159.367L117.633 160.928C121.534 150.01 125.435 138.389 125.369 135.771C125.238 130.555 124.093 127.849 105.23 123.641C105.23 123.641 104.227 122.178 101.943 114.602L83.5568 115.807C83.5568 115.807 75.1691 131.256 81.6612 137.853C83.0966 139.321 85.918 139.978 88.7833 139.951C88.7833 139.951 95.4124 139.984 111.793 139.217C111.799 139.217 109.854 148.563 108.03 159.367Z" fill="#407BFF"/>
<path d="M107.645 157.689L118.772 159.569L117.715 161.908L107.596 160.248L107.645 157.689Z" fill="#407BFF"/>
<path opacity="0.1" d="M122.006 159.799L122.286 162.259L132.58 162.609L133.084 160.347L122.006 159.799Z" fill="black"/>
<path d="M94.0148 86.7373C93.8034 88.09 93.8593 89.4711 94.1792 90.8024L89.1444 90.0627C89.0359 90.0467 88.9326 90.0059 88.8425 89.9434C88.7524 89.881 88.678 89.7985 88.6249 89.7026C88.5719 89.6066 88.5418 89.4997 88.5369 89.3902C88.5319 89.2807 88.5523 89.1715 88.5965 89.0711C89.2868 87.5043 89.5608 84.3486 89.7306 82.8968C89.8237 82.0202 89.8621 81.2203 89.8676 80.6615C89.873 80.1027 89.8676 79.8945 89.8676 79.8945L92.1193 80.9245L95.7954 82.6064C94.9479 83.8594 94.3439 85.2608 94.0148 86.7373Z" fill="#DBB178"/>
<path opacity="0.2" d="M95.8064 82.6054C94.9508 83.8572 94.3375 85.2584 93.9985 86.7363C92.1614 86.0077 90.6443 84.648 89.7197 82.9013C89.8183 82.0247 89.8567 81.2248 89.8622 80.666C90.662 80.7482 91.4071 80.8304 92.1193 80.929L95.8064 82.6054Z" fill="black"/>
<path d="M96.0751 79.0109C95.9272 80.6928 96.7874 82.0515 97.9926 82.0515C99.1979 82.0515 100.299 80.6928 100.447 79.0109C100.595 77.329 99.7348 75.9648 98.5295 75.9648C97.3243 75.9648 96.2231 77.329 96.0751 79.0109Z" fill="#407BFF"/>
<path opacity="0.5" d="M95.8613 79.0109C95.7134 80.6928 96.5735 82.0515 97.7788 82.0515C98.9841 82.0515 100.08 80.6928 100.228 79.0109C100.376 77.329 99.5155 75.9648 98.3102 75.9648C97.1049 75.9648 96.0037 77.329 95.8613 79.0109Z" fill="black"/>
<path d="M87.4304 76.0544C88.3289 80.1743 88.6412 82.6287 91.0737 84.5079C91.8578 85.1307 92.7977 85.5266 93.7912 85.6527C94.7847 85.7788 95.7937 85.6302 96.7086 85.223C97.6235 84.8158 98.4093 84.1656 98.9805 83.3431C99.5518 82.5207 99.8868 81.5573 99.9489 80.5578C100.272 76.7228 98.7491 70.6252 94.4101 69.4583C93.4775 69.1798 92.488 69.1518 91.5411 69.377C90.5942 69.6023 89.7233 70.0728 89.0159 70.7413C88.3086 71.4098 87.7896 72.2528 87.5113 73.1854C87.233 74.1181 87.2051 75.1076 87.4304 76.0544Z" fill="#DBB178"/>
<path d="M86.4771 80.3536C87.1443 81.1589 88.0695 81.7086 89.0959 81.9095C90.3943 82.1286 90.6901 80.9288 90.0272 79.7619C89.4355 78.7155 88.0385 77.3404 86.877 77.6472C85.7156 77.954 85.6389 79.34 86.4771 80.3536Z" fill="#DBB178"/>
<path d="M93.9337 76.4592C93.9884 76.7988 94.2076 77.0509 94.4322 77.007C94.6568 76.9632 94.7883 76.6838 94.739 76.3496C94.6897 76.0154 94.4651 75.7579 94.2405 75.8017C94.0158 75.8456 93.8844 76.1195 93.9337 76.4592Z" fill="#263238"/>
<path d="M97.8004 76.0028C97.8497 76.3424 98.0743 76.5945 98.2934 76.5506C98.5126 76.5068 98.655 76.2274 98.6057 75.8877C98.5564 75.5481 98.3263 75.3015 98.1072 75.3399C97.888 75.3782 97.7182 75.6631 97.8004 76.0028Z" fill="#263238"/>
<path d="M96.5791 76.3164C97.146 77.3035 97.8404 78.2116 98.6445 79.0173C98.4349 79.2102 98.1853 79.3545 97.9135 79.4397C97.6417 79.525 97.3544 79.5491 97.0722 79.5104L96.5791 76.3164Z" fill="#C0854B"/>
<path d="M92.5571 75.3683C92.5246 75.3756 92.491 75.3756 92.4585 75.3683C92.4351 75.3557 92.4145 75.3385 92.3978 75.3178C92.3812 75.2971 92.369 75.2732 92.3618 75.2476C92.3546 75.222 92.3527 75.1953 92.3561 75.1689C92.3596 75.1426 92.3683 75.1172 92.3818 75.0943C92.5291 74.8148 92.7433 74.576 93.0051 74.3991C93.267 74.2223 93.5686 74.113 93.8829 74.0808C93.909 74.0785 93.9353 74.0816 93.9601 74.0899C93.9849 74.0982 94.0078 74.1115 94.0273 74.1289C94.0468 74.1464 94.0625 74.1676 94.0735 74.1914C94.0845 74.2151 94.0905 74.2409 94.0911 74.2671C94.0933 74.2934 94.0903 74.3199 94.082 74.3451C94.0738 74.3702 94.0606 74.3934 94.0433 74.4134C94.0259 74.4333 94.0047 74.4495 93.9809 74.4611C93.9571 74.4727 93.9312 74.4793 93.9048 74.4807C93.6577 74.5086 93.4212 74.5972 93.2167 74.7387C93.0121 74.8802 92.8457 75.0701 92.7324 75.2915C92.7118 75.3178 92.685 75.3385 92.6544 75.3519C92.6238 75.3653 92.5904 75.3709 92.5571 75.3683Z" fill="#263238"/>
<path d="M99.2201 74.5085C99.1874 74.5096 99.155 74.5021 99.1262 74.4867C99.0973 74.4713 99.073 74.4486 99.0557 74.4208C98.9167 74.2043 98.7298 74.0225 98.5094 73.8895C98.2891 73.7565 98.0411 73.6759 97.7847 73.6538C97.7374 73.646 97.6943 73.6216 97.6633 73.5849C97.6323 73.5483 97.6152 73.5019 97.6152 73.4539C97.6152 73.4059 97.6323 73.3594 97.6633 73.3228C97.6943 73.2862 97.7374 73.2618 97.7847 73.2539C98.1064 73.2752 98.4187 73.3715 98.6964 73.5352C98.9742 73.6988 99.2099 73.9252 99.3845 74.1962C99.4144 74.24 99.4261 74.2937 99.4168 74.346C99.4076 74.3982 99.3783 74.4448 99.3352 74.4756C99.3004 74.4965 99.2607 74.5079 99.2201 74.5085Z" fill="#263238"/>
<path d="M88.2354 81.4721C88.2354 81.4721 90.8542 78.7931 89.5722 72.2188C89.5722 72.2188 91.6815 74.0103 96.5793 72.6845C96.5793 72.6845 93.6811 72.9694 92.3553 71.5888C92.3553 71.5888 95.0563 72.8434 99.4227 71.5888C99.4227 71.5888 98.6447 67.1676 93.9441 66.943C93.9441 66.943 95.4617 65.6665 96.9244 65.913C96.9244 65.913 95.4288 64.6255 91.6321 67.1292L90.131 67.7428C90.131 67.7428 85.9016 66.2198 83.5567 69.8028C81.6886 72.6352 82.6254 81.5543 88.2354 81.4721Z" fill="#263238"/>
<path d="M97.8391 80.2601C97.8391 80.2601 96.5132 79.9259 92.7769 79.8438C93.1932 80.9778 93.9876 81.9146 95.9051 81.9366C96.144 81.9631 96.3859 81.94 96.6154 81.8685C96.845 81.7971 97.0572 81.6789 97.2389 81.5215C97.4205 81.364 97.5676 81.1707 97.6709 80.9536C97.7742 80.7365 97.8315 80.5004 97.8391 80.2601Z" fill="#263238"/>
<path d="M95.061 81.0326C95.7975 81.0056 96.5238 81.2107 97.1374 81.6188C96.7789 81.8481 96.3568 81.9575 95.9321 81.9311C95.1986 81.9617 94.4747 81.7563 93.8667 81.3448C94.2221 81.1177 94.64 81.0085 95.061 81.0326Z" fill="#A02724"/>
<path d="M97.6687 80.2297C97.6297 80.3674 97.5532 80.4915 97.4477 80.5882C97.3423 80.6849 97.2121 80.7505 97.0715 80.7776C95.968 80.752 94.8685 80.6347 93.7844 80.4269C93.6111 80.4116 93.4443 80.3535 93.299 80.2579C93.1537 80.1623 93.0343 80.0321 92.9517 79.8791C94.5307 79.8739 96.1078 79.9912 97.6687 80.2297Z" fill="white"/>
<path d="M86.2026 77.4727V73.0515C86.2023 71.743 86.6245 70.4693 87.4063 69.42C88.1881 68.3707 89.2877 67.6019 90.5417 67.2278L92.0209 66.9648C90.7351 67.3484 89.6076 68.1368 88.806 69.2128C88.0045 70.2887 87.5718 71.5948 87.5723 72.9365V77.4727H86.2026Z" fill="#407BFF"/>
<path d="M89.6392 79.6164C89.7872 81.2983 88.927 82.657 87.7217 82.657C86.5165 82.657 85.4153 81.2983 85.2728 79.6164C85.1304 77.9345 85.985 76.5703 87.1903 76.5703C88.3956 76.5703 89.4913 77.9345 89.6392 79.6164Z" fill="#407BFF"/>
<path opacity="0.5" d="M89.6392 79.6164C89.7872 81.2983 88.927 82.657 87.7217 82.657C86.5165 82.657 85.4153 81.2983 85.2728 79.6164C85.1304 77.9345 85.985 76.5703 87.1903 76.5703C88.3956 76.5703 89.4913 77.9345 89.6392 79.6164Z" fill="black"/>
<path d="M88.909 79.6164C89.0514 81.2983 88.1967 82.657 86.986 82.657C85.7752 82.657 84.685 81.2983 84.5371 79.6164C84.3891 77.9345 85.2493 76.5703 86.4546 76.5703C87.6598 76.5703 88.761 77.9345 88.909 79.6164Z" fill="#407BFF"/>
<path opacity="0.3" d="M87.3923 80.059L87.2937 79.1715H87.4635C87.2444 78.3004 86.6308 77.6484 85.9569 77.6484C85.283 77.6484 84.79 78.3004 84.7188 79.1715H84.8338L84.9324 80.059H84.8009C85.0201 80.9301 85.6337 81.5766 86.3021 81.5766C86.9704 81.5766 87.4745 80.9301 87.5402 80.059H87.3923Z" fill="white"/>
<path d="M79.5181 79.987L81.9122 75.2754L83.8461 79.8445C83.8461 79.8445 81.9067 82.3099 79.907 81.9538L79.5181 79.987Z" fill="#DBB178"/>
<path d="M85.6325 73.5391L87.0405 77.4562L83.8411 79.8449L81.9126 75.2758L85.6325 73.5391Z" fill="#DBB178"/>
<path d="M80.1492 85.0595L82.4502 81.1861L82.2092 79.6083L80.1821 78.8906L77.2949 83.383L80.1492 85.0595Z" fill="#DBB178"/>
<path d="M81.8087 82.6503L77.6067 91.8981C77.6067 91.8981 79.6502 90.0628 80.7788 89.7998C82.5757 89.378 87.9995 91.016 82.5045 96.9822C82.5045 96.9822 71.6241 103.781 69.4053 101.146C67.6795 99.0969 75.0098 86.6441 78.3682 81.1875L81.8087 82.6503Z" fill="#407BFF"/>
<path opacity="0.6" d="M81.8087 82.6503L77.6067 91.8981C77.6067 91.8981 79.6502 90.0628 80.7788 89.7998C82.5757 89.378 87.9995 91.016 82.5045 96.9822C82.5045 96.9822 71.6241 103.781 69.4053 101.146C67.6795 99.0969 75.0098 86.6441 78.3682 81.1875L81.8087 82.6503Z" fill="white"/>
<path opacity="0.2" d="M77.606 91.8987L76.4336 95.5091L79.8741 90.2168C79.0717 90.712 78.3129 91.2747 77.606 91.8987Z" fill="black"/>
<path d="M93.3469 83.6962C92.8868 83.7079 92.4267 83.6786 91.9718 83.6086C90.7993 83.187 89.6648 82.6665 88.5806 82.0527L88.7997 81.6582C89.8526 82.2489 90.952 82.7528 92.0869 83.1648C93.2536 83.2614 94.4264 83.2614 95.5931 83.1648L95.626 83.6195C95.5383 83.6195 94.3878 83.6962 93.3469 83.6962Z" fill="#407BFF"/>
<path d="M93.8398 83.7898L96.0313 83.6254C96.0313 83.6254 95.971 82.9461 94.9356 82.9735C93.9001 83.0009 93.8398 83.7898 93.8398 83.7898Z" fill="#407BFF"/>
<g opacity="0.5">
<path d="M93.3469 83.6962C92.8868 83.7079 92.4267 83.6786 91.9718 83.6086C90.7993 83.187 89.6648 82.6665 88.5806 82.0527L88.7997 81.6582C89.8526 82.2489 90.952 82.7528 92.0869 83.1648C93.2536 83.2614 94.4264 83.2614 95.5931 83.1648L95.626 83.6195C95.5383 83.6195 94.3878 83.6962 93.3469 83.6962Z" fill="black"/>
<path d="M93.8398 83.7898L96.0313 83.6254C96.0313 83.6254 95.971 82.9461 94.9356 82.9735C93.9001 83.0009 93.8398 83.7898 93.8398 83.7898Z" fill="black"/>
</g>
<path d="M181.106 193.69C180.991 193.694 180.876 193.676 180.768 193.636C180.66 193.596 180.561 193.535 180.477 193.456C180.392 193.378 180.324 193.284 180.276 193.179C180.228 193.074 180.201 192.961 180.197 192.846L174.718 129.415C174.709 128.868 174.495 128.344 174.119 127.947C173.743 127.549 173.231 127.307 172.686 127.268H146.805C146.259 127.307 145.748 127.549 145.372 127.947C144.996 128.344 144.782 128.868 144.772 129.415L139.294 192.846C139.293 192.963 139.269 193.08 139.222 193.187C139.176 193.295 139.108 193.393 139.024 193.474C138.939 193.555 138.838 193.619 138.729 193.66C138.619 193.702 138.502 193.721 138.384 193.717C138.148 193.669 137.938 193.532 137.8 193.334C137.661 193.137 137.604 192.893 137.639 192.654L143.118 129.218C143.31 126.999 144.893 125.328 146.805 125.328H172.686C174.598 125.328 176.181 126.999 176.373 129.218L181.851 192.654C181.887 192.893 181.83 193.137 181.691 193.334C181.552 193.532 181.343 193.669 181.106 193.717V193.69Z" fill="#407BFF"/>
<g opacity="0.4">
<path d="M181.106 193.69C180.991 193.694 180.876 193.676 180.768 193.636C180.66 193.596 180.561 193.535 180.477 193.456C180.392 193.378 180.324 193.284 180.276 193.179C180.228 193.074 180.201 192.961 180.197 192.846L174.718 129.415C174.709 128.868 174.495 128.344 174.119 127.947C173.743 127.549 173.231 127.307 172.686 127.268H146.805C146.259 127.307 145.748 127.549 145.372 127.947C144.996 128.344 144.782 128.868 144.772 129.415L139.294 192.846C139.293 192.963 139.269 193.08 139.222 193.187C139.176 193.295 139.108 193.393 139.024 193.474C138.939 193.555 138.838 193.619 138.729 193.66C138.619 193.702 138.502 193.721 138.384 193.717C138.148 193.669 137.938 193.532 137.8 193.334C137.661 193.137 137.604 192.893 137.639 192.654L143.118 129.218C143.31 126.999 144.893 125.328 146.805 125.328H172.686C174.598 125.328 176.181 126.999 176.373 129.218L181.851 192.654C181.887 192.893 181.83 193.137 181.691 193.334C181.552 193.532 181.343 193.669 181.106 193.717V193.69Z" fill="black"/>
</g>
<path d="M180.746 122.582H110.395C109.781 122.582 109.283 123.08 109.283 123.694V127.299C109.283 127.913 109.781 128.411 110.395 128.411H180.746C181.36 128.411 181.858 127.913 181.858 127.299V123.694C181.858 123.08 181.36 122.582 180.746 122.582Z" fill="#263238"/>
<path opacity="0.2" d="M150.012 122.582H180.746C181.037 122.582 181.316 122.697 181.521 122.903C181.727 123.108 181.842 123.387 181.842 123.678V127.283C181.842 127.573 181.727 127.852 181.521 128.057C181.316 128.263 181.037 128.378 180.746 128.378H150.012V122.582Z" fill="white"/>
<path d="M152.761 193.69C152.643 193.695 152.526 193.676 152.415 193.635C152.305 193.593 152.204 193.53 152.118 193.449C152.033 193.367 151.965 193.27 151.918 193.161C151.871 193.053 151.847 192.937 151.846 192.819L146.368 129.388C146.358 128.841 146.144 128.317 145.768 127.92C145.392 127.522 144.881 127.28 144.335 127.24H118.454C117.91 127.281 117.4 127.524 117.025 127.921C116.65 128.319 116.437 128.842 116.427 129.388L110.949 192.846C110.948 192.963 110.924 193.08 110.877 193.188C110.831 193.295 110.763 193.393 110.678 193.474C110.594 193.555 110.493 193.619 110.384 193.661C110.274 193.702 110.157 193.722 110.039 193.717C109.799 193.667 109.588 193.525 109.451 193.321C109.314 193.117 109.261 192.868 109.305 192.627L114.784 129.191C114.975 126.972 116.564 125.301 118.471 125.301H144.351C146.264 125.301 147.847 126.972 148.039 129.191L153.517 192.627C153.553 192.865 153.496 193.108 153.359 193.305C153.221 193.503 153.013 193.641 152.778 193.69H152.761Z" fill="#407BFF"/>
<g opacity="0.4">
<path d="M152.761 193.69C152.643 193.695 152.526 193.676 152.415 193.635C152.305 193.593 152.204 193.53 152.118 193.449C152.033 193.367 151.965 193.27 151.918 193.161C151.871 193.053 151.847 192.937 151.846 192.819L146.368 129.388C146.358 128.841 146.144 128.317 145.768 127.92C145.392 127.522 144.881 127.28 144.335 127.24H118.454C117.91 127.281 117.4 127.524 117.025 127.921C116.65 128.319 116.437 128.842 116.427 129.388L110.949 192.846C110.948 192.963 110.924 193.08 110.877 193.188C110.831 193.295 110.763 193.393 110.678 193.474C110.594 193.555 110.493 193.619 110.384 193.661C110.274 193.702 110.157 193.722 110.039 193.717C109.799 193.667 109.588 193.525 109.451 193.321C109.314 193.117 109.261 192.868 109.305 192.627L114.784 129.191C114.975 126.972 116.564 125.301 118.471 125.301H144.351C146.264 125.301 147.847 126.972 148.039 129.191L153.517 192.627C153.553 192.865 153.496 193.108 153.359 193.305C153.221 193.503 153.013 193.641 152.778 193.69H152.761Z" fill="black"/>
</g>
<path d="M132.497 119.713H152.8V121.625C152.8 121.879 152.699 122.123 152.519 122.303C152.34 122.483 152.096 122.584 151.841 122.584H133.455C133.201 122.584 132.957 122.483 132.777 122.303C132.598 122.123 132.497 121.879 132.497 121.625V119.724V119.713Z" fill="#263238"/>
<path opacity="0.2" d="M132.497 119.713H152.8V121.625C152.8 121.879 152.699 122.123 152.519 122.303C152.34 122.483 152.096 122.584 151.841 122.584H133.455C133.201 122.584 132.957 122.483 132.777 122.303C132.598 122.123 132.497 121.879 132.497 121.625V119.724V119.713Z" fill="white"/>
<path d="M118.136 119.713H138.439V121.625C138.439 121.879 138.338 122.123 138.158 122.303C137.979 122.483 137.735 122.584 137.481 122.584H119.094C118.84 122.584 118.596 122.483 118.417 122.303C118.237 122.123 118.136 121.879 118.136 121.625V119.724V119.713Z" fill="#263238"/>
<path opacity="0.6" d="M118.136 119.713H138.439V121.625C138.439 121.879 138.338 122.123 138.158 122.303C137.979 122.483 137.735 122.584 137.481 122.584H119.094C118.84 122.584 118.596 122.483 118.417 122.303C118.237 122.123 118.136 121.879 118.136 121.625V119.724V119.713Z" fill="white"/>
<path d="M136.09 120.805H134.206V121.484H136.09V120.805Z" fill="#263238"/>
<path d="M133.071 120.805H131.186V121.484H133.071V120.805Z" fill="#263238"/>
<path d="M154.229 122.584H155.199C155.464 122.578 155.719 122.48 155.919 122.305C156.12 122.131 156.252 121.892 156.295 121.63L159.582 101.42C159.608 101.26 159.599 101.095 159.556 100.939C159.513 100.782 159.437 100.636 159.334 100.511C159.23 100.386 159.101 100.285 158.954 100.214C158.808 100.143 158.649 100.104 158.486 100.1L142.724 100.072L138.462 122.534H139.432L154.229 122.584Z" fill="#263238"/>
<path opacity="0.6" d="M154.229 122.584H155.199C155.464 122.578 155.719 122.48 155.919 122.305C156.12 122.131 156.252 121.892 156.295 121.63L159.582 101.42C159.608 101.26 159.599 101.095 159.556 100.939C159.513 100.782 159.437 100.636 159.334 100.511C159.23 100.386 159.101 100.285 158.954 100.214C158.808 100.143 158.649 100.104 158.486 100.1L142.724 100.072L138.462 122.534H139.432L154.229 122.584Z" fill="white"/>
<path opacity="0.2" d="M138.708 121.121L138.434 122.556H139.403L154.195 122.584H155.165C155.43 122.578 155.685 122.48 155.886 122.306C156.086 122.131 156.219 121.893 156.261 121.631L156.338 121.154L138.708 121.121Z" fill="black"/>
<path d="M138.457 122.572H139.438C139.703 122.566 139.958 122.468 140.158 122.293C140.358 122.119 140.491 121.88 140.533 121.618L143.821 101.397C143.846 101.237 143.838 101.073 143.795 100.916C143.752 100.76 143.676 100.614 143.572 100.49C143.468 100.365 143.339 100.264 143.193 100.194C143.047 100.124 142.887 100.085 142.725 100.082L138.457 122.572Z" fill="#263238"/>
<path opacity="0.3" d="M138.457 122.572H139.438C139.703 122.566 139.958 122.468 140.158 122.293C140.358 122.119 140.491 121.88 140.533 121.618L143.821 101.397C143.846 101.237 143.838 101.073 143.795 100.916C143.752 100.76 143.676 100.614 143.572 100.49C143.468 100.365 143.339 100.264 143.193 100.194C143.047 100.124 142.887 100.085 142.725 100.082L138.457 122.572Z" fill="white"/>
</svg>
