<svg width="240" height="205" viewBox="0 0 240 205" fill="none" xmlns="http://www.w3.org/2000/svg">
<path d="M113.787 183.319C138.206 183.319 158.001 180.49 158.001 177C158.001 173.511 138.206 170.682 113.787 170.682C89.3687 170.682 69.5736 173.511 69.5736 177C69.5736 180.49 89.3687 183.319 113.787 183.319Z" fill="#407BFF"/>
<path opacity="0.5" d="M113.787 183.319C138.206 183.319 158.001 180.49 158.001 177C158.001 173.511 138.206 170.682 113.787 170.682C89.3687 170.682 69.5736 173.511 69.5736 177C69.5736 180.49 89.3687 183.319 113.787 183.319Z" fill="white"/>
<path d="M210.944 198.169C224.66 198.169 235.78 195.34 235.78 191.85C235.78 188.36 224.66 185.531 210.944 185.531C197.227 185.531 186.108 188.36 186.108 191.85C186.108 195.34 197.227 198.169 210.944 198.169Z" fill="#407BFF"/>
<path opacity="0.5" d="M210.944 198.169C224.66 198.169 235.78 195.34 235.78 191.85C235.78 188.36 224.66 185.531 210.944 185.531C197.227 185.531 186.108 188.36 186.108 191.85C186.108 195.34 197.227 198.169 210.944 198.169Z" fill="white"/>
<path d="M0.119999 46.3839C-0.00439703 45.9341 -0.0326682 45.4632 0.0370234 45.0017C0.106715 44.5403 0.272807 44.0987 0.524487 43.7058C0.776168 43.3128 1.10779 42.9772 1.49777 42.7209C1.88775 42.4646 2.32734 42.2933 2.78791 42.2182C5.57283 41.8379 8.99548 45.5765 10.0779 47.8407C10.1715 48.0338 11.2831 51.2633 11.248 51.2633C11.2129 51.2633 6.31002 51.3745 4.29738 50.4969C2.55973 49.7422 0.605605 48.3087 0.119999 46.3839ZM71.6562 37.8009C71.2467 39.7434 69.316 41.2294 67.6134 42.0251C65.9109 42.8208 61.8973 42.9612 60.9085 42.9788C60.3761 43.6165 59.8086 44.2952 59.2001 45.0675C58.1353 46.4307 56.9535 47.9928 55.7775 49.748C55.4616 50.2219 55.1456 50.7368 54.8238 51.2341C55.5376 50.5086 56.5264 49.5257 56.6317 49.4379C58.5917 47.8758 63.3015 46.0094 65.6417 47.5599C66.0239 47.8282 66.3452 48.1742 66.5846 48.575C66.8241 48.9759 66.9764 49.4228 67.0317 49.8865C67.0869 50.3502 67.0437 50.8203 66.905 51.2662C66.7664 51.7122 66.5353 52.1238 66.2268 52.4744C64.9689 54.0073 62.5584 54.4344 60.6862 54.3583C58.814 54.2823 55.0696 52.5037 54.2505 52.1058C53.5601 53.2175 52.8814 54.3759 52.2378 55.6162C51.0564 57.8651 50.0775 60.2147 49.3125 62.6371L49.4529 62.7073C50.038 61.9584 51.2666 60.4079 51.3836 60.2909C53.1388 58.5357 57.638 56.1487 60.1596 57.4358C60.5687 57.6609 60.9257 57.9697 61.2075 58.3421C61.4892 58.7144 61.6893 59.1419 61.7947 59.5968C61.9001 60.0516 61.9085 60.5236 61.8194 60.9819C61.7302 61.4402 61.5454 61.8746 61.2771 62.2568C60.1947 63.9184 57.8486 64.597 56.0115 64.7374C53.8585 64.8896 49.4002 63.2046 49.2364 63.1402C48.5349 65.5771 47.9935 68.0572 47.6158 70.5647C47.3233 72.4135 47.1068 74.3033 46.9079 76.2048C47.294 75.6665 48.9205 73.6305 49.0551 73.4959C50.8103 71.7407 55.3094 69.3536 57.8311 70.6408C58.2401 70.8659 58.5972 71.1747 58.8789 71.547C59.1606 71.9194 59.3607 72.3469 59.4661 72.8018C59.5716 73.2566 59.58 73.7286 59.4908 74.1869C59.4016 74.6452 59.2169 75.0796 58.9486 75.4617C57.8662 77.1233 55.5201 77.802 53.6829 77.9424C51.5767 78.0887 47.2999 76.4973 46.943 76.3627C46.8552 77.2228 46.7557 78.0828 46.6738 78.9487C46.3989 81.7688 46.1356 84.6005 45.7904 87.3854C45.6734 88.3508 45.5154 89.2986 45.3691 90.2464C45.9542 89.4566 47.1243 88.0465 47.2179 87.9354C48.9732 86.1802 53.4723 83.7931 55.994 85.0803C56.403 85.3054 56.7601 85.6142 57.0418 85.9865C57.3235 86.3589 57.5236 86.7864 57.629 87.2412C57.7345 87.6961 57.7429 88.1681 57.6537 88.6264C57.5645 89.0847 57.3797 89.5191 57.1114 89.9012C56.0291 91.5628 53.6829 92.2415 51.8166 92.376C49.9502 92.5106 46.3111 91.2469 45.2989 90.8783C45.0356 92.458 44.7139 94.0142 44.3804 95.5588C44.2107 96.2141 44.082 96.8869 43.8831 97.5071C43.6841 98.1273 43.5086 98.7533 43.298 99.3676C42.8709 100.62 42.4848 101.79 42.0577 102.948C41.847 103.533 41.6364 104.083 41.4199 104.651C41.9172 103.761 42.7246 102.363 42.8182 102.246C44.3043 100.228 48.3705 97.2029 51.0092 98.098C51.4474 98.2584 51.8469 98.5093 52.1817 98.8343C52.5165 99.1594 52.7791 99.5513 52.9524 99.9845C53.1257 100.418 53.2059 100.883 53.1876 101.349C53.1693 101.815 53.053 102.272 52.8463 102.691C52.0272 104.499 49.8098 105.528 47.9844 105.944C45.9718 106.4 41.6481 105.523 41.1157 105.411C40.5891 106.798 40.0684 108.144 39.5536 109.396C37.9329 113.351 36.4352 116.592 35.3528 118.839C35.2943 118.967 35.2358 119.079 35.1773 119.201H43.0581L40.3376 172.249C40.2426 174.208 39.3947 176.055 37.9709 177.403C36.5472 178.752 34.6576 179.498 32.6966 179.487C30.7534 179.482 28.8857 178.734 27.4768 177.396C26.0679 176.057 25.2246 174.231 25.1199 172.29L22.4052 119.225H30.8595C30.8185 118.856 30.7775 118.47 30.7249 118.055C30.4441 115.603 29.9877 112.099 29.2505 107.927C29.0457 106.722 28.8 105.452 28.5426 104.148C27.9926 104.218 23.628 104.768 21.6563 104.148C19.8602 103.598 17.7305 102.392 17.0519 100.544C16.8763 100.111 16.7938 99.6464 16.8098 99.1798C16.8258 98.7133 16.9399 98.2553 17.1447 97.8358C17.3494 97.4163 17.6403 97.0447 17.9983 96.7451C18.3563 96.4455 18.7734 96.2247 19.2225 96.0971C21.943 95.4008 25.7752 98.7182 27.1092 100.848C27.1911 100.982 28.0219 102.702 28.4256 103.592C28.2676 102.802 28.1096 102.018 27.9283 101.199C27.6767 100.029 27.3432 98.7825 27.0858 97.5831C26.9103 96.9688 26.7406 96.3428 26.5651 95.7168C26.3895 95.0908 26.1672 94.4881 25.98 93.8621C25.6699 92.9553 25.3013 92.0309 24.9386 91.1123C23.7684 91.4399 20.258 92.3409 18.4677 92.0835C16.6774 91.8261 14.3254 90.9543 13.3718 89.2167C13.1331 88.8152 12.9816 88.368 12.9271 87.9042C12.8726 87.4404 12.9163 86.9702 13.0553 86.5244C13.1944 86.0785 13.4257 85.6669 13.7342 85.3163C14.0427 84.9657 14.4216 84.684 14.8462 84.4893C17.4322 83.3953 21.7148 86.0924 23.3589 87.9997C23.4115 88.0583 23.7158 88.497 24.0727 89.0178C23.6924 88.1285 23.3121 87.2626 22.9025 86.3557C21.7324 83.8399 20.4394 81.3124 19.164 78.7498C18.9007 78.2233 18.6432 77.6908 18.38 77.1584C17.3795 77.4393 13.6058 78.4514 11.7277 78.1765C9.84968 77.9015 7.58546 77.0473 6.6318 75.3096C6.3923 74.9088 6.24009 74.462 6.18513 73.9984C6.13017 73.5348 6.1737 73.0647 6.31286 72.6191C6.45203 72.1734 6.6837 71.7622 6.99272 71.4122C7.30175 71.0622 7.68117 70.7814 8.10617 70.5881C10.6863 69.4882 14.9749 72.1912 16.6189 74.0985C16.6774 74.1687 17.0402 74.6836 17.4439 75.2687C16.771 73.8762 16.1158 72.4837 15.5073 71.0854C14.4566 68.6836 13.5654 66.2151 12.8394 63.696C12.4883 63.8013 8.08862 65.0768 5.99993 64.7725C4.14527 64.5034 1.85765 63.6434 0.90399 61.9057C0.66795 61.5069 0.518082 61.0631 0.464044 60.6028C0.410007 60.1426 0.453001 59.6761 0.590251 59.2335C0.727502 58.7909 0.955967 58.3819 1.26092 58.033C1.56588 57.6841 1.94055 57.4029 2.36081 57.2076C4.94681 56.1077 9.22951 58.8107 10.8735 60.718C10.9906 60.8526 12.2894 62.7541 12.7341 63.4445C12.7316 63.4152 12.7316 63.3859 12.7341 63.3567C12.0822 60.8646 11.6554 58.3191 11.4586 55.7508C11.2672 53.4587 11.2125 51.1573 11.2948 48.8587C11.3416 46.7291 11.5171 44.7632 11.6926 43.0607C11.7921 42.1246 11.8974 41.2762 12.0086 40.4864L11.9618 40.5156C11.915 40.5156 10.973 37.2685 10.9379 37.052C10.5225 34.5772 11.1836 29.5515 13.676 28.276C14.096 28.0723 14.5543 27.9595 15.0208 27.945C15.4874 27.9305 15.9518 28.0146 16.3836 28.1918C16.8155 28.3691 17.205 28.6355 17.5269 28.9737C17.8487 29.3118 18.0955 29.714 18.2512 30.1541C18.9826 31.9971 18.1869 34.3081 17.2098 35.9112C16.2328 37.5142 12.9622 39.8428 12.149 40.3986C12.0495 41.2236 11.9559 42.107 11.874 43.0899C11.7394 44.81 11.6049 46.7525 11.599 48.8763C11.599 49.4613 11.599 50.0464 11.6283 50.6315C11.8214 49.6368 12.1022 48.2912 12.1431 48.1391C12.9154 45.752 15.8115 41.598 18.6257 41.598C19.0921 41.6126 19.5502 41.725 19.9704 41.928C20.3905 42.131 20.7633 42.4201 21.0645 42.7765C21.3657 43.1329 21.5886 43.5486 21.7188 43.9967C21.849 44.4448 21.8835 44.9153 21.8202 45.3776C21.6154 47.3492 19.8426 49.0342 18.2395 50.0054C16.6365 50.9767 12.5293 51.5559 11.6458 51.6612C11.6809 52.9717 11.757 54.3115 11.9091 55.7099C12.164 58.2475 12.6437 60.7576 13.3425 63.2104H13.5005C13.5649 62.2685 13.7462 60.2851 13.7755 60.1271C14.2845 57.6698 16.7008 53.2233 19.5033 52.9191C19.9686 52.882 20.4364 52.9432 20.8765 53.0987C21.3166 53.2541 21.7191 53.5004 22.0579 53.8215C22.3966 54.1426 22.6641 54.5313 22.8429 54.9625C23.0216 55.3937 23.1077 55.8576 23.0956 56.3242C23.0956 58.3076 21.5276 60.1739 20.0416 61.3148C18.3039 62.5844 13.6585 63.6434 13.4771 63.6785C14.2362 66.0975 15.1528 68.4643 16.2211 70.7636C16.9875 72.4662 17.8651 74.1746 18.7427 75.8596C18.7427 75.1926 19.0001 72.6008 19.0411 72.4135C19.5501 69.9563 21.9664 65.5097 24.7631 65.2055C25.228 65.1676 25.6958 65.2279 26.1359 65.3827C26.576 65.5375 26.9785 65.7832 27.3174 66.1039C27.6563 66.4245 27.9238 66.8129 28.1026 67.2438C28.2815 67.6747 28.3676 68.1384 28.3554 68.6047C28.3554 70.5881 26.7932 72.4545 25.3072 73.5954C23.6339 74.8825 19.1874 75.9356 18.8129 76C19.2166 76.7664 19.6086 77.5387 20.0182 78.3052C21.3463 80.8093 22.6861 83.3133 23.9323 85.8291C24.3652 86.7009 24.7631 87.5843 25.1609 88.4502C25.2311 87.4556 25.4008 85.6536 25.43 85.4957C25.939 83.0442 28.3554 78.5919 31.152 78.2876C31.6173 78.2505 32.0851 78.3117 32.5252 78.4672C32.9653 78.6227 33.3678 78.8689 33.7066 79.19C34.0453 79.5111 34.3128 79.8999 34.4916 80.331C34.6703 80.7622 34.7564 81.2261 34.7443 81.6927C34.7443 83.6761 33.1822 85.5425 31.6961 86.6833C30.21 87.8242 26.4832 88.7779 25.43 89.0236C26.0853 90.4804 26.6996 91.949 27.2379 93.4116C27.4544 94.0493 27.7176 94.6871 27.8932 95.3131L28.4782 97.1678C28.8176 98.4491 29.1394 99.6367 29.4202 100.842C29.5723 101.427 29.6952 102.012 29.8297 102.597C29.7537 101.585 29.6601 99.9702 29.6659 99.824C29.7946 97.3199 31.5147 92.5516 34.2294 91.8319C34.6857 91.7182 35.1609 91.7028 35.6235 91.7867C36.0862 91.8706 36.5257 92.0519 36.913 92.3186C37.3003 92.5852 37.6264 92.9312 37.8699 93.3335C38.1133 93.7357 38.2684 94.1852 38.3249 94.652C38.364 94.8937 38.3797 95.1386 38.3717 95.3833C39.4819 97.2944 40.086 99.4572 40.1269 101.667C40.1269 101.825 39.8636 103.721 39.7115 104.68C40.0158 103.937 40.2966 103.194 40.6125 102.416C41.0513 101.292 41.4843 100.076 41.9055 98.9054C42.0986 98.3203 42.2975 97.6768 42.4906 97.0566C42.6837 96.4364 42.8358 95.8104 43.0113 95.1844C43.257 94.2541 43.4618 93.2829 43.6666 92.3117C42.4965 91.9372 39.0855 90.7613 37.734 89.556C36.3825 88.3508 34.9023 86.3264 35.0602 84.3489C35.0834 83.8828 35.2042 83.4268 35.415 83.0105C35.6257 82.5941 35.9216 82.2267 36.2836 81.9321C36.6455 81.6375 37.0653 81.4223 37.5157 81.3004C37.9662 81.1785 38.4372 81.1527 38.8983 81.2247C41.6598 81.7337 43.7426 86.3498 44.0703 88.8305C44.0703 88.9066 44.0703 89.4156 44.0703 90.0767C44.2458 89.1231 44.4213 88.1753 44.5617 87.2041C44.9654 84.4542 45.2872 81.6342 45.6266 78.82C45.6909 78.235 45.7728 77.6499 45.843 77.0648C44.8601 76.7489 41.1625 75.5085 39.7349 74.2448C38.3074 72.981 36.9032 71.0152 37.067 69.0435C37.0886 68.5772 37.2081 68.1207 37.4179 67.7036C37.6276 67.2866 37.9229 66.9184 38.2844 66.6231C38.646 66.3278 39.0657 66.112 39.5162 65.9897C39.9667 65.8674 40.438 65.8414 40.8992 65.9134C43.6666 66.4224 45.7494 71.0445 46.0712 73.5193C46.0712 73.6071 46.0712 74.2448 46.1063 74.9586C46.3111 73.4257 46.5393 71.9045 46.8026 70.4009C47.2506 67.8277 47.8682 65.2868 48.6514 62.795C48.3062 62.6839 43.9299 61.3207 42.356 59.9165C40.9577 58.6644 39.5243 56.6869 39.6823 54.7094C39.7054 54.2433 39.8263 53.7873 40.037 53.3709C40.2478 52.9546 40.5437 52.5872 40.9056 52.2926C41.2675 51.998 41.6873 51.7828 42.1377 51.6609C42.5882 51.539 43.0592 51.5132 43.5203 51.5851C46.2818 52.0941 48.3647 56.7103 48.6923 59.191C48.6923 59.3665 48.7508 61.6658 48.7333 62.4908V62.403C49.5668 59.9757 50.6122 57.6263 51.8575 55.3822C52.9656 53.3623 54.1904 51.4088 55.5259 49.5315C56.7428 47.7763 57.9656 46.2552 59.0363 44.9154C59.6214 44.1899 60.2065 43.5404 60.7213 42.9378H60.657C60.6101 42.9378 61.634 39.679 61.7218 39.4801C62.7398 37.1925 66.0571 33.3603 68.8538 33.6645C69.3234 33.7224 69.7753 33.8801 70.1791 34.127C70.5828 34.374 70.929 34.7044 71.1944 35.0962C71.4599 35.488 71.6384 35.9321 71.7181 36.3986C71.7977 36.8651 71.7766 37.3432 71.6562 37.8009ZM39.4366 105.212C38.9626 104.978 35.2767 103.153 33.8375 101.597C32.5958 102.283 31.3141 102.895 29.9994 103.428C30.327 104.873 30.6313 106.289 30.8887 107.617C31.7254 111.812 32.2578 115.334 32.5971 117.809C32.6732 118.335 32.7317 118.809 32.7902 119.236H32.9774L33.5625 118.037C34.68 115.837 36.2304 112.666 37.9212 108.781C38.4361 107.64 38.9392 106.441 39.4366 105.212ZM54.1569 51.5793C54.2037 51.6085 55.052 48.3029 55.0871 48.0689C55.4323 45.5823 54.6366 40.58 52.1091 39.3572C51.6803 39.1668 51.2159 39.0694 50.7467 39.0714C50.2775 39.0734 49.814 39.1747 49.3868 39.3687C48.9596 39.5627 48.5783 39.845 48.268 40.197C47.9577 40.5489 47.7254 40.9626 47.5865 41.4108C46.9079 43.2713 47.7679 45.5589 48.7567 47.1328C49.9795 48.9523 54.1569 51.5793 54.1569 51.5793Z" fill="#407BFF"/>
<path opacity="0.3" d="M0.119999 46.3839C-0.00439703 45.9341 -0.0326682 45.4632 0.0370234 45.0017C0.106715 44.5403 0.272807 44.0987 0.524487 43.7058C0.776168 43.3128 1.10779 42.9772 1.49777 42.7209C1.88775 42.4646 2.32734 42.2933 2.78791 42.2182C5.57283 41.8379 8.99548 45.5765 10.0779 47.8407C10.1715 48.0338 11.2831 51.2633 11.248 51.2633C11.2129 51.2633 6.31002 51.3745 4.29738 50.4969C2.55973 49.7422 0.605605 48.3087 0.119999 46.3839ZM71.6562 37.8009C71.2467 39.7434 69.316 41.2294 67.6134 42.0251C65.9109 42.8208 61.8973 42.9612 60.9085 42.9788C60.3761 43.6165 59.8086 44.2952 59.2001 45.0675C58.1353 46.4307 56.9535 47.9928 55.7775 49.748C55.4616 50.2219 55.1456 50.7368 54.8238 51.2341C55.5376 50.5086 56.5264 49.5257 56.6317 49.4379C58.5917 47.8758 63.3015 46.0094 65.6417 47.5599C66.0239 47.8282 66.3452 48.1742 66.5846 48.575C66.8241 48.9759 66.9764 49.4228 67.0317 49.8865C67.0869 50.3502 67.0437 50.8203 66.905 51.2662C66.7664 51.7122 66.5353 52.1238 66.2268 52.4744C64.9689 54.0073 62.5584 54.4344 60.6862 54.3583C58.814 54.2823 55.0696 52.5037 54.2505 52.1058C53.5601 53.2175 52.8814 54.3759 52.2378 55.6162C51.0564 57.8651 50.0775 60.2147 49.3125 62.6371L49.4529 62.7073C50.038 61.9584 51.2666 60.4079 51.3836 60.2909C53.1388 58.5357 57.638 56.1487 60.1596 57.4358C60.5687 57.6609 60.9257 57.9697 61.2075 58.3421C61.4892 58.7144 61.6893 59.1419 61.7947 59.5968C61.9001 60.0516 61.9085 60.5236 61.8194 60.9819C61.7302 61.4402 61.5454 61.8746 61.2771 62.2568C60.1947 63.9184 57.8486 64.597 56.0115 64.7374C53.8585 64.8896 49.4002 63.2046 49.2364 63.1402C48.5349 65.5771 47.9935 68.0572 47.6158 70.5647C47.3233 72.4135 47.1068 74.3033 46.9079 76.2048C47.294 75.6665 48.9205 73.6305 49.0551 73.4959C50.8103 71.7407 55.3094 69.3536 57.8311 70.6408C58.2401 70.8659 58.5972 71.1747 58.8789 71.547C59.1606 71.9194 59.3607 72.3469 59.4661 72.8018C59.5716 73.2566 59.58 73.7286 59.4908 74.1869C59.4016 74.6452 59.2169 75.0796 58.9486 75.4617C57.8662 77.1233 55.5201 77.802 53.6829 77.9424C51.5767 78.0887 47.2999 76.4973 46.943 76.3627C46.8552 77.2228 46.7557 78.0828 46.6738 78.9487C46.3989 81.7688 46.1356 84.6005 45.7904 87.3854C45.6734 88.3508 45.5154 89.2986 45.3691 90.2464C45.9542 89.4566 47.1243 88.0465 47.2179 87.9354C48.9732 86.1802 53.4723 83.7931 55.994 85.0803C56.403 85.3054 56.7601 85.6142 57.0418 85.9865C57.3235 86.3589 57.5236 86.7864 57.629 87.2412C57.7345 87.6961 57.7429 88.1681 57.6537 88.6264C57.5645 89.0847 57.3797 89.5191 57.1114 89.9012C56.0291 91.5628 53.6829 92.2415 51.8166 92.376C49.9502 92.5106 46.3111 91.2469 45.2989 90.8783C45.0356 92.458 44.7139 94.0142 44.3804 95.5588C44.2107 96.2141 44.082 96.8869 43.8831 97.5071C43.6841 98.1273 43.5086 98.7533 43.298 99.3676C42.8709 100.62 42.4848 101.79 42.0577 102.948C41.847 103.533 41.6364 104.083 41.4199 104.651C41.9172 103.761 42.7246 102.363 42.8182 102.246C44.3043 100.228 48.3705 97.2029 51.0092 98.098C51.4474 98.2584 51.8469 98.5093 52.1817 98.8343C52.5165 99.1594 52.7791 99.5513 52.9524 99.9845C53.1257 100.418 53.2059 100.883 53.1876 101.349C53.1693 101.815 53.053 102.272 52.8463 102.691C52.0272 104.499 49.8098 105.528 47.9844 105.944C45.9718 106.4 41.6481 105.523 41.1157 105.411C40.5891 106.798 40.0684 108.144 39.5536 109.396C37.9329 113.351 36.4352 116.592 35.3528 118.839C35.2943 118.967 35.2358 119.079 35.1773 119.201H43.0581L40.3376 172.249C40.2426 174.208 39.3947 176.055 37.9709 177.403C36.5472 178.752 34.6576 179.498 32.6966 179.487C30.7534 179.482 28.8857 178.734 27.4768 177.396C26.0679 176.057 25.2246 174.231 25.1199 172.29L22.4052 119.225H30.8595C30.8185 118.856 30.7775 118.47 30.7249 118.055C30.4441 115.603 29.9877 112.099 29.2505 107.927C29.0457 106.722 28.8 105.452 28.5426 104.148C27.9926 104.218 23.628 104.768 21.6563 104.148C19.8602 103.598 17.7305 102.392 17.0519 100.544C16.8763 100.111 16.7938 99.6464 16.8098 99.1798C16.8258 98.7133 16.9399 98.2553 17.1447 97.8358C17.3494 97.4163 17.6403 97.0447 17.9983 96.7451C18.3563 96.4455 18.7734 96.2247 19.2225 96.0971C21.943 95.4008 25.7752 98.7182 27.1092 100.848C27.1911 100.982 28.0219 102.702 28.4256 103.592C28.2676 102.802 28.1096 102.018 27.9283 101.199C27.6767 100.029 27.3432 98.7825 27.0858 97.5831C26.9103 96.9688 26.7406 96.3428 26.5651 95.7168C26.3895 95.0908 26.1672 94.4881 25.98 93.8621C25.6699 92.9553 25.3013 92.0309 24.9386 91.1123C23.7684 91.4399 20.258 92.3409 18.4677 92.0835C16.6774 91.8261 14.3254 90.9543 13.3718 89.2167C13.1331 88.8152 12.9816 88.368 12.9271 87.9042C12.8726 87.4404 12.9163 86.9702 13.0553 86.5244C13.1944 86.0785 13.4257 85.6669 13.7342 85.3163C14.0427 84.9657 14.4216 84.684 14.8462 84.4893C17.4322 83.3953 21.7148 86.0924 23.3589 87.9997C23.4115 88.0583 23.7158 88.497 24.0727 89.0178C23.6924 88.1285 23.3121 87.2626 22.9025 86.3557C21.7324 83.8399 20.4394 81.3124 19.164 78.7498C18.9007 78.2233 18.6432 77.6908 18.38 77.1584C17.3795 77.4393 13.6058 78.4514 11.7277 78.1765C9.84968 77.9015 7.58546 77.0473 6.6318 75.3096C6.3923 74.9088 6.24009 74.462 6.18513 73.9984C6.13017 73.5348 6.1737 73.0647 6.31286 72.6191C6.45203 72.1734 6.6837 71.7622 6.99272 71.4122C7.30175 71.0622 7.68117 70.7814 8.10617 70.5881C10.6863 69.4882 14.9749 72.1912 16.6189 74.0985C16.6774 74.1687 17.0402 74.6836 17.4439 75.2687C16.771 73.8762 16.1158 72.4837 15.5073 71.0854C14.4566 68.6836 13.5654 66.2151 12.8394 63.696C12.4883 63.8013 8.08862 65.0768 5.99993 64.7725C4.14527 64.5034 1.85765 63.6434 0.90399 61.9057C0.66795 61.5069 0.518082 61.0631 0.464044 60.6028C0.410007 60.1426 0.453001 59.6761 0.590251 59.2335C0.727502 58.7909 0.955967 58.3819 1.26092 58.033C1.56588 57.6841 1.94055 57.4029 2.36081 57.2076C4.94681 56.1077 9.22951 58.8107 10.8735 60.718C10.9906 60.8526 12.2894 62.7541 12.7341 63.4445C12.7316 63.4152 12.7316 63.3859 12.7341 63.3567C12.0822 60.8646 11.6554 58.3191 11.4586 55.7508C11.2672 53.4587 11.2125 51.1573 11.2948 48.8587C11.3416 46.7291 11.5171 44.7632 11.6926 43.0607C11.7921 42.1246 11.8974 41.2762 12.0086 40.4864L11.9618 40.5156C11.915 40.5156 10.973 37.2685 10.9379 37.052C10.5225 34.5772 11.1836 29.5515 13.676 28.276C14.096 28.0723 14.5543 27.9595 15.0208 27.945C15.4874 27.9305 15.9518 28.0146 16.3836 28.1918C16.8155 28.3691 17.205 28.6355 17.5269 28.9737C17.8487 29.3118 18.0955 29.714 18.2512 30.1541C18.9826 31.9971 18.1869 34.3081 17.2098 35.9112C16.2328 37.5142 12.9622 39.8428 12.149 40.3986C12.0495 41.2236 11.9559 42.107 11.874 43.0899C11.7394 44.81 11.6049 46.7525 11.599 48.8763C11.599 49.4613 11.599 50.0464 11.6283 50.6315C11.8214 49.6368 12.1022 48.2912 12.1431 48.1391C12.9154 45.752 15.8115 41.598 18.6257 41.598C19.0921 41.6126 19.5502 41.725 19.9704 41.928C20.3905 42.131 20.7633 42.4201 21.0645 42.7765C21.3657 43.1329 21.5886 43.5486 21.7188 43.9967C21.849 44.4448 21.8835 44.9153 21.8202 45.3776C21.6154 47.3492 19.8426 49.0342 18.2395 50.0054C16.6365 50.9767 12.5293 51.5559 11.6458 51.6612C11.6809 52.9717 11.757 54.3115 11.9091 55.7099C12.164 58.2475 12.6437 60.7576 13.3425 63.2104H13.5005C13.5649 62.2685 13.7462 60.2851 13.7755 60.1271C14.2845 57.6698 16.7008 53.2233 19.5033 52.9191C19.9686 52.882 20.4364 52.9432 20.8765 53.0987C21.3166 53.2541 21.7191 53.5004 22.0579 53.8215C22.3966 54.1426 22.6641 54.5313 22.8429 54.9625C23.0216 55.3937 23.1077 55.8576 23.0956 56.3242C23.0956 58.3076 21.5276 60.1739 20.0416 61.3148C18.3039 62.5844 13.6585 63.6434 13.4771 63.6785C14.2362 66.0975 15.1528 68.4643 16.2211 70.7636C16.9875 72.4662 17.8651 74.1746 18.7427 75.8596C18.7427 75.1926 19.0001 72.6008 19.0411 72.4135C19.5501 69.9563 21.9664 65.5097 24.7631 65.2055C25.228 65.1676 25.6958 65.2279 26.1359 65.3827C26.576 65.5375 26.9785 65.7832 27.3174 66.1039C27.6563 66.4245 27.9238 66.8129 28.1026 67.2438C28.2815 67.6747 28.3676 68.1384 28.3554 68.6047C28.3554 70.5881 26.7932 72.4545 25.3072 73.5954C23.6339 74.8825 19.1874 75.9356 18.8129 76C19.2166 76.7664 19.6086 77.5387 20.0182 78.3052C21.3463 80.8093 22.6861 83.3133 23.9323 85.8291C24.3652 86.7009 24.7631 87.5843 25.1609 88.4502C25.2311 87.4556 25.4008 85.6536 25.43 85.4957C25.939 83.0442 28.3554 78.5919 31.152 78.2876C31.6173 78.2505 32.0851 78.3117 32.5252 78.4672C32.9653 78.6227 33.3678 78.8689 33.7066 79.19C34.0453 79.5111 34.3128 79.8999 34.4916 80.331C34.6703 80.7622 34.7564 81.2261 34.7443 81.6927C34.7443 83.6761 33.1822 85.5425 31.6961 86.6833C30.21 87.8242 26.4832 88.7779 25.43 89.0236C26.0853 90.4804 26.6996 91.949 27.2379 93.4116C27.4544 94.0493 27.7176 94.6871 27.8932 95.3131L28.4782 97.1678C28.8176 98.4491 29.1394 99.6367 29.4202 100.842C29.5723 101.427 29.6952 102.012 29.8297 102.597C29.7537 101.585 29.6601 99.9702 29.6659 99.824C29.7946 97.3199 31.5147 92.5516 34.2294 91.8319C34.6857 91.7182 35.1609 91.7028 35.6235 91.7867C36.0862 91.8706 36.5257 92.0519 36.913 92.3186C37.3003 92.5852 37.6264 92.9312 37.8699 93.3335C38.1133 93.7357 38.2684 94.1852 38.3249 94.652C38.364 94.8937 38.3797 95.1386 38.3717 95.3833C39.4819 97.2944 40.086 99.4572 40.1269 101.667C40.1269 101.825 39.8636 103.721 39.7115 104.68C40.0158 103.937 40.2966 103.194 40.6125 102.416C41.0513 101.292 41.4843 100.076 41.9055 98.9054C42.0986 98.3203 42.2975 97.6768 42.4906 97.0566C42.6837 96.4364 42.8358 95.8104 43.0113 95.1844C43.257 94.2541 43.4618 93.2829 43.6666 92.3117C42.4965 91.9372 39.0855 90.7613 37.734 89.556C36.3825 88.3508 34.9023 86.3264 35.0602 84.3489C35.0834 83.8828 35.2042 83.4268 35.415 83.0105C35.6257 82.5941 35.9216 82.2267 36.2836 81.9321C36.6455 81.6375 37.0653 81.4223 37.5157 81.3004C37.9662 81.1785 38.4372 81.1527 38.8983 81.2247C41.6598 81.7337 43.7426 86.3498 44.0703 88.8305C44.0703 88.9066 44.0703 89.4156 44.0703 90.0767C44.2458 89.1231 44.4213 88.1753 44.5617 87.2041C44.9654 84.4542 45.2872 81.6342 45.6266 78.82C45.6909 78.235 45.7728 77.6499 45.843 77.0648C44.8601 76.7489 41.1625 75.5085 39.7349 74.2448C38.3074 72.981 36.9032 71.0152 37.067 69.0435C37.0886 68.5772 37.2081 68.1207 37.4179 67.7036C37.6276 67.2866 37.9229 66.9184 38.2844 66.6231C38.646 66.3278 39.0657 66.112 39.5162 65.9897C39.9667 65.8674 40.438 65.8414 40.8992 65.9134C43.6666 66.4224 45.7494 71.0445 46.0712 73.5193C46.0712 73.6071 46.0712 74.2448 46.1063 74.9586C46.3111 73.4257 46.5393 71.9045 46.8026 70.4009C47.2506 67.8277 47.8682 65.2868 48.6514 62.795C48.3062 62.6839 43.9299 61.3207 42.356 59.9165C40.9577 58.6644 39.5243 56.6869 39.6823 54.7094C39.7054 54.2433 39.8263 53.7873 40.037 53.3709C40.2478 52.9546 40.5437 52.5872 40.9056 52.2926C41.2675 51.998 41.6873 51.7828 42.1377 51.6609C42.5882 51.539 43.0592 51.5132 43.5203 51.5851C46.2818 52.0941 48.3647 56.7103 48.6923 59.191C48.6923 59.3665 48.7508 61.6658 48.7333 62.4908V62.403C49.5668 59.9757 50.6122 57.6263 51.8575 55.3822C52.9656 53.3623 54.1904 51.4088 55.5259 49.5315C56.7428 47.7763 57.9656 46.2552 59.0363 44.9154C59.6214 44.1899 60.2065 43.5404 60.7213 42.9378H60.657C60.6101 42.9378 61.634 39.679 61.7218 39.4801C62.7398 37.1925 66.0571 33.3603 68.8538 33.6645C69.3234 33.7224 69.7753 33.8801 70.1791 34.127C70.5828 34.374 70.929 34.7044 71.1944 35.0962C71.4599 35.488 71.6384 35.9321 71.7181 36.3986C71.7977 36.8651 71.7766 37.3432 71.6562 37.8009ZM39.4366 105.212C38.9626 104.978 35.2767 103.153 33.8375 101.597C32.5958 102.283 31.3141 102.895 29.9994 103.428C30.327 104.873 30.6313 106.289 30.8887 107.617C31.7254 111.812 32.2578 115.334 32.5971 117.809C32.6732 118.335 32.7317 118.809 32.7902 119.236H32.9774L33.5625 118.037C34.68 115.837 36.2304 112.666 37.9212 108.781C38.4361 107.64 38.9392 106.441 39.4366 105.212ZM54.1569 51.5793C54.2037 51.6085 55.052 48.3029 55.0871 48.0689C55.4323 45.5823 54.6366 40.58 52.1091 39.3572C51.6803 39.1668 51.2159 39.0694 50.7467 39.0714C50.2775 39.0734 49.814 39.1747 49.3868 39.3687C48.9596 39.5627 48.5783 39.845 48.268 40.197C47.9577 40.5489 47.7254 40.9626 47.5865 41.4108C46.9079 43.2713 47.7679 45.5589 48.7567 47.1328C49.9795 48.9523 54.1569 51.5793 54.1569 51.5793Z" fill="white"/>
<path d="M203.671 181.98C201.552 183.527 199.318 184.91 196.989 186.117C194.234 187.386 193.701 187.386 193.807 188.13C193.912 188.873 197.095 190.037 202.928 188.662C208.761 187.287 211.517 187.597 212.365 184.841C213.213 182.086 211.838 182.829 210.142 182.829C207.971 182.66 205.811 182.377 203.671 181.98Z" fill="#2E353A" stroke="#2E353A" stroke-linecap="round" stroke-linejoin="round"/>
<path d="M212.049 185.57C209.563 186.226 205.081 187.326 201.337 187.911C198.878 188.356 196.351 188.244 193.941 187.583C193.876 187.655 193.83 187.741 193.806 187.835C193.783 187.929 193.783 188.027 193.807 188.121C193.912 188.864 197.095 190.029 202.928 188.654C208.182 187.419 210.932 187.542 212.049 185.57Z" fill="white" stroke="#2E353A" stroke-linecap="round" stroke-linejoin="round"/>
<path d="M232.292 131.342C232.292 131.342 232.509 135.057 229.952 140.147C227.395 145.237 219.895 145.659 217.882 145.659C215.87 145.659 216.501 143.541 216.501 143.541L216.817 141.628L213.424 140.779C213.424 140.779 204.414 152.767 204.414 153.721C204.414 154.675 213.728 176.568 214.261 179.113C214.793 181.658 215.109 182.296 213.939 183.249C213.072 183.861 212.076 184.265 211.028 184.43C209.98 184.596 208.908 184.518 207.895 184.203C206.32 183.71 204.794 183.072 203.337 182.296C203.278 181.343 203.278 180.387 203.337 179.435C203.443 178.481 205.034 179.224 204.291 177.633C203.548 176.041 203.121 175.614 202.7 174.555C202.278 173.496 192.244 156.775 192.672 152.849C193.099 148.923 202.507 135.297 202.507 134.981C202.903 133.988 203.362 133.02 203.881 132.085C203.881 132.085 204.303 130.704 205.368 130.494C206.432 130.283 222.65 130.494 226.787 129.967C230.923 129.441 232.936 129.645 232.292 131.342Z" fill="#407BFF" stroke="#2E353A" stroke-linecap="round" stroke-linejoin="round"/>
<path d="M205.853 161.449L206.456 162.731" stroke="#2E353A" stroke-width="0.75" stroke-linecap="round" stroke-linejoin="round"/>
<path d="M207.749 146.898L203.173 152.878C203.173 152.878 197.323 153.586 199.078 153.703C200.833 153.82 202.588 153.82 202.588 153.82C202.588 153.82 201.061 154.288 201.418 154.522C201.829 154.686 202.269 154.765 202.711 154.756L205.209 160.068" stroke="#2E353A" stroke-width="0.75" stroke-linecap="round" stroke-linejoin="round"/>
<path d="M198.809 86.6937C198.809 86.6937 197.329 87.5128 195.1 88.7824C192.87 90.052 191.589 90.6897 191.285 91.7546C190.981 92.8194 184.492 106.1 184.492 106.1C184.492 106.1 187.037 107.587 189.372 108.645C191.146 109.375 192.994 109.908 194.883 110.237L197.007 105.784C197.007 105.784 201.102 113.519 202.858 116.281C205.982 121.213 204.976 124.238 204.554 125.934C204.133 127.631 202.963 130.814 203.279 131.235C203.595 131.656 211.868 135.371 217.174 135.055C222.481 134.739 231.573 134.248 232.21 133.505C232.848 132.762 232.953 128.479 232.953 128.157C232.953 127.836 232.017 119.569 231.064 114.584C230.11 109.599 224.915 96.2362 223.218 92.6322C221.521 89.0282 219.93 87.858 215.612 86.3778C211.294 84.8976 204.899 84.5758 202.249 84.8917C199.599 85.2077 198.809 86.6937 198.809 86.6937Z" fill="#2E353A" stroke="#2E353A" stroke-linecap="round" stroke-linejoin="round"/>
<path d="M216.66 100.918L223.23 103.03L217.719 103.615" stroke="white" stroke-width="0.75" stroke-linecap="round" stroke-linejoin="round"/>
<path d="M205.871 117.691C205.871 117.691 212.201 122.852 219.947 122.852" stroke="white" stroke-width="0.75" stroke-linecap="round" stroke-linejoin="round"/>
<path d="M207.983 122.385C207.983 122.385 213.249 124.848 218.655 124.029" stroke="white" stroke-width="0.75" stroke-linecap="round" stroke-linejoin="round"/>
<path d="M194.374 99.279L197.007 105.785L191.443 97.752" stroke="white" stroke-width="0.75" stroke-linecap="round" stroke-linejoin="round"/>
<path d="M198.358 87.4376C198.215 88.6334 198.18 89.8396 198.253 91.0417C198.358 93.2708 199.101 94.8622 198.464 96.4535C197.826 98.0449 198.575 98.7938 199.207 98.0449C199.839 97.296 200.903 94.4351 201.12 93.9085C201.336 93.3819 205.801 92.4224 206.421 92.4224C207.041 92.4224 209.071 95.6052 210.025 96.0264C210.978 96.4477 210.768 95.6052 210.13 93.9085C209.492 92.2118 208.755 86.3026 207.269 84.4655C205.783 82.6284 199.868 83.0906 198.358 87.4376Z" fill="white" stroke="#2E353A" stroke-linecap="round" stroke-linejoin="round"/>
<path d="M199.447 89.3454C198.862 89.1407 202.518 94.7573 204.004 97.6183C205.49 100.479 206.865 99.7421 207.082 97.513C207.298 95.2839 206.339 87.8594 206.339 87.8594C206.339 87.8594 202.518 90.4103 199.447 89.3454Z" fill="white" stroke="#2E353A" stroke-linecap="round" stroke-linejoin="round"/>
<path d="M207.041 94.8457C205.673 95.4326 204.158 95.5878 202.7 95.2904C203.197 96.1446 203.659 96.9578 204.004 97.6306C205.49 100.492 206.865 99.7544 207.082 97.5253C207.127 96.6322 207.114 95.737 207.041 94.8457Z" fill="#407BFF" stroke="#2E353A" stroke-linecap="round" stroke-linejoin="round"/>
<path d="M210.154 134.348V147.459" stroke="#2E353A" stroke-width="4" stroke-linecap="round" stroke-linejoin="round"/>
<path d="M221.399 137.303C221.338 137.309 221.278 137.309 221.217 137.303L201.495 134.963C201.104 134.901 200.752 134.69 200.513 134.374C200.274 134.059 200.167 133.663 200.213 133.27C200.259 132.877 200.455 132.517 200.761 132.266C201.066 132.014 201.457 131.89 201.852 131.92L221.574 134.261C221.972 134.293 222.341 134.479 222.603 134.78C222.865 135.081 222.999 135.472 222.976 135.871C222.953 136.269 222.775 136.642 222.48 136.911C222.186 137.18 221.797 137.323 221.399 137.309V137.303Z" fill="white" stroke="#2E353A" stroke-linecap="round" stroke-linejoin="round"/>
<path d="M221.486 136.817C222.013 136.817 222.44 136.314 222.44 135.694C222.44 135.073 222.013 134.57 221.486 134.57C220.96 134.57 220.533 135.073 220.533 135.694C220.533 136.314 220.96 136.817 221.486 136.817Z" fill="white" stroke="#2E353A" stroke-width="0.75" stroke-linecap="round" stroke-linejoin="round"/>
<path d="M203.577 192.131L215.402 197.952C215.47 197.982 215.544 197.998 215.618 197.998C215.693 197.998 215.766 197.982 215.835 197.952L222.932 195.325C223.033 195.288 223.121 195.221 223.184 195.133C223.247 195.046 223.283 194.942 223.287 194.834C223.29 194.726 223.262 194.619 223.205 194.528C223.148 194.436 223.065 194.363 222.967 194.319L211.885 189.188C211.772 189.135 211.644 189.123 211.523 189.153L203.694 191.113C203.585 191.138 203.486 191.197 203.412 191.28C203.337 191.364 203.29 191.469 203.277 191.58C203.265 191.692 203.287 191.805 203.34 191.903C203.394 192.002 203.477 192.081 203.577 192.131Z" fill="white" stroke="#2E353A" stroke-linecap="round" stroke-linejoin="round"/>
<path d="M212.985 194.067H210.645C210.113 194.066 209.603 193.854 209.227 193.478C208.851 193.102 208.64 192.592 208.638 192.061L207.169 149.175C207.169 148.692 207.361 148.23 207.702 147.888C208.044 147.547 208.506 147.355 208.989 147.355H211.71C212.192 147.355 212.655 147.547 212.996 147.888C213.337 148.23 213.529 148.692 213.529 149.175L214.998 192.061C214.998 192.325 214.946 192.586 214.844 192.83C214.743 193.074 214.595 193.295 214.408 193.482C214.221 193.668 213.999 193.816 213.755 193.916C213.511 194.017 213.249 194.068 212.985 194.067Z" fill="white" stroke="#2E353A" stroke-linecap="round" stroke-linejoin="round"/>
<path d="M218.731 192.58C216.952 194.251 215.074 195.814 213.108 197.261C210.768 198.852 210.563 198.641 211.096 199.7C211.628 200.759 213.213 201.397 217.672 200.443C222.13 199.49 223.61 198.747 226.05 197.366C228.49 195.985 229.227 195.985 228.595 195.137C227.963 194.288 218.731 192.58 218.731 192.58Z" fill="#2E353A" stroke="#2E353A" stroke-linecap="round" stroke-linejoin="round"/>
<path d="M226.05 197.356C228.484 195.975 229.227 195.975 228.595 195.126C228.427 194.97 228.228 194.852 228.01 194.781C224.777 196.692 221.353 198.261 217.795 199.462C213.231 200.837 211.008 199.245 211.008 199.245L210.955 199.333C211.001 199.449 211.054 199.562 211.113 199.672C211.64 200.731 213.231 201.369 217.689 200.415C222.147 199.462 223.61 198.736 226.05 197.356Z" fill="white" stroke="#2E353A" stroke-linecap="round" stroke-linejoin="round"/>
<path d="M235.499 107.799C234.74 106.138 234.068 104.439 233.486 102.709C231.707 103.557 226.272 108.109 226.272 108.109L231.046 114.574C231.046 114.574 226.489 121.15 224.365 124.866C222.804 127.4 220.874 129.688 218.637 131.652L213.424 131.588C213.194 131.734 213 131.931 212.857 132.163C212.714 132.395 212.626 132.656 212.599 132.928C212.599 133.747 211.675 136.631 212.084 137.146C212.494 137.661 214.969 137.76 214.969 137.76C214.969 137.76 218.982 138.176 219.702 137.146C219.702 137.146 218.467 135.806 218.567 135.192C218.666 134.578 219.907 134.162 219.907 134.162L221.252 134.063C221.252 134.063 221.714 134.385 222.101 132.308C223.142 131.617 226.927 129.078 228.928 127.077C231.269 124.737 238.155 117.002 238.681 115.516C239.208 114.03 236.879 110.877 235.499 107.799Z" fill="white" stroke="#2E353A" stroke-linecap="round" stroke-linejoin="round"/>
<path d="M235.007 106.67C233.971 104.242 233.486 102.709 233.486 102.709C231.707 103.557 226.272 108.109 226.272 108.109L228.542 111.181C231.084 110.325 233.327 108.76 235.007 106.67Z" fill="#407BFF" stroke="#2E353A" stroke-linecap="round" stroke-linejoin="round"/>
<path d="M220.333 100.164L225.956 110.11L229.244 107.881C231.101 106.505 232.745 104.863 234.123 103.008C231.84 99.3904 229.288 95.9502 226.488 92.7162C222.03 87.6261 219.912 87.3101 218.005 87.4154" fill="#2E353A"/>
<path d="M220.333 100.164L225.956 110.11L229.244 107.881C231.101 106.505 232.745 104.863 234.123 103.008C231.84 99.3904 229.288 95.9502 226.488 92.7162C222.03 87.6261 219.912 87.3101 218.005 87.4154" stroke="#2E353A" stroke-linecap="round" stroke-linejoin="round"/>
<path d="M206.631 134.688C206.631 134.272 204.876 129.954 204.876 129.954L199.611 127.058C197.44 122.694 194.105 115.708 193.532 114.479C193.104 113.627 192.748 112.741 192.467 111.829L193.362 109.922C192.003 109.621 190.675 109.194 189.395 108.646C188.406 108.202 187.388 107.681 186.54 107.225C186.072 109.015 185.27 112.098 185.575 113.631C185.879 115.164 192.8 123.928 196.258 128.357C196.258 128.357 197.703 134.483 198.323 135.407L198.944 136.332C198.944 136.332 199.967 137.467 200.482 137.361C200.924 137.222 201.341 137.013 201.717 136.741C202.082 136.861 202.47 136.897 202.852 136.847C203.354 136.631 203.807 136.316 204.186 135.922C204.186 135.922 204.701 136.507 205.941 136.232C207.181 135.957 206.631 135.097 206.631 134.688Z" fill="white" stroke="#2E353A" stroke-linecap="round" stroke-linejoin="round"/>
<path d="M185.896 109.77C187.881 111.114 190.165 111.95 192.548 112.204C192.472 111.975 192.443 111.858 192.443 111.858L193.338 109.951C191.979 109.65 190.651 109.223 189.372 108.676C188.383 108.231 187.365 107.71 186.516 107.254C186.329 107.933 186.072 108.834 185.896 109.77Z" fill="#407BFF" stroke="#2E353A" stroke-linecap="round" stroke-linejoin="round"/>
<path d="M110.013 137.854V134.273" stroke="#2E353A" stroke-width="6" stroke-linecap="round" stroke-linejoin="round"/>
<path d="M210.311 185.554L205.882 186.291C205.882 186.291 203.179 187.028 202.688 189.486C201.506 195.401 195.386 197.624 190.167 198.794C182.783 200.502 175.29 201.704 167.742 202.392C156.228 203.416 144.532 203.223 133.129 201.222C126.582 200.052 116.601 198.788 111.722 193.804C111.31 193.426 111 192.952 110.821 192.423C110.429 190.984 111.763 189.673 113.05 188.912C115.414 187.647 117.933 186.697 120.544 186.087C127.243 184.249 135.61 183.898 141.853 180.985C143.678 180.136 144.778 178.779 142.917 177.141C137.125 172.01 110.013 171.103 110.013 161.455V137.854" stroke="#2E353A" stroke-width="3" stroke-linecap="round" stroke-linejoin="round"/>
<path d="M194.076 82.0905C193.867 80.9812 193.5 79.9075 192.988 78.9019C192.262 77.6674 190.267 75.6781 189.904 73.7942C189.542 71.9103 192.338 69.6988 192.338 69.6988C192.338 69.6988 190.811 69.6987 191.168 69.0435C191.525 68.3882 193.274 68.6807 193.274 68.6807C193.156 68.3396 193.127 67.9737 193.19 67.6182C193.254 67.2627 193.408 66.9295 193.637 66.6505C194.433 65.7086 194.725 67.5223 194.725 67.5223C195.583 65.7661 196.914 64.2847 198.569 63.2455C201.179 61.7184 205.824 63.8305 206.333 65.1294C206.842 66.4282 205.613 65.9836 205.613 65.9836C205.613 65.9836 211.85 68.8094 212.283 73.0044C212.716 77.1993 209.095 76.4855 209.095 76.4855C209.095 76.4855 209.311 78.9545 208.802 79.8263C208.293 80.698 208.076 80.9964 205.537 78.9545C202.998 76.9126 197.779 77.6498 197.487 79.2471C197.194 80.8443 196.317 83.2314 195.024 82.9447C193.731 82.658 194.076 82.0905 194.076 82.0905Z" fill="#2E353A" stroke="#2E353A" stroke-linecap="round" stroke-linejoin="round"/>
<path d="M197.662 72.5371C197.662 72.5371 195.152 70.3723 197.89 69.9218C200.628 69.4713 201.646 74.3625 204.496 75.3863C206.256 75.9798 208.178 75.858 209.849 75.047" stroke="white" stroke-width="0.5" stroke-linecap="round" stroke-linejoin="round"/>
<path d="M197.235 72.1559C197.235 72.1559 194.362 70.2837 194.608 69.0316C194.854 67.7796 199.488 66.1531 201.986 67.6567C204.484 69.1604 204.613 72.2846 207.737 73.0335C210.861 73.7824 210.364 72.033 209.99 71.5299" stroke="white" stroke-width="0.5" stroke-linecap="round" stroke-linejoin="round"/>
<path d="M191.735 74.2852C191.232 73.6592 191.109 71.2838 193.11 70.9094C195.111 70.535 196.738 72.6646 196.738 72.6646C196.358 72.9103 194.111 73.5364 193.736 75.4144C193.362 77.2925 195.234 77.2866 194.362 78.9248" stroke="white" stroke-width="0.5" stroke-linecap="round" stroke-linejoin="round"/>
<path d="M194.438 82.1376C194.438 82.1376 194.333 82.003 194.175 81.8392C193.789 81.4413 192.701 81.1546 192.367 81.9503C191.899 83.0795 193.175 85.2209 194.123 85.5017C194.382 85.5882 194.658 85.6095 194.928 85.5635C195.197 85.5176 195.451 85.4059 195.667 85.2384C195.667 85.2384 198.276 90.504 201.559 91.7385C204.841 92.973 206.462 89.0882 207.497 86.4729C208.533 83.8577 208.152 82.9098 208.152 82.9098C208.152 82.9098 209.908 83.3252 210.452 81.2599C210.996 79.1947 210.124 78.4048 209.562 78.4984C209.034 78.6467 208.528 78.8672 208.059 79.1537L207.216 76.9012C207.216 76.9012 205.619 77.8432 202.899 76.8076C200.178 75.772 198.862 73.2445 198.218 73.4317C197.574 73.619 197.633 75.304 197.633 75.304C197.633 75.304 196.416 74.6487 195.948 75.2103C195.48 75.772 196.697 76.4331 196.135 78.4984C195.573 80.5637 194.906 81.1956 194.906 81.1956C194.906 81.1956 195.375 82.1317 195 82.1317L194.438 82.1376Z" fill="white" stroke="#2E353A" stroke-linecap="round" stroke-linejoin="round"/>
<path d="M199.868 80.762C199.956 81.1598 199.839 81.5167 199.616 81.5635C199.394 81.6103 199.136 81.3353 199.031 80.9375C198.926 80.5397 199.06 80.1828 199.289 80.136C199.517 80.0892 199.786 80.37 199.868 80.762Z" fill="#2E353A"/>
<path d="M204.367 80.2471C204.367 80.6508 204.203 80.9901 203.969 80.996C203.735 81.0018 203.542 80.68 203.531 80.2763C203.519 79.8726 203.689 79.5391 203.923 79.5333C204.157 79.5274 204.35 79.8434 204.367 80.2471Z" fill="#2E353A"/>
<path d="M197.498 79.4939C197.661 79.1029 197.924 78.7612 198.259 78.5026C198.595 78.2441 198.992 78.0775 199.411 78.0195" stroke="#2E353A" stroke-linecap="round" stroke-linejoin="round"/>
<path d="M203.127 77.7494C203.547 77.648 203.988 77.6715 204.396 77.817C204.803 77.9625 205.159 78.2237 205.42 78.5685" stroke="#2E353A" stroke-linecap="round" stroke-linejoin="round"/>
<path d="M203.888 86.1039C203.888 86.1039 200.67 87.3033 199.084 85.0625" stroke="#2E353A" stroke-linecap="round" stroke-linejoin="round"/>
<path d="M200.114 86.0508C200.114 86.0508 200.225 88.2331 201.371 88.6719C202.518 89.1107 203.062 86.3316 203.062 86.3316C202.071 86.478 201.059 86.3817 200.114 86.0508Z" fill="#2E353A" stroke="#2E353A" stroke-linecap="round" stroke-linejoin="round"/>
<path d="M200.377 87.3787C200.441 87.6533 200.564 87.911 200.737 88.1341C200.909 88.3572 201.128 88.5405 201.378 88.6716C201.963 88.8998 202.413 88.2387 202.694 87.56C201.955 87.2771 201.151 87.2141 200.377 87.3787Z" fill="white" stroke="#2E353A" stroke-linecap="round" stroke-linejoin="round"/>
<path d="M202.963 78.5098C202.619 79.6839 202.599 80.9291 202.905 82.1138C203.455 83.8105 204.274 83.869 203.946 84.0796C203.618 84.2902 202.191 84.5711 201.869 84.3019" fill="white"/>
<path d="M202.963 78.5098C202.619 79.6839 202.599 80.9291 202.905 82.1138C203.455 83.8105 204.274 83.869 203.946 84.0796C203.618 84.2902 202.191 84.5711 201.869 84.3019" stroke="#2E353A" stroke-linecap="round" stroke-linejoin="round"/>
<path d="M216.291 139.409C216.291 139.409 210.259 153.825 210.06 157.008C209.861 160.191 218.953 187.385 219.164 188.555C219.374 189.725 217.684 189.509 217.684 190.673C217.705 191.48 217.884 192.275 218.21 193.013C218.315 193.329 226.694 195.874 228.074 195.98C229.455 196.085 230.087 195.769 230.087 194.809C230.087 193.85 229.455 190.884 229.455 190.568C229.455 190.252 231.152 188.227 230.514 185.372C229.876 182.517 223.944 164.433 223.201 162.519C222.458 160.606 221.609 158.6 221.609 158.6C221.936 158.122 222.153 157.579 222.247 157.008C222.311 156.515 222.311 156.015 222.247 155.522C222.247 155.522 231.438 140.796 231.45 136.215" fill="#407BFF"/>
<path d="M216.291 139.409C216.291 139.409 210.259 153.825 210.06 157.008C209.861 160.191 218.953 187.385 219.164 188.555C219.374 189.725 217.684 189.509 217.684 190.673C217.705 191.48 217.884 192.275 218.21 193.013C218.315 193.329 226.694 195.874 228.074 195.98C229.455 196.085 230.087 195.769 230.087 194.809C230.087 193.85 229.455 190.884 229.455 190.568C229.455 190.252 231.152 188.227 230.514 185.372C229.876 182.517 223.944 164.433 223.201 162.519C222.458 160.606 221.609 158.6 221.609 158.6C221.936 158.122 222.153 157.579 222.247 157.008C222.311 156.515 222.311 156.015 222.247 155.522C222.247 155.522 231.438 140.796 231.45 136.215" stroke="#2E353A" stroke-linecap="round" stroke-linejoin="round"/>
<path d="M222.727 169.898C225.125 177.422 227.957 186.38 228.156 187.714C228.507 190.054 227.805 190.534 228.039 191.704C228.273 192.874 228.741 194.518 228.741 194.518" stroke="#2E353A" stroke-width="0.75" stroke-linecap="round" stroke-linejoin="round"/>
<path d="M228.033 137.947C226.208 142.4 222.85 150.614 222.183 152.305C221.241 154.645 219.597 156.529 219.954 156.763C220.31 156.997 221.241 156.997 220.539 157.816C219.837 158.635 219.369 158.875 219.369 159.226C219.369 159.349 220.445 162.707 221.838 167.078" stroke="#2E353A" stroke-width="0.75" stroke-linecap="round" stroke-linejoin="round"/>
<path d="M229.209 135.051L228.624 136.519" stroke="#2E353A" stroke-width="0.75" stroke-linecap="round" stroke-linejoin="round"/>
<path d="M213.441 137.462C213.441 137.462 213.781 133.7 214.126 133.244" stroke="#2E353A" stroke-width="0.75" stroke-linecap="round" stroke-linejoin="round"/>
<path d="M216.18 133.266C216.18 133.266 214.67 138.104 214.968 137.794" stroke="#2E353A" stroke-width="0.75" stroke-linecap="round" stroke-linejoin="round"/>
<path d="M217.321 133.582L216.636 137.233C216.636 137.233 216.519 137.578 217.549 137.689" stroke="#2E353A" stroke-width="0.75" stroke-linecap="round" stroke-linejoin="round"/>
<path d="M204.162 135.923L203.519 135.18" stroke="#2E353A" stroke-width="0.75" stroke-linecap="round" stroke-linejoin="round"/>
<path d="M201.693 136.742L201.12 136.32" stroke="#2E353A" stroke-width="0.75" stroke-linecap="round" stroke-linejoin="round"/>
<path d="M200.459 137.361L199.64 136.092" stroke="#2E353A" stroke-width="0.75" stroke-linecap="round" stroke-linejoin="round"/>
<path d="M165.009 122.543C168.678 118.566 171.895 114.195 174.599 109.508" stroke="#2E353A" stroke-linecap="round" stroke-linejoin="round"/>
<path d="M117.619 145.671C134.482 144.304 150.333 137.069 162.412 125.223" stroke="#2E353A" stroke-linecap="round" stroke-linejoin="round"/>
<path d="M100.909 145.127C103.256 145.48 105.619 145.714 107.989 145.829" stroke="#2E353A" stroke-linecap="round" stroke-linejoin="round"/>
<path d="M78.7762 136.777C80.2779 137.557 81.801 138.285 83.3456 138.96" stroke="#2E353A" stroke-linecap="round" stroke-linejoin="round"/>
<path d="M40.1091 78.9258C41.141 90.3022 44.8371 101.276 50.8981 110.958C56.9591 120.641 65.2147 128.76 74.9967 134.659" stroke="#2E353A" stroke-linecap="round" stroke-linejoin="round"/>
<path d="M152.536 13.9131C142.206 6.7692 130.203 2.4217 117.694 1.29389C105.186 0.166068 92.5983 2.29636 81.1575 7.47736" stroke="#2E353A" stroke-linecap="round" stroke-linejoin="round"/>
<path d="M178.138 44.0729C177.417 42.4347 176.636 40.8317 175.798 39.2637" stroke="#2E353A" stroke-linecap="round" stroke-linejoin="round"/>
<path d="M150.137 123.788C154.052 120.88 157.629 117.544 160.803 113.842" stroke="#2E353A" stroke-linecap="round" stroke-linejoin="round"/>
<path d="M104.267 136.42C119.449 138.011 134.707 134.228 147.387 125.73" stroke="#2E353A" stroke-linecap="round" stroke-linejoin="round"/>
<path d="M89.5356 133.162C91.5405 133.852 93.5941 134.451 95.6964 134.958" stroke="#2E353A" stroke-linecap="round" stroke-linejoin="round"/>
<path d="M48.2535 90.084C48.6943 91.5467 49.1838 92.9898 49.7221 94.4135" stroke="#2E353A" stroke-linecap="round" stroke-linejoin="round"/>
<path d="M61.2475 28.668C54.5519 36.5018 49.7949 45.802 47.3616 55.816C44.9282 65.8299 44.8869 76.276 47.241 86.3089" stroke="#2E353A" stroke-linecap="round" stroke-linejoin="round"/>
<path d="M138.617 11.8659C128.335 7.1014 116.995 5.08215 105.7 6.00497C94.4062 6.92778 83.5437 10.7612 74.1719 17.1315" stroke="#2E353A" stroke-linecap="round" stroke-linejoin="round"/>
<path d="M171.978 47.3325C166.607 33.6956 156.834 22.2441 144.21 14.7969" stroke="#2E353A" stroke-linecap="round" stroke-linejoin="round"/>
<path d="M174.804 56.3896C174.441 54.8157 174.014 53.2653 173.534 51.7383" stroke="#2E353A" stroke-linecap="round" stroke-linejoin="round"/>
<path d="M172.112 71.9575C172.112 71.1852 172.802 70.4012 172.773 69.6172C172.744 68.8332 171.995 68.1136 171.942 67.353C171.89 66.5924 172.527 65.7499 172.434 65.0127C172.34 64.2755 171.544 63.5735 171.433 62.8129C171.322 62.0523 171.89 61.1747 171.743 60.42C171.597 59.6652 170.755 59.0509 170.573 58.302C170.392 57.5531 170.901 56.6346 170.708 55.8915C170.515 55.1485 169.614 54.6044 169.385 53.8672C169.157 53.13 169.59 52.1763 169.339 51.4567C169.087 50.7371 168.169 50.2515 167.87 49.5377C167.572 48.8239 167.946 47.8351 167.642 47.1331C167.338 46.431 166.367 46.0214 166.033 45.3311C165.7 44.6407 165.98 43.6285 165.623 42.9498C165.267 42.2712 164.272 41.9435 163.868 41.2765C163.465 40.6096 163.693 39.5857 163.283 38.9363C162.874 38.2868 161.856 38.0294 161.423 37.3975C160.99 36.7657 161.118 35.7242 160.662 35.1041C160.206 34.4839 159.176 34.3084 158.696 33.7058C158.217 33.1031 158.269 32.0617 157.766 31.4767C157.263 30.8916 156.221 30.7921 155.701 30.2305C155.18 29.6688 155.151 28.6215 154.607 28.0774C154.063 27.5333 153.015 27.4923 152.454 26.9833C151.892 26.4743 151.787 25.4212 151.207 24.918C150.628 24.4149 149.575 24.4675 148.978 23.9878C148.382 23.508 148.194 22.4783 147.58 22.022C146.966 21.5656 145.924 21.6943 145.287 21.2614C144.649 20.8284 144.397 19.8104 143.742 19.4008C143.087 18.9913 142.069 19.2019 141.402 18.8158C140.735 18.4296 140.407 17.4409 139.728 17.0606C139.05 16.6803 138.038 16.9845 137.347 16.651C136.657 16.3175 136.253 15.3522 135.545 15.0421C134.837 14.732 133.86 15.0948 133.141 14.8139C132.421 14.5331 131.97 13.6028 131.221 13.3454C130.473 13.088 129.548 13.5268 128.811 13.2986C128.074 13.0704 127.53 12.1811 126.787 11.9822C126.044 11.7833 125.131 12.2864 124.376 12.1109C123.621 11.9354 123.019 11.0929 122.258 10.9408C121.498 10.7887 120.632 11.3679 119.865 11.2509C119.099 11.1338 118.438 10.3381 117.671 10.2504C116.905 10.1626 116.074 10.8004 115.331 10.7418C114.588 10.6833 113.833 9.94031 113.061 9.91105C112.289 9.8818 111.516 10.578 110.721 10.578C109.925 10.578 109.17 9.8818 108.38 9.91105C107.591 9.94031 106.877 10.6892 106.11 10.7418C105.344 10.7945 104.513 10.1568 103.77 10.2504C103.027 10.344 102.331 11.1397 101.576 11.2509C100.821 11.362 99.9379 10.7945 99.1832 10.9408C98.4285 11.087 97.8141 11.9295 97.0652 12.1109C96.3164 12.2923 95.3978 11.7833 94.6548 11.9822C93.9117 12.1811 93.3618 13.0704 92.6304 13.2986C91.8991 13.5268 90.9396 13.0938 90.2141 13.3454C89.4886 13.597 89.044 14.5155 88.3009 14.8139C87.5579 15.1123 86.5984 14.7379 85.8963 15.0421C85.1942 15.3463 84.7847 16.3175 84.0943 16.651C83.4039 16.9845 82.3917 16.7037 81.7131 17.0606C81.0344 17.4175 80.7009 18.4121 80.0398 18.8158C79.3786 19.2195 78.3431 18.9972 77.6995 19.4008C77.0559 19.8045 76.7926 20.8226 76.1608 21.2555C75.5289 21.6885 74.4875 21.5597 73.8673 22.0161C73.2471 22.4725 73.0716 23.5022 72.469 23.9878C71.8664 24.4734 70.8249 24.409 70.2399 24.9122C69.6548 25.4153 69.5553 26.4568 68.9937 26.9775C68.432 27.4982 67.3848 27.5274 66.8406 28.0716C66.2965 28.6157 66.2556 29.6629 65.7466 30.2246C65.2375 30.7863 64.202 30.8799 63.6988 31.4649C63.1957 32.05 63.2483 33.0914 62.7686 33.6941C62.2888 34.2967 61.2591 34.4722 60.8027 35.0924C60.3464 35.7125 60.4751 36.7481 60.0421 37.38C59.6092 38.0119 58.5912 38.2693 58.1816 38.9246C57.7721 39.5798 57.9827 40.5979 57.5966 41.2648C57.2104 41.9318 56.2158 42.2594 55.8414 42.944C55.4669 43.6285 55.7653 44.629 55.4318 45.3193C55.0983 46.0097 54.133 46.4193 53.8229 47.1214C53.5128 47.8234 53.8755 48.8064 53.5947 49.526C53.3139 50.2456 52.3778 50.6961 52.1262 51.445C51.8746 52.1939 52.3017 53.1183 52.0794 53.8555C51.857 54.5927 50.956 55.1368 50.7571 55.8798C50.5582 56.6229 51.0614 57.5414 50.8917 58.2903C50.722 59.0392 49.8737 59.6477 49.7216 60.4082C49.5694 61.1688 50.1545 62.0406 50.0375 62.8012C49.9205 63.5618 49.1248 64.2287 49.037 65.001C48.9493 65.7733 49.587 66.5924 49.5285 67.3413C49.47 68.0902 48.7211 68.8332 48.6977 69.6055C48.6743 70.3778 49.3588 71.1559 49.3588 71.9458C49.3588 72.7356 48.6684 73.4962 48.6977 74.2861C48.7269 75.0759 49.4758 75.7897 49.5285 76.5561C49.5811 77.3226 48.9434 78.1534 49.037 78.8964C49.1306 79.6394 49.9263 80.3357 50.0375 81.0904C50.1487 81.8451 49.5811 82.7344 49.7216 83.4892C49.862 84.2439 50.7162 84.8524 50.8917 85.6013C51.0672 86.3502 50.5582 87.2746 50.7571 88.0117C50.956 88.7489 51.8512 89.3047 52.0794 90.0361C52.3075 90.7674 51.8746 91.7269 52.1262 92.4524C52.3778 93.1779 53.2963 93.6518 53.5947 94.3714C53.8931 95.0911 53.5186 96.0681 53.8229 96.7702C54.1271 97.4723 55.0983 97.8818 55.4318 98.5722C55.7653 99.2626 55.4786 100.275 55.8414 100.953C56.2041 101.632 57.1929 101.966 57.5966 102.633C58.0003 103.3 57.7721 104.323 58.1816 104.973C58.5912 105.622 59.6092 105.88 60.0421 106.512C60.4751 107.143 60.3464 108.185 60.8027 108.805C61.2591 109.425 62.2888 109.601 62.7686 110.203C63.2483 110.806 63.1957 111.853 63.6988 112.432C64.202 113.012 65.2434 113.117 65.7641 113.685C66.2848 114.252 66.3141 115.293 66.8582 115.838C67.4023 116.382 68.4496 116.423 69.0112 116.926C69.5729 117.429 69.6782 118.494 70.2574 118.991C70.8367 119.488 71.8839 119.442 72.4865 119.921C73.0892 120.401 73.2705 121.431 73.8849 121.887C74.4992 122.344 75.5406 122.215 76.1783 122.648C76.816 123.081 77.0676 124.099 77.7229 124.508C78.3782 124.918 79.3962 124.707 80.0632 125.093C80.7301 125.479 81.0578 126.474 81.7365 126.849C82.4151 127.223 83.4215 126.925 84.1177 127.258C84.8139 127.592 85.2118 128.557 85.9197 128.867C86.6276 129.177 87.6047 128.814 88.3243 129.095C89.044 129.376 89.4945 130.312 90.2434 130.564C90.9922 130.815 91.9166 130.388 92.6538 130.611C93.391 130.833 93.9351 131.734 94.6782 131.933C95.4212 132.132 96.3339 131.629 97.0886 131.798C97.8434 131.968 98.446 132.816 99.2066 132.968C99.9672 133.12 100.833 132.535 101.6 132.652C102.366 132.769 103.027 133.565 103.794 133.653C104.56 133.741 105.391 133.103 106.134 133.161C106.877 133.22 107.632 133.969 108.404 133.998C109.176 134.027 109.948 133.331 110.744 133.331C111.54 133.331 112.3 134.021 113.084 133.998C113.868 133.975 114.588 133.22 115.349 133.161C116.109 133.103 116.952 133.746 117.689 133.653C118.426 133.559 119.128 132.764 119.889 132.652C120.649 132.541 121.527 133.109 122.282 132.968C123.036 132.828 123.651 131.974 124.4 131.798C125.148 131.623 126.067 132.132 126.81 131.933C127.553 131.734 128.103 130.839 128.834 130.611C129.566 130.382 130.525 130.815 131.251 130.564C131.976 130.312 132.45 129.394 133.164 129.095C133.878 128.797 134.866 129.177 135.569 128.867C136.271 128.557 136.68 127.592 137.371 127.258C138.061 126.925 139.073 127.211 139.752 126.849C140.43 126.486 140.764 125.497 141.425 125.093C142.086 124.69 143.116 124.918 143.765 124.508C144.415 124.099 144.672 123.081 145.304 122.648C145.936 122.215 146.977 122.344 147.598 121.887C148.218 121.431 148.393 120.401 148.996 119.921C149.598 119.442 150.64 119.494 151.225 118.991C151.81 118.488 151.91 117.447 152.471 116.926C153.033 116.405 154.08 116.376 154.624 115.832C155.168 115.288 155.209 114.246 155.718 113.679C156.227 113.111 157.28 113.012 157.784 112.432C158.287 111.853 158.234 110.806 158.714 110.203C159.194 109.601 160.223 109.425 160.68 108.805C161.136 108.185 161.007 107.149 161.44 106.512C161.873 105.874 162.891 105.622 163.301 104.973C163.71 104.323 163.5 103.294 163.886 102.633C164.272 101.971 165.261 101.638 165.641 100.959C166.021 100.281 165.717 99.2743 166.051 98.5781C166.384 97.8818 167.349 97.484 167.66 96.7761C167.97 96.0681 167.607 95.0911 167.888 94.3714C168.169 93.6518 169.099 93.2013 169.356 92.4583C169.614 91.7152 169.175 90.7791 169.403 90.0419C169.631 89.3047 170.526 88.7665 170.725 88.0176C170.924 87.2687 170.421 86.3618 170.591 85.6071C170.76 84.8524 171.609 84.2498 171.761 83.495C171.913 82.7403 171.334 81.8627 171.451 81.0962C171.568 80.3298 172.363 79.6687 172.451 78.9022C172.539 78.1358 171.901 77.305 171.96 76.562C172.018 75.8189 172.761 75.0642 172.791 74.2919C172.82 73.5196 172.112 72.7298 172.112 71.9575Z" fill="#407BFF" stroke="#2E353A" stroke-width="2" stroke-linecap="round" stroke-linejoin="round"/>
<path d="M92.3673 13.5391L93.4497 16.5697" stroke="#2E353A" stroke-width="2" stroke-linecap="round" stroke-linejoin="round"/>
<path d="M88.2487 15.1641L89.2257 17.5453" stroke="#2E353A" stroke-width="2" stroke-linecap="round" stroke-linejoin="round"/>
<path d="M163.635 41.377C161.864 42.8949 159.851 44.1034 157.679 44.9517" stroke="#2E353A" stroke-width="2" stroke-linecap="round" stroke-linejoin="round"/>
<path d="M165.799 45.3848C164.993 45.895 164.161 46.3637 163.307 46.7889" stroke="#2E353A" stroke-width="2" stroke-linecap="round" stroke-linejoin="round"/>
<path d="M75.9034 122.735C75.9034 122.735 78.5011 119.809 78.9341 117.645" stroke="#2E353A" stroke-width="2" stroke-linecap="round" stroke-linejoin="round"/>
<path d="M68.6427 116.757C68.6427 116.757 70.8133 114.054 71.2463 113.621" stroke="#2E353A" stroke-width="2" stroke-linecap="round" stroke-linejoin="round"/>
<path d="M124.318 131.489L123.452 126.727" stroke="#2E353A" stroke-width="2" stroke-linecap="round" stroke-linejoin="round"/>
<path d="M129.08 130.517L128.431 127.809" stroke="#2E353A" stroke-width="2" stroke-linecap="round" stroke-linejoin="round"/>
<path d="M148.902 119.793L145.222 115.674" stroke="#2E353A" stroke-width="2" stroke-linecap="round" stroke-linejoin="round"/>
<path d="M166.232 98.5601L160.709 95.6406" stroke="#2E353A" stroke-width="2" stroke-linecap="round" stroke-linejoin="round"/>
<path d="M49.7976 72.0273L54.4547 72.1327" stroke="#2E353A" stroke-width="2" stroke-linecap="round" stroke-linejoin="round"/>
<path d="M56.4033 72.2441L58.6792 72.3495" stroke="#2E353A" stroke-width="2" stroke-linecap="round" stroke-linejoin="round"/>
<path d="M55.7538 98.8889C56.2979 98.6724 59.8493 97.7188 59.8493 97.7188" stroke="#2E353A" stroke-width="2" stroke-linecap="round" stroke-linejoin="round"/>
<path d="M124.353 12.2051C124.025 12.8604 123.37 16.634 123.37 16.634" stroke="#2E353A" stroke-width="2" stroke-linecap="round" stroke-linejoin="round"/>
<path d="M128.612 13.6797L128.121 16.1428" stroke="#2E353A" stroke-width="2" stroke-linecap="round" stroke-linejoin="round"/>
<path d="M145.497 21.7129L144.187 23.3511" stroke="#2E353A" stroke-width="2" stroke-linecap="round" stroke-linejoin="round"/>
<path d="M59.9312 37.4512L63.2075 39.2532" stroke="#2E353A" stroke-width="2" stroke-linecap="round" stroke-linejoin="round"/>
<path d="M65.1794 40.2344L67.8006 41.7087" stroke="#2E353A" stroke-width="2" stroke-linecap="round" stroke-linejoin="round"/>
<path d="M128.086 54.0718C128.086 54.0718 127.085 52.5214 122.03 49.3327C116.975 46.1441 103.893 43.1135 98.7388 40.3285C93.5844 37.4559 87.839 32.0381 85.8322 29.4346C83.8255 26.831 84.1355 24.8652 82.5208 24.7072C80.906 24.5493 79.2912 25.2923 78.1679 28.674C77.0445 32.0557 78.4194 40.5275 79.338 43.131C80.2566 45.7346 82.9537 47.3845 84.668 48.0748C86.3822 48.7652 90.2144 50.5848 90.2085 52.2171C90.2027 53.8495 89.9979 54.1712 89.29 54.2941C88.5821 54.417 73.0193 56.7221 70.6205 57.4184C68.2217 58.1146 67.1861 62.4851 67.8707 65.9311C68.5552 69.3772 71.2699 70.4595 70.4508 72.9051C69.6317 75.3507 68.2217 78.2175 69.6142 81.4647C71.0066 84.7118 73.6219 84.2086 72.6039 86.7303C71.5858 89.2519 71.5741 92.2007 72.873 94.0963C74.1718 95.9919 75.8861 97.2205 75.8744 99.5199C75.8627 101.819 79.8763 106.88 82.3979 107.6C83.6441 107.974 94.9593 109.214 105.976 109.326C116.987 109.606 127.7 108.741 127.682 108.741C127.815 90.5059 127.949 72.283 128.086 54.0718Z" fill="white" stroke="#2E353A" stroke-width="3" stroke-linecap="round" stroke-linejoin="round"/>
<path d="M150.073 107.033C143.52 108.024 136.944 108.753 130.344 109.222C129.918 109.24 129.492 109.169 129.094 109.013C128.697 108.857 128.336 108.618 128.037 108.314C127.737 108.009 127.505 107.645 127.355 107.245C127.206 106.845 127.141 106.418 127.167 105.992C127.234 89.5281 127.3 73.0721 127.366 56.6239C127.35 56.1915 127.42 55.7603 127.574 55.3557C127.727 54.9511 127.96 54.5815 128.259 54.2688C128.559 53.9561 128.917 53.7067 129.315 53.5354C129.712 53.364 130.14 53.2743 130.572 53.2715C137.172 53.4587 143.748 53.7259 150.301 54.073C151.155 54.1335 151.954 54.5144 152.539 55.1393C153.124 55.7643 153.451 56.5871 153.454 57.443C153.384 72.7289 153.316 88.0265 153.25 103.336C153.224 104.223 152.894 105.074 152.316 105.747C151.738 106.42 150.946 106.874 150.073 107.033Z" fill="#2E353A" stroke="#2E353A" stroke-width="3" stroke-linecap="round" stroke-linejoin="round"/>
<path d="M135.422 103.33C135.438 103.008 135.387 102.687 135.271 102.387C135.155 102.087 134.978 101.815 134.75 101.587C134.522 101.36 134.249 101.183 133.949 101.068C133.648 100.953 133.327 100.902 133.006 100.919C132.329 100.992 131.704 101.315 131.253 101.825C130.801 102.334 130.557 102.994 130.566 103.675C130.547 103.998 130.596 104.321 130.71 104.624C130.825 104.926 131.002 105.201 131.23 105.431C131.458 105.66 131.732 105.838 132.034 105.954C132.336 106.07 132.66 106.121 132.983 106.103C133.658 106.02 134.28 105.691 134.73 105.18C135.18 104.669 135.426 104.01 135.422 103.33Z" fill="white" stroke="#2E353A" stroke-width="3" stroke-linecap="round" stroke-linejoin="round"/>
<path d="M127.881 48.0451C134.369 48.0451 139.629 42.7853 139.629 36.297C139.629 29.8087 134.369 24.5488 127.881 24.5488C121.392 24.5488 116.133 29.8087 116.133 36.297C116.133 42.7853 121.392 48.0451 127.881 48.0451Z" fill="white"/>
<path d="M147.683 53.6898C149.387 51.9853 149.387 49.2218 147.683 47.5173C145.978 45.8128 143.215 45.8128 141.51 47.5173C139.806 49.2218 139.806 51.9853 141.51 53.6898C143.215 55.3942 145.978 55.3942 147.683 53.6898Z" fill="white"/>
<path opacity="0.2" d="M106.35 131.308C107.088 131.36 107.79 132.086 108.539 132.115C109.287 132.144 110.036 131.471 110.779 131.471C111.522 131.471 112.283 132.138 113.026 132.115C113.769 132.092 114.477 131.36 115.214 131.308C115.951 131.255 116.759 131.893 117.496 131.782C118.233 131.67 118.888 130.927 119.62 130.816C120.351 130.705 121.205 131.255 121.96 131.12C122.715 130.986 123.282 130.161 124.002 129.997C124.722 129.833 125.617 130.319 126.342 130.126C127.068 129.933 127.588 129.073 128.296 128.85C129.004 128.628 129.929 129.049 130.637 128.804C131.344 128.558 131.807 127.633 132.491 127.388C133.176 127.142 134.135 127.464 134.832 127.165C135.528 126.867 135.902 125.937 136.587 125.609C137.271 125.281 138.231 125.562 138.886 125.217C139.541 124.872 139.863 123.906 140.507 123.538C141.15 123.169 142.145 123.362 142.771 122.953C143.397 122.543 143.648 121.572 144.263 121.157C144.877 120.741 145.878 120.864 146.474 120.419C147.071 119.975 147.247 118.98 147.826 118.518C148.405 118.056 149.417 118.108 149.979 117.623C150.541 117.137 150.64 116.131 151.184 115.628C151.728 115.125 152.74 115.095 153.267 114.569C153.794 114.042 153.817 113.036 154.32 112.492C154.823 111.948 155.835 111.848 156.321 111.281C156.807 110.713 156.754 109.713 157.216 109.128C157.678 108.543 158.673 108.373 159.118 107.776C159.562 107.179 159.434 106.179 159.855 105.565C160.276 104.95 161.253 104.705 161.645 104.073C162.037 103.441 161.844 102.452 162.23 101.808C162.616 101.165 163.564 100.849 163.909 100.194C164.255 99.5384 163.985 98.5614 164.307 97.8944C164.629 97.2274 165.565 96.8354 165.863 96.1392C166.162 95.4429 165.811 94.5127 166.086 93.7989C166.361 93.0851 167.256 92.6288 167.502 91.9442C167.747 91.2597 167.326 90.3236 167.548 89.604C167.771 88.8843 168.631 88.3695 168.824 87.6498C169.017 86.9302 168.526 86.0468 168.695 85.3096C168.865 84.5724 169.678 83.999 169.819 83.2677C169.959 82.5364 169.403 81.6939 169.514 80.9274C169.625 80.161 170.398 79.5408 170.48 78.8036C170.562 78.0664 169.947 77.2649 170.006 76.516C170.064 75.7671 170.784 75.0767 170.807 74.3279C170.831 73.579 170.164 72.8301 170.164 72.087C170.164 71.344 170.837 70.5834 170.807 69.8404C170.778 69.0973 170.058 68.3894 170.006 67.6522C169.953 66.915 170.562 66.1076 170.48 65.3705C170.398 64.6333 169.62 63.978 169.514 63.2467C169.409 62.5153 169.953 61.6611 169.819 60.9064C169.684 60.1517 168.859 59.5841 168.695 58.8645C168.662 58.7049 168.652 58.5413 168.666 58.3789C127.477 93.483 76.2253 90.7741 52.8869 87.1408C52.8767 87.2922 52.8905 87.4443 52.9279 87.5913C53.1209 88.311 53.981 88.8375 54.2033 89.5455C54.4256 90.2534 54.0044 91.1778 54.2501 91.8857C54.4958 92.5937 55.4203 93.0559 55.666 93.7345C55.9117 94.4132 55.5899 95.3786 55.8883 96.0748C56.1867 96.771 57.1169 97.1513 57.4446 97.83C57.7722 98.5087 57.4914 99.4741 57.8366 100.129C58.1818 100.785 59.1471 101.106 59.5157 101.75C59.8843 102.394 59.6912 103.382 60.1008 104.008C60.5103 104.634 61.4816 104.886 61.8969 105.5C62.3123 106.115 62.1895 107.115 62.6341 107.718C63.0788 108.32 64.0734 108.484 64.5356 109.069C64.9978 109.654 64.9452 110.655 65.4308 111.222C65.9164 111.79 66.9227 111.883 67.4258 112.427C67.929 112.972 67.9583 113.984 68.4848 114.51C69.0114 115.037 70.0177 115.054 70.5618 115.563C71.1059 116.072 71.2054 117.073 71.7729 117.559C72.3404 118.044 73.3409 117.991 73.926 118.454C74.511 118.916 74.6807 119.916 75.2775 120.355C75.8742 120.794 76.8747 120.671 77.489 121.092C78.1033 121.514 78.3491 122.491 78.9809 122.888C79.6128 123.286 80.6016 123.082 81.2451 123.474C81.8887 123.866 82.2047 124.802 82.8599 125.153C83.5152 125.504 84.4923 125.223 85.1592 125.551C85.8262 125.878 86.2182 126.803 86.9145 127.101C87.6107 127.399 88.5409 127.048 89.2547 127.323C89.9685 127.598 90.4249 128.493 91.1094 128.739C91.7939 128.985 92.73 128.569 93.4497 128.786C94.1693 129.002 94.6842 129.868 95.4038 130.061C96.1234 130.254 97.0069 129.769 97.7441 129.933C98.4812 130.097 99.0605 130.916 99.7918 131.056C100.523 131.196 101.366 130.641 102.103 130.752C102.84 130.863 103.489 131.635 104.227 131.717C104.964 131.799 105.602 131.255 106.35 131.308Z" fill="black"/>
</svg>
