<svg width="248" height="202" viewBox="0 0 248 202" fill="none" xmlns="http://www.w3.org/2000/svg">
<mask id="mask0_4223_59927" style="mask-type:luminance" maskUnits="userSpaceOnUse" x="0" y="0" width="248" height="202">
<path d="M247.083 0H0.917969V202H247.083V0Z" fill="white"/>
</mask>
<g mask="url(#mask0_4223_59927)">
<path d="M29.1396 40.7252C19.6593 53.4637 13.5671 72.1827 18.1864 87.8601C26.0827 114.656 59.5936 116.677 82.5411 119.779C98.3615 121.917 114.086 134.352 127.591 142.068C145.598 152.356 174.615 168.583 195.411 158.046C212.644 149.314 221.911 128.193 227.201 110.667C235.486 83.2264 236.284 50.1268 218.245 26.2234C193.742 -6.24068 150.785 -0.822069 115.095 4.73594C91.2112 8.45569 67.9922 12.0782 46.7529 24.738C39.8608 28.846 33.8942 34.3367 29.1396 40.7252Z" fill="#224CDF"/>
<path opacity="0.4" d="M29.1396 40.7252C19.6593 53.4637 13.5671 72.1827 18.1864 87.8601C26.0827 114.656 59.5936 116.677 82.5411 119.779C98.3615 121.917 114.086 134.352 127.591 142.068C145.598 152.356 174.615 168.583 195.411 158.046C212.644 149.314 221.911 128.193 227.201 110.667C235.486 83.2264 236.284 50.1268 218.245 26.2234C193.742 -6.24068 150.785 -0.822069 115.095 4.73594C91.2112 8.45569 67.9922 12.0782 46.7529 24.738C39.8608 28.846 33.8942 34.3367 29.1396 40.7252Z" fill="white"/>
<path d="M1.48438 193.818C1.48438 195.958 56.3567 197.693 124.045 197.693C191.732 197.693 246.604 195.958 246.604 193.818C246.604 191.677 191.732 189.942 124.045 189.942C56.3567 189.942 1.48438 191.677 1.48438 193.818Z" fill="#224CDF"/>
<path opacity="0.6" d="M1.48438 193.818C1.48438 195.958 56.3567 197.693 124.045 197.693C191.732 197.693 246.604 195.958 246.604 193.818C246.604 191.677 191.732 189.942 124.045 189.942C56.3567 189.942 1.48438 191.677 1.48438 193.818Z" fill="white"/>
<path d="M137.906 1.8291H29.0469V139.914H137.906V1.8291Z" fill="white" stroke="#001357" stroke-width="0.450699" stroke-miterlimit="10" stroke-linecap="round" stroke-linejoin="round"/>
<path d="M137.906 1.8291H29.0469V10.0697H137.906V1.8291Z" fill="#001357" stroke="#001357" stroke-width="0.450699" stroke-miterlimit="10" stroke-linecap="round" stroke-linejoin="round"/>
<path d="M50.5445 98.1299H32.1445V137.182H50.5445V98.1299Z" fill="#224CDF"/>
<path opacity="0.6" d="M50.5445 98.1299H32.1445V137.182H50.5445V98.1299Z" fill="white"/>
<path d="M70.6108 98.1299H52.2109V137.182H70.6108V98.1299Z" fill="#224CDF"/>
<path opacity="0.6" d="M70.6108 98.1299H52.2109V137.182H70.6108V98.1299Z" fill="white"/>
<path d="M91.9353 98.1299H73.5352V137.182H91.9353V98.1299Z" fill="#224CDF"/>
<path d="M86.2518 21.4165H32.168V94.7302H86.2518V21.4165Z" fill="#224CDF"/>
<path opacity="0.6" d="M91.9353 98.1299H73.5352V137.182H91.9353V98.1299Z" fill="white"/>
<path opacity="0.6" d="M86.2518 21.4165H32.168V94.7302H86.2518V21.4165Z" fill="white"/>
<path d="M113.252 98.1299H94.8516V137.182H113.252V98.1299Z" fill="#224CDF"/>
<path opacity="0.6" d="M113.252 98.1299H94.8516V137.182H113.252V98.1299Z" fill="white"/>
<path d="M135.088 98.1299H116.688V137.182H135.088V98.1299Z" fill="white" stroke="#001357" stroke-width="0.450699" stroke-miterlimit="10" stroke-linecap="round" stroke-linejoin="round"/>
<path d="M134.794 5.0835H32.1562V14.5482H134.794V5.0835Z" fill="#224CDF"/>
<path opacity="0.6" d="M134.794 5.0835H32.1562V14.5482H134.794V5.0835Z" fill="white"/>
<path d="M133.35 6.92334H34V11.1149H133.35V6.92334Z" fill="white"/>
<path d="M133.35 6.92334H122.098V11.1149H133.35V6.92334Z" fill="#001357" stroke="#001357" stroke-width="0.450699" stroke-miterlimit="10" stroke-linecap="round" stroke-linejoin="round"/>
<path d="M134.027 23.0305H90.3915C89.944 23.0305 89.582 22.6681 89.582 22.2211C89.582 21.774 89.944 21.4116 90.3915 21.4116H134.028C134.475 21.4116 134.837 21.774 134.837 22.2211C134.837 22.6681 134.474 23.0305 134.027 23.0305Z" fill="#001357"/>
<path d="M134.027 28.6888H90.3915C89.944 28.6888 89.582 28.3264 89.582 27.8793C89.582 27.4322 89.944 27.0698 90.3915 27.0698H134.028C134.475 27.0698 134.837 27.4322 134.837 27.8793C134.837 28.3264 134.474 28.6888 134.027 28.6888Z" fill="#001357"/>
<path d="M134.027 34.3474H90.3915C89.944 34.3474 89.582 33.985 89.582 33.538C89.582 33.0909 89.944 32.7285 90.3915 32.7285H134.028C134.475 32.7285 134.837 33.0909 134.837 33.538C134.837 33.985 134.474 34.3474 134.027 34.3474Z" fill="#001357"/>
<path d="M134.027 40.0056H90.3915C89.944 40.0056 89.582 39.6432 89.582 39.1962C89.582 38.7491 89.944 38.3867 90.3915 38.3867H134.028C134.475 38.3867 134.837 38.7491 134.837 39.1962C134.837 39.6432 134.474 40.0056 134.027 40.0056Z" fill="#001357"/>
<path d="M134.027 45.6633H90.3915C89.944 45.6633 89.582 45.301 89.582 44.8539C89.582 44.4068 89.944 44.0444 90.3915 44.0444H134.028C134.475 44.0444 134.837 44.4068 134.837 44.8539C134.837 45.301 134.474 45.6633 134.027 45.6633Z" fill="#001357"/>
<path d="M134.027 51.3225H90.3915C89.944 51.3225 89.582 50.9601 89.582 50.5131C89.582 50.066 89.944 49.7036 90.3915 49.7036H134.028C134.475 49.7036 134.837 50.066 134.837 50.5131C134.837 50.9601 134.474 51.3225 134.027 51.3225Z" fill="#001357"/>
<path d="M134.027 56.9802H90.3915C89.944 56.9802 89.582 56.6179 89.582 56.1708C89.582 55.7237 89.944 55.3613 90.3915 55.3613H134.028C134.475 55.3613 134.837 55.7237 134.837 56.1708C134.837 56.6179 134.474 56.9802 134.027 56.9802Z" fill="#001357"/>
<path d="M134.811 60.7812H90.3438V91.7965H134.811V60.7812Z" fill="#224CDF"/>
<path opacity="0.6" d="M134.811 60.7812H90.3438V91.7965H134.811V60.7812Z" fill="white"/>
<path d="M150.356 18.0542H105.035V139.629H150.356V18.0542Z" fill="#224CDF"/>
<path opacity="0.4" d="M150.356 18.0542H105.035V139.629H150.356V18.0542Z" fill="white"/>
<path d="M217.281 13.5015H108.422V151.587H217.281V13.5015Z" fill="white" stroke="#001357" stroke-width="0.450699" stroke-miterlimit="10" stroke-linecap="round" stroke-linejoin="round"/>
<path d="M217.281 13.5015H108.422V21.7421H217.281V13.5015Z" fill="#001357" stroke="#001357" stroke-width="0.450699" stroke-miterlimit="10" stroke-linecap="round" stroke-linejoin="round"/>
<path d="M183.316 33.0557H145.09V104.513H183.316V33.0557Z" fill="#224CDF"/>
<path opacity="0.6" d="M183.316 33.0557H145.09V104.513H183.316V33.0557Z" fill="white"/>
<path d="M214.17 109.803H111.531V148.855H214.17V109.803Z" fill="#224CDF"/>
<path opacity="0.6" d="M214.17 109.803H111.531V148.855H214.17V109.803Z" fill="white"/>
<path d="M214.17 16.7563H111.531V26.221H214.17V16.7563Z" fill="#224CDF"/>
<path opacity="0.6" d="M214.17 16.7563H111.531V26.221H214.17V16.7563Z" fill="white"/>
<path d="M212.725 18.5957H113.375V22.7872H212.725V18.5957Z" fill="white"/>
<path d="M212.728 18.5957H201.477V22.7872H212.728V18.5957Z" fill="#001357" stroke="#001357" stroke-width="0.450699" stroke-miterlimit="10" stroke-linecap="round" stroke-linejoin="round"/>
<path d="M138.661 34.7034H112.466C112.019 34.7034 111.656 34.3411 111.656 33.894C111.656 33.4468 112.019 33.0845 112.466 33.0845H138.661C139.109 33.0845 139.471 33.4468 139.471 33.894C139.471 34.3411 139.109 34.7034 138.661 34.7034Z" fill="#001357"/>
<path d="M138.661 40.3621H112.466C112.019 40.3621 111.656 39.9997 111.656 39.5526C111.656 39.1055 112.019 38.7432 112.466 38.7432H138.661C139.109 38.7432 139.471 39.1055 139.471 39.5526C139.471 39.9991 139.109 40.3621 138.661 40.3621Z" fill="#001357"/>
<path d="M138.661 46.0198H112.466C112.019 46.0198 111.656 45.6574 111.656 45.2103C111.656 44.7632 112.019 44.4009 112.466 44.4009H138.661C139.109 44.4009 139.471 44.7632 139.471 45.2103C139.471 45.6574 139.109 46.0198 138.661 46.0198Z" fill="#001357"/>
<path d="M138.661 51.678H112.466C112.019 51.678 111.656 51.3156 111.656 50.8685C111.656 50.4215 112.019 50.0591 112.466 50.0591H138.661C139.109 50.0591 139.471 50.4215 139.471 50.8685C139.471 51.3156 139.109 51.678 138.661 51.678Z" fill="#001357"/>
<path d="M138.661 57.3362H112.466C112.019 57.3362 111.656 56.9738 111.656 56.5267C111.656 56.0797 112.019 55.7173 112.466 55.7173H138.661C139.109 55.7173 139.471 56.0797 139.471 56.5267C139.471 56.9738 139.109 57.3362 138.661 57.3362Z" fill="#001357"/>
<path d="M138.661 62.9949H112.466C112.019 62.9949 111.656 62.6326 111.656 62.1854C111.656 61.7383 112.019 61.376 112.466 61.376H138.661C139.109 61.376 139.471 61.7383 139.471 62.1854C139.471 62.6326 139.109 62.9949 138.661 62.9949Z" fill="#001357"/>
<path d="M138.661 68.6526H112.466C112.019 68.6526 111.656 68.2902 111.656 67.8431C111.656 67.3961 112.019 67.0337 112.466 67.0337H138.661C139.109 67.0337 139.471 67.3961 139.471 67.8431C139.471 68.2902 139.109 68.6526 138.661 68.6526Z" fill="#001357"/>
<path d="M138.661 73.6822H112.466C112.019 73.6822 111.656 73.3202 111.656 72.8728C111.656 72.4261 112.019 72.0635 112.466 72.0635H138.661C139.109 72.0635 139.471 72.4261 139.471 72.8728C139.471 73.3202 139.109 73.6822 138.661 73.6822Z" fill="#001357"/>
<path d="M138.661 79.3411H112.466C112.019 79.3411 111.656 78.9783 111.656 78.5316C111.656 78.0842 112.019 77.7222 112.466 77.7222H138.661C139.109 77.7222 139.471 78.0842 139.471 78.5316C139.471 78.9783 139.109 79.3411 138.661 79.3411Z" fill="#001357"/>
<path d="M138.661 84.9993H112.466C112.019 84.9993 111.656 84.6365 111.656 84.1898C111.656 83.7424 112.019 83.3804 112.466 83.3804H138.661C139.109 83.3804 139.471 83.7424 139.471 84.1898C139.471 84.6365 139.109 84.9993 138.661 84.9993Z" fill="#001357"/>
<path d="M138.661 90.6565H112.466C112.019 90.6565 111.656 90.2945 111.656 89.847C111.656 89.4003 112.019 89.0376 112.466 89.0376H138.661C139.109 89.0376 139.471 89.4003 139.471 89.847C139.471 90.2945 139.109 90.6565 138.661 90.6565Z" fill="#001357"/>
<path d="M138.661 96.3157H112.466C112.019 96.3157 111.656 95.9529 111.656 95.5062C111.656 95.0588 112.019 94.6968 112.466 94.6968H138.661C139.109 94.6968 139.471 95.0588 139.471 95.5062C139.471 95.9529 139.109 96.3157 138.661 96.3157Z" fill="#001357"/>
<path d="M138.661 101.974H112.466C112.019 101.974 111.656 101.611 111.656 101.164C111.656 100.717 112.019 100.355 112.466 100.355H138.661C139.109 100.355 139.471 100.717 139.471 101.164C139.471 101.611 139.109 101.974 138.661 101.974Z" fill="#001357"/>
<path d="M138.661 107.632H112.466C112.019 107.632 111.656 107.269 111.656 106.823C111.656 106.376 112.019 106.013 112.466 106.013H138.661C139.109 106.013 139.471 106.376 139.471 106.823C139.471 107.269 139.109 107.632 138.661 107.632Z" fill="#001357"/>
<path d="M213.974 34.7034H187.778C187.331 34.7034 186.969 34.3411 186.969 33.894C186.969 33.4468 187.331 33.0845 187.778 33.0845H213.974C214.421 33.0845 214.783 33.4468 214.783 33.894C214.783 34.3411 214.421 34.7034 213.974 34.7034Z" fill="#001357"/>
<path d="M213.974 40.3621H187.778C187.331 40.3621 186.969 39.9997 186.969 39.5526C186.969 39.1055 187.331 38.7432 187.778 38.7432H213.974C214.421 38.7432 214.783 39.1055 214.783 39.5526C214.784 39.9991 214.421 40.3621 213.974 40.3621Z" fill="#001357"/>
<path d="M213.974 46.0198H187.778C187.331 46.0198 186.969 45.6574 186.969 45.2103C186.969 44.7632 187.331 44.4009 187.778 44.4009H213.974C214.421 44.4009 214.783 44.7632 214.783 45.2103C214.783 45.6574 214.421 46.0198 213.974 46.0198Z" fill="#001357"/>
<path d="M213.974 51.678H187.778C187.331 51.678 186.969 51.3157 186.969 50.8685C186.969 50.4215 187.331 50.0591 187.778 50.0591H213.974C214.421 50.0591 214.783 50.4215 214.783 50.8685C214.784 51.3157 214.421 51.678 213.974 51.678Z" fill="#001357"/>
<path d="M213.974 57.3367H187.778C187.331 57.3367 186.969 56.9744 186.969 56.5272C186.969 56.0801 187.331 55.7178 187.778 55.7178H213.974C214.421 55.7178 214.783 56.0801 214.783 56.5272C214.783 56.9744 214.421 57.3367 213.974 57.3367Z" fill="#001357"/>
<path d="M213.974 62.9949H187.778C187.331 62.9949 186.969 62.6326 186.969 62.1854C186.969 61.7383 187.331 61.376 187.778 61.376H213.974C214.421 61.376 214.783 61.7383 214.783 62.1854C214.783 62.6326 214.421 62.9949 213.974 62.9949Z" fill="#001357"/>
<path d="M213.974 68.6526H187.778C187.331 68.6526 186.969 68.2902 186.969 67.8431C186.969 67.396 187.331 67.0337 187.778 67.0337H213.974C214.421 67.0337 214.783 67.396 214.783 67.8431C214.783 68.2902 214.421 68.6526 213.974 68.6526Z" fill="#001357"/>
<path d="M214.186 72.4536H187.152V103.469H214.186V72.4536Z" fill="#224CDF"/>
<path opacity="0.6" d="M214.186 72.4536H187.152V103.469H214.186V72.4536Z" fill="white"/>
<path d="M227.669 128.619C227.505 122.51 227.978 112.09 222.62 107.801C217.914 104.035 214.256 109.147 212.937 113.269C209.736 123.276 210.075 160.929 210.906 168.514C210.906 168.514 210.091 160.915 204.12 164.172C198.149 167.429 207.106 184.527 207.106 184.527C207.106 184.527 200.049 179.371 196.792 183.713C193.535 188.055 200.864 192.941 200.864 192.941C200.864 192.941 194.078 191.041 194.078 192.941C194.078 194.84 196.249 196.469 202.492 197.283H236.146C236.146 197.283 241.575 194.298 240.489 191.041C239.403 187.784 233.703 189.684 233.703 189.684C233.703 189.684 242.389 179.099 241.846 174.485C241.303 169.871 230.175 175.3 230.175 175.3C230.175 175.3 238.86 153.316 237.232 143.545C235.949 135.849 229.974 141.117 226.722 144.073C227.486 138.963 227.806 133.785 227.669 128.619Z" fill="#224CDF"/>
<path opacity="0.1" d="M227.669 128.619C227.505 122.51 227.978 112.09 222.62 107.801C217.914 104.035 214.256 109.147 212.937 113.269C209.736 123.276 210.075 160.929 210.906 168.514C210.906 168.514 210.091 160.915 204.12 164.172C198.149 167.429 207.106 184.527 207.106 184.527C207.106 184.527 200.049 179.371 196.792 183.713C193.535 188.055 200.864 192.941 200.864 192.941C200.864 192.941 194.078 191.041 194.078 192.941C194.078 194.84 196.249 196.469 202.492 197.283H236.146C236.146 197.283 241.575 194.298 240.489 191.041C239.403 187.784 233.703 189.684 233.703 189.684C233.703 189.684 242.389 179.099 241.846 174.485C241.303 169.871 230.175 175.3 230.175 175.3C230.175 175.3 238.86 153.316 237.232 143.545C235.949 135.849 229.974 141.117 226.722 144.073C227.486 138.963 227.806 133.785 227.669 128.619Z" fill="white"/>
<path d="M216.844 196.56L219.321 122.375" stroke="#224CDF" stroke-width="1.03781" stroke-miterlimit="10" stroke-linecap="round" stroke-linejoin="round"/>
<path d="M218.23 165.8L230.987 153.858" stroke="#224CDF" stroke-width="1.03781" stroke-miterlimit="10" stroke-linecap="round" stroke-linejoin="round"/>
<path d="M224.203 160.371L226.918 152.772" stroke="#224CDF" stroke-width="1.03781" stroke-miterlimit="10" stroke-linecap="round" stroke-linejoin="round"/>
<path d="M207.645 175.027L217.233 185.247" stroke="#224CDF" stroke-width="1.03781" stroke-miterlimit="10" stroke-linecap="round" stroke-linejoin="round"/>
<path d="M233.703 180.999L217.418 189.412" stroke="#224CDF" stroke-width="1.03781" stroke-miterlimit="10" stroke-linecap="round" stroke-linejoin="round"/>
<path d="M225.496 185.148L230.986 185.613" stroke="#224CDF" stroke-width="1.03781" stroke-miterlimit="10" stroke-linecap="round" stroke-linejoin="round"/>
<path d="M105.235 197.573C105.235 199.81 83.9327 201.623 57.6548 201.623C31.3767 201.623 10.0742 199.81 10.0742 197.573C10.0742 195.338 31.3767 193.524 57.6548 193.524C83.9327 193.525 105.235 195.338 105.235 197.573Z" fill="#001357"/>
<path d="M33.993 123.187C33.993 123.187 37.6689 121.322 39.2668 122.921C40.8647 124.519 40.2259 141.619 40.7054 147.052C41.185 152.486 42.4632 156.641 42.4632 156.641C42.4632 156.641 37.1894 155.682 33.1938 153.605C33.1938 153.605 29.6783 136.558 33.993 123.187Z" fill="#001357" stroke="#001357" stroke-width="0.450699" stroke-miterlimit="10" stroke-linecap="round" stroke-linejoin="round"/>
<path d="M107.189 161.916C106.481 161.916 105.8 161.522 105.467 160.844C105 159.893 105.391 158.743 106.341 158.275L123.72 150.463L137.204 134.948C137.886 134.139 139.096 134.036 139.907 134.718C140.717 135.401 140.819 136.611 140.137 137.421L126.393 153.242C126.222 153.446 126.011 153.61 125.773 153.727L108.033 161.718C107.762 161.852 107.473 161.916 107.189 161.916Z" fill="white" stroke="#001357" stroke-width="0.450699" stroke-miterlimit="10" stroke-linecap="round" stroke-linejoin="round"/>
<path d="M119.07 155.144L120.974 154.279" stroke="#001357" stroke-width="0.450699" stroke-miterlimit="10" stroke-linecap="round" stroke-linejoin="round"/>
<path d="M110.285 159.138L117.815 155.716" stroke="#001357" stroke-width="0.450699" stroke-miterlimit="10" stroke-linecap="round" stroke-linejoin="round"/>
<path d="M136.041 140.025L131.02 145.694" stroke="#001357" stroke-width="0.450699" stroke-miterlimit="10" stroke-linecap="round" stroke-linejoin="round"/>
<path d="M130.208 146.503L129.074 147.799" stroke="#001357" stroke-width="0.450699" stroke-miterlimit="10" stroke-linecap="round" stroke-linejoin="round"/>
<path d="M110.055 167.618C112.152 158.621 106.558 149.626 97.561 147.529C88.5629 145.432 79.5692 151.026 77.4718 160.023C75.3743 169.021 80.9687 178.015 89.9661 180.112C98.9634 182.21 107.958 176.615 110.055 167.618Z" fill="#224CDF" stroke="#001357" stroke-width="0.450699" stroke-miterlimit="10" stroke-linecap="round" stroke-linejoin="round"/>
<path d="M51.5975 103.224C51.5975 103.224 53.9802 108.861 54.5036 109.966C55.0264 111.07 55.4915 111.361 55.3755 111.71C55.2596 112.058 54.0391 112.465 54.0391 112.465C54.0391 112.465 54.3876 115.139 53.1671 117.521C51.9467 119.904 49.6216 121.183 49.3897 122.694C49.1571 124.205 49.3314 127.053 49.3314 127.053L45.7859 124.147C45.7859 124.147 46.7738 121.299 45.9019 119.207C45.03 117.114 43.3449 115.836 42.1821 115.254C41.0193 114.672 38.5789 112.174 38.0555 109.384C37.5327 106.595 39.16 103.63 41.3102 101.539C43.4603 99.4463 47.7034 99.8532 48.168 100.028C48.6331 100.201 47.0058 98.807 48.4588 98.516C49.9119 98.2249 50.7838 100.317 50.8415 100.667C50.8992 101.016 51.3644 99.1553 51.8295 100.376C52.2952 101.597 51.5975 103.224 51.5975 103.224Z" fill="white"/>
<mask id="mask1_4223_59927" style="mask-type:luminance" maskUnits="userSpaceOnUse" x="37" y="98" width="19" height="30">
<path d="M51.5975 103.224C51.5975 103.224 53.9802 108.861 54.5036 109.966C55.0264 111.07 55.4915 111.361 55.3755 111.71C55.2596 112.058 54.0391 112.465 54.0391 112.465C54.0391 112.465 54.3876 115.139 53.1671 117.521C51.9467 119.904 49.6216 121.183 49.3897 122.694C49.1571 124.205 49.3314 127.053 49.3314 127.053L45.7859 124.147C45.7859 124.147 46.7738 121.299 45.9019 119.207C45.03 117.114 43.3449 115.836 42.1821 115.254C41.0193 114.672 38.5789 112.174 38.0555 109.384C37.5327 106.595 39.16 103.63 41.3102 101.539C43.4603 99.4463 47.7034 99.8532 48.168 100.028C48.6331 100.201 47.0058 98.807 48.4588 98.516C49.9119 98.2249 50.7838 100.317 50.8415 100.667C50.8992 101.016 51.3644 99.1553 51.8295 100.376C52.2952 101.597 51.5975 103.224 51.5975 103.224Z" fill="white"/>
</mask>
<g mask="url(#mask1_4223_59927)">
<path opacity="0.5" d="M47.2618 125.357C47.2287 124.854 47.1837 124.416 47.1242 124.146C46.8892 123.088 48.2996 119.797 48.7701 115.918C49.2407 112.039 46.1837 106.631 46.1837 106.631L43.9609 100.178C42.9898 100.42 42.0319 100.837 41.3102 101.539C39.16 103.632 37.5327 106.595 38.0555 109.385C38.5783 112.174 41.0193 114.674 42.1821 115.255C43.3449 115.836 45.03 117.115 45.9019 119.207C46.7738 121.3 45.7859 124.147 45.7859 124.147L47.2618 125.357Z" fill="#224CDF"/>
</g>
<path d="M51.5975 103.224C51.5975 103.224 53.9802 108.861 54.5036 109.966C55.0264 111.07 55.4915 111.361 55.3755 111.71C55.2596 112.058 54.0391 112.465 54.0391 112.465C54.0391 112.465 54.3876 115.139 53.1671 117.521C51.9467 119.904 49.6216 121.183 49.3897 122.694C49.1571 124.205 49.3314 127.053 49.3314 127.053L45.7859 124.147C45.7859 124.147 46.7738 121.299 45.9019 119.207C45.03 117.114 43.3449 115.836 42.1821 115.254C41.0193 114.672 38.5789 112.174 38.0555 109.384C37.5327 106.595 39.16 103.63 41.3102 101.539C43.4603 99.4463 47.7034 99.8532 48.168 100.028C48.6331 100.201 47.0058 98.807 48.4588 98.516C49.9119 98.2249 50.7838 100.317 50.8415 100.667C50.8992 101.016 51.3644 99.1553 51.8295 100.376C52.2952 101.597 51.5975 103.224 51.5975 103.224Z" stroke="#001357" stroke-width="0.450699" stroke-miterlimit="10" stroke-linecap="round" stroke-linejoin="round"/>
<path d="M51.8203 106.227C51.8203 106.227 50.7741 105.936 50.4255 106.808C50.077 107.68 50.3672 108.145 50.3672 108.145" stroke="#001357" stroke-width="0.450699" stroke-miterlimit="10" stroke-linecap="round" stroke-linejoin="round"/>
<path d="M53.0489 115.081C53.0489 115.081 52.0027 115.603 51.3633 114.906" stroke="#001357" stroke-width="0.450699" stroke-miterlimit="10" stroke-linecap="round" stroke-linejoin="round"/>
<path d="M50.9998 110.21L46.1562 112.306" stroke="#001357" stroke-width="0.450699" stroke-miterlimit="10" stroke-linecap="round" stroke-linejoin="round"/>
<path d="M44.131 114.855C44.131 114.855 43.1172 116.16 43.262 118.14C43.4068 120.119 43.3588 122.823 42.3444 122.581C41.3307 122.34 42.8276 119.298 42.8276 118.043C42.8276 116.787 42.178 115.255 42.178 115.255" stroke="#001357" stroke-width="0.450699" stroke-miterlimit="10" stroke-linecap="round" stroke-linejoin="round"/>
<path d="M54.5306 108.683L53.3906 109.176" stroke="#001357" stroke-width="0.450699" stroke-miterlimit="10" stroke-linecap="round" stroke-linejoin="round"/>
<path d="M52.6685 109.811C52.8175 110.324 52.8169 110.775 52.6673 110.819C52.5176 110.861 52.276 110.482 52.127 109.969C51.978 109.457 51.9786 109.006 52.1282 108.963C52.2779 108.919 52.5195 109.3 52.6685 109.811Z" fill="#001357"/>
<path d="M53.2679 109.811C53.6705 111.012 53.5683 112.129 53.0389 112.307C52.51 112.484 51.7541 111.655 51.3515 110.454C50.9489 109.253 51.051 108.136 51.5804 107.958C52.1092 107.781 52.8653 108.61 53.2679 109.811Z" stroke="#001357" stroke-width="0.450699" stroke-miterlimit="10" stroke-linecap="round" stroke-linejoin="round"/>
<path d="M45.2456 114.471C45.2456 114.471 44.2859 113.319 45.1494 113.415C46.0135 113.512 46.3014 114.471 46.3014 114.471" stroke="#001357" stroke-width="0.300466" stroke-miterlimit="10" stroke-linecap="round" stroke-linejoin="round"/>
<path d="M72.1089 134.202L68.7383 136.584L69.2611 139.374L73.0974 137.863L72.1089 134.202Z" fill="white" stroke="#001357" stroke-width="0.450699" stroke-miterlimit="10" stroke-linecap="round" stroke-linejoin="round"/>
<path d="M69.0903 135.887L70.6016 141.524C70.6016 141.524 60.4309 146.174 58.3967 147.627C56.3626 149.08 54.7935 148.673 54.7935 148.673L53.457 142.164C53.457 142.164 54.9101 142.862 57.9905 141.524C61.0703 140.188 69.0903 135.887 69.0903 135.887Z" fill="white" stroke="#001357" stroke-width="0.450699" stroke-miterlimit="10" stroke-linecap="round" stroke-linejoin="round"/>
<path d="M74.099 150.558C73.6812 150.515 73.3453 150.172 73.325 149.739L71.9775 127.44C71.9552 126.963 72.323 126.558 72.7996 126.535C73.2755 126.509 73.6812 126.882 73.7036 127.358L75.0503 149.658C75.0728 150.134 74.705 150.539 74.2286 150.561C74.1844 150.563 74.141 150.562 74.099 150.558Z" fill="#001357" stroke="#001357" stroke-width="0.450699" stroke-miterlimit="10" stroke-linecap="round" stroke-linejoin="round"/>
<path d="M71.5306 133.671C71.0998 133.671 70.7272 133.35 70.6743 132.911C70.6172 132.438 70.9549 132.008 71.4285 131.95L74.7993 131.543C75.2742 131.492 75.7028 131.823 75.7607 132.297C75.8179 132.771 75.4798 133.201 75.0063 133.258L71.6357 133.666C71.5997 133.669 71.5649 133.671 71.5306 133.671Z" fill="white" stroke="#001357" stroke-width="0.450699" stroke-miterlimit="10" stroke-linecap="round" stroke-linejoin="round"/>
<path d="M71.7025 135.414C71.2716 135.414 70.8991 135.093 70.8461 134.654C70.7891 134.181 71.1262 133.75 71.6003 133.694L74.9709 133.286C75.4466 133.235 75.8745 133.566 75.9317 134.04C75.9889 134.514 75.6515 134.944 75.178 135.001L71.8071 135.408C71.7716 135.412 71.7367 135.414 71.7025 135.414Z" fill="white" stroke="#001357" stroke-width="0.450699" stroke-miterlimit="10" stroke-linecap="round" stroke-linejoin="round"/>
<path d="M71.8888 136.997C71.476 136.997 71.1191 136.689 71.0685 136.269C71.0139 135.815 71.3371 135.403 71.7909 135.348L75.0194 134.959C75.4755 134.909 75.8853 135.227 75.9404 135.68C75.9947 136.134 75.6717 136.546 75.2178 136.601L71.9892 136.992C71.9555 136.995 71.9219 136.997 71.8888 136.997Z" fill="white" stroke="#001357" stroke-width="0.450699" stroke-miterlimit="10" stroke-linecap="round" stroke-linejoin="round"/>
<path d="M72.4513 138.522C72.1599 138.522 71.9075 138.236 71.8714 137.846C71.833 137.424 72.0613 137.041 72.3822 136.991L74.6647 136.628C74.9868 136.583 75.2764 136.878 75.3155 137.299C75.3539 137.721 75.1251 138.104 74.8044 138.154L72.5222 138.517C72.4988 138.521 72.4747 138.522 72.4513 138.522Z" fill="white" stroke="#001357" stroke-width="0.450699" stroke-miterlimit="10" stroke-linecap="round" stroke-linejoin="round"/>
<path d="M71.1864 135.775C71.2081 136.066 70.9418 136.34 70.5554 136.404C70.1384 136.475 69.7394 136.275 69.6642 135.959L69.1318 133.711C69.0627 133.392 69.3343 133.082 69.752 133.011C70.169 132.94 70.568 133.14 70.6432 133.456L71.1756 135.705C71.181 135.729 71.1846 135.752 71.1864 135.775Z" fill="white" stroke="#001357" stroke-width="0.450699" stroke-miterlimit="10" stroke-linecap="round" stroke-linejoin="round"/>
<path d="M44.5071 122.403C44.5071 122.403 48.6337 124.903 50.5513 128.041C52.4694 131.18 54.0968 135.829 55.0264 139.955C55.956 144.082 56.712 154.775 57.2931 156.984C57.8742 159.192 58.5719 160.354 58.5719 160.354C58.5719 160.354 53.7482 162.33 48.0526 162.097C42.357 161.865 41.485 160.47 41.485 160.47C41.485 160.47 39.5674 147.8 39.7417 137.746C39.9159 127.692 44.5071 122.403 44.5071 122.403Z" fill="white"/>
<mask id="mask2_4223_59927" style="mask-type:luminance" maskUnits="userSpaceOnUse" x="39" y="122" width="20" height="41">
<path d="M44.5071 122.403C44.5071 122.403 48.6337 124.903 50.5513 128.041C52.4694 131.18 54.0968 135.829 55.0264 139.955C55.956 144.082 56.712 154.775 57.2931 156.984C57.8742 159.192 58.5719 160.354 58.5719 160.354C58.5719 160.354 53.7482 162.33 48.0526 162.097C42.357 161.865 41.485 160.47 41.485 160.47C41.485 160.47 39.5674 147.8 39.7417 137.746C39.9159 127.692 44.5071 122.403 44.5071 122.403Z" fill="white"/>
</mask>
<g mask="url(#mask2_4223_59927)">
<path opacity="0.5" d="M42.0664 133.785C42.0664 133.785 41.4787 134.726 41.9486 132.258C42.4186 129.789 43.8295 127.32 43.8295 127.32L46.651 130.495L48.4141 130.612L47.9435 131.434L51.3526 133.551L49.7343 131.644L49.8503 128.738L47.1208 129.554C47.1208 129.554 45.3577 126.38 44.8872 125.322C44.5729 124.615 45.6227 124.015 46.3547 123.693C45.2994 122.887 44.5038 122.404 44.5038 122.404C44.5038 122.404 39.9127 127.693 39.7378 137.748C39.5996 145.719 40.7756 155.328 41.2696 158.97L50.295 158.472L42.0664 133.785Z" fill="#224CDF"/>
</g>
<path d="M44.5071 122.403C44.5071 122.403 48.6337 124.903 50.5513 128.041C52.4694 131.18 54.0968 135.829 55.0264 139.955C55.956 144.082 56.712 154.775 57.2931 156.984C57.8742 159.192 58.5719 160.354 58.5719 160.354C58.5719 160.354 53.7482 162.33 48.0526 162.097C42.357 161.865 41.485 160.47 41.485 160.47C41.485 160.47 39.5674 147.8 39.7417 137.746C39.9159 127.692 44.5071 122.403 44.5071 122.403Z" stroke="#001357" stroke-width="0.450699" stroke-miterlimit="10" stroke-linecap="round" stroke-linejoin="round"/>
<path d="M43.2852 124.438L47.586 129.611L49.8528 128.739L49.7362 131.645L53.1657 135.772" stroke="#001357" stroke-width="0.450699" stroke-miterlimit="10" stroke-linecap="round" stroke-linejoin="round"/>
<path d="M40.6367 135.396C40.6367 135.396 41.1168 140.195 42.5561 141.347" stroke="#001357" stroke-width="0.300466" stroke-miterlimit="10" stroke-linecap="round" stroke-linejoin="round"/>
<path d="M40.9258 140.579C40.9258 140.579 41.5015 142.403 43.0374 142.978" stroke="#001357" stroke-width="0.300466" stroke-miterlimit="10" stroke-linecap="round" stroke-linejoin="round"/>
<path d="M53.4052 137.987L50.9102 138.947L51.2941 140.003L53.5975 139.139" stroke="#001357" stroke-width="0.300466" stroke-miterlimit="10" stroke-linecap="round" stroke-linejoin="round"/>
<path d="M70.2259 156.093C69.8058 156.093 69.4368 155.786 69.3725 155.358L66.2597 135.145C66.1888 134.673 66.5139 134.232 66.9856 134.161C67.4567 134.087 67.8979 134.416 67.9682 134.887L71.081 155.101C71.1519 155.572 70.8274 156.013 70.355 156.084C70.3118 156.09 70.2685 156.093 70.2259 156.093Z" fill="#001357" stroke="#001357" stroke-width="0.450699" stroke-miterlimit="10" stroke-linecap="round" stroke-linejoin="round"/>
<path d="M51.5969 103.224C51.5969 103.224 52.2946 101.597 51.8295 100.377C51.3644 99.1561 50.8998 101.016 50.8415 100.667C50.7833 100.319 49.9113 98.2265 48.4588 98.5168C47.0058 98.8079 48.6331 100.202 48.168 100.028C47.7029 99.8541 43.4603 99.4472 41.3102 101.54C39.16 103.632 37.5327 106.595 38.0555 109.386C38.5783 112.175 41.0193 114.675 42.1821 115.256C43.0036 115.667 44.0823 116.434 44.9548 117.582C45.7324 117.029 46.6572 115.895 46.6572 115.895C46.6572 115.895 45.7853 116.244 44.8557 115.604C43.926 114.965 43.4609 113.105 44.6231 112.175C45.7853 111.246 46.8898 113.337 46.8898 113.337C48.1103 113.977 47.6452 112.291 47.1806 111.536C46.7155 110.781 47.3549 109.967 47.5292 108.862C47.7034 107.758 46.1927 107.351 46.367 106.247C46.5407 105.142 51.5969 103.224 51.5969 103.224Z" fill="#001357" stroke="#001357" stroke-width="0.450699" stroke-miterlimit="10" stroke-linecap="round" stroke-linejoin="round"/>
<path d="M48.7947 104.009C48.7947 104.009 46.683 102.953 45.3393 104.584C43.9956 106.216 44.2835 108.999 43.2277 110.631C42.1718 112.263 40.8281 112.36 40.8281 112.36" stroke="white" stroke-width="0.300466" stroke-miterlimit="10" stroke-linecap="round" stroke-linejoin="round"/>
<path d="M39.582 109.48C39.582 109.48 41.7899 109.768 42.2694 107.368C42.7496 104.969 45.4369 101.513 48.1243 101.417C50.8117 101.321 50.62 103.241 50.62 103.241" stroke="white" stroke-width="0.300466" stroke-miterlimit="10" stroke-linecap="round" stroke-linejoin="round"/>
<path d="M62.8125 142.92L64.4981 141.815C64.4981 141.815 65.9512 139.141 66.0672 138.967C66.1831 138.793 69.7286 137.049 70.0195 137.281C70.3103 137.514 70.6006 138.153 70.4846 138.444C70.3686 138.734 69.9618 139.024 69.9618 139.316C69.9618 139.606 70.4269 141.815 70.4269 142.396C70.4269 142.977 68.0442 143.965 67.0563 144.255C66.0683 144.547 64.7896 144.547 64.4993 144.779C64.2085 145.011 63.6857 145.418 63.6857 145.418L62.8125 142.92Z" fill="white" stroke="#001357" stroke-width="0.450699" stroke-miterlimit="10" stroke-linecap="round" stroke-linejoin="round"/>
<path d="M43.2856 131.18C43.2856 131.18 41.7743 131.587 42.2977 135.829C42.8205 140.071 47.0636 154.369 48.5744 156.112C50.0858 157.855 64.7893 148.091 64.7893 148.091L62.9878 142.513C62.9878 142.513 53.0495 146.406 52.2359 146.581C51.4222 146.755 49.0972 134.085 48.2835 132.516" fill="white"/>
<mask id="mask3_4223_59927" style="mask-type:luminance" maskUnits="userSpaceOnUse" x="42" y="131" width="23" height="26">
<path d="M43.2856 131.18C43.2856 131.18 41.7743 131.587 42.2977 135.829C42.8205 140.071 47.0636 154.369 48.5744 156.112C50.0858 157.855 64.7893 148.091 64.7893 148.091L62.9878 142.513C62.9878 142.513 53.0495 146.406 52.2359 146.581C51.4222 146.755 49.0972 134.085 48.2835 132.516" fill="white"/>
</mask>
<g mask="url(#mask3_4223_59927)">
<path opacity="0.5" d="M64.5269 147.282C61.4658 148.252 54.388 150.452 53.4697 150.36C52.2944 150.243 51.9416 149.538 51.2361 148.597C50.5306 147.657 49.473 151.419 48.5325 151.771C47.5921 152.124 48.2975 147.539 48.6503 146.599C49.003 145.658 47.8276 147.07 47.8276 147.07C47.8276 147.07 45.4768 142.251 44.3008 138.958C43.1253 135.667 42.5376 132.375 42.5376 132.375L42.2714 133.025C42.1669 133.694 42.144 134.596 42.296 135.829C42.8188 140.072 47.062 154.369 48.5728 156.113C50.0841 157.856 64.7878 148.092 64.7878 148.092L64.5269 147.282Z" fill="#224CDF"/>
</g>
<path d="M43.2856 131.18C43.2856 131.18 41.7743 131.587 42.2977 135.829C42.8205 140.071 47.0636 154.369 48.5744 156.112C50.0858 157.855 64.7893 148.091 64.7893 148.091L62.9878 142.513C62.9878 142.513 53.0495 146.406 52.2359 146.581C51.4222 146.755 49.0972 134.085 48.2835 132.516" stroke="#001357" stroke-width="0.450699" stroke-miterlimit="10" stroke-linecap="round" stroke-linejoin="round"/>
<path d="M52.2318 146.581C52.2318 146.581 50.4254 147.585 49.9453 149.985" stroke="#001357" stroke-width="0.300466" stroke-miterlimit="10" stroke-linecap="round" stroke-linejoin="round"/>
<path d="M50.0454 147.874C50.0454 147.874 48.7017 149.121 48.7979 150.945" stroke="#001357" stroke-width="0.300466" stroke-miterlimit="10" stroke-linecap="round" stroke-linejoin="round"/>
<path d="M35.0594 152.592C35.0594 152.592 33.4615 147.265 33.6742 136.186C33.8876 125.104 34.5263 124.039 33.994 123.187C33.4609 122.335 23.7661 128.035 16.5741 136.345C11.9764 141.658 6.10648 149.525 5.70686 161.916C5.38717 171.824 10.0997 179.833 13.0581 182.052C18.172 185.888 25.1506 185.621 25.8964 185.621C26.6421 185.621 97.2794 185.621 97.2794 185.621C97.2794 185.621 101.861 184.023 102.926 179.867C103.992 175.712 107.614 163.886 100.049 149.717C95.0878 140.421 86.1991 130.432 84.7076 131.178C83.2161 131.924 77.6231 142.578 70.0048 149.29C62.826 155.615 49.123 160.263 35.0594 152.592Z" fill="#224CDF" stroke="#001357" stroke-width="0.450699" stroke-miterlimit="10" stroke-linecap="round" stroke-linejoin="round"/>
<path d="M100.047 149.716C98.9882 147.733 97.7501 145.719 96.444 143.784C92.2737 145.219 81.8167 149.513 76.0217 158.08C71.0453 165.437 74.3543 177.108 84.7381 185.621C92.1911 185.621 97.2766 185.621 97.2766 185.621C97.2766 185.621 101.858 184.023 102.924 179.867C103.989 175.712 107.611 163.886 100.047 149.716Z" fill="white" stroke="#001357" stroke-width="0.450699" stroke-miterlimit="10" stroke-linecap="round" stroke-linejoin="round"/>
<path d="M102.36 172.135C102.242 173.176 102.078 174.245 101.859 175.336" stroke="#001357" stroke-width="0.450699" stroke-miterlimit="10" stroke-linecap="round" stroke-linejoin="round"/>
<path d="M98.7852 151.525C98.7852 151.525 103.109 158.972 102.551 169.831" stroke="#001357" stroke-width="0.450699" stroke-miterlimit="10" stroke-linecap="round" stroke-linejoin="round"/>
<path d="M33.3876 184.104V173.458C27.8284 171.682 24.2384 169.518 20.8894 167.508C16.0952 164.631 12.7221 156.875 14.9763 151.847C17.0537 147.212 22.807 145.134 25.8435 147.212C29.5927 149.777 35.0594 152.592 35.0594 152.592C35.0594 152.592 33.4609 147.265 33.6742 136.186C33.8876 125.104 34.5263 124.039 33.994 123.187C33.4609 122.335 23.7661 128.035 16.5741 136.345C11.9764 141.658 6.10648 149.525 5.70686 161.916C5.38717 171.824 10.0997 179.833 13.0581 182.052C18.172 185.888 25.1506 185.621 25.8964 185.621C26.043 185.621 28.8938 185.621 33.3683 185.621C33.3738 185.072 33.3623 184.566 33.3876 184.104Z" fill="white" stroke="#001357" stroke-width="0.450699" stroke-miterlimit="10" stroke-linecap="round" stroke-linejoin="round"/>
<path d="M7.98828 164.001C8.04658 165.351 8.19439 166.659 8.41196 167.911" stroke="#001357" stroke-width="0.450699" stroke-miterlimit="10" stroke-linecap="round" stroke-linejoin="round"/>
<path d="M25.1659 131.232C23.4401 132.783 20.8554 134.605 19.2491 136.461C14.6514 141.774 8.37225 149.363 7.97266 161.753" stroke="#001357" stroke-width="0.450699" stroke-miterlimit="10" stroke-linecap="round" stroke-linejoin="round"/>
<path d="M49.9728 184.341C49.9728 190.201 40.9335 190.734 29.7833 190.734C18.6329 190.734 9.59375 190.521 9.59375 184.341C9.59375 175.809 18.6329 167.508 29.7833 167.508C40.9335 167.508 49.9728 175.809 49.9728 184.341Z" fill="#224CDF" stroke="#001357" stroke-width="0.450699" stroke-miterlimit="10" stroke-linecap="round" stroke-linejoin="round"/>
<path d="M29.7845 167.508C19.4695 167.508 10.9669 174.613 9.75 182.433C10.9669 187.352 19.4695 187.538 29.7845 187.538C40.0827 187.538 48.5738 187.08 49.813 182.394C48.5738 174.59 40.0827 167.508 29.7845 167.508Z" fill="#001357" stroke="#001357" stroke-width="0.450699" stroke-miterlimit="10" stroke-linecap="round" stroke-linejoin="round"/>
<path d="M102.182 184.968C102.182 190.275 93.9951 190.757 83.8972 190.757C73.7994 190.757 65.6133 190.564 65.6133 184.968C65.6133 177.241 73.7994 169.723 83.8972 169.723C93.9951 169.723 102.182 177.241 102.182 184.968Z" fill="#224CDF" stroke="#001357" stroke-width="0.450699" stroke-miterlimit="10" stroke-linecap="round" stroke-linejoin="round"/>
<path d="M83.9011 169.723C74.5599 169.723 66.8593 176.157 65.7578 183.239C66.8599 187.693 74.5599 187.862 83.9011 187.862C93.2279 187.862 100.917 187.447 102.039 183.203C100.917 176.137 93.2279 169.723 83.9011 169.723Z" fill="#001357" stroke="#001357" stroke-width="0.450699" stroke-miterlimit="10" stroke-linecap="round" stroke-linejoin="round"/>
<path d="M155.073 121.772C153.585 121.215 152.83 119.558 153.386 118.069L161.498 96.3813C162.054 94.8934 163.712 94.1376 165.2 94.6943C166.689 95.2511 167.444 96.9084 166.887 98.3969L158.775 120.085C158.218 121.573 156.561 122.329 155.073 121.772Z" fill="white" stroke="#001357" stroke-width="0.450699" stroke-miterlimit="10" stroke-linecap="round" stroke-linejoin="round"/>
<path d="M164.413 100.288L159.859 112.262" stroke="#001357" stroke-width="0.450699" stroke-miterlimit="10" stroke-linecap="round" stroke-linejoin="round"/>
<path d="M142.711 154.837C140.065 153.848 138.723 150.901 139.712 148.256L151.295 117.287C152.284 114.641 155.231 113.299 157.877 114.288C160.522 115.277 161.865 118.224 160.875 120.869L149.292 151.838C148.303 154.483 145.356 155.826 142.711 154.837Z" fill="#001357" stroke="#001357" stroke-width="0.450699" stroke-miterlimit="10" stroke-linecap="round" stroke-linejoin="round"/>
<path d="M185.718 40.7549C169.597 34.7252 151.641 42.9057 145.612 59.0263C139.583 75.1469 147.763 93.1025 163.884 99.1321C180.004 105.162 197.96 96.981 203.989 80.8608C210.018 64.7405 201.839 46.7847 185.718 40.7549ZM165.773 94.0813C152.441 89.0958 145.677 74.247 150.662 60.9156C155.649 47.5846 170.498 40.8199 183.829 45.8058C197.16 50.7917 203.925 65.6408 198.939 78.9726C193.953 92.3032 179.103 99.0683 165.773 94.0813Z" fill="#001357" stroke="#001357" stroke-width="0.450699" stroke-miterlimit="10" stroke-linecap="round" stroke-linejoin="round"/>
<path d="M153.906 60.4542C156.51 54.7051 161.248 50.4973 166.815 48.4277" stroke="#001357" stroke-width="0.450699" stroke-miterlimit="10" stroke-linecap="round" stroke-linejoin="round"/>
<path d="M151.848 70.0171C151.84 67.7306 152.176 65.4092 152.89 63.125" stroke="#001357" stroke-width="0.450699" stroke-miterlimit="10" stroke-linecap="round" stroke-linejoin="round"/>
<path d="M145.259 76.3761C144.059 70.8885 144.373 65.0035 146.487 59.3512C152.337 43.7113 169.757 35.7748 185.398 41.6242C192.647 44.3357 198.241 49.5325 201.574 55.8862" stroke="white" stroke-width="0.600932" stroke-miterlimit="10"/>
<path d="M204.83 66.3413C205.391 70.9925 204.877 75.8447 203.123 80.5356C197.273 96.175 179.853 104.112 164.212 98.2624C156.289 95.2983 150.342 89.3657 147.164 82.1979" stroke="white" stroke-width="0.600932" stroke-miterlimit="10"/>
<path d="M202.789 58.498C203.57 60.406 204.157 62.3951 204.538 64.4328" stroke="white" stroke-width="0.600932" stroke-miterlimit="10"/>
<path d="M161.366 136.592C161.366 138.182 160.078 139.469 158.489 139.469H138.193C136.604 139.469 135.316 138.182 135.316 136.592C135.316 135.004 136.604 133.716 138.193 133.716H158.489C160.078 133.716 161.366 135.005 161.366 136.592Z" fill="#224CDF" stroke="#001357" stroke-width="0.450699" stroke-miterlimit="10" stroke-linecap="round" stroke-linejoin="round"/>
<path d="M149.219 138.582C150.102 138.582 150.817 137.866 150.817 136.984C150.817 136.102 150.102 135.386 149.219 135.386C148.336 135.386 147.621 136.102 147.621 136.984C147.621 137.866 148.336 138.582 149.219 138.582Z" fill="white" stroke="#001357" stroke-width="0.450699" stroke-miterlimit="10" stroke-linecap="round" stroke-linejoin="round"/>
<path d="M124.927 155.738C127.076 155.738 128.818 153.996 128.818 151.847C128.818 149.697 127.076 147.955 124.927 147.955C122.778 147.955 121.035 149.697 121.035 151.847C121.035 153.996 122.778 155.738 124.927 155.738Z" fill="#224CDF" stroke="#001357" stroke-width="0.450699" stroke-miterlimit="10" stroke-linecap="round" stroke-linejoin="round"/>
<path d="M126.383 151.847C126.383 151.042 125.732 150.392 124.928 150.392C124.124 150.392 123.473 151.042 123.473 151.847C123.473 152.651 124.124 153.302 124.928 153.302C125.732 153.302 126.383 152.651 126.383 151.847Z" fill="white" stroke="#001357" stroke-width="0.450699" stroke-miterlimit="10" stroke-linecap="round" stroke-linejoin="round"/>
<path d="M138.192 140.556C140.341 140.556 142.084 138.814 142.084 136.664C142.084 134.515 140.341 132.772 138.192 132.772C136.043 132.772 134.301 134.515 134.301 136.664C134.301 138.814 136.043 140.556 138.192 140.556Z" fill="#224CDF" stroke="#001357" stroke-width="0.450699" stroke-miterlimit="10" stroke-linecap="round" stroke-linejoin="round"/>
<path d="M138.191 138.163C139.019 138.163 139.69 137.492 139.69 136.664C139.69 135.836 139.019 135.165 138.191 135.165C137.363 135.165 136.691 135.836 136.691 136.664C136.691 137.492 137.363 138.163 138.191 138.163Z" fill="white" stroke="#001357" stroke-width="0.450699" stroke-miterlimit="10" stroke-linecap="round" stroke-linejoin="round"/>
<path d="M69.0471 59.9511L65.57 56.474C65.1474 56.0515 64.5743 55.8142 63.9767 55.8142C63.3792 55.8142 62.8061 56.0515 62.3835 56.474L52.1459 66.7116M51.0191 46.4302H66.7936C68.0382 46.4302 69.0471 47.4391 69.0471 48.6837V64.4581C69.0471 65.7027 68.0382 66.7116 66.7936 66.7116H51.0191C49.7746 66.7116 48.7656 65.7027 48.7656 64.4581V48.6837C48.7656 47.4391 49.7746 46.4302 51.0191 46.4302ZM57.7796 53.1907C57.7796 54.4352 56.7707 55.4442 55.5261 55.4442C54.2816 55.4442 53.2726 54.4352 53.2726 53.1907C53.2726 51.9461 54.2816 50.9372 55.5261 50.9372C56.7707 50.9372 57.7796 51.9461 57.7796 53.1907Z" stroke="white" stroke-width="2.25349" stroke-linecap="round" stroke-linejoin="round"/>
<path d="M67.6193 158.429H47.1876C45.1963 158.429 43.582 160.043 43.582 162.034V169.245C43.582 171.237 45.1963 172.851 47.1876 172.851H67.6193C69.6106 172.851 71.2249 171.237 71.2249 169.245V162.034C71.2249 160.043 69.6106 158.429 67.6193 158.429Z" fill="#EBEFFF" stroke="#1138BD" stroke-width="1.20186"/>
<g filter="url(#filter0_d_4223_59927)">
<g filter="url(#filter1_d_4223_59927)">
<path fill-rule="evenodd" clip-rule="evenodd" d="M67.0297 160.511H47.8747C46.5779 160.511 45.5267 161.562 45.5267 162.86V168.421C45.5267 169.717 46.5779 170.769 47.8747 170.769H67.0297C68.3265 170.769 69.3778 169.717 69.3778 168.421V162.86C69.3778 161.562 68.3265 160.511 67.0297 160.511ZM47.8747 159.77C46.1684 159.77 44.7852 161.153 44.7852 162.86V168.421C44.7852 170.127 46.1684 171.51 47.8747 171.51H67.0297C68.736 171.51 70.1192 170.127 70.1192 168.421V162.86C70.1192 161.153 68.736 159.77 67.0297 159.77H47.8747Z" fill="#224CDF"/>
</g>
<path fill-rule="evenodd" clip-rule="evenodd" d="M67.3193 168.514V169.961C67.3193 169.961 65.4468 169.961 65.1158 169.961C64.4195 169.961 64.1641 169.672 64.1641 169.077C64.1641 168.723 64.1641 160.395 64.1641 160.395H65.5917V161.761H67.3193V163.209H65.5917V168.514H67.3193ZM56.4711 161.761C56.922 161.761 61.4187 161.761 61.6262 161.761C62.2208 161.761 62.6573 161.863 62.6573 162.645C62.6573 162.645 62.6573 164.885 62.6573 165.62C62.6573 166.346 62.3363 166.585 61.7848 166.585C61.6967 166.585 56.8677 166.585 56.8677 166.585V168.514H62.4986V169.961H56.3125C55.7193 169.961 55.4401 169.779 55.4401 169.157C55.4401 168.671 55.4401 162.853 55.4401 162.726C55.4401 162.086 55.8767 161.761 56.4711 161.761ZM56.8677 163.209H61.2297V165.137H56.8677V163.209ZM53.4574 161.761V163.209H48.3815V165.218C48.3815 165.218 52.4907 165.218 52.7436 165.218C53.178 165.218 53.6953 165.511 53.6953 166.102C53.6953 166.693 53.6953 169.961 53.6953 169.961H46.6367V168.514H52.2677V166.585C52.2677 166.585 48.1318 166.585 47.8264 166.585C47.521 166.585 47.0333 166.073 47.0333 165.701C47.0333 165.327 47.0333 163.041 47.0333 162.726C47.0333 162.411 47.5664 161.761 48.1436 161.761C48.7209 161.761 53.4574 161.761 53.4574 161.761Z" fill="#224CDF"/>
</g>
</g>
<defs>
<filter id="filter0_d_4223_59927" x="44.5448" y="159.77" width="25.8147" height="12.582" filterUnits="userSpaceOnUse" color-interpolation-filters="sRGB">
<feFlood flood-opacity="0" result="BackgroundImageFix"/>
<feColorMatrix in="SourceAlpha" type="matrix" values="0 0 0 0 0 0 0 0 0 0 0 0 0 0 0 0 0 0 127 0" result="hardAlpha"/>
<feOffset dy="0.600932"/>
<feGaussianBlur stdDeviation="0.120186"/>
<feComposite in2="hardAlpha" operator="out"/>
<feColorMatrix type="matrix" values="0 0 0 0 0.220437 0 0 0 0 0.371238 0 0 0 0 0.899038 0 0 0 0.4 0"/>
<feBlend mode="normal" in2="BackgroundImageFix" result="effect1_dropShadow_4223_59927"/>
<feBlend mode="normal" in="SourceGraphic" in2="effect1_dropShadow_4223_59927" result="shape"/>
</filter>
<filter id="filter1_d_4223_59927" x="43.7718" y="158.959" width="27.3607" height="13.7674" filterUnits="userSpaceOnUse" color-interpolation-filters="sRGB">
<feFlood flood-opacity="0" result="BackgroundImageFix"/>
<feColorMatrix in="SourceAlpha" type="matrix" values="0 0 0 0 0 0 0 0 0 0 0 0 0 0 0 0 0 0 127 0" result="hardAlpha"/>
<feOffset dy="0.202672"/>
<feGaussianBlur stdDeviation="0.50668"/>
<feComposite in2="hardAlpha" operator="out"/>
<feColorMatrix type="matrix" values="0 0 0 0 0.133333 0 0 0 0 0.298039 0 0 0 0 0.87451 0 0 0 0.54 0"/>
<feBlend mode="normal" in2="BackgroundImageFix" result="effect1_dropShadow_4223_59927"/>
<feBlend mode="normal" in="SourceGraphic" in2="effect1_dropShadow_4223_59927" result="shape"/>
</filter>
</defs>
</svg>
