<svg width="202" height="202" viewBox="0 0 202 202" fill="none" xmlns="http://www.w3.org/2000/svg">
<path d="M178.074 139.738H190.701V134.402H178.074V139.738Z" fill="#EBEBEB"/>
<path d="M185.121 146.466L191.487 146.332L194.625 146.28C195.669 146.256 196.709 146.28 197.748 146.251L197.534 146.466V141.13L197.772 141.368L191.459 141.339C189.356 141.339 187.248 141.282 185.145 141.258L185.274 141.13C185.274 142.002 185.236 142.88 185.212 143.767L185.121 146.466ZM185.121 146.466L185.036 143.848C185.012 142.961 184.978 142.06 184.974 141.154V140.987H185.107C187.21 140.958 189.318 140.91 191.421 140.906L197.734 140.877H197.972V141.115L197.944 146.451V146.666H197.734C196.671 146.666 195.603 146.666 194.539 146.642L191.363 146.59L185.121 146.466Z" fill="#EBEBEB"/>
<path d="M92.1175 94.0563L98.4882 93.9228L101.621 93.8703C102.665 93.8465 103.705 93.8703 104.744 93.8465L104.53 94.0563L104.506 88.7204L104.744 88.9588L98.431 88.9302C96.3281 88.9302 94.2204 88.8777 92.1175 88.8491L92.2463 88.7204C92.2463 89.593 92.2081 90.4704 92.1843 91.3621L92.1175 94.0563ZM92.1175 94.0563L92.0508 91.3955C92.0269 90.5086 91.9983 89.6073 91.9888 88.7013V88.5726H92.1223C94.2252 88.5487 96.3328 88.4963 98.4357 88.4915L104.749 88.4629H104.988V88.7013L104.964 94.0372V94.2566H104.754C103.691 94.2566 102.622 94.2566 101.564 94.2279L98.3833 94.1755L92.1175 94.0563Z" fill="#EBEBEB"/>
<path d="M99.1607 100.785H111.788V95.4493H99.1607V100.785Z" fill="#EBEBEB"/>
<path d="M84.9647 100.785L91.3353 100.652L94.473 100.599C95.5173 100.575 96.552 100.599 97.5915 100.575L97.3817 100.785L97.3531 95.4494L97.5915 95.6878L91.2781 95.6592C89.1752 95.6592 87.0723 95.6067 84.9647 95.5781L85.0982 95.4494C85.0982 96.322 85.0553 97.1994 85.0362 98.0911L84.9647 100.785ZM84.9647 100.785L84.8979 98.1435C84.8979 97.2566 84.8455 96.3554 84.8359 95.4494V95.3206H84.9647C87.0723 95.3206 89.1752 95.2443 91.2781 95.2395L97.5915 95.2109H97.8347V95.4494L97.8109 100.785V101H97.5963C96.533 101 95.4648 101 94.4062 100.971L91.2304 100.919L84.9647 100.785Z" fill="#EBEBEB"/>
<path d="M111.559 33.2012H124.186V27.8653H111.559V33.2012Z" fill="#EBEBEB"/>
<path d="M3.51986 146.466L9.89051 146.332L13.0282 146.28C14.0677 146.256 15.1072 146.28 16.1467 146.251L15.9369 146.466L15.9083 141.13L16.1467 141.368L9.83329 141.339C7.73041 141.339 5.62275 141.282 3.51986 141.258L3.64861 141.13C3.64861 142.002 3.61046 142.88 3.58662 143.767L3.51986 146.466ZM3.51986 146.466L3.4531 143.848C3.42926 142.961 3.40065 142.06 3.39111 141.154V140.987H3.51986C5.62275 140.958 7.73041 140.91 9.83329 140.906L16.1467 140.877H16.3851V141.115V146.451V146.666H16.1706C15.1072 146.666 14.0391 146.666 12.9805 146.642L9.80468 146.59L3.51986 146.466Z" fill="#EBEBEB"/>
<path d="M10.5627 11.381L16.9333 11.2474L20.071 11.195C21.1153 11.1712 22.15 11.195 23.1895 11.1664L22.9797 11.381L22.9511 6.0403L23.1895 6.27872L16.8761 6.25011C14.7732 6.25011 12.6703 6.19289 10.5627 6.16904L10.6962 6.0403C10.6962 6.91292 10.6533 7.79032 10.6294 8.68202L10.5627 11.381ZM10.5627 11.381L10.5102 8.73924C10.5102 7.85231 10.4578 6.95107 10.4482 6.04506V5.91632H10.577C12.6846 5.89247 14.7875 5.84002 16.8904 5.83525L23.2039 5.80664H23.447V6.0403L23.3851 11.381V11.5955H23.1705C22.1071 11.5955 21.039 11.5955 19.9804 11.5669L16.8046 11.5145L10.5627 11.381Z" fill="#EBEBEB"/>
<path d="M3.51962 18.1094H16.1465V12.7735L3.51962 12.7735V18.1094Z" fill="#EBEBEB"/>
<path d="M185.121 11.381L191.487 11.2474L194.625 11.195C195.669 11.1712 196.709 11.195 197.748 11.1664L197.534 11.381V6.04506L197.772 6.28349L191.459 6.25488C189.356 6.25488 187.248 6.19765 185.145 6.17381L185.274 6.04506C185.274 6.91769 185.236 7.79509 185.212 8.68679L185.121 11.381ZM185.121 11.381L185.036 8.73924C185.012 7.85231 184.978 6.95107 184.974 6.04506V5.91632H185.107C187.21 5.89247 189.318 5.84002 191.421 5.83525L197.734 5.80664H197.972V6.0403L197.958 11.381V11.5955H197.748C196.685 11.5955 195.617 11.5955 194.553 11.5669L191.378 11.5145L185.121 11.381Z" fill="#EBEBEB"/>
<path d="M62.1386 163.768H27.8296V201.758H62.1386V163.768Z" fill="#EBEBEB"/>
<path d="M10.1192 201.762H27.834L27.834 163.767H10.1192L10.1192 201.762Z" fill="#DBDBDB"/>
<path d="M11.3354 199.163C12.6515 196.461 13.9517 193.759 15.236 191.057L19.0937 182.841L22.9085 174.634C24.1801 171.894 25.4262 169.144 26.6469 166.385C25.3309 169.087 24.0307 171.797 22.7464 174.515L18.903 182.688L15.0882 190.895C13.8198 193.638 12.5689 196.394 11.3354 199.163Z" fill="#EBEBEB"/>
<path d="M11.3354 166.385C12.5689 169.147 13.815 171.897 15.0739 174.634L18.8887 182.841L22.732 191.014C24.0195 193.732 25.3197 196.434 26.6326 199.12C25.3992 196.361 24.1531 193.611 22.8942 190.871L19.0794 182.664L15.236 174.491C13.9486 171.789 12.6484 169.087 11.3354 166.385Z" fill="#EBEBEB"/>
<path d="M62.1386 106.387H27.8296V141.759H62.1386V106.387Z" fill="#EBEBEB"/>
<path d="M10.1192 141.766H27.834L27.834 106.388H10.1192L10.1192 141.766Z" fill="#DBDBDB"/>
<path d="M42.0728 114.598H42.8023H43.3459L43.6559 113.964L44.0946 114.598L44.6859 113.296L45.2485 114.598H46.8555H47.5851L47.8521 113.73L48.1001 114.598H48.5769V106.387H42.0728V114.598Z" fill="#DBDBDB"/>
<path d="M11.3354 139.509C12.6515 136.998 13.9517 134.471 15.236 131.927L19.0794 124.298L22.8942 116.668C24.1658 114.125 25.4119 111.564 26.6326 108.986C25.3166 111.504 24.0164 114.028 22.732 116.559L18.8887 124.164L15.0739 131.794C13.815 134.366 12.5689 136.937 11.3354 139.509Z" fill="#EBEBEB"/>
<path d="M11.3354 109.006C12.5689 111.571 13.815 114.126 15.0739 116.669L18.8887 124.298L22.732 131.928C24.0195 134.471 25.3197 136.995 26.6326 139.5C25.3992 136.932 24.1531 134.371 22.8942 131.818L19.0794 124.189L15.236 116.583C13.9486 114.049 12.6484 111.524 11.3354 109.006Z" fill="#EBEBEB"/>
<path d="M30.0894 139.566H33.8994V135.756H30.0894V139.566Z" fill="white"/>
<path d="M59.8544 141.766H25.5454V163.767H59.8544V141.766Z" fill="#DBDBDB"/>
<path d="M7.83061 163.768H25.5454L25.5454 141.766H7.83061L7.83061 163.768Z" fill="#C7C7C7"/>
<path d="M39.7886 149.977H40.5134H41.0618L41.3717 149.343L41.8104 149.977L42.4017 148.675L42.9644 149.977H44.5666H45.3009L45.5632 149.109L45.8159 149.977H46.2927V141.766H39.7886V149.977Z" fill="white"/>
<path d="M9.05127 162.445C10.3642 160.856 11.6644 159.252 12.9519 157.634L16.7952 152.799L20.61 147.94C21.8625 146.318 23.1071 144.691 24.3437 143.057C23.034 144.646 21.7338 146.25 20.4431 147.868L16.5997 152.708L12.785 157.562C11.5293 159.193 10.2847 160.821 9.05127 162.445Z" fill="#DBDBDB"/>
<path d="M9.05127 143.07C10.2879 144.704 11.534 146.332 12.7897 147.953L16.6045 152.812L20.4479 157.647C21.7195 159.256 23.0165 160.855 24.3389 162.445C23.1087 160.811 21.8641 159.183 20.6052 157.562L16.7905 152.707L12.9471 147.867C11.6628 146.272 10.3642 144.673 9.05127 143.07Z" fill="#DBDBDB"/>
<path d="M193.438 168.525H159.129V201.762H193.438V168.525Z" fill="#DBDBDB"/>
<path d="M141.418 201.762H159.133V168.526H141.418V201.762Z" fill="#C7C7C7"/>
<path d="M173.372 176.737H174.097H174.645L174.955 176.102L175.394 176.737L175.985 175.435L176.548 176.737H178.15H178.884L179.151 175.864L179.399 176.737H179.876V168.525H173.372V176.737Z" fill="white"/>
<path d="M142.635 199.782C143.948 197.369 145.248 194.947 146.535 192.515L150.379 185.21L154.194 177.876C155.465 175.425 156.71 172.968 157.927 170.504C156.617 172.917 155.317 175.339 154.027 177.771L150.183 185.072L146.392 192.41C145.133 194.861 143.881 197.319 142.635 199.782Z" fill="#DBDBDB"/>
<path d="M142.635 170.504C143.871 172.968 145.118 175.425 146.373 177.876L150.164 185.21L154.008 192.515C155.295 194.947 156.595 197.369 157.908 199.782C156.678 197.315 155.433 194.858 154.174 192.41L150.36 185.072L146.516 177.771C145.242 175.339 143.948 172.917 142.635 170.504Z" fill="#DBDBDB"/>
<path d="M133.784 4.13281V85.2442H189.604V4.13281H133.784ZM187.544 83.1604H135.844V6.16894H187.544V83.1604Z" fill="#EBEBEB"/>
<path d="M187.544 6.16992H135.844V83.1613H187.544V6.16992Z" fill="white"/>
<path d="M135.844 48.0781L187.544 48.0781V46.0182L135.844 46.0182V48.0781Z" fill="#EBEBEB"/>
<path d="M129.988 91.1289L193.395 91.1289V85.216L129.988 85.216V91.1289Z" fill="#DBDBDB"/>
<path d="M131.672 93.4941L191.716 94.7529V91.1289H131.672V93.4941Z" fill="#EBEBEB"/>
<path d="M135.844 6.16992H187.544V59.0664H135.844V6.16992ZM185.636 8.0773H137.752V57.159H185.636V8.0773Z" fill="#DBDBDB"/>
<path d="M171.045 6.16992H170.015V57.159H171.045V6.16992Z" fill="#DBDBDB"/>
<path d="M153.373 6.16992H152.343V57.159H153.373V6.16992Z" fill="#DBDBDB"/>
<path d="M11.6641 4.13281V85.2442H67.4836V4.13281H11.6641ZM65.4236 83.1604H13.724V6.16894H65.4236V83.1604Z" fill="#EBEBEB"/>
<path d="M65.4237 6.16992H13.7241V83.1613H65.4237V6.16992Z" fill="white"/>
<path d="M13.7243 48.0781L65.4238 48.0781V46.0182L13.7243 46.0182V48.0781Z" fill="#EBEBEB"/>
<path d="M7.8688 91.1289L71.2749 91.1289V85.216L7.8688 85.216V91.1289Z" fill="#DBDBDB"/>
<path d="M9.55176 93.4941L69.5961 94.7529V91.1289H9.55176V93.4941Z" fill="#EBEBEB"/>
<path d="M13.7241 6.16992H65.4237V59.0664H13.7241V6.16992ZM63.5163 8.0773H15.6315V57.159H63.5163V8.0773Z" fill="#DBDBDB"/>
<path d="M48.925 6.16992H47.895V57.159H48.925V6.16992Z" fill="#DBDBDB"/>
<path d="M31.2531 6.16992H30.2231V57.159H31.2531V6.16992Z" fill="#DBDBDB"/>
<path d="M142.935 162.471H95.4028V201.744H142.935V162.471Z" fill="#407BFF"/>
<path opacity="0.1" d="M142.935 162.471H95.4028V201.744H142.935V162.471Z" fill="black"/>
<path d="M161.77 162.475H142.935V201.748H161.77V162.475Z" fill="#407BFF"/>
<path opacity="0.2" d="M161.77 162.475H142.935V201.748H161.77V162.475Z" fill="black"/>
<path d="M160.469 199.039C159.076 196.247 157.695 193.447 156.325 190.636L152.238 182.187L148.204 173.704C146.869 170.871 145.545 168.029 144.232 165.178C145.631 167.972 147.014 170.773 148.38 173.58L152.462 182.029L156.496 190.513C157.838 193.345 159.162 196.187 160.469 199.039Z" fill="#407BFF"/>
<path d="M160.469 165.178C159.159 168.039 157.835 170.881 156.496 173.704L152.462 182.187L148.38 190.636C147.01 193.444 145.628 196.244 144.232 199.039C145.545 196.177 146.869 193.335 148.204 190.513L152.238 182.029L156.325 173.585C157.695 170.771 159.076 167.969 160.469 165.178Z" fill="#407BFF"/>
<path d="M122.531 170.958H121.782H121.215L120.895 170.304L120.442 170.958L119.827 169.613L119.25 170.958H117.591H116.832L116.556 170.061L116.298 170.958H115.807V162.475H122.531V170.958Z" fill="white"/>
<path d="M145.801 123.201H110.338V162.469H145.801V123.201Z" fill="#407BFF"/>
<path d="M164.112 123.201H145.801V162.474H164.112V123.201Z" fill="#407BFF"/>
<path opacity="0.1" d="M164.112 123.201H145.801V162.474H164.112V123.201Z" fill="black"/>
<g opacity="0.1">
<path d="M143.202 159.765C140.598 156.97 138.017 154.17 135.458 151.363L127.814 142.894L120.284 134.411C117.786 131.578 115.313 128.736 112.865 125.885C115.472 128.679 118.053 131.481 120.609 134.292L128.238 142.736L135.768 151.22C138.276 154.065 140.754 156.913 143.202 159.765Z" fill="black"/>
<path d="M143.201 125.904C140.75 128.765 138.277 131.607 135.781 134.43L128.252 142.894L120.622 151.344C118.079 154.151 115.498 156.952 112.878 159.746C115.329 156.885 117.803 154.043 120.298 151.22L127.813 142.756L135.443 134.311C138.008 131.498 140.594 128.695 143.201 125.904Z" fill="black"/>
</g>
<path d="M161.537 155.826H158.328V160.356H161.537V155.826Z" fill="white"/>
<path d="M1.18799 201.762L26.0507 201.643L50.9134 201.604L100.634 201.523L150.355 201.604L175.217 201.643L200.08 201.762L175.217 201.876L150.355 201.919L100.634 202L50.9134 201.919L26.0507 201.876L1.18799 201.762Z" fill="#263238"/>
<path d="M119.574 66.504C119.307 66.3323 119.04 66.1654 118.773 66.0033L118.959 65.6934L119.77 66.2036L119.574 66.504Z" fill="#263238"/>
<path d="M107.929 114.284H107.586V113.926C108.223 113.94 108.86 113.916 109.493 113.855L109.531 114.212C109.012 114.25 108.468 114.284 107.929 114.284ZM111.467 113.893L111.391 113.545C112.011 113.404 112.62 113.218 113.213 112.987L113.341 113.32C112.732 113.554 112.105 113.742 111.467 113.883V113.893ZM115.106 112.462L114.929 112.152C115.477 111.832 115.999 111.469 116.489 111.065L116.718 111.337C116.213 111.758 115.674 112.136 115.106 112.467V112.462ZM118.124 109.983L117.862 109.739C118.29 109.269 118.683 108.769 119.04 108.242L119.335 108.442C118.97 108.988 118.565 109.506 118.124 109.992V109.983ZM120.308 106.745L119.984 106.592C120.256 106.018 120.478 105.421 120.647 104.809L120.99 104.904C120.817 105.538 120.589 106.155 120.308 106.75V106.745ZM121.338 102.968L120.981 102.94C120.981 102.682 121.014 102.42 121.014 102.167C121.013 101.813 120.992 101.46 120.952 101.108C120.581 101.084 120.211 101.037 119.846 100.97L119.908 100.617C120.49 100.722 121.08 100.777 121.672 100.779H121.796V101.137H121.667H121.31C121.348 101.482 121.367 101.829 121.367 102.177C121.372 102.434 121.357 102.706 121.338 102.973V102.968ZM123.756 100.899L123.675 100.551C124.288 100.405 124.882 100.188 125.444 99.9021L125.606 100.222C125.018 100.521 124.397 100.75 123.756 100.903V100.899ZM117.948 100.455C117.331 100.233 116.733 99.9618 116.16 99.6446L116.336 99.3346C116.891 99.6412 117.47 99.9028 118.067 100.117L117.948 100.455ZM120.513 99.1963C120.304 98.6001 120.029 98.0291 119.693 97.494L119.993 97.3032C120.347 97.8596 120.635 98.4548 120.852 99.0771L120.513 99.1963ZM127.246 99.12L127.017 98.8482C127.501 98.4396 127.944 97.9844 128.338 97.4892L128.615 97.7133C128.207 98.2317 127.749 98.7078 127.246 99.1343V99.12ZM114.543 98.5478L114.443 98.4524C113.971 98.0378 113.595 97.5252 113.341 96.9504L113.675 96.8169C113.908 97.343 114.253 97.8118 114.686 98.1902L114.782 98.276L114.543 98.5478ZM129.721 96.1111L129.416 95.9252C129.75 95.372 130.06 94.8046 130.331 94.2467L130.656 94.404C130.379 94.9715 130.064 95.5485 129.721 96.1111ZM118.506 96.0396C118.07 95.6177 117.59 95.2436 117.075 94.9238L117.004 94.8761L117.19 94.5709L117.266 94.6186C117.797 94.9541 118.291 95.3458 118.739 95.7869L118.506 96.0396ZM113.771 95.1193L113.475 94.919C113.679 94.6322 113.95 94.399 114.264 94.2396C114.578 94.0801 114.925 93.9991 115.277 94.0035V94.3611C114.984 94.3594 114.695 94.4272 114.433 94.559C114.171 94.6908 113.944 94.8828 113.771 95.1193ZM131.414 92.6063L131.08 92.4823C131.301 91.8839 131.49 91.2743 131.648 90.656L131.991 90.7419C131.837 91.3741 131.646 91.9967 131.419 92.6063H131.414ZM132.368 88.8249L132.01 88.7773C132.095 88.1448 132.144 87.5079 132.158 86.8699H132.515C132.502 87.5238 132.453 88.1765 132.368 88.8249ZM132.091 84.9625C132.034 84.3224 131.943 83.6857 131.819 83.0551L132.172 82.9836C132.297 83.6223 132.389 84.2668 132.449 84.9148L132.091 84.9625ZM131.352 81.2145C131.171 80.6137 130.956 80.0081 130.708 79.4072L131.042 79.2737C131.29 79.8793 131.519 80.4992 131.695 81.1096L131.352 81.2145ZM129.921 77.662C129.635 77.1041 129.316 76.5414 128.968 75.9883L129.273 75.8023C129.616 76.3602 129.94 76.9324 130.227 77.4999L129.921 77.662ZM127.914 74.3908C127.547 73.8758 127.151 73.3656 126.741 72.8697L127.017 72.6408C127.432 73.1415 127.833 73.6613 128.205 74.181L127.914 74.3908ZM125.472 71.4249C125.038 70.948 124.581 70.5045 124.113 70.0659L124.357 69.8036C124.833 70.2518 125.31 70.7144 125.73 71.1817L125.472 71.4249ZM122.673 68.7879C122.196 68.3826 121.677 67.982 121.166 67.6006L121.376 67.3145C121.896 67.6959 122.411 68.1012 122.902 68.5161L122.673 68.7879Z" fill="#263238"/>
<path d="M105.588 114.112C105.267 114.072 104.949 114.014 104.634 113.94L104.72 113.592C104.72 113.592 105.063 113.678 105.636 113.759L105.588 114.112Z" fill="#263238"/>
<path d="M100.777 113.403C100.553 115.31 104.449 116.378 104.744 113.88C105.04 111.381 101.001 111.481 100.777 113.403Z" fill="#263238"/>
<path d="M105.879 116.558C105.517 117.278 104.234 117.378 102.908 116.453C102.008 115.766 101.247 114.913 100.667 113.94C101.788 113.823 102.921 113.922 104.005 114.231C105.574 114.76 106.26 115.828 105.879 116.558Z" fill="#EBEBEB"/>
<path d="M100.681 113.941C101.435 114.28 102.174 114.647 102.913 115.01C103.652 115.372 104.381 115.758 105.102 116.159C104.348 115.82 103.609 115.453 102.87 115.091C102.131 114.728 101.401 114.342 100.681 113.941Z" fill="#263238"/>
<path d="M104.143 116.545C103.972 116.346 103.813 116.138 103.666 115.92C103.522 115.705 103.392 115.48 103.275 115.248C103.447 115.447 103.606 115.655 103.752 115.873C103.897 116.088 104.028 116.313 104.143 116.545Z" fill="#263238"/>
<path d="M102.541 114.87C102.803 114.802 103.069 114.748 103.337 114.708C103.608 114.67 103.88 114.646 104.153 114.637C103.625 114.768 103.085 114.847 102.541 114.87Z" fill="#263238"/>
<path d="M102.126 115.184C101.962 114.98 101.845 114.743 101.783 114.488C101.947 114.692 102.064 114.93 102.126 115.184Z" fill="#263238"/>
<path d="M106.508 111.565C106.322 110.779 105.102 110.388 103.6 110.979C102.563 111.44 101.624 112.096 100.834 112.91C101.906 113.281 103.039 113.443 104.172 113.387C105.779 113.253 106.699 112.376 106.508 111.565Z" fill="#EBEBEB"/>
<path d="M100.834 112.911C101.645 112.759 102.45 112.568 103.252 112.382C104.053 112.196 104.854 111.996 105.636 111.771C104.83 111.924 104.024 112.115 103.223 112.301C102.422 112.487 101.63 112.687 100.834 112.911Z" fill="#263238"/>
<path d="M104.806 111.174C104.598 111.321 104.399 111.481 104.21 111.651C104.021 111.829 103.841 112.017 103.671 112.213C103.881 112.069 104.08 111.909 104.267 111.737C104.457 111.56 104.637 111.372 104.806 111.174Z" fill="#263238"/>
<path d="M102.851 112.434C103.334 112.685 103.842 112.885 104.367 113.03C103.885 112.776 103.377 112.576 102.851 112.434Z" fill="#263238"/>
<path d="M102.541 112.033C102.437 112.111 102.343 112.201 102.26 112.3C102.177 112.402 102.105 112.513 102.045 112.629C102.149 112.55 102.243 112.459 102.326 112.357C102.413 112.26 102.485 112.151 102.541 112.033Z" fill="#263238"/>
<path d="M100.777 113.401C100.913 113.417 101.042 113.473 101.147 113.562C101.252 113.651 101.328 113.769 101.366 113.901C101.403 114.033 101.401 114.174 101.359 114.305C101.317 114.436 101.237 114.551 101.13 114.637C101.022 114.722 100.892 114.774 100.755 114.786C100.618 114.797 100.48 114.768 100.36 114.702C100.239 114.635 100.141 114.535 100.078 114.413C100.015 114.291 99.9891 114.152 100.004 114.016C100.026 113.832 100.119 113.664 100.264 113.549C100.408 113.434 100.593 113.381 100.777 113.401Z" fill="#455A64"/>
<path d="M100.939 112.014C101.03 112.025 101.118 112.054 101.198 112.098C101.278 112.143 101.349 112.203 101.406 112.275C101.463 112.347 101.505 112.429 101.53 112.518C101.555 112.606 101.562 112.698 101.552 112.789C101.541 112.88 101.512 112.969 101.468 113.049C101.423 113.129 101.363 113.199 101.291 113.256C101.219 113.313 101.137 113.355 101.048 113.38C100.96 113.405 100.868 113.413 100.777 113.402C100.593 113.381 100.425 113.287 100.31 113.142C100.195 112.996 100.142 112.811 100.164 112.627C100.185 112.443 100.279 112.275 100.424 112.16C100.57 112.045 100.755 111.993 100.939 112.014Z" fill="#455A64"/>
<path d="M57.7184 158.303C57.7184 158.303 47.552 178.659 47.5472 178.659C46.708 182.86 46.0499 186.565 45.8831 188.511C45.8806 188.522 45.8806 188.533 45.8831 188.544C45.795 188.995 45.813 189.46 45.9355 189.903C45.933 189.914 45.933 189.926 45.9355 189.937C47.0179 191.033 80.4257 198.725 81.6989 198.601C82.9721 198.477 82.7003 194.886 81.6417 193.556C80.5831 192.226 69.1054 183.542 69.1054 183.542L79.0429 163.152L57.7184 158.303Z" fill="#D3766A"/>
<path d="M81.1933 198.619C79.9392 198.743 47.0321 191.046 45.9545 189.954C45.9529 189.943 45.9529 189.932 45.9545 189.921C45.8297 189.479 45.8101 189.013 45.8972 188.562C45.8932 188.551 45.8932 188.539 45.8972 188.529C46.0594 186.583 46.7222 182.878 47.5567 178.672L49.9886 173.799L71.0699 179.578L69.1244 183.574C69.1244 183.574 80.0918 192.238 81.1552 193.588C82.2185 194.937 82.4522 198.499 81.1933 198.619Z" fill="#EBEBEB"/>
<path d="M81.6511 198.085C80.3779 198.18 46.8891 189.645 45.8209 188.51C45.4108 188.086 46.3693 183.131 47.6997 177.18L47.7426 176.994L69.4105 182.263L69.3103 182.626C69.3103 182.626 80.664 191.629 81.7083 193.002C82.7526 194.375 82.9195 197.994 81.6511 198.085Z" fill="#263238"/>
<path d="M81.5984 196.688C75.9907 195.114 53.2165 189.277 47.5516 188.143C47.5039 188.143 47.4944 188.166 47.5516 188.181C53.0783 189.864 75.9001 195.515 81.5888 196.764C81.6985 196.807 81.7176 196.721 81.5984 196.688Z" fill="white"/>
<path d="M71.1081 183.154C68.9909 182.172 66.187 181.819 64.0889 182.973C64.0078 183.016 64.0889 183.13 64.1461 183.125C66.4441 182.981 68.7508 183.084 71.027 183.431C71.0604 183.433 71.0935 183.423 71.1209 183.404C71.1483 183.385 71.1683 183.357 71.1778 183.325C71.1872 183.292 71.1854 183.258 71.1727 183.227C71.1601 183.196 71.1373 183.17 71.1081 183.154Z" fill="white"/>
<path d="M72.4624 184.527C70.35 183.55 67.5461 183.197 65.4433 184.346C65.3622 184.389 65.4433 184.504 65.5052 184.504C67.8032 184.357 70.1102 184.459 72.3861 184.809C72.4209 184.812 72.4557 184.803 72.4845 184.783C72.5132 184.763 72.534 184.734 72.5431 184.7C72.5523 184.667 72.5492 184.631 72.5344 184.599C72.5196 184.567 72.4941 184.542 72.4624 184.527Z" fill="white"/>
<path d="M73.8213 185.907C71.7041 184.925 68.9003 184.572 66.8021 185.721C66.7211 185.769 66.8021 185.883 66.8641 185.878C69.1605 185.734 71.4657 185.837 73.7402 186.183C73.7737 186.185 73.8068 186.176 73.8342 186.157C73.8615 186.138 73.8816 186.11 73.891 186.077C73.9004 186.045 73.8987 186.011 73.886 185.98C73.8733 185.949 73.8505 185.923 73.8213 185.907Z" fill="white"/>
<path d="M82.4665 197.016C83.0053 197.397 82.3616 199.376 81.8895 199.429C81.4174 199.481 44.9435 190.011 44.3666 189.711C43.7896 189.41 44.5811 187.245 45.3202 187.326C46.0594 187.408 82.4665 197.016 82.4665 197.016Z" fill="#407BFF"/>
<path d="M52.3158 182.154C50.1986 180.323 47.3471 183.613 49.4548 185.449C51.5624 187.285 54.4378 183.99 52.3158 182.154Z" fill="white"/>
<path d="M50.0508 172.173L74.4843 178.334C74.4843 178.334 97.2585 137.235 96.7482 126.787C96.0473 112.377 79.1288 68.0684 79.1288 68.0684H58.8724C58.8724 68.0684 72.3147 115.967 72.5007 124.026C72.5817 128.241 50.0508 172.173 50.0508 172.173Z" fill="#455A64"/>
<path d="M75.5287 173.374C74.2269 172.855 62.5966 169.498 53.918 167.652C53.9085 167.655 53.9002 167.662 53.8943 167.67C53.8884 167.678 53.8853 167.688 53.8853 167.698C53.8853 167.708 53.8884 167.717 53.8943 167.726C53.9002 167.734 53.9085 167.74 53.918 167.743C56.6504 168.697 73.8931 173.241 75.5096 173.465C75.5477 173.479 75.5859 173.413 75.5287 173.374Z" fill="#263238"/>
<path d="M74.1791 113.736C72.5674 106.974 70.8412 100.231 69.0292 93.5317C67.2172 86.832 65.2764 80.0703 63.1449 73.4231C62.8874 72.6077 62.6156 71.8019 62.3533 70.9912C62.3457 70.9653 62.3282 70.9434 62.3045 70.9305C62.2808 70.9175 62.2529 70.9145 62.227 70.9221C62.201 70.9297 62.1792 70.9472 62.1662 70.9709C62.1533 70.9946 62.1502 71.0225 62.1578 71.0484C64.0652 77.6718 65.9726 84.2809 67.7798 90.9281C69.5871 97.5753 71.3085 104.242 72.9298 110.956C73.3351 112.615 73.7309 114.27 74.1171 115.934C74.566 117.64 74.9131 119.37 75.1566 121.117C75.3571 122.786 75.2423 124.478 74.8181 126.105C74.358 127.703 73.7563 129.258 73.0204 130.749C70.0989 137.091 67.179 143.435 64.2607 149.78C61.3424 156.141 60.8703 157.591 58.0617 164.005C57.7136 164.801 57.3655 165.597 57.0317 166.389C57.0317 166.441 57.0842 166.489 57.1128 166.432C60.3077 160.147 60.7988 158.635 63.7886 152.236C66.7785 145.837 69.7492 139.361 72.7152 132.919C74.0503 130.01 75.6192 127.044 75.8194 123.792C76.0197 120.397 74.9516 116.992 74.1791 113.736Z" fill="#263238"/>
<path d="M75.2852 166.351L76.0672 188.763C76.1959 193.055 76.3819 196.807 76.6632 198.739C76.6609 198.75 76.6609 198.761 76.6632 198.772C76.6792 199.23 76.7999 199.679 77.0161 200.083L77.0447 200.112C78.3465 200.937 112.627 200.918 113.824 200.512C115.021 200.107 113.962 196.674 112.632 195.611C111.301 194.547 98.169 188.687 98.169 188.687L97.1724 166.299L75.2852 166.351Z" fill="#D3766A"/>
<path d="M75.9053 184.174C75.9053 184.174 76.0674 188.762 76.0674 188.776C76.1961 193.067 76.3821 196.82 76.6635 198.751C76.6611 198.762 76.6611 198.774 76.6635 198.785C76.7286 199.234 76.8471 199.675 77.0163 200.096L77.0449 200.125C78.3467 200.95 112.627 200.931 113.824 200.525C115.021 200.12 113.962 196.687 112.632 195.623C111.301 194.56 98.1692 188.7 98.1692 188.7L98.069 184.031L75.9053 184.174Z" fill="#EBEBEB"/>
<path d="M113.843 200.489C112.632 200.875 78.0793 200.341 76.7728 199.483C76.2959 199.163 76.0575 194.128 75.9717 188.038V187.848L98.269 187.943V188.325C98.269 188.325 111.406 194.442 112.736 195.534C114.067 196.626 115.059 200.117 113.843 200.489Z" fill="#263238"/>
<path d="M113.476 199.162C107.653 198.928 84.1448 198.537 78.3702 198.752C78.3226 198.752 78.3226 198.785 78.3702 198.785C84.1353 199.143 107.649 199.348 113.476 199.262C113.595 199.233 113.6 199.162 113.476 199.162Z" fill="white"/>
<path d="M100.129 188.41C97.8448 187.933 95.0314 188.253 93.2576 189.84C93.186 189.902 93.2576 189.998 93.3529 189.979C95.5544 189.307 97.821 188.871 100.115 188.677C100.142 188.668 100.167 188.651 100.184 188.628C100.202 188.605 100.212 188.577 100.214 188.548C100.215 188.519 100.208 188.491 100.193 188.466C100.178 188.441 100.155 188.422 100.129 188.41Z" fill="white"/>
<path d="M101.769 189.43C99.4803 188.953 96.6717 189.278 94.8978 190.885C94.8263 190.947 94.8978 191.042 94.9884 191.018C97.1911 190.345 99.4595 189.911 101.755 189.721C101.789 189.717 101.821 189.7 101.845 189.675C101.869 189.649 101.883 189.616 101.884 189.582C101.886 189.547 101.875 189.513 101.854 189.485C101.833 189.457 101.803 189.438 101.769 189.43Z" fill="white"/>
<path d="M103.405 190.455C101.121 189.978 98.312 190.298 96.5333 191.885C96.4666 191.947 96.5333 192.043 96.6287 192.024C98.8303 191.352 101.097 190.916 103.39 190.722C103.418 190.713 103.442 190.696 103.46 190.673C103.478 190.65 103.488 190.622 103.49 190.593C103.491 190.564 103.484 190.536 103.469 190.511C103.454 190.486 103.431 190.467 103.405 190.455Z" fill="white"/>
<path d="M114.391 199.259C115.007 199.507 114.84 201.581 114.391 201.738C113.943 201.896 76.2438 201.147 75.6286 200.995C75.0135 200.842 75.2615 198.548 76.0101 198.439C76.7588 198.329 114.391 199.259 114.391 199.259Z" fill="#407BFF"/>
<path d="M81.6176 191.796C79.1332 190.504 77.1209 194.366 79.6101 195.658C82.0992 196.951 84.1067 193.088 81.6176 191.796Z" fill="white"/>
<path d="M78.876 68.0308C78.7854 68.4456 73.7356 88.4112 73.1062 88.7831C72.3909 89.2075 91.4552 114.857 93.7154 127.45C95.146 135.504 98.4839 182.45 98.4839 182.45H74.1743C74.1743 182.45 71.7901 142.581 70.9985 129.444C70.6886 124.346 51.5671 100.781 49.7503 85.0685C49.1781 80.1188 52.7354 68.0117 52.7354 68.0117L78.876 68.0308Z" fill="#455A64"/>
<path d="M73.5592 163.482C73.2731 156.877 73.0109 150.259 72.5293 143.664C72.2575 139.925 71.7234 136.306 71.3514 132.582C71.3514 132.386 71.175 132.339 71.1798 132.539C71.3514 139.172 71.8998 145.733 72.2527 152.362C72.6055 158.99 72.9441 160.535 73.3208 167.144C73.5306 170.882 73.7166 174.621 74.0075 178.354C74.0106 178.364 74.0167 178.372 74.0248 178.378C74.033 178.384 74.0427 178.387 74.0528 178.387C74.0628 178.387 74.0726 178.384 74.0807 178.378C74.0889 178.372 74.0949 178.364 74.0981 178.354C74.1124 171.717 73.8501 170.11 73.5592 163.482Z" fill="#263238"/>
<path d="M93.7392 127.765C93.5312 126.021 93.1933 124.294 92.7283 122.601C92.2275 120.959 91.5679 119.37 90.7589 117.856C89.1042 114.68 87.2207 111.609 85.4039 108.524C83.5871 105.439 81.6941 102.287 79.7771 99.2065C78.6995 97.4771 77.617 95.7494 76.5298 94.0232C75.4235 92.2827 74.2553 90.5756 73.1156 88.8589C73.1068 88.8444 73.0925 88.834 73.076 88.8299C73.0594 88.8259 73.0419 88.8286 73.0274 88.8375C73.0129 88.8463 73.0024 88.8606 72.9984 88.8772C72.9944 88.8937 72.9971 88.9112 73.0059 88.9257C74.8656 92.0443 76.7063 95.1676 78.566 98.2862C80.4257 101.405 82.2567 104.533 84.0878 107.661C85.9189 110.789 87.6975 113.822 89.4237 116.95C90.2737 118.435 91.0055 119.985 91.6124 121.585C92.1769 123.243 92.5872 124.949 92.8379 126.682C93.4864 130.721 94.0157 134.789 94.8264 138.789C94.8295 138.799 94.8356 138.807 94.8437 138.813C94.8518 138.819 94.8616 138.822 94.8717 138.822C94.8817 138.822 94.8915 138.819 94.8996 138.813C94.9078 138.807 94.9138 138.799 94.917 138.789C94.6642 135.108 94.2255 131.422 93.7392 127.765Z" fill="#263238"/>
<path d="M96.3427 178.281C94.955 178.1 84.3643 177.733 75.5045 178.114C75.4473 178.114 75.4521 178.2 75.5045 178.205C78.3894 178.457 94.7023 178.572 96.3284 178.381C96.3713 178.376 96.3903 178.291 96.3427 178.281Z" fill="#263238"/>
<path d="M76.2771 87.4184C73.8003 88.3208 71.4069 89.4376 69.1244 90.7563C69.1048 90.7651 69.0895 90.7814 69.0819 90.8015C69.0743 90.8216 69.075 90.844 69.0838 90.8636C69.0927 90.8832 69.109 90.8985 69.1291 90.9061C69.1492 90.9137 69.1715 90.9129 69.1911 90.9041C71.604 89.8646 74.0693 88.8727 76.4249 87.7045C76.4628 87.6849 76.4914 87.651 76.5044 87.6103C76.5173 87.5696 76.5136 87.5254 76.494 87.4875C76.4744 87.4496 76.4405 87.421 76.3999 87.408C76.3592 87.395 76.315 87.3988 76.2771 87.4184Z" fill="#263238"/>
<path d="M77.0064 70.8904C77.0064 70.8093 76.8538 70.7903 76.8538 70.8904C76.8542 73.5849 76.719 76.2777 76.4484 78.9586C76.334 80.2032 75.3326 87.065 73.1773 86.5881C72.8149 86.5023 72.6337 86.1495 72.5765 85.6011C72.5825 84.8893 72.6786 84.1811 72.8626 83.4934C73.101 82.0629 73.2917 80.6323 73.4157 79.1589C73.6685 76.4516 73.6398 73.7253 73.3299 71.0239C73.3258 71.0087 73.3169 70.9952 73.3044 70.9856C73.2919 70.9759 73.2765 70.9707 73.2607 70.9707C73.245 70.9707 73.2296 70.9759 73.2171 70.9856C73.2046 70.9952 73.1956 71.0087 73.1916 71.0239C73.254 74.7768 73.0341 78.529 72.5335 82.2489C72.2617 84.037 71.3605 86.7312 73.2345 87.0173C75.1085 87.3034 76.3722 82.7877 76.601 81.5527C77.1975 78.0311 77.3338 74.447 77.0064 70.8904Z" fill="#263238"/>
<path d="M73.235 86.7377C73.0439 87.2033 72.8846 87.6812 72.7581 88.1683C72.6209 88.5423 72.553 88.9382 72.5579 89.3365C72.5602 89.3528 72.5674 89.368 72.5785 89.3801C72.5897 89.3922 72.6042 89.4006 72.6203 89.4042C72.6363 89.4078 72.6531 89.4065 72.6683 89.4004C72.6836 89.3942 72.6966 89.3836 72.7057 89.3699C72.9309 89.0184 73.0999 88.6339 73.2064 88.2303C73.3733 87.7868 73.5449 87.3529 73.6832 86.9046C73.7053 86.8452 73.703 86.7794 73.6766 86.7217C73.6502 86.664 73.602 86.6192 73.5425 86.5971C73.4831 86.5749 73.4173 86.5773 73.3596 86.6037C73.302 86.6301 73.2571 86.6783 73.235 86.7377Z" fill="#263238"/>
<path d="M74.2507 135.851C74.0218 132.456 74.0361 128.874 72.5913 125.727C71.8238 124.194 70.9407 122.721 69.9495 121.321C68.964 119.814 67.9913 118.3 67.0312 116.777C63.2165 110.688 59.5352 104.474 56.183 98.1083C54.5665 95.0422 53.0788 91.876 52.2681 88.4904C51.4776 84.9277 51.3274 81.2527 51.8246 77.6374C51.9391 76.7361 52.0631 75.8397 52.2109 74.9432C52.2114 74.9311 52.2076 74.9191 52.2003 74.9094C52.1929 74.8998 52.1825 74.8929 52.1706 74.8901C52.1588 74.8873 52.1464 74.8887 52.1354 74.894C52.1245 74.8993 52.1158 74.9083 52.1108 74.9194C51.3262 78.3573 51.0578 81.893 51.3144 85.41C51.6814 88.7725 52.6284 92.0461 54.1135 95.0851C55.5917 98.2848 57.3513 101.365 59.087 104.431C60.8768 107.61 62.719 110.743 64.6136 113.83C66.521 116.91 68.4856 119.929 70.455 122.962C71.4595 124.392 72.2424 125.966 72.7772 127.63C73.2108 129.366 73.4601 131.144 73.5211 132.932C73.9979 140.438 75.9053 165.391 76.5824 172.859C76.6635 173.812 76.7493 174.766 76.8399 175.72C76.8372 175.73 76.8368 175.74 76.8388 175.75C76.8407 175.76 76.845 175.77 76.8512 175.778C76.8575 175.786 76.8655 175.793 76.8747 175.797C76.8839 175.802 76.894 175.804 76.9043 175.804C76.9146 175.804 76.9247 175.802 76.9339 175.797C76.9431 175.793 76.9512 175.786 76.9574 175.778C76.9636 175.77 76.9679 175.76 76.9699 175.75C76.9718 175.74 76.9714 175.73 76.9687 175.72C76.6826 168.224 74.7418 143.332 74.2507 135.851Z" fill="#263238"/>
<path d="M62.5823 74.6107C62.5823 74.5582 62.4964 74.5773 62.4964 74.6107C62.4249 76.6945 62.4964 78.8499 61.681 80.8097C60.9467 82.6169 59.4685 83.8853 57.8138 84.8343C56.8515 85.3742 55.8597 85.8598 54.8431 86.2886C54.7715 86.322 54.8002 86.4365 54.8812 86.4126C56.7886 85.8023 58.758 85.1394 60.3554 83.8615C62.0625 82.4882 62.8112 80.4997 62.8922 78.3539C62.9215 77.0987 62.8176 75.844 62.5823 74.6107Z" fill="#263238"/>
<path d="M73.1635 40.6455C75.8911 49.0189 83.2583 63.2814 85.8905 65.0028C88.2223 66.5239 99.1945 64.8263 104.011 63.6676C105.804 63.2337 101.769 49.5673 99.8573 50.068C97.5637 50.6688 90.7305 52.209 90.2346 51.8275C89.7387 51.4461 82.8482 42.9582 77.9653 37.9609C73.5211 33.4356 72.1335 37.4793 73.1635 40.6455Z" fill="#D3766A"/>
<path d="M102.956 63.772C103.877 63.6576 111.664 63.2951 115.235 61.3544C117.143 60.3196 122.011 56.8959 121.525 55.6656C121.081 54.545 119.517 55.1554 119.517 55.1554C119.517 55.1554 121.668 53.5961 121.038 52.0416C120.409 50.4871 117.81 51.6554 117.81 51.6554C117.81 51.6554 119.904 49.891 119.164 48.389C118.425 46.8869 116.012 48.4939 116.012 48.4939C116.012 48.4939 118.001 46.9727 116.871 45.9904C115.507 44.8079 112.155 48.0313 109.89 48.7847C109.375 48.9564 99.2275 51.5218 99.2275 51.5218L102.956 63.772Z" fill="#D3766A"/>
<path d="M115.927 48.4505C113.457 50.8109 111.964 51.4164 108.664 52.084C108.602 52.084 108.607 52.1985 108.664 52.1889C111.955 51.8313 113.933 51.3402 116.036 48.5649C116.151 48.4266 116.041 48.336 115.927 48.4505Z" fill="#263238"/>
<path d="M117.729 51.5983C114.949 53.8299 113.337 54.4975 109.933 55.4512C109.885 55.4512 109.904 55.5513 109.956 55.5418C113.371 54.8838 115.335 54.3497 117.82 51.7556C117.934 51.6412 117.858 51.4982 117.729 51.5983Z" fill="#263238"/>
<path d="M119.35 55.1927C116.489 57.1573 114.768 57.9727 111.344 58.4734C111.328 58.4734 111.312 58.4799 111.3 58.4916C111.289 58.5032 111.282 58.519 111.282 58.5354C111.282 58.5518 111.289 58.5676 111.3 58.5792C111.312 58.5909 111.328 58.5974 111.344 58.5974C114.887 58.4257 117.066 57.4291 119.389 55.2881C119.56 55.1546 119.527 55.0735 119.35 55.1927Z" fill="#263238"/>
<path d="M96.5669 51.9605C96.5669 51.9605 99.4041 48.7513 100.959 47.6164C102.513 46.4815 109.876 44.3834 110.419 45.9475C111.12 47.9693 107.11 50.015 105.017 50.7588C105.017 50.7588 106.643 55.4319 104.063 57.5205C101.483 59.6091 96.5669 51.9605 96.5669 51.9605Z" fill="#D3766A"/>
<path d="M110.434 46.5723C109.742 48.8754 106.929 49.6765 104.95 50.5492C104.921 50.5618 104.895 50.5811 104.874 50.6055C104.854 50.6299 104.839 50.6588 104.832 50.6898C104.824 50.7208 104.824 50.7531 104.831 50.7842C104.839 50.8152 104.853 50.8441 104.874 50.8686C105.427 52.8714 105.617 55.8564 104.215 57.5445C104.177 57.5922 104.239 57.6589 104.287 57.616C106.037 56.0138 106.085 53.0621 105.341 50.9068C107.386 50.0437 110.171 49.1139 110.453 46.5818C110.457 46.5723 110.438 46.5723 110.434 46.5723Z" fill="#263238"/>
<path d="M102.952 66.123L99.3565 49.7482L90.4586 51.3647C86.949 47.3449 79.9346 39.31 77.1069 36.8972C73.769 34.0647 71.585 36.1915 72.8153 40.4831C75.5953 50.2918 83.7255 64.6925 85.8523 66.0515C88.9374 68.0304 102.952 66.123 102.952 66.123Z" fill="#407BFF"/>
<path opacity="0.1" d="M90.2484 56.3489C90.6889 56.4446 91.1377 56.4973 91.5884 56.5062C92.542 56.635 92.9617 58.0417 92.0938 58.5757C91.6381 58.8564 91.1229 59.0264 90.5896 59.0719C90.0562 59.1175 89.5197 59.0374 89.0229 58.838C88.0692 58.4661 87.2634 57.541 87.4684 56.4538C87.5039 56.2511 87.5913 56.0611 87.722 55.9021C87.8527 55.7432 88.0223 55.6209 88.2143 55.5469C88.4064 55.473 88.6143 55.45 88.8178 55.4803C89.0213 55.5105 89.2135 55.5929 89.3758 55.7194C89.64 55.9639 89.9331 56.1752 90.2484 56.3489ZM87.7879 52.453C87.4446 54.0743 89.9528 55.4667 91.2355 54.6036C91.3389 54.5253 91.4233 54.4247 91.4825 54.3093C91.5416 54.1938 91.574 54.0666 91.5772 53.9369C91.5804 53.8072 91.5544 53.6785 91.501 53.5603C91.4476 53.4421 91.3683 53.3375 91.2689 53.2541C90.8922 52.949 90.5774 52.9013 90.2437 52.6247C90.127 52.5336 90.0242 52.426 89.9385 52.3052C89.7493 52.0445 89.5072 51.8268 89.228 51.6662C89.0827 51.6042 88.9252 51.5759 88.7674 51.5835C88.6096 51.5911 88.4556 51.6344 88.317 51.7101C88.1783 51.7859 88.0587 51.8921 87.9671 52.0208C87.8754 52.1494 87.8141 52.2972 87.7879 52.453ZM83.7872 52.5389C83.2722 53.2112 83.6584 54.2221 84.1114 54.8325C84.3153 55.1365 84.5962 55.3809 84.9254 55.5409C85.2547 55.7009 85.6204 55.7707 85.9854 55.7433C86.1184 55.7245 86.2432 55.6678 86.3446 55.5797C86.4461 55.4917 86.5199 55.3762 86.5572 55.2472C86.5945 55.1182 86.5937 54.9811 86.5549 54.8525C86.516 54.7239 86.4408 54.6093 86.3383 54.5225C86.0515 54.3044 85.8224 54.0196 85.6707 53.6928C85.4466 53.1874 85.2988 52.5341 84.717 52.3147C84.5582 52.2494 84.3828 52.2359 84.2158 52.2762C84.0488 52.3164 83.8988 52.4083 83.7872 52.5389ZM94.3493 63.1439C93.6769 64.5029 95.7226 66.0479 96.9624 65.7809C97.3773 65.6903 97.7778 65.1467 97.4106 64.7556C97.115 64.4409 96.7621 64.193 96.4856 63.8592C96.147 63.4539 95.961 62.9341 95.4317 62.7291C95.2326 62.6457 95.009 62.6423 94.8074 62.7196C94.6058 62.7968 94.4417 62.9488 94.3493 63.1439ZM75.142 46.4782C75.0247 46.2549 74.8623 46.0584 74.6651 45.9012C74.9322 46.5847 75.2135 47.2697 75.5091 47.9564C75.525 47.4393 75.3979 46.9278 75.142 46.4782ZM77.798 45.0476C77.7046 43.8697 77.2444 42.7507 76.4819 41.848C75.9097 41.1089 74.9178 39.9406 73.8688 40.1933C73.7573 40.2282 73.66 40.298 73.5913 40.3925C73.5225 40.487 73.4861 40.6011 73.4873 40.7179C73.4206 41.5237 74.3456 42.3868 74.7462 43.0306C75.223 43.8412 75.5997 44.7377 76.1147 45.5435C76.2224 45.7092 76.3807 45.8356 76.5662 45.9039C76.7516 45.9722 76.9541 45.9786 77.1435 45.9223C77.3329 45.8659 77.4989 45.7499 77.6169 45.5914C77.7349 45.4329 77.7984 45.2404 77.798 45.0429V45.0476ZM77.488 50.1737C77.6744 50.1641 77.8527 50.095 77.9969 49.9765C78.1411 49.8581 78.2435 49.6966 78.2891 49.5157C78.3632 49.1455 78.3386 48.7623 78.2176 48.4046C78.1463 48.064 77.9812 47.7502 77.7408 47.4986C77.6547 47.419 77.5494 47.363 77.4352 47.3363C77.321 47.3096 77.2019 47.313 77.0894 47.3461C76.9769 47.3793 76.875 47.4411 76.7936 47.5255C76.7121 47.6099 76.654 47.714 76.625 47.8276C76.5868 48.1061 76.5868 48.3884 76.625 48.6669C76.625 48.7861 76.625 48.9053 76.625 49.0293C76.6225 49.209 76.6417 49.3883 76.6822 49.5634C76.7335 49.7376 76.8396 49.8906 76.9848 49.9997C77.1299 50.1088 77.3064 50.1681 77.488 50.1689V50.1737Z" fill="#030402"/>
<path d="M99.8379 64.6932C99.4278 63.7395 98.4074 59.5051 98.1832 58.4513C97.9591 57.3974 97.1294 53.1344 96.8862 52.052C96.8862 51.99 96.953 51.9566 96.9673 52.0138C97.2248 53.082 98.374 57.2877 98.6267 58.3368C98.8794 59.3859 99.8284 63.6155 99.8951 64.6788C99.8961 64.6826 99.8963 64.6865 99.8957 64.6903C99.8951 64.6942 99.8938 64.6978 99.8918 64.7012C99.8878 64.7079 99.8813 64.7127 99.8737 64.7146C99.8661 64.7165 99.858 64.7153 99.8513 64.7113C99.8446 64.7073 99.8398 64.7007 99.8379 64.6932Z" fill="#263238"/>
<path opacity="0.1" d="M91.5743 66.9426C89.0708 66.9426 86.8726 66.7042 85.8521 66.0509C83.7111 64.6681 75.5809 50.315 72.7818 40.4873C72.0761 38.0267 72.5005 36.2719 73.6163 35.7617L91.5743 66.9426Z" fill="black"/>
<path d="M51.2236 70.2752C51.2856 70.3657 81.0407 74.1805 81.3602 73.9039C81.5285 73.0756 81.6479 72.2381 81.7179 71.3957C81.7179 71.3957 78.9903 38.9989 77.5788 37.0963C76.3438 35.4368 72.5958 34.2352 70.0447 35.3176C64.6897 37.5874 51.8673 66.5319 52.0056 67.7431C51.9961 67.7288 51.1473 70.1607 51.2236 70.2752Z" fill="#407BFF"/>
<path opacity="0.1" d="M61.9527 66.3318C62.4116 66.5546 62.8906 66.7334 63.3832 66.8658C64.3751 67.2616 64.4657 68.9163 63.3832 69.2501C62.8078 69.4326 62.1977 69.4781 61.6016 69.3829C61.0054 69.2877 60.4398 69.0544 59.9499 68.7017C58.9962 68.0341 58.3811 66.7943 58.8961 65.688C58.9906 65.4775 59.1377 65.2949 59.3232 65.1577C59.5087 65.0205 59.7264 64.9333 59.9554 64.9046C60.1843 64.8758 60.4168 64.9065 60.6305 64.9936C60.8442 65.0807 61.0318 65.2213 61.1754 65.4019C61.4425 65.7119 61.6046 66.122 61.9527 66.3318ZM60.3219 61.406C59.5065 63.0892 61.8669 65.2875 63.5024 64.6914C63.6394 64.6367 63.7619 64.5508 63.8601 64.4407C63.9583 64.3306 64.0296 64.1992 64.0684 64.0568C64.1073 63.9145 64.1125 63.7651 64.0838 63.6203C64.0551 63.4756 63.9932 63.3395 63.903 63.2228C63.5787 62.7888 63.2449 62.6505 62.9493 62.2691C62.8472 62.1372 62.7653 61.991 62.7061 61.8351C62.5651 61.5022 62.3593 61.2007 62.1005 60.9482C61.5331 60.3998 60.6223 60.7861 60.3219 61.406ZM57.5657 59.613C56.674 59.9468 56.4451 61.1485 56.5119 61.9973C56.5256 62.4096 56.6485 62.8109 56.868 63.1602C57.0874 63.5096 57.3957 63.7944 57.7612 63.9857C57.8992 64.0473 58.052 64.0677 58.2013 64.0443C58.3505 64.0209 58.4898 63.9548 58.6023 63.8539C58.7148 63.753 58.7957 63.6217 58.8351 63.4758C58.8745 63.33 58.8709 63.1758 58.8246 63.032C58.6732 62.6507 58.6207 62.2374 58.672 61.8304C58.7531 61.22 58.9962 60.5047 58.5909 59.9564C58.4781 59.7983 58.3182 59.6799 58.134 59.6183C57.9499 59.5566 57.751 59.5548 57.5657 59.613ZM67.341 65.2875C67.1153 65.2682 66.8907 65.3359 66.7134 65.4769C66.5361 65.6179 66.4194 65.8214 66.3873 66.0457C66.3629 66.2866 66.4234 66.5285 66.5584 66.7296C66.6933 66.9308 66.8942 67.0784 67.1264 67.1472C67.4516 67.2545 67.8027 67.2545 68.1278 67.1472C68.2943 67.0814 68.4314 66.9578 68.5141 66.7991C68.6098 66.6456 68.6486 66.4633 68.6237 66.2841C68.5973 66.1169 68.5207 65.9617 68.404 65.839C68.2874 65.7164 68.1362 65.6321 67.9705 65.5974C67.9405 65.5578 67.9052 65.5225 67.8656 65.4925C67.7142 65.3749 67.532 65.3037 67.341 65.2875ZM60.031 53.7812C59.2299 54.6014 59.5542 56.4659 60.4697 57.0953C60.5876 57.1849 60.7268 57.2421 60.8737 57.2612C61.0205 57.2804 61.1698 57.2608 61.3067 57.2044C61.4436 57.148 61.5634 57.0567 61.6541 56.9397C61.7448 56.8227 61.8034 56.684 61.8239 56.5374C61.838 56.3485 61.838 56.1588 61.8239 55.9699C61.8239 55.7649 61.7953 55.6361 61.8239 55.4931C61.8953 55.0854 61.9097 54.6697 61.8668 54.2581C61.8298 54.0628 61.738 53.8821 61.6023 53.737C61.4665 53.5918 61.2923 53.4883 61.0999 53.4383C60.9076 53.3883 60.705 53.394 60.5157 53.4548C60.3265 53.5155 60.1584 53.6287 60.031 53.7812ZM54.8572 65.6451C53.7557 66.9517 55.5725 69.1929 56.9983 69.2358C57.4751 69.2358 58.0616 68.7589 57.766 68.2344C57.5276 67.8148 57.2081 67.4428 56.9983 67.0089C56.7408 66.4748 56.6788 65.8502 56.1542 65.4878C55.9586 65.344 55.7156 65.2802 55.4746 65.3095C55.2336 65.3387 55.0128 65.4587 54.8572 65.6451ZM81.1648 65.2303C80.9853 65.2572 80.8178 65.3368 80.6837 65.459C80.5495 65.5813 80.4547 65.7407 80.4114 65.9169C80.2588 66.4462 80.2397 66.9183 79.8439 67.3475C79.4156 67.6844 79.0311 68.0737 78.6995 68.5062C78.6441 68.6142 78.6178 68.7347 78.623 68.8559C78.6282 68.9772 78.6648 69.095 78.7292 69.1979C78.7936 69.3007 78.8836 69.3851 78.9904 69.4427C79.0972 69.5003 79.2171 69.5293 79.3385 69.5266C80.1712 69.4243 80.9335 69.0082 81.47 68.3631C81.3746 67.4571 81.2792 66.3938 81.1695 65.2112L81.1648 65.2303ZM78.7805 61.2963C78.5135 61.9448 78.5612 62.6791 78.3371 63.3563C78.1404 63.977 77.9063 64.5853 77.6361 65.1778C77.4358 65.607 77.8364 66.2841 78.3562 66.0552C79.2015 65.7307 79.893 65.0988 80.2921 64.2861C80.6545 63.5375 81.0551 62.2786 80.707 61.4823C80.3589 60.6859 79.1763 60.3378 78.771 61.2772L78.7805 61.2963ZM76.0625 67.7957C75.6663 68.3077 75.1593 68.7234 74.5795 69.0117C74.4414 69.0545 74.314 69.1263 74.2057 69.2221C74.0974 69.318 74.0107 69.4358 73.9513 69.5677C73.892 69.6996 73.8614 69.8427 73.8616 69.9873C73.8617 70.1319 73.8926 70.2749 73.9522 70.4067C74.0118 70.5385 74.0988 70.6561 74.2073 70.7517C74.3158 70.8474 74.4434 70.9189 74.5816 70.9614C74.7198 71.004 74.8655 71.0167 75.009 70.9987C75.1525 70.9807 75.2906 70.9324 75.414 70.857C75.9074 70.6455 76.3484 70.3284 76.706 69.928C77.0635 69.5276 77.329 69.0537 77.4835 68.5396C77.7076 67.7146 76.5918 67.1758 76.053 67.7766L76.0625 67.7957ZM71.7042 44.4303C71.9706 44.4867 72.2485 44.4377 72.4796 44.2937C72.7108 44.1497 72.8772 43.9218 72.944 43.6578C73.211 42.6326 72.2955 41.5787 71.5707 40.9398C70.8458 40.3008 69.8254 39.7191 68.8097 40.0481C68.6745 40.0919 68.5527 40.1695 68.4559 40.2736C68.3591 40.3777 68.2905 40.5048 68.2566 40.6428C68.2227 40.7809 68.2246 40.9253 68.2621 41.0624C68.2997 41.1994 68.3716 41.3247 68.4712 41.4262C68.9146 41.9793 69.5297 42.3799 70.0018 42.9235C70.4739 43.4671 70.8649 44.2729 71.6946 44.4112L71.7042 44.4303ZM75.3616 48.4787C75.7621 47.9017 75.4522 47.0482 75.1661 46.4998C75.0137 46.1973 74.7768 45.9455 74.4842 45.775C74.2872 45.649 74.0485 45.6058 73.8198 45.6549C73.5912 45.704 73.3913 45.8415 73.2635 46.0373C73.1334 46.3084 73.1129 46.6192 73.2062 46.9051C73.2461 47.0547 73.3004 47.2 73.3684 47.339V47.382V47.4201C73.4536 47.8755 73.6465 48.3038 73.931 48.6694C74.0295 48.7686 74.1496 48.8436 74.2819 48.8887C74.4142 48.9337 74.5551 48.9476 74.6936 48.9291C74.8322 48.9106 74.9645 48.8603 75.0804 48.7822C75.1963 48.7041 75.2925 48.6002 75.3616 48.4787ZM77.8221 45.0645C77.7287 43.8866 77.2684 42.7676 76.506 41.8649C75.9338 41.1257 74.9419 39.9575 73.8929 40.2102C73.7814 40.245 73.6841 40.3149 73.6154 40.4093C73.5466 40.5038 73.5102 40.6179 73.5114 40.7347C73.4446 41.5406 74.3697 42.4037 74.7703 43.0474C75.2471 43.8581 75.6238 44.7545 76.1388 45.5604C76.2511 45.717 76.4099 45.8341 76.5926 45.8952C76.7753 45.9562 76.9726 45.9581 77.1565 45.9005C77.3403 45.8429 77.5013 45.7288 77.6165 45.5744C77.7317 45.4201 77.7953 45.2333 77.7982 45.0406L77.8221 45.0645ZM74.2219 53.2281C74.3963 53.2662 74.5768 53.2662 74.7512 53.2281C75.0155 53.1467 75.2389 52.9677 75.3759 52.7274C75.504 52.4716 75.5678 52.1885 75.5618 51.9024C75.5532 51.6315 75.4796 51.3666 75.3473 51.13L75.1899 50.9344L74.9801 50.7819C74.8488 50.7142 74.704 50.6769 74.5564 50.6729C74.4088 50.6689 74.2622 50.6983 74.1275 50.7587C73.9927 50.8192 73.8734 50.9093 73.7783 51.0223C73.6832 51.1353 73.6148 51.2682 73.5782 51.4113C73.4988 51.689 73.443 51.973 73.4113 52.2601L73.4542 52.5223C73.4876 52.6539 73.5531 52.7752 73.6449 52.8752C73.789 53.0417 73.983 53.1571 74.1981 53.2042L74.2219 53.2281ZM77.5121 50.1906C77.6985 50.1809 77.8768 50.1118 78.021 49.9934C78.1652 49.875 78.2676 49.7135 78.3132 49.5325C78.3873 49.1623 78.3627 48.7791 78.2417 48.4215C78.1704 48.0809 78.0052 47.7671 77.7649 47.5155C77.6788 47.4358 77.5735 47.3799 77.4593 47.3532C77.3451 47.3264 77.226 47.3298 77.1135 47.363C77.001 47.3962 76.8991 47.458 76.8177 47.5424C76.7362 47.6268 76.6781 47.7309 76.649 47.8445C76.6109 48.1229 76.6109 48.4053 76.649 48.6837C76.649 48.8029 76.649 48.9222 76.649 49.0461C76.6466 49.2258 76.6658 49.4051 76.7063 49.5802C76.7597 49.747 76.8636 49.8931 77.0037 49.9982C77.1439 50.1033 77.3132 50.1622 77.4883 50.1667L77.5121 50.1906Z" fill="#030402"/>
<path d="M75.8386 42.1759C74.0218 42.009 71.6948 38.1275 71.2513 35.6622C71.2227 35.4905 71.9475 34.0552 72.7438 32.2718C73.2207 31.1894 73.7357 29.9686 74.1171 28.8242L80.7167 32.9775C79.8262 34.2731 79.0976 35.6727 78.547 37.1452C78.4977 37.3006 78.4626 37.4602 78.4421 37.622C78.4438 37.649 78.4438 37.6761 78.4421 37.7031C78.2752 38.6568 77.5981 42.338 75.8386 42.1759Z" fill="#D3766A"/>
<path d="M78.4419 37.6315C78.4433 37.6585 78.4433 37.6855 78.4419 37.7125C78.1876 37.6628 77.9373 37.5942 77.6932 37.5075C73.5637 36.0197 74.2933 30.6028 74.5842 29.1055L76.2293 30.145L80.7355 33.0061C79.8454 34.3011 79.1183 35.7008 78.5706 37.1737C78.5138 37.322 78.4707 37.4753 78.4419 37.6315Z" fill="#263238"/>
<path d="M74.8082 21.1797C73.4445 23.6355 73.206 31.5225 74.7176 33.6158C76.9016 36.6486 81.2886 37.8311 84.0686 35.0464C86.7627 32.3188 86.8867 22.0333 85.1319 20.0496C82.5379 17.1027 76.8205 17.5509 74.8082 21.1797Z" fill="#D3766A"/>
<path d="M81.141 27.5566C81.141 27.5566 81.0981 27.5566 81.0981 27.6043C81.0981 28.1479 81.0028 28.7678 80.5068 28.93V28.9633C81.1124 28.8966 81.2269 28.0716 81.141 27.5566Z" fill="#263238"/>
<path d="M80.6783 26.9745C79.8057 26.8791 79.677 28.6244 80.4828 28.715C81.2887 28.8056 81.4079 27.0555 80.6783 26.9745Z" fill="#263238"/>
<path d="M84.2688 27.7402C84.2688 27.7402 84.3069 27.7688 84.3069 27.7927C84.2449 28.3315 84.2688 28.961 84.7409 29.1755C84.7409 29.1755 84.7409 29.2137 84.7409 29.2089C84.1448 29.0754 84.1257 28.2409 84.2688 27.7402Z" fill="#263238"/>
<path d="M84.7982 27.2168C85.6709 27.2168 85.5993 28.9668 84.7982 28.9668C83.9971 28.9668 84.0639 27.212 84.7982 27.2168Z" fill="#263238"/>
<path d="M81.3842 26.6209C81.141 26.6734 80.9074 26.6781 80.6689 26.7067C80.4219 26.7713 80.1605 26.7529 79.9251 26.6543C79.8565 26.6091 79.8048 26.5425 79.7781 26.4649C79.7514 26.3872 79.751 26.303 79.7772 26.2251C79.8554 26.0829 79.9698 25.9639 80.1088 25.8802C80.2478 25.7964 80.4065 25.7509 80.5688 25.7483C80.8982 25.685 81.2393 25.7498 81.5225 25.9295C81.5814 25.9738 81.6266 26.0338 81.6529 26.1027C81.6791 26.1716 81.6854 26.2464 81.671 26.3187C81.6565 26.391 81.6219 26.4577 81.5712 26.5112C81.5204 26.5647 81.4556 26.6027 81.3842 26.6209Z" fill="#263238"/>
<path d="M85.5804 25.5907C85.3489 25.5257 85.1212 25.4477 84.8985 25.357C84.6477 25.3097 84.4196 25.1806 84.25 24.9898C84.2076 24.9199 84.1898 24.8379 84.1993 24.7567C84.2088 24.6755 84.2451 24.5998 84.3025 24.5416C84.4328 24.4421 84.5876 24.3797 84.7505 24.3612C84.9134 24.3428 85.0783 24.3688 85.2276 24.4367C85.5497 24.5249 85.8281 24.7286 86.0096 25.0089C86.0473 25.0754 86.0649 25.1515 86.0603 25.2278C86.0558 25.3041 86.0292 25.3775 85.9838 25.439C85.9384 25.5006 85.8761 25.5476 85.8045 25.5746C85.733 25.6015 85.6551 25.6071 85.5804 25.5907Z" fill="#263238"/>
<path d="M80.7448 31.8566C81.447 31.6885 82.1789 31.6885 82.8811 31.8566C82.9431 31.8566 83.0051 31.7326 83.0194 31.6754L83.0575 30.531C83.2053 30.6168 83.9492 31.0078 83.9492 30.798C84.0268 28.938 83.9134 27.0749 83.6107 25.238C83.6073 25.2273 83.6007 25.218 83.5917 25.2114C83.5827 25.2047 83.5718 25.2012 83.5606 25.2012C83.5494 25.2012 83.5385 25.2047 83.5295 25.2114C83.5205 25.218 83.5139 25.2273 83.5105 25.238C83.4342 26.9594 83.6536 28.676 83.6011 30.407C83.338 30.2612 83.0554 30.1536 82.7619 30.0875C82.6999 30.0875 82.7619 31.3035 82.7619 31.4847C82.1055 31.2586 81.3868 31.2979 80.7591 31.5943C80.5112 31.7517 80.411 31.9615 80.7448 31.8566Z" fill="#263238"/>
<path d="M79.3337 32.9915C79.4529 33.125 79.5722 33.3062 79.7629 33.3348C79.9634 33.3444 80.1635 33.3102 80.3494 33.2347C80.3494 33.2347 80.3828 33.2347 80.3494 33.2633C80.2673 33.3645 80.1589 33.4412 80.0361 33.4849C79.9133 33.5286 79.7808 33.5378 79.6532 33.5112C79.549 33.4779 79.4567 33.4152 79.3873 33.3306C79.3179 33.246 79.2745 33.1431 79.2622 33.0344C79.2717 32.982 79.3147 32.9724 79.3337 32.9915Z" fill="#263238"/>
<path opacity="0.2" d="M77.1116 18.6758C77.0401 19.9013 76.7492 23.7017 76.1579 24.4742C75.5666 25.2467 74.3173 27.0444 73.6831 27.3353C73.7689 24.8032 74.16 22.3952 74.8132 21.1363C75.3488 20.1277 76.1418 19.2788 77.1116 18.6758Z" fill="#263238"/>
<path d="M83.9066 22.3918C83.5732 22.7312 83.1584 22.9795 82.7018 23.1131C82.2452 23.2466 81.762 23.261 81.2983 23.1548C80.8237 23.0492 80.3843 22.823 80.0226 22.4981C79.661 22.1731 79.3892 21.7604 79.2335 21.2998C79.2335 21.2712 79.1811 21.2998 79.1906 21.2998C79.3118 21.7971 79.567 22.2517 79.9286 22.614C80.2901 22.9764 80.744 23.2327 81.241 23.355C81.7372 23.4497 82.2497 23.4114 82.7262 23.2439C83.2028 23.0764 83.6265 22.7857 83.9543 22.4013C83.9829 22.4061 83.9448 22.3632 83.9066 22.3918Z" fill="#263238"/>
<path d="M81.5126 15.3244C80.7798 15.2749 80.0463 15.4105 79.3796 15.7188C78.713 16.0271 78.1346 16.4982 77.6978 17.0888C77.3257 17.6897 77.1677 18.3989 77.2496 19.101H77.3116C77.3207 18.485 77.496 17.8828 77.8192 17.3582C78.1424 16.8335 78.6013 16.406 79.1475 16.1208C79.7444 15.7866 80.4106 15.595 81.0939 15.5611C81.7772 15.5272 82.4591 15.6518 83.0862 15.9253C83.703 16.1796 84.2098 16.6442 84.5167 17.2366C84.5453 17.2986 84.6693 17.27 84.6455 17.208C84.2545 16.1684 82.9908 15.396 81.5126 15.3244Z" fill="#263238"/>
<path d="M90.6205 19.4823C90.4131 18.675 89.9266 17.9672 89.2472 17.4843C88.2935 16.8024 87.1777 16.8119 86.0619 16.8501C86.0285 16.8501 86.0333 16.8978 86.0619 16.893C87.0106 16.794 87.9677 16.9711 88.8181 17.4032C89.5102 17.8186 90.0375 18.4604 90.3106 19.22C90.5705 19.9991 90.5404 20.8458 90.2259 21.6045C89.9114 22.3631 89.3336 22.9828 88.5987 23.3495C88.171 23.5505 87.7066 23.6618 87.2343 23.6766C86.7619 23.6914 86.2915 23.6093 85.8521 23.4353C85.8187 23.4353 85.7901 23.4687 85.8235 23.4878C86.4181 23.7504 87.0742 23.8416 87.7179 23.7509C88.3616 23.6603 88.9671 23.3915 89.466 22.9749C89.965 22.5583 90.3375 22.0104 90.5415 21.3933C90.7455 20.7761 90.7729 20.1142 90.6205 19.4823Z" fill="#263238"/>
<path d="M74.3314 22.7299C74.3314 22.7299 73.0154 19.7306 74.422 18.157C75.2184 17.27 77.6121 17.5752 77.6121 17.5752C78.3272 16.6675 79.3735 16.0809 80.5209 15.9444C82.5666 15.6249 84.8983 17.0078 84.8983 17.0078C84.8983 17.0078 86.8915 16.0541 88.6034 17.2128C90.9876 18.8293 90.3916 22.6107 87.788 23.6407C85.9569 24.3703 83.6776 22.625 83.6776 22.625C83.4487 22.625 80.9787 23.8839 79.3526 21.6427C79.3526 21.6427 77.8076 22.8205 76.5726 21.8191C76.3378 22.1827 75.9967 22.4651 75.5957 22.6281C75.1947 22.791 74.7533 22.8266 74.3314 22.7299Z" fill="#263238"/>
<path d="M75.1087 27.7133C75.1087 27.7133 73.8593 24.9142 72.6243 25.3291C71.3893 25.7439 71.9901 29.5491 73.2108 30.293C73.3596 30.3965 73.5276 30.469 73.705 30.5063C73.8823 30.5437 74.0653 30.545 74.2432 30.5104C74.421 30.4757 74.5901 30.4057 74.7404 30.3044C74.8907 30.2032 75.0192 30.0729 75.1182 29.9211L75.1087 27.7133Z" fill="#D3766A"/>
<path d="M72.8247 26.4062V26.4396C73.6735 26.988 73.993 27.9369 74.1599 28.8858C74.124 28.7836 74.0663 28.6904 73.9909 28.6126C73.9154 28.5348 73.824 28.4743 73.7229 28.4353C73.6218 28.3963 73.5134 28.3797 73.4052 28.3867C73.2971 28.3937 73.1918 28.4241 73.0965 28.4758C73.0679 28.4758 73.0965 28.5282 73.0965 28.5282C73.2702 28.5081 73.4458 28.5434 73.5982 28.6291C73.7506 28.7147 73.8721 28.8463 73.9453 29.0051C74.0747 29.263 74.1739 29.535 74.2409 29.8157C74.2409 29.9063 74.4221 29.892 74.4126 29.8157C74.6558 28.5854 74.0597 26.7687 72.8247 26.4062Z" fill="#263238"/>
<path d="M141.203 33.269L89.8647 48.9941L99.1211 79.2136L150.459 63.4885L141.203 33.269Z" fill="#407BFF"/>
<path opacity="0.2" d="M141.203 33.269L89.8647 48.9941L99.1211 79.2136L150.459 63.4885L141.203 33.269Z" fill="black"/>
<path opacity="0.2" d="M141.201 33.2682L123.948 38.5527L133.205 68.7722L150.457 63.4877L141.201 33.2682Z" fill="black"/>
<path d="M140.375 34.8086C139.793 37.4853 139.227 40.162 138.677 42.8387L137.051 50.8878L135.478 58.9703C134.963 61.6597 134.46 64.3539 133.971 67.0529C134.552 64.3794 135.118 61.7027 135.668 59.0228L137.294 50.9736L138.868 42.9102C139.383 40.2081 139.885 37.5075 140.375 34.8086Z" fill="#407BFF"/>
<path d="M148.848 62.4747C146.941 60.5164 145.016 58.5661 143.074 56.6238L137.256 50.8253L131.4 45.0698C129.442 43.1624 127.474 41.255 125.497 39.3477C127.404 41.3091 129.329 43.2594 131.272 45.1985L137.089 50.997L142.945 56.7525C144.906 58.679 146.874 60.5863 148.848 62.4747Z" fill="#407BFF"/>
<path d="M99.7251 52.8874L100.008 52.8008L98.7914 48.8296L98.5087 48.9162L99.7251 52.8874Z" fill="#263238"/>
<path d="M99.0533 53.0905L99.3359 53.0039L98.1195 49.0327L97.8369 49.1193L99.0533 53.0905Z" fill="#263238"/>
<path d="M98.376 53.3053L98.6587 53.2188L97.4423 49.2475L97.1596 49.3341L98.376 53.3053Z" fill="#263238"/>
<path d="M97.7051 53.5006L97.9878 53.4141L96.7721 49.4426L96.4894 49.5292L97.7051 53.5006Z" fill="#263238"/>
<path d="M97.0283 53.7096L97.311 53.623L96.0946 49.6518L95.812 49.7384L97.0283 53.7096Z" fill="#263238"/>
<path d="M96.3555 53.9128L96.6382 53.8262L95.4218 49.855L95.1391 49.9416L96.3555 53.9128Z" fill="#263238"/>
<path d="M95.6748 54.1354L95.9575 54.0488L94.7411 50.0776L94.4584 50.1642L95.6748 54.1354Z" fill="#263238"/>
<path d="M95.001 54.3347L95.2837 54.248L94.0666 50.2771L93.7839 50.3637L95.001 54.3347Z" fill="#263238"/>
<path d="M94.3208 54.5495L94.6035 54.4629L93.3871 50.4917L93.1044 50.5783L94.3208 54.5495Z" fill="#263238"/>
<path d="M101.65 48.2836L100.477 48.3122L103.019 47.5254L102.027 48.1644L102.475 49.6235C103.281 49.4852 103.824 50.1576 104.235 51.4927L101.693 52.2938C101.283 50.9634 101.354 50.1004 102.098 49.7618L101.65 48.2836Z" fill="#263238"/>
<path d="M104.206 49.2992L104.869 49.0942L104.273 47.1487L105.97 46.6289L106.566 48.5744L107.234 48.3694L106.338 50.8585L104.206 49.2992Z" fill="#263238"/>
<path opacity="0.1" d="M89.8672 48.9948L90.6254 51.4744L126.112 45.6187L123.947 38.5566L89.8672 48.9948Z" fill="black"/>
<path d="M157.112 66.9148L139.855 72.1983L133.203 68.7745L150.46 63.4863L157.112 66.9148Z" fill="#407BFF"/>
<path opacity="0.2" d="M157.112 66.9148L139.855 72.1983L133.203 68.7745L150.46 63.4863L157.112 66.9148Z" fill="black"/>
<path d="M95.5273 85.7773L112.784 80.4891L116.375 73.9277L99.118 79.2112L95.5273 85.7773Z" fill="#407BFF"/>
<path opacity="0.1" d="M95.5273 85.7773L112.784 80.4891L116.375 73.9277L99.118 79.2112L95.5273 85.7773Z" fill="black"/>
<path d="M67.1266 44.3302C69.6491 52.7656 76.6635 67.2187 79.267 68.9831C81.5607 70.5614 92.571 69.1261 97.3872 68.0818C99.1896 67.6956 95.4798 53.9338 93.5724 54.3868C91.2645 54.9352 84.3931 56.2942 83.9067 55.9175C83.4204 55.5408 76.7541 46.8574 71.9856 41.7647C67.6559 37.1298 66.1729 41.1401 67.1266 44.3302Z" fill="#D3766A"/>
<path d="M92.5806 55.5081C92.5806 55.5081 96.2284 51.3977 98.8129 49.8289C101.541 48.2674 104.608 47.3919 107.749 47.2778C111.139 47.1442 119.432 49.1565 119.265 51.6457C119.117 53.9011 110.748 51.412 110.748 51.412C110.748 51.412 119.699 52.5421 119.022 55.2268C118.345 57.9114 108.793 54.4638 108.793 54.4638C108.793 54.4638 117.963 55.8276 116.847 58.4932C115.989 60.5007 107.162 57.8685 107.162 57.8685C107.162 57.8685 115.04 59.0988 114.244 61.2064C113.366 63.5287 105.064 61.6117 105.064 61.6117C102.151 66.6091 98.7128 67.8107 96.1712 68.3496C95.537 68.4592 92.5806 55.5081 92.5806 55.5081Z" fill="#D3766A"/>
<path d="M107.677 50.8203C108.731 50.9157 109.804 51.0063 110.848 51.1923C111.893 51.3782 112.927 51.6071 113.952 51.8932C115.295 52.2384 116.595 52.736 117.824 53.3762C115.559 52.3987 111.831 51.6643 110.786 51.4688C109.742 51.2733 108.707 51.0397 107.668 50.8537C107.639 50.8632 107.649 50.8203 107.677 50.8203Z" fill="#263238"/>
<path d="M106.929 54.5825C108.268 54.7589 109.613 54.8877 110.948 55.1261C112.284 55.3645 113.519 55.7079 114.83 56.0369C114.93 56.0607 114.882 56.1084 114.782 56.0846C113.457 55.808 112.217 55.6554 110.891 55.3979C109.565 55.1404 108.249 54.8257 106.919 54.6111C106.9 54.6111 106.905 54.5777 106.929 54.5825Z" fill="#263238"/>
<path d="M105.703 57.6916C107.771 57.9161 109.81 58.354 111.788 58.9982C111.888 59.0268 111.821 59.0792 111.716 59.0554C109.704 58.5786 108.126 58.1971 105.698 57.7632C105.66 57.7584 105.66 57.6869 105.703 57.6916Z" fill="#263238"/>
<path d="M96.295 70.5246L93.0906 54.0639L84.1593 55.4659C80.7451 51.365 73.9262 43.1633 71.1414 40.6837C67.875 37.7701 65.6386 39.8492 66.7592 44.1646C69.3247 54.0306 77.1068 68.6029 79.2144 70.0335C82.2376 72.0839 96.295 70.5246 96.295 70.5246Z" fill="#407BFF"/>
<path opacity="0.1" d="M90.2485 56.3481C90.689 56.4439 91.1378 56.4966 91.5884 56.5055C92.5421 56.6342 92.9618 58.0409 92.0939 58.575C91.6382 58.8557 91.123 59.0257 90.5896 59.0712C90.0563 59.1168 89.5198 59.0366 89.023 58.8373C88.0693 58.4653 87.2635 57.5403 87.4685 56.453C87.504 56.2504 87.5914 56.0603 87.7221 55.9014C87.8528 55.7425 88.0224 55.6201 88.2144 55.5462C88.4065 55.4723 88.6143 55.4493 88.8179 55.4795C89.0214 55.5098 89.2136 55.5922 89.3759 55.7187C89.6401 55.9632 89.9332 56.1745 90.2485 56.3481ZM89.2948 54.6601C89.594 54.8043 89.9235 54.8744 90.2555 54.8645C90.5875 54.8545 90.9122 54.7648 91.2022 54.6029C91.3091 54.5315 91.3947 54.4327 91.4502 54.3168L89.2948 54.6601ZM84.6551 55.3849C85.0348 55.6622 85.5034 55.7896 85.9712 55.7425C86.1325 55.7204 86.2809 55.6425 86.3907 55.5222C86.5005 55.402 86.5646 55.2471 86.572 55.0845L84.6551 55.3849ZM94.7642 62.7331C94.5755 62.8122 94.4227 62.9582 94.3351 63.1432C93.9345 63.9491 94.4924 64.8169 95.2888 65.3367L94.7642 62.7331ZM80.4017 65.8994C80.2491 66.4286 80.23 66.9007 79.8342 67.3299C79.408 67.6734 79.0267 68.0691 78.6993 68.5077C78.644 68.6157 78.6176 68.7362 78.6228 68.8574C78.6281 68.9787 78.6647 69.0965 78.7291 69.1994C78.7935 69.3022 78.8835 69.3866 78.9903 69.4442C79.097 69.5018 79.217 69.5308 79.3383 69.5281C80.1691 69.4259 80.9312 69.0153 81.4735 68.3776C82.0158 67.7399 82.2987 66.9218 82.2661 66.0853C82.2393 65.871 82.1405 65.6721 81.986 65.5212C81.8314 65.3703 81.6301 65.2764 81.4152 65.2547C81.2002 65.2331 80.9843 65.2852 80.8028 65.4023C80.6213 65.5194 80.4849 65.6946 80.416 65.8994H80.4017ZM78.7565 61.2787C78.4895 61.9272 78.5372 62.6616 78.3131 63.3387C78.1164 63.9595 77.8823 64.5678 77.6121 65.1602C77.4118 65.5894 77.8124 66.2665 78.3322 66.0376C79.1775 65.7131 79.8689 65.0812 80.2681 64.2685C80.6305 63.5199 81.0311 62.261 80.683 61.4647C80.3349 60.6684 79.1762 60.3393 78.7708 61.2787H78.7565ZM71.6802 44.4127C71.9466 44.4691 72.2245 44.4201 72.4556 44.2761C72.6867 44.1321 72.8532 43.9042 72.92 43.6402C73.187 42.615 72.2715 41.5612 71.5466 40.9222C70.8218 40.2832 69.8014 39.7015 68.7857 40.0305C68.6505 40.0743 68.5287 40.152 68.4319 40.256C68.3351 40.3601 68.2665 40.4872 68.2326 40.6252C68.1987 40.7633 68.2006 40.9077 68.2381 41.0448C68.2757 41.1819 68.3476 41.3071 68.4472 41.4086C68.8906 41.9617 69.5058 42.3623 69.9778 42.9059C70.4499 43.4495 70.8648 44.2744 71.6945 44.4127H71.6802ZM75.3614 48.4802C75.762 47.9032 75.452 47.0497 75.1659 46.5013C75.0135 46.1988 74.7767 45.947 74.484 45.7765C74.2871 45.6505 74.0483 45.6073 73.8197 45.6564C73.5911 45.7055 73.3911 45.8429 73.2633 46.0388C73.1332 46.3099 73.1127 46.6207 73.2061 46.9066C73.2459 47.0562 73.3002 47.2015 73.3682 47.3405V47.3834V47.4216C73.4534 47.877 73.6463 48.3053 73.9309 48.6709C74.0293 48.7701 74.1494 48.8451 74.2817 48.8902C74.414 48.9352 74.5549 48.949 74.6935 48.9306C74.832 48.9121 74.9644 48.8618 75.0803 48.7837C75.1961 48.7056 75.2924 48.6017 75.3614 48.4802ZM74.2217 53.2486C74.3961 53.2867 74.5767 53.2867 74.751 53.2486C75.0154 53.1673 75.2388 52.9882 75.3757 52.748C75.5038 52.4922 75.5677 52.209 75.5617 51.923C75.553 51.6521 75.4795 51.3871 75.3471 51.1505L75.1897 50.955L74.9799 50.8024C74.8487 50.7347 74.7039 50.6975 74.5563 50.6935C74.4086 50.6895 74.262 50.7188 74.1273 50.7793C73.9926 50.8398 73.8732 50.9299 73.7781 51.0429C73.683 51.1558 73.6146 51.2888 73.578 51.4319C73.4986 51.7096 73.4428 51.9935 73.4111 52.2807L73.454 52.5429C73.4874 52.6745 73.553 52.7958 73.6448 52.8958C73.7916 53.0552 73.9853 53.1638 74.1979 53.2057L74.2217 53.2486ZM78.2225 48.4087L77.2688 47.3358C77.1164 47.3176 76.9627 47.3562 76.8369 47.4441C76.7111 47.5321 76.6221 47.6632 76.5869 47.8126C76.5487 48.0911 76.5487 48.3734 76.5869 48.6519C76.5869 48.7711 76.5869 48.8903 76.5869 49.0143C76.5845 49.1939 76.6037 49.3733 76.6441 49.5483C76.6963 49.7298 76.8077 49.8886 76.9607 49.9992C77.1138 50.1099 77.2995 50.166 77.4881 50.1587C77.6745 50.1491 77.8528 50.08 77.997 49.9615C78.1412 49.8431 78.2436 49.6816 78.2892 49.5006C78.3608 49.1369 78.3379 48.7609 78.2225 48.4087Z" fill="#030402"/>
<path d="M93.2144 69.0122C92.8281 68.0347 91.9221 63.7908 91.7075 62.7274C91.493 61.6641 90.7825 57.3915 90.5679 56.2996C90.5679 56.2423 90.6346 56.2042 90.6489 56.2662C90.8778 57.3391 91.9316 61.5687 92.1558 62.6273C92.3799 63.6859 93.2334 67.9298 93.2716 68.9979C93.2735 69.0055 93.2723 69.0136 93.2683 69.0203C93.2642 69.027 93.2577 69.0318 93.2501 69.0337C93.2425 69.0356 93.2345 69.0344 93.2278 69.0304C93.2211 69.0264 93.2163 69.0198 93.2144 69.0122Z" fill="#263238"/>
<path d="M90.2679 70.9872C88.804 71.073 87.3401 71.1064 85.8762 71.0968C84.4069 71.1033 82.9386 71.0189 81.4797 70.8441C80.7321 70.7701 80.0013 70.5769 79.3148 70.2719C78.6977 69.8361 78.1619 69.2955 77.7317 68.6745C76.8673 67.4812 76.085 66.2306 75.3904 64.9312C73.9598 62.361 72.7296 59.6859 71.5279 57.0251C70.3263 54.3643 69.2343 51.6273 68.2329 48.8711C69.4489 51.5367 70.6505 54.207 71.8999 56.8535C73.1492 59.5 74.4128 62.1369 75.7766 64.7167C76.4572 66.0034 77.2086 67.2515 78.0273 68.4551C78.4095 69.0544 78.8937 69.5821 79.4578 70.0144C80.1081 70.3143 80.8018 70.509 81.513 70.5914C84.4172 70.9433 87.3438 71.0756 90.2679 70.9872Z" fill="#263238"/>
<path d="M69.1626 51.1971C68.9667 50.9993 68.7895 50.7838 68.6333 50.5533C68.4715 50.3251 68.3475 50.0723 68.2661 49.8047C68.3379 49.9231 68.4159 50.0377 68.4998 50.148L68.7334 50.4866C68.8904 50.7147 69.0337 50.952 69.1626 51.1971Z" fill="#263238"/>
<path d="M76.6919 46.7773C77.8983 47.9885 78.9808 49.3189 80.1013 50.5921C81.2219 51.8653 82.2948 53.21 83.4393 54.4784L83.8637 54.9552C83.9399 55.0268 84.0115 55.1078 84.083 55.1746C84.1545 55.2413 84.1545 55.2366 84.1879 55.2652C84.1879 55.2652 84.2213 55.2652 84.2404 55.2652C84.6028 55.2652 85.0605 55.1841 85.4706 55.1317L88.0074 54.755C89.6955 54.507 91.3883 54.2495 93.0811 54.0206L93.1478 54.4402L93.0477 54.0254H93.0715C91.3978 54.383 89.7336 54.7025 88.036 55.0125C87.192 55.1651 86.348 55.2986 85.4992 55.4273C85.0653 55.5026 84.6275 55.5536 84.1879 55.5799C84.1531 55.5844 84.1178 55.5844 84.083 55.5799C84.0363 55.5659 83.9926 55.5432 83.9543 55.5132C83.9062 55.4758 83.86 55.436 83.816 55.3939L83.5823 55.1651C83.4297 55.0077 83.2867 54.8503 83.1436 54.6882C82.023 53.3864 80.9358 52.0703 79.8677 50.7352L78.2703 48.7276C77.7457 48.103 77.2689 47.4163 76.6919 46.7773Z" fill="#263238"/>
<path d="M77.3164 46.9199C77.496 47.1405 77.6556 47.3767 77.7933 47.6257C77.9277 47.8716 78.0226 48.1371 78.0746 48.4124C78.0174 48.2837 77.9458 48.1693 77.8791 48.0453L77.6836 47.6781C77.5476 47.4322 77.4251 47.1791 77.3164 46.9199Z" fill="#263238"/>
<path d="M20.1233 171.611C19.9468 167.15 20.0089 162.682 20.3093 158.226C20.9669 149.044 22.3687 139.93 24.5008 130.975C25.669 125.93 27.1091 120.961 28.6112 116.011C28.6541 115.863 28.8925 115.906 28.8544 116.059C24.2147 133.531 20.4047 151.565 20.6669 169.723C20.7432 174.806 21.3297 179.799 21.8114 184.849C21.8114 184.987 21.6016 185.039 21.5729 184.901C20.6145 180.567 20.3045 176.027 20.1233 171.611Z" fill="#407BFF"/>
<path d="M28.8546 116.035C28.8546 116.035 35.8833 133.879 34.3097 138.07C32.7361 142.262 29.4888 143.158 29.4888 143.158C29.4888 143.158 33.7804 149.3 30.7858 155.079C27.7912 160.859 21.1059 160.563 20.6576 167.096C20.6576 167.077 20.2857 139.773 28.8546 116.035Z" fill="#407BFF"/>
<path d="M21.4256 155.804C21.4138 155.773 21.4138 155.739 21.4256 155.709C22.3525 143.527 24.6414 131.488 28.2492 119.817C28.2492 119.783 28.316 119.793 28.3064 119.817C26.914 125.033 25.6838 130.279 24.6157 135.552C25.5549 134.661 26.7024 134.018 27.9536 133.683C27.9536 133.683 27.9869 133.683 27.9536 133.717C26.633 134.205 25.4467 134.999 24.4917 136.034C24.2882 137.064 24.0895 138.099 23.8956 139.138C25.4644 137.383 27.6436 136.511 29.8228 135.681C29.8514 135.681 29.8705 135.719 29.8228 135.729C27.553 136.654 25.288 137.846 23.7526 139.801C23.2121 142.761 22.7353 145.731 22.322 148.713C23.4584 147.529 24.9147 146.701 26.5135 146.329C26.5612 146.329 26.5898 146.391 26.5135 146.405C24.8634 146.882 23.3873 147.828 22.2648 149.128H22.2362C22.0963 150.177 21.9644 151.228 21.8404 152.28C22.7462 151.532 23.7693 150.94 24.8684 150.525C24.897 150.525 24.9113 150.559 24.8684 150.568C23.792 151.045 22.8063 151.705 21.9549 152.519C21.9549 152.519 21.9549 152.519 21.9167 152.519C21.8023 153.515 21.6831 154.517 21.5829 155.518C23.1665 153.605 25.2207 152.138 27.5435 151.26C27.5482 151.258 27.5532 151.257 27.5583 151.257C27.5633 151.257 27.5683 151.258 27.573 151.26C27.5776 151.262 27.5818 151.265 27.5854 151.269C27.5889 151.272 27.5917 151.276 27.5935 151.281C27.5954 151.286 27.5964 151.291 27.5963 151.296C27.5962 151.301 27.5952 151.306 27.5932 151.311C27.5912 151.315 27.5883 151.319 27.5847 151.323C27.5811 151.327 27.5768 151.329 27.5721 151.331C25.2778 152.342 23.2622 153.893 21.6974 155.852C21.6813 155.875 21.6581 155.892 21.6314 155.9C21.6048 155.909 21.576 155.909 21.5495 155.899C21.3969 157.435 21.2587 158.975 21.149 160.515H21.1108C21.1871 158.956 21.2968 157.378 21.4256 155.804Z" fill="#263238"/>
<path d="M27.0709 131.929C28.3435 131.137 29.7981 130.683 31.2958 130.613C31.3292 130.613 31.3339 130.661 31.2958 130.666C29.8492 130.933 28.4445 131.392 27.1186 132.03C27.1061 132.032 27.0932 132.03 27.0818 132.025C27.0705 132.019 27.0613 132.009 27.0559 131.998C27.0504 131.986 27.0489 131.974 27.0516 131.961C27.0544 131.949 27.0612 131.938 27.0709 131.929Z" fill="#263238"/>
<path d="M26.2174 150.817C27.1961 150.258 28.2722 149.891 29.3884 149.734C29.4265 149.734 29.4313 149.787 29.3884 149.792C28.2949 150.011 27.2374 150.382 26.246 150.893C26.2126 150.912 26.1744 150.841 26.2174 150.817Z" fill="#263238"/>
<path d="M1.64561 138.361C4.61758 140.418 7.34669 142.804 9.78059 145.476C12.2972 148.3 14.2407 151.586 15.5027 155.151C18.1699 162.582 19.605 170.399 19.7514 178.292C19.8428 182.664 19.4219 187.032 18.4973 191.306C18.4892 191.335 18.4702 191.361 18.4441 191.378C18.418 191.394 18.3866 191.401 18.3561 191.395C18.3256 191.39 18.2983 191.373 18.2794 191.349C18.2605 191.324 18.2515 191.293 18.2541 191.263C19.4059 183.72 19.3673 176.043 18.1397 168.512C16.9285 161.131 15.0354 153.101 10.3433 147.102C7.76353 143.85 4.57821 141.27 1.4501 138.605C1.26413 138.471 1.47394 138.242 1.64561 138.361Z" fill="#407BFF"/>
<path d="M18.7025 172.98C17.012 170.242 15.0242 167.7 12.7753 165.398C9.25621 161.884 6.295 159.385 5.83723 157.058C5.37946 154.731 9.36112 153.024 9.36112 153.024C9.36112 153.024 4.49253 153.897 3.16213 151.851C1.83173 149.805 1.18799 137.984 1.18799 137.984C1.18799 137.984 10.0335 144.326 14.1677 153.162C18.302 161.998 18.7025 172.98 18.7025 172.98Z" fill="#407BFF"/>
<path d="M4.3493 149.095C4.93196 149.011 5.52201 148.992 6.10885 149.038C6.18038 149.038 6.17561 149.162 6.10885 149.162C5.5271 149.162 4.94535 149.133 4.35883 149.162C4.31115 149.152 4.31115 149.095 4.3493 149.095Z" fill="#263238"/>
<path d="M10.7199 160.539C11.656 160.559 12.5811 160.744 13.4523 161.087C13.4523 161.087 13.4523 161.13 13.4523 161.126C12.551 160.911 11.6403 160.82 10.7295 160.673C10.6389 160.673 10.6436 160.539 10.7199 160.539Z" fill="#263238"/>
<path d="M12.6324 156.586C13.0211 156.583 13.4092 156.618 13.7911 156.691C13.8292 156.691 13.8245 156.763 13.7911 156.763C13.4039 156.782 13.0158 156.763 12.6324 156.705C12.6194 156.702 12.608 156.694 12.5999 156.683C12.5918 156.672 12.5874 156.659 12.5874 156.646C12.5874 156.632 12.5918 156.619 12.5999 156.608C12.608 156.598 12.6194 156.59 12.6324 156.586Z" fill="#263238"/>
<path d="M44.6525 150.917C41.7732 151.893 39.0137 153.192 36.4269 154.789C33.7484 156.5 31.4251 158.712 29.5842 161.303C25.7081 166.701 22.7396 172.696 20.7959 179.051C19.7144 182.568 19.0455 186.199 18.8027 189.871C18.8027 189.898 18.8138 189.925 18.8335 189.945C18.8531 189.964 18.8798 189.976 18.9076 189.976C18.9355 189.976 18.9621 189.964 18.9818 189.945C19.0015 189.925 19.0125 189.898 19.0125 189.871C19.8183 183.509 21.6156 177.313 24.3389 171.507C27.0235 165.814 30.4139 159.753 35.5972 155.986C38.4201 153.931 41.5912 152.591 44.7526 151.17C44.9386 151.094 44.8433 150.86 44.6525 150.917Z" fill="#407BFF"/>
<path d="M22.8511 174.988C24.8508 173.162 27.0465 171.562 29.3982 170.219C33.0603 168.188 36.0311 166.848 36.9419 165.074C37.8526 163.3 35.0345 160.992 35.0345 160.992C35.0345 160.992 38.7682 162.823 40.3179 161.469C41.8677 160.115 45.1197 150.697 45.1197 150.697C45.1197 150.697 36.4984 153.768 31.11 159.986C25.7217 166.204 22.8511 174.988 22.8511 174.988Z" fill="#407BFF"/>
<path d="M30.0086 166.329C30.8549 166.269 31.7048 166.373 32.5121 166.634C32.5121 166.634 32.5121 166.677 32.5121 166.672C31.687 166.534 30.8541 166.448 30.0182 166.415C30.0068 166.416 29.9954 166.412 29.9864 166.405C29.9775 166.398 29.9717 166.388 29.9705 166.376C29.9692 166.365 29.9725 166.354 29.9797 166.345C29.9868 166.336 29.9972 166.33 30.0086 166.329Z" fill="#263238"/>
<path d="M37.5332 156.457C37.9191 156.429 38.307 156.451 38.6871 156.524C38.6945 156.526 38.7007 156.531 38.7052 156.538C38.7096 156.544 38.712 156.552 38.712 156.559C38.712 156.567 38.7096 156.575 38.7052 156.581C38.7007 156.588 38.6945 156.592 38.6871 156.595C38.3104 156.552 37.9337 156.567 37.5523 156.557C37.5405 156.556 37.5293 156.552 37.5204 156.544C37.5116 156.536 37.5056 156.526 37.5034 156.514C37.5012 156.503 37.5029 156.491 37.5083 156.481C37.5137 156.47 37.5225 156.462 37.5332 156.457Z" fill="#263238"/>
<path d="M11.7261 201.762H31.1909L28.4157 181.425L27.7052 176.213H15.2118L14.5013 181.425L11.7261 201.762Z" fill="#455A64"/>
<path d="M14.5015 181.425H28.4158L27.7053 176.213H15.212L14.5015 181.425Z" fill="#263238"/>
<path d="M13.4192 178.816H29.4937V174.401H13.4192V178.816Z" fill="#455A64"/>
<path d="M115.416 10.7C115.416 12.6624 114.871 14.5862 113.841 16.2566C112.811 17.9271 111.337 19.2786 109.584 20.1604C107.831 21.0421 105.868 21.4195 103.912 21.2503C101.957 21.0811 100.088 20.372 98.5122 19.2022L93.3193 20.5278L95.4794 15.6974C94.7192 14.2771 94.2928 12.7021 94.2327 11.0922C94.1726 9.48239 94.4804 7.88003 95.1327 6.40701C95.785 4.934 96.7645 3.62911 97.9969 2.59158C99.2293 1.55405 100.682 0.811196 102.245 0.41951C103.807 0.027824 105.439 -0.0023817 107.015 0.331189C108.591 0.664761 110.07 1.35332 111.34 2.34452C112.61 3.33572 113.637 4.60345 114.344 6.05131C115.05 7.49917 115.417 9.08904 115.416 10.7Z" fill="white"/>
<path d="M115.417 10.6943C115.416 12.6592 114.875 14.586 113.852 16.2639C113.604 16.6869 113.33 17.0945 113.032 17.4846C112.716 17.8581 112.377 18.2117 112.017 18.5432C111.305 19.2139 110.503 19.7806 109.632 20.2265C108.76 20.672 107.829 20.993 106.867 21.1802C106.384 21.2763 105.895 21.3369 105.403 21.3614C104.912 21.4019 104.42 21.4019 103.929 21.3614C101.946 21.2075 100.044 20.5059 98.4361 19.3348L98.5791 19.3634L93.4006 20.7272L92.981 20.8368L93.1574 20.4363L95.2984 15.5963V15.7966C94.5196 14.3487 94.0844 12.7411 94.0265 11.0981C93.9687 9.45504 94.2896 7.82075 94.9646 6.32167C95.6405 4.8268 96.6464 3.50459 97.9068 2.45446C99.1656 1.4198 100.642 0.683674 102.226 0.301305C103.81 -0.081065 105.46 -0.0997467 107.053 0.246663C108.631 0.605596 110.108 1.31267 111.378 2.31617C112.64 3.31662 113.66 4.59028 114.359 6.04142C115.059 7.49255 115.42 9.08339 115.417 10.6943ZM115.417 10.6943C115.416 8.27192 114.577 5.92445 113.042 4.05045C111.507 2.17645 109.37 0.891437 106.995 0.41356C105.433 0.102535 103.82 0.151456 102.279 0.556613C100.744 0.953248 99.3195 1.69716 98.1166 2.73103C96.9246 3.77609 95.9744 5.06803 95.3318 6.51718C94.6981 7.96224 94.4013 9.53252 94.4639 11.1092C94.5375 12.6702 94.9543 14.1957 95.6847 15.5772L95.7371 15.6774L95.6894 15.7775L93.5103 20.6032L93.2671 20.3171L98.4695 19.0296H98.5505L98.6125 19.0773C100.154 20.2484 101.992 20.9667 103.92 21.1516C104.396 21.1866 104.874 21.1866 105.35 21.1516C106.808 21.1015 108.237 20.7388 109.542 20.0882C110.412 19.6644 111.216 19.115 111.926 18.4574C112.286 18.1308 112.625 17.782 112.942 17.4131C113.245 17.0337 113.527 16.6373 113.786 16.2257C114.827 14.5665 115.391 12.6529 115.417 10.6943Z" fill="#263238"/>
<path d="M105.56 11.8429V13.0112C105.563 13.1279 105.542 13.2441 105.499 13.3526C105.456 13.4612 105.391 13.5597 105.309 13.6423C105.226 13.7249 105.128 13.7897 105.019 13.8329C104.911 13.8761 104.794 13.8966 104.678 13.8934C104.562 13.8934 104.447 13.8705 104.341 13.8261C104.234 13.7817 104.137 13.7167 104.055 13.6347C103.974 13.5527 103.909 13.4554 103.866 13.3484C103.822 13.2414 103.8 13.1268 103.8 13.0112V11.1467C103.8 11.1467 103.8 11.1467 103.8 11.1086C103.8 11.0704 103.8 11.1086 103.8 11.0752C103.806 10.8439 103.9 10.6237 104.064 10.4597C104.227 10.2957 104.446 10.2003 104.678 10.193C104.95 10.2063 105.222 10.1641 105.477 10.0691C105.733 9.97409 105.966 9.82819 106.163 9.64025C106.361 9.4523 106.518 9.22624 106.625 8.97577C106.732 8.7253 106.788 8.45564 106.788 8.18313C106.788 7.91063 106.732 7.64097 106.625 7.3905C106.518 7.14002 106.361 6.91396 106.163 6.72602C105.966 6.53808 105.733 6.39217 105.477 6.29715C105.222 6.20213 104.95 6.15997 104.678 6.17323C104.329 6.17213 103.987 6.26278 103.685 6.43605C103.382 6.60933 103.131 6.85912 102.956 7.1603C102.897 7.26188 102.819 7.35088 102.726 7.42218C102.633 7.49348 102.527 7.54569 102.413 7.57581C102.3 7.60594 102.181 7.61338 102.065 7.59772C101.949 7.58206 101.837 7.54361 101.735 7.48455C101.636 7.42562 101.549 7.34759 101.48 7.25496C101.411 7.16233 101.36 7.05693 101.332 6.94481C101.304 6.83269 101.298 6.71607 101.315 6.60166C101.331 6.48725 101.371 6.3773 101.43 6.27814C101.744 5.73799 102.187 5.28418 102.719 4.95748C103.252 4.63077 103.857 4.44139 104.48 4.40634C105.104 4.37128 105.727 4.49165 106.292 4.75664C106.858 5.02162 107.349 5.42293 107.721 5.92452C108.093 6.42612 108.335 7.01231 108.425 7.63045C108.515 8.24859 108.449 8.87934 108.235 9.46606C108.021 10.0528 107.664 10.5771 107.197 10.992C106.73 11.4068 106.168 11.6992 105.56 11.8429ZM105.56 15.7769V16.1011C105.562 16.2175 105.541 16.3332 105.498 16.4411C105.454 16.5491 105.389 16.6471 105.307 16.7291C105.224 16.8112 105.126 16.8756 105.018 16.9185C104.91 16.9614 104.794 16.9818 104.678 16.9785C104.445 16.9785 104.222 16.8861 104.057 16.7216C103.893 16.557 103.8 16.3338 103.8 16.1011V15.7769C103.803 15.5445 103.896 15.3223 104.06 15.1575C104.223 14.9927 104.445 14.8984 104.678 14.8947C104.794 14.8935 104.909 14.9154 105.017 14.9593C105.124 15.0032 105.222 15.0681 105.304 15.1503C105.386 15.2324 105.451 15.3302 105.495 15.4378C105.539 15.5454 105.561 15.6607 105.56 15.7769Z" fill="#407BFF"/>
</svg>
