<svg width="81" height="258" viewBox="0 0 81 258" fill="none" xmlns="http://www.w3.org/2000/svg">
<path d="M28 38C28 20.3269 42.3269 6 60 6H81V246H60C42.3269 246 28 231.673 28 214V38Z" fill="url(#paint0_linear_1687_28787)"/>
<path d="M13 40C13 17.9086 30.9086 0 53 0H81V253H53C30.9086 253 13 235.091 13 213V40Z" fill="url(#paint1_linear_1687_28787)"/>
<g clip-path="url(#clip0_1687_28787)">
<g opacity="0.56">
<path d="M57.9629 21.182C58.8801 21.3863 59.7641 21.7182 60.5891 22.168C61.378 22.5927 62.0849 23.1546 62.6765 23.8274C63.2458 24.4792 63.666 25.2474 63.9079 26.0784C64.1609 26.9592 64.1808 27.8906 63.9656 28.7815C63.8231 29.4886 63.5419 30.1605 63.1383 30.7583C62.7756 31.2726 62.3397 31.7312 61.8445 32.1195C61.3598 32.4956 60.8431 32.8288 60.3005 33.1151L58.771 33.9231C58.3096 34.1641 57.8716 34.4475 57.4627 34.7697C57.0934 35.0499 56.8101 35.4282 56.6451 35.8615C56.5621 36.0547 56.4272 36.2211 56.2555 36.3425C56.1731 36.4055 56.0775 36.449 55.9759 36.4698C55.8742 36.4906 55.7692 36.4882 55.6687 36.4627L53.4177 35.9817C53.3097 35.9589 53.2072 35.9149 53.1164 35.8521C53.0256 35.7894 52.9481 35.7092 52.8886 35.6162C52.8257 35.5291 52.7842 35.4284 52.7674 35.3223C52.7507 35.2161 52.7593 35.1075 52.7924 35.0053C52.9799 34.3056 53.3071 33.6512 53.7544 33.0814C54.1573 32.5786 54.6228 32.1292 55.1396 31.7443C55.6387 31.3791 56.1681 31.0573 56.722 30.7823C57.2703 30.5082 57.7802 30.2436 58.2515 29.9839C58.6826 29.7562 59.0874 29.482 59.4588 29.1663C59.7827 28.8935 60.0075 28.5216 60.0985 28.1081C60.1816 27.747 60.1761 27.3711 60.0822 27.0126C59.9884 26.6541 59.8092 26.3236 59.5598 26.0495C58.938 25.3699 58.1067 24.9178 57.1982 24.7653C55.518 24.3901 54.0975 24.9561 52.9367 26.4632C52.8253 26.6282 52.6833 26.7702 52.5183 26.8816C52.429 26.9271 52.3315 26.9543 52.2316 26.9617C52.1317 26.9692 52.0313 26.9566 51.9363 26.9249L49.5314 26.391C49.4466 26.3747 49.3659 26.3416 49.294 26.2937C49.2222 26.2458 49.1606 26.184 49.1129 26.112C49.0606 26.0384 49.0252 25.954 49.0094 25.865C48.9936 25.776 48.9978 25.6846 49.0215 25.5974C49.2238 24.8582 49.6035 24.1795 50.1278 23.6206C50.7162 22.971 51.4148 22.4304 52.1912 22.0237C53.042 21.577 53.9599 21.2716 54.9087 21.1195C55.9212 20.9413 56.9586 20.9626 57.9629 21.182ZM55.4234 38.276C55.5289 38.2985 55.6287 38.3426 55.7165 38.4056C55.8042 38.4685 55.878 38.5488 55.9332 38.6415C55.9924 38.7313 56.0327 38.8322 56.0517 38.938C56.0708 39.0438 56.0681 39.1524 56.0438 39.2572L55.4667 41.8641C55.4183 42.0722 55.2909 42.2533 55.1113 42.3691C54.9318 42.4849 54.7142 42.5263 54.5047 42.4846L51.9555 41.9218C51.8506 41.8993 51.7513 41.8557 51.6636 41.7937C51.576 41.7317 51.5019 41.6526 51.4457 41.5611C51.3857 41.4717 51.3449 41.3708 51.3259 41.2648C51.3068 41.1589 51.31 41.0501 51.3351 40.9454L51.9122 38.3337C51.9606 38.1256 52.088 37.9445 52.2676 37.8287C52.4471 37.7129 52.6647 37.6715 52.8742 37.7133L55.4234 38.276Z" fill="#407BFF"/>
<path d="M65.5239 45.7069C66.1601 45.602 66.808 45.589 67.4478 45.6684C68.063 45.7382 68.6608 45.9174 69.213 46.1975C69.7403 46.4673 70.203 46.8479 70.5694 47.3133C70.9577 47.8122 71.2082 48.4043 71.2957 49.0304C71.3954 49.5176 71.3954 50.0199 71.2957 50.507C71.1956 50.9309 71.0335 51.3377 70.8147 51.7143C70.6004 52.0773 70.3558 52.4216 70.0836 52.7436L69.3092 53.6574C69.0761 53.9308 68.8669 54.2237 68.6839 54.5328C68.521 54.8077 68.4377 55.1224 68.4435 55.4419C68.4426 55.5919 68.3993 55.7387 68.3184 55.8651C68.2816 55.9256 68.2319 55.9772 68.1729 56.0163C68.1139 56.0554 68.047 56.081 67.9769 56.0912L66.4041 56.3509C66.2522 56.3748 66.0969 56.3386 65.9712 56.2499C65.9096 56.2096 65.858 56.1557 65.8205 56.0923C65.7829 56.029 65.7605 55.9578 65.7548 55.8844C65.689 55.3914 65.7267 54.8902 65.8654 54.4126C65.9901 53.984 66.173 53.5746 66.4089 53.1957C66.6341 52.833 66.8899 52.4902 67.1737 52.1712C67.4574 51.8538 67.7124 51.5556 67.9529 51.267C68.1696 51.0105 68.3583 50.7316 68.5156 50.4349C68.6534 50.1773 68.7025 49.8814 68.6551 49.5932C68.6159 49.3398 68.5158 49.0997 68.3633 48.8936C68.2108 48.6875 68.0106 48.5215 67.7797 48.41C67.2096 48.1315 66.5623 48.0536 65.9424 48.1887C65.3816 48.2714 64.86 48.5249 64.4485 48.9148C64.0371 49.3047 63.7559 49.812 63.6433 50.3675C63.6127 50.5032 63.5573 50.632 63.4797 50.7475C63.3865 50.8498 63.2572 50.9119 63.119 50.9207L61.4452 51.1948C61.3264 51.2144 61.2045 51.1886 61.1037 51.1227C61.051 51.0886 61.0065 51.0434 60.9733 50.9902C60.94 50.937 60.9189 50.8771 60.9113 50.8148C60.8532 50.2895 60.9241 49.7578 61.1181 49.2661C61.3269 48.6975 61.6365 48.1713 62.032 47.7125C62.4634 47.2091 62.9735 46.7786 63.5423 46.4379C64.1491 46.0679 64.8222 45.8196 65.5239 45.7069ZM68.2703 57.3417C68.344 57.3294 68.4195 57.3319 68.4922 57.3493C68.5649 57.3666 68.6334 57.3984 68.6936 57.4427C68.7537 57.4855 68.8047 57.5399 68.8436 57.6027C68.8824 57.6654 68.9082 57.7354 68.9196 57.8083L69.2178 59.6264C69.2302 59.7001 69.2276 59.7756 69.2103 59.8483C69.1929 59.921 69.1612 59.9895 69.1168 60.0497C69.0747 60.1104 69.0205 60.1618 68.9576 60.2007C68.8947 60.2396 68.8245 60.2651 68.7513 60.2757L66.9717 60.5691C66.8987 60.5811 66.8241 60.5783 66.7522 60.561C66.6803 60.5436 66.6127 60.5121 66.5532 60.4681C66.4916 60.4264 66.4392 60.3724 66.3995 60.3095C66.3597 60.2466 66.3335 60.1761 66.3223 60.1026L66.0241 58.2796C66.0021 58.1298 66.0403 57.9773 66.1305 57.8556C66.2206 57.7339 66.3553 57.6529 66.5051 57.6303L68.2703 57.3417Z" fill="#407BFF"/>
<g opacity="0.2">
<path d="M65.5239 45.7069C66.1601 45.602 66.808 45.589 67.4478 45.6684C68.063 45.7382 68.6608 45.9174 69.213 46.1975C69.7403 46.4673 70.203 46.8479 70.5694 47.3133C70.9577 47.8122 71.2082 48.4043 71.2957 49.0304C71.3954 49.5176 71.3954 50.0199 71.2957 50.507C71.1956 50.9309 71.0335 51.3377 70.8147 51.7143C70.6004 52.0773 70.3558 52.4216 70.0836 52.7436L69.3092 53.6574C69.0761 53.9308 68.8669 54.2237 68.6839 54.5328C68.521 54.8077 68.4377 55.1224 68.4435 55.4419C68.4426 55.5919 68.3993 55.7387 68.3184 55.8651C68.2816 55.9256 68.2319 55.9772 68.1729 56.0163C68.1139 56.0554 68.047 56.081 67.9769 56.0912L66.4041 56.3509C66.2522 56.3748 66.0969 56.3386 65.9712 56.2499C65.9096 56.2096 65.858 56.1557 65.8205 56.0923C65.7829 56.029 65.7605 55.9578 65.7548 55.8844C65.689 55.3914 65.7267 54.8902 65.8654 54.4126C65.9901 53.984 66.173 53.5746 66.4089 53.1957C66.6341 52.833 66.8899 52.4902 67.1737 52.1712C67.4574 51.8538 67.7124 51.5556 67.9529 51.267C68.1696 51.0105 68.3583 50.7316 68.5156 50.4349C68.6534 50.1773 68.7025 49.8814 68.6551 49.5932C68.6159 49.3398 68.5158 49.0997 68.3633 48.8936C68.2108 48.6875 68.0106 48.5215 67.7797 48.41C67.2096 48.1315 66.5623 48.0536 65.9424 48.1887C65.3816 48.2714 64.86 48.5249 64.4485 48.9148C64.0371 49.3047 63.7559 49.812 63.6433 50.3675C63.6127 50.5032 63.5573 50.632 63.4797 50.7475C63.3865 50.8498 63.2572 50.9119 63.119 50.9207L61.4452 51.1948C61.3264 51.2144 61.2045 51.1886 61.1037 51.1227C61.051 51.0886 61.0065 51.0434 60.9733 50.9902C60.94 50.937 60.9189 50.8771 60.9113 50.8148C60.8532 50.2895 60.9241 49.7578 61.1181 49.2661C61.3269 48.6975 61.6365 48.1713 62.032 47.7125C62.4634 47.2091 62.9735 46.7786 63.5423 46.4379C64.1491 46.0679 64.8222 45.8196 65.5239 45.7069ZM68.2703 57.3417C68.344 57.3294 68.4195 57.3319 68.4922 57.3493C68.5649 57.3666 68.6334 57.3984 68.6936 57.4427C68.7537 57.4855 68.8047 57.5399 68.8436 57.6027C68.8824 57.6654 68.9082 57.7354 68.9196 57.8083L69.2178 59.6264C69.2302 59.7001 69.2276 59.7756 69.2103 59.8483C69.1929 59.921 69.1612 59.9895 69.1168 60.0497C69.0747 60.1104 69.0205 60.1618 68.9576 60.2007C68.8947 60.2396 68.8245 60.2651 68.7513 60.2757L66.9717 60.5691C66.8987 60.5811 66.8241 60.5783 66.7522 60.561C66.6803 60.5436 66.6127 60.5121 66.5532 60.4681C66.4916 60.4264 66.4392 60.3724 66.3995 60.3095C66.3597 60.2466 66.3335 60.1761 66.3223 60.1026L66.0241 58.2796C66.0021 58.1298 66.0403 57.9773 66.1305 57.8556C66.2206 57.7339 66.3553 57.6529 66.5051 57.6303L68.2703 57.3417Z" fill="black"/>
</g>
<path d="M81.9254 50.8686C82.0683 50.9728 82.1648 51.1286 82.1945 51.3029C82.2241 51.4772 82.1845 51.6562 82.0841 51.8017L80.8143 53.5814C80.7102 53.7242 80.5544 53.8208 80.3801 53.8504C80.2058 53.8801 80.0268 53.8405 79.8812 53.7401L78.1401 52.504C78.0683 52.4537 78.0075 52.3895 77.9612 52.3151C77.9149 52.2407 77.8841 52.1577 77.8708 52.0711C77.8454 51.9025 77.885 51.7307 77.9814 51.5901L79.2512 49.8057C79.3542 49.6622 79.5098 49.5654 79.684 49.5363C79.8533 49.5109 80.0258 49.5523 80.165 49.6518L81.9254 50.8686ZM89.2748 38.8009C89.9026 39.2438 90.4631 39.7752 90.939 40.3785C91.3986 40.9526 91.752 41.6041 91.9827 42.3024C92.2032 42.9698 92.277 43.6769 92.1991 44.3754C92.1089 45.1192 91.8272 45.8269 91.3815 46.4292C91.0492 46.9162 90.6243 47.333 90.1309 47.6557C89.6923 47.928 89.2158 48.1339 88.7168 48.2666C88.2331 48.3957 87.739 48.4826 87.2402 48.5263L85.8261 48.6465C85.4039 48.6853 84.9856 48.7593 84.5756 48.8678C84.2088 48.9647 83.8759 49.1611 83.6137 49.4353C83.4876 49.5581 83.3318 49.6459 83.1615 49.6902C83.0789 49.7098 82.9929 49.711 82.9098 49.6935C82.8266 49.676 82.7483 49.6404 82.6806 49.5892L81.1414 48.4974C80.9945 48.3917 80.8945 48.233 80.8625 48.0549C80.8441 47.9709 80.8453 47.8838 80.8662 47.8003C80.8871 47.7169 80.9269 47.6394 80.9827 47.5739C81.3406 47.1046 81.7907 46.7134 82.3054 46.4244C82.7685 46.1705 83.2635 45.9796 83.7772 45.8568C84.27 45.7377 84.772 45.6605 85.2778 45.626C85.7588 45.5971 86.2398 45.5586 86.6823 45.5154C87.0795 45.4811 87.4716 45.402 87.8511 45.2797C88.1819 45.179 88.4696 44.9708 88.6687 44.6881C88.8475 44.4431 88.9638 44.1582 89.0074 43.8581C89.051 43.558 89.0206 43.2518 88.9189 42.9662C88.668 42.2573 88.1872 41.6528 87.5529 41.2491C86.4081 40.4314 85.1576 40.4041 83.8012 41.1673C83.6644 41.2547 83.5128 41.3166 83.3539 41.3501C83.2714 41.3559 83.1885 41.3454 83.11 41.3189C83.0316 41.2925 82.9592 41.2508 82.897 41.1962L81.2617 40.0322C81.1425 39.9512 81.0597 39.827 81.0308 39.6859C81.0168 39.6137 81.0186 39.5394 81.036 39.468C81.0535 39.3966 81.0861 39.3298 81.1318 39.2722C81.5126 38.7803 82.008 38.3889 82.5747 38.1323C83.2253 37.8314 83.9237 37.6474 84.6381 37.5888C85.4205 37.525 86.208 37.5867 86.9709 37.7716C87.7995 37.9586 88.5826 38.3084 89.2748 38.8009Z" fill="#407BFF"/>
<g opacity="0.6">
<path d="M81.9254 50.8686C82.0683 50.9727 82.1648 51.1286 82.1945 51.3029C82.2241 51.4772 82.1845 51.6562 82.0841 51.8017L80.8143 53.5813C80.7102 53.7242 80.5544 53.8207 80.3801 53.8504C80.2058 53.88 80.0268 53.8404 79.8812 53.74L78.1401 52.5039C78.0683 52.4537 78.0075 52.3894 77.9612 52.315C77.9149 52.2406 77.8841 52.1576 77.8708 52.071C77.8454 51.9025 77.885 51.7306 77.9814 51.5901L79.2512 49.8056C79.3542 49.6622 79.5098 49.5654 79.684 49.5363C79.8533 49.5108 80.0258 49.5522 80.165 49.6517L81.9254 50.8686ZM89.2748 38.8008C89.9026 39.2438 90.4631 39.7751 90.939 40.3784C91.3986 40.9525 91.752 41.6041 91.9827 42.3023C92.2032 42.9697 92.277 43.6768 92.1991 44.3754C92.1089 45.1192 91.8272 45.8269 91.3815 46.4291C91.0492 46.9162 90.6243 47.3329 90.1309 47.6556C89.6923 47.928 89.2158 48.1338 88.7168 48.2665C88.2331 48.3956 87.739 48.4825 87.2402 48.5262L85.8261 48.6465C85.4039 48.6852 84.9856 48.7592 84.5756 48.8677C84.2088 48.9646 83.8759 49.161 83.6137 49.4353C83.4876 49.558 83.3318 49.6458 83.1615 49.6902C83.0789 49.7098 82.9929 49.7109 82.9098 49.6934C82.8266 49.676 82.7483 49.6404 82.6806 49.5892L81.1414 48.4974C80.9945 48.3916 80.8945 48.233 80.8625 48.0549C80.8441 47.9708 80.8453 47.8837 80.8662 47.8003C80.8871 47.7168 80.9269 47.6394 80.9827 47.5739C81.3406 47.1045 81.7907 46.7133 82.3054 46.4243C82.7685 46.1704 83.2635 45.9795 83.7772 45.8568C84.27 45.7377 84.772 45.6604 85.2778 45.6259C85.7588 45.5971 86.2398 45.5586 86.6823 45.5153C87.0795 45.481 87.4716 45.402 87.8511 45.2796C88.1819 45.1789 88.4696 44.9707 88.6687 44.688C88.8475 44.4431 88.9638 44.1582 89.0074 43.8581C89.051 43.558 89.0206 43.2518 88.9189 42.9661C88.668 42.2573 88.1872 41.6528 87.5529 41.249C86.4081 40.4313 85.1576 40.4041 83.8012 41.1672C83.6644 41.2546 83.5128 41.3166 83.3539 41.35C83.2714 41.3559 83.1885 41.3453 83.11 41.3189C83.0316 41.2924 82.9592 41.2507 82.897 41.1961L81.2617 40.0321C81.1425 39.9511 81.0597 39.8269 81.0308 39.6858C81.0168 39.6137 81.0186 39.5393 81.036 39.468C81.0535 39.3966 81.0861 39.3298 81.1318 39.2722C81.5126 38.7802 82.008 38.3889 82.5747 38.1323C83.2253 37.8313 83.9237 37.6474 84.6381 37.5888C85.4205 37.525 86.208 37.5867 86.9709 37.7715C87.7995 37.9585 88.5826 38.3084 89.2748 38.8008Z" fill="white"/>
</g>
</g>
<g opacity="0.39">
<path d="M59.6016 219.323C58.4718 218.451 53.7193 214.746 52.1035 213.487C51.7822 213.24 51.5805 213.081 51.565 213.065C50.7591 212.457 49.7597 212.163 48.7529 212.237C47.8899 212.291 47.0426 212.492 46.2478 212.833C46.1177 212.885 45.9858 212.95 45.8588 213.011C43.7002 213.989 41.7217 215.725 39.9248 218.24C38.1117 220.682 36.9255 223.531 36.4704 226.538C36.0748 229.392 36.5579 231.499 37.9197 232.861C38.0578 232.997 38.2043 233.124 38.3583 233.242C39.6713 234.249 46.2444 239.382 46.3912 239.495L46.4299 239.5C46.2675 239.379 46.1142 239.247 45.9716 239.103C44.6065 237.744 44.1232 235.637 44.5217 232.785C44.9768 229.778 46.1629 226.928 47.9761 224.487C49.8753 221.824 51.9817 220.02 54.2954 219.074C56.4965 218.18 58.2774 218.27 59.638 219.345L59.6016 219.323Z" fill="#407BFF"/>
<path opacity="0.4" d="M59.6367 219.355C58.275 218.288 56.4943 218.196 54.2947 219.079C52.1463 219.951 50.1726 221.579 48.3734 223.963L40.3269 217.682C42.0138 215.454 43.8577 213.898 45.8568 212.994C45.9832 212.937 46.1157 212.868 46.2458 212.816C47.04 212.474 47.8875 212.274 48.7503 212.224C49.7574 212.147 50.7576 212.442 51.5625 213.052L52.1009 213.474C53.7173 214.729 58.4698 218.434 59.5997 219.305L59.6367 219.355Z" fill="black"/>
<path opacity="0.3" d="M46.4315 239.488L46.3928 239.482C46.246 239.37 39.6599 234.235 38.3599 233.23C38.2059 233.112 38.0594 232.985 37.9213 232.849C36.5591 231.49 36.0758 229.384 36.4714 226.53C36.9255 223.523 38.1117 220.673 39.9258 218.232C40.0572 218.044 40.1923 217.861 40.3305 217.687L48.375 223.95C48.2411 224.125 48.106 224.308 47.9752 224.492C46.1621 226.933 44.976 229.783 44.5209 232.79C44.1253 235.643 44.6086 237.749 45.9707 239.108C46.1148 239.246 46.2688 239.373 46.4315 239.488Z" fill="black"/>
<path d="M66.03 144.91C70.6156 143.044 74.3742 142.502 77.3056 143.283C78.4993 143.596 79.6171 144.148 80.5913 144.906C80.5639 144.886 80.5375 144.865 80.5124 144.842C79.5676 144.123 73.887 139.706 72.5899 138.68C71.5999 137.901 70.4588 137.336 69.2389 137.021C66.3042 136.243 62.5444 136.784 57.9596 138.643C50.8295 141.537 44.7431 146.398 39.7005 153.227C34.658 160.055 31.6249 167.319 30.6014 175.018L38.646 181.281C39.6531 173.574 42.6863 166.309 47.7457 159.485C52.8051 152.662 58.8999 147.804 66.03 144.91Z" fill="#407BFF"/>
<path opacity="0.2" d="M80.5287 144.848C79.5658 144.122 78.4711 143.59 77.3053 143.282C74.3767 142.502 70.6182 143.044 66.0297 144.909C58.9 147.8 52.8136 152.661 47.7707 159.493C47.5603 159.775 47.3538 160.062 47.1521 160.346L39.0872 154.071C39.2888 153.788 39.4954 153.5 39.7057 153.218C44.7647 146.398 50.8511 141.537 57.9648 138.635C62.5557 136.773 66.3155 136.232 69.2441 137.012C70.4641 137.328 71.605 137.895 72.5946 138.675C73.9033 139.712 79.5834 144.133 80.5287 144.848Z" fill="black"/>
<path opacity="0.3" d="M47.1315 160.334C42.4432 166.908 39.6164 173.887 38.651 181.272L30.6065 175.009C31.5751 167.621 34.4019 160.642 39.087 154.071L47.1315 160.334Z" fill="black"/>
<path d="M69.9875 160.045C68.5172 158.981 66.3516 159.017 63.4908 160.154C63.1824 161.719 62.6416 163.23 61.8864 164.635C60.9758 166.329 58.5362 169.744 54.5678 174.882C50.4583 180.192 47.3004 185.37 45.0943 190.415C42.9094 195.395 41.4215 200.653 40.6725 206.039L40.3436 208.728L45.8337 213L48.3925 214.991L48.7177 212.298L48.7224 212.264C49.4763 206.896 50.9617 201.656 53.1371 196.691C55.3432 191.646 58.5023 186.47 62.6143 181.162C66.5799 176.025 69.0182 172.608 69.9292 170.911C70.8364 169.235 71.4344 167.409 71.6945 165.521C72.0507 162.952 71.4817 161.127 69.9875 160.045Z" fill="#407BFF"/>
<path opacity="0.3" d="M68.8046 172.726C67.5322 174.644 65.4696 177.451 62.6169 181.145C58.5017 186.455 55.3424 191.633 53.1391 196.678C50.9616 201.647 49.4756 206.891 48.7227 212.264L48.7131 212.332L48.388 215.026L45.8286 213.038L40.3385 208.767L40.668 206.074C41.4173 200.687 42.9052 195.43 45.0898 190.45C47.2959 185.405 50.4538 180.227 54.5633 174.916C57.4168 171.216 59.482 168.411 60.7589 166.502L68.8046 172.726Z" fill="black"/>
<path opacity="0.4" d="M71.6944 165.522C71.4344 167.404 70.8388 169.224 69.9357 170.895C69.6807 171.373 69.3021 171.984 68.8042 172.726L60.7633 166.468C61.2557 165.723 61.6329 165.113 61.8949 164.637C62.6501 163.232 63.1909 161.721 63.4992 160.155C66.3601 159.019 68.5256 158.983 69.996 160.047C71.4663 161.111 72.0325 162.936 71.6944 165.522Z" fill="black"/>
<path d="M51.4348 176.076L38.6506 181.272C39.6576 173.566 42.6909 166.3 47.7503 159.477C52.8097 152.654 58.896 147.793 66.0093 144.894C70.5949 143.028 74.3535 142.486 77.2849 143.267C80.2164 144.048 82.3765 146.013 83.7653 149.164C85.157 152.314 85.5522 156.058 84.9509 160.396C84.584 162.911 83.9474 165.38 83.0522 167.759C81.9739 170.605 80.669 173.359 79.1501 175.995C78.1736 177.721 75.9741 180.85 72.5515 185.384C69.2813 189.706 67.1975 192.666 66.3 194.264C65.2858 196.169 64.4522 198.165 63.8104 200.225C62.8521 203.305 62.1225 206.452 61.6276 209.639L48.4064 215.012L48.7316 212.318C49.4809 206.932 50.9688 201.674 53.1534 196.694C55.3595 191.649 58.5186 186.473 62.6306 181.165C66.5962 176.028 69.0344 172.611 69.9455 170.914C70.847 169.236 71.4391 167.41 71.6936 165.522C72.0518 162.939 71.4842 161.113 69.9909 160.046C68.4976 158.979 66.2872 159.032 63.3597 160.206C60.3648 161.424 57.7569 163.511 55.536 166.468C53.3763 169.271 51.965 172.577 51.4348 176.076Z" fill="#407BFF"/>
<path d="M54.2693 219.102C56.6415 218.135 58.5268 218.316 59.9253 219.645C61.3238 220.974 61.8255 223.064 61.4303 225.914C60.9634 228.936 59.7605 231.797 57.9275 234.245C55.9908 236.946 53.849 238.773 51.5022 239.726C49.1553 240.679 47.3025 240.475 45.9436 239.113C44.5815 237.754 44.0984 235.646 44.4943 232.79C44.9494 229.783 46.1356 226.934 47.9487 224.492C49.8528 221.837 51.9597 220.04 54.2693 219.102Z" fill="#407BFF"/>
</g>
<g opacity="0.39">
<path d="M59.7127 219.407C58.5827 218.535 53.8297 214.831 52.2137 213.571C51.8924 213.325 51.6907 213.165 51.6753 213.15C50.8692 212.542 49.8698 212.247 48.8629 212.321C47.9999 212.375 47.1525 212.577 46.3577 212.917C46.2276 212.97 46.0957 213.035 45.9687 213.096C43.81 214.074 41.8316 215.81 40.0347 218.325C38.2217 220.767 37.0356 223.616 36.5807 226.623C36.1853 229.476 36.6686 231.584 38.0305 232.946C38.1686 233.082 38.3152 233.209 38.4692 233.327C39.7823 234.334 46.3561 239.467 46.5029 239.579L46.5416 239.584C46.3791 239.464 46.2259 239.331 46.0832 239.187C44.718 237.828 44.2346 235.722 44.6328 232.869C45.0878 229.862 46.2738 227.013 48.0868 224.571C49.986 221.909 52.0924 220.104 54.4061 219.158C56.6074 218.264 58.3883 218.354 59.749 219.429L59.7127 219.407Z" fill="#407BFF"/>
<path opacity="0.4" d="M59.7486 219.439C58.3867 218.372 56.606 218.28 54.4063 219.163C52.2578 220.036 50.2841 221.664 48.485 224.048L40.4377 217.767C42.1245 215.539 43.9684 213.982 45.9676 213.079C46.094 213.022 46.2265 212.952 46.3566 212.9C47.1507 212.559 47.9982 212.359 48.8611 212.308C49.8683 212.232 50.8686 212.527 51.6735 213.137L52.212 213.558C53.8286 214.813 58.5816 218.518 59.7115 219.389L59.7486 219.439Z" fill="black"/>
<path opacity="0.3" d="M46.5438 239.572L46.5051 239.567C46.3583 239.454 39.7715 234.32 38.4713 233.315C38.3173 233.197 38.1708 233.07 38.0326 232.934C36.6703 231.575 36.1869 229.468 36.5823 226.615C37.0362 223.608 38.2223 220.758 40.0363 218.317C40.1677 218.129 40.3028 217.946 40.441 217.772L48.4864 224.035C48.3525 224.209 48.2174 224.392 48.0866 224.576C46.2736 227.018 45.0875 229.867 44.6326 232.874C44.2372 235.727 44.7207 237.833 46.083 239.192C46.227 239.33 46.3811 239.457 46.5438 239.572Z" fill="black"/>
<path d="M66.1369 144.994C70.7226 143.129 74.4813 142.586 77.413 143.367C78.6068 143.68 79.7246 144.232 80.699 144.989C80.6716 144.97 80.6452 144.948 80.6201 144.926C79.6752 144.207 73.994 139.79 72.6968 138.764C71.7067 137.985 70.5654 137.42 69.3455 137.106C66.4105 136.327 62.6506 136.868 58.0656 138.728C50.9353 141.622 44.849 146.484 39.8066 153.312C34.7642 160.141 31.7315 167.405 30.7084 175.104L38.7539 181.366C39.7605 173.659 42.7934 166.394 47.8526 159.571C52.9118 152.747 59.0066 147.888 66.1369 144.994Z" fill="#407BFF"/>
<path opacity="0.2" d="M80.637 144.932C79.6741 144.206 78.5792 143.674 77.4133 143.366C74.4846 142.586 70.7258 143.128 66.1372 144.994C59.0073 147.885 52.921 152.746 47.8782 159.578C47.6679 159.86 47.4613 160.148 47.2596 160.431L39.1939 154.157C39.3955 153.874 39.6021 153.586 39.8124 153.304C44.8712 146.483 50.9576 141.622 58.0715 138.72C62.6626 136.858 66.4225 136.317 69.3513 137.097C70.5713 137.413 71.7124 137.979 72.702 138.759C74.0109 139.797 79.6916 144.217 80.637 144.932Z" fill="black"/>
<path opacity="0.3" d="M47.2402 160.421C42.552 166.995 39.7255 173.974 38.7606 181.359L30.7152 175.097C31.6833 167.709 34.5099 160.73 39.1947 154.159L47.2402 160.421Z" fill="black"/>
<path d="M70.0964 160.131C68.6259 159.067 66.4602 159.103 63.5993 160.24C63.291 161.805 62.7503 163.316 61.9951 164.722C61.0846 166.415 58.6451 169.831 54.6768 174.968C50.5674 180.279 47.4098 185.457 45.2038 190.502C43.0192 195.482 41.5315 200.74 40.7828 206.126L40.4541 208.815L45.9448 213.086L48.5039 215.078L48.8288 212.384L48.8336 212.35C49.5872 206.982 51.0723 201.742 53.2475 196.777C55.4534 191.732 58.6123 186.556 62.7242 181.248C66.6896 176.11 69.1278 172.693 70.0387 170.997C70.9459 169.321 71.5438 167.495 71.8039 165.607C72.1599 163.038 71.5907 161.213 70.0964 160.131Z" fill="#407BFF"/>
<path opacity="0.3" d="M68.9137 172.812C67.6414 174.73 65.5789 177.536 62.7263 181.231C58.6112 186.541 55.4521 191.719 53.249 196.765C51.0717 201.733 49.586 206.977 48.8334 212.35L48.8239 212.419L48.4989 215.112L45.9392 213.125L40.4486 208.853L40.7778 206.161C41.5269 200.774 43.0145 195.517 45.1988 190.536C47.4048 185.491 50.5624 180.313 54.6718 175.002C57.5252 171.302 59.5904 168.497 60.8672 166.588L68.9137 172.812Z" fill="black"/>
<path opacity="0.4" d="M71.8038 165.605C71.5439 167.487 70.9483 169.307 70.0454 170.979C69.7904 171.457 69.4118 172.067 68.9139 172.81L60.8722 166.552C61.3646 165.807 61.7417 165.197 62.0037 164.721C62.7588 163.316 63.2995 161.805 63.6078 160.239C66.4687 159.103 68.6344 159.066 70.1049 160.13C71.5754 161.194 72.1417 163.019 71.8038 165.605Z" fill="black"/>
<path d="M51.5441 176.16L38.7595 181.357C39.7661 173.65 42.799 166.385 47.8583 159.562C52.9175 152.738 59.0038 147.877 66.1173 144.978C70.7031 143.112 74.4618 142.569 77.3934 143.35C80.3251 144.131 82.4855 146.096 83.8746 149.247C85.2665 152.397 85.662 156.141 85.0609 160.478C84.6942 162.994 84.0577 165.463 83.1627 167.842C82.0845 170.688 80.7797 173.442 79.2608 176.078C78.2845 177.804 76.085 180.933 72.6626 185.468C69.3925 189.789 67.3087 192.749 66.4113 194.348C65.3971 196.253 64.5637 198.248 63.9219 200.309C62.9638 203.389 62.2344 206.535 61.7397 209.722L48.5181 215.096L48.8431 212.402C49.5922 207.016 51.0798 201.758 53.2641 196.778C55.4701 191.733 58.629 186.557 62.7408 181.249C66.7063 176.111 69.1445 172.694 70.0554 170.998C70.9569 169.32 71.5489 167.493 71.8033 165.605C72.1613 163.022 71.5936 161.197 70.1001 160.13C68.6067 159.063 66.3961 159.116 63.4686 160.29C60.4736 161.508 57.8657 163.595 55.6448 166.552C53.4852 169.355 52.0741 172.662 51.5441 176.16Z" fill="#407BFF"/>
<path d="M54.3812 219.188C56.7534 218.22 58.6389 218.401 60.0376 219.73C61.4362 221.059 61.938 223.149 61.543 225.999C61.0763 229.021 59.8735 231.882 58.0406 234.33C56.1039 237.031 53.9621 238.858 51.6152 239.811C49.2684 240.764 47.4154 240.56 46.0564 239.199C44.694 237.84 44.2108 235.732 44.6066 232.876C45.0615 229.869 46.2475 227.02 48.0606 224.578C49.9647 221.922 52.0715 220.125 54.3812 219.188Z" fill="#407BFF"/>
</g>
<path d="M46.0937 194.152C45.2187 194.152 44.4531 193.934 43.7969 193.496C43.1328 193.051 42.6172 192.469 42.25 191.75C41.8828 191.023 41.6992 190.238 41.6992 189.395C41.6992 188.738 41.8281 188.074 42.0859 187.402C42.3359 186.723 42.7383 186.086 43.293 185.492L45.6133 186.734C45.2461 187.156 44.9805 187.59 44.8164 188.035C44.6523 188.473 44.5703 188.891 44.5703 189.289C44.5703 189.891 44.7187 190.402 45.0156 190.824C45.3047 191.238 45.6758 191.445 46.1289 191.445C46.4648 191.445 46.7695 191.332 47.043 191.105C47.3164 190.871 47.5977 190.582 47.8867 190.238C48.168 189.895 48.4922 189.555 48.8594 189.219C49.2266 188.875 49.6758 188.59 50.207 188.363C50.7383 188.129 51.3867 188.012 52.1523 188.012L52.4922 188.012L52.4922 190.719L52.1641 190.719C51.6172 190.719 51.168 190.801 50.8164 190.965C50.457 191.129 50.1523 191.344 49.9023 191.609C49.6445 191.867 49.4102 192.145 49.1992 192.441C48.9805 192.73 48.7422 193.008 48.4844 193.273C48.2187 193.531 47.8984 193.742 47.5234 193.906C47.1484 194.07 46.6719 194.152 46.0937 194.152ZM56.1133 191.305C55.582 191.305 55.1367 191.117 54.7773 190.742C54.418 190.359 54.2383 189.902 54.2383 189.371C54.2383 188.84 54.418 188.387 54.7773 188.012C55.1367 187.629 55.582 187.437 56.1133 187.437C56.6445 187.437 57.0898 187.629 57.4492 188.012C57.8086 188.387 57.9883 188.84 57.9883 189.371C57.9883 189.91 57.8125 190.367 57.4609 190.742C57.1016 191.117 56.6523 191.305 56.1133 191.305ZM45.6719 165.652L47.5234 163.789L49.3984 165.652L47.5234 167.516L45.6719 165.652ZM45.6719 169.59L47.5234 167.715L49.3984 169.59L47.5234 171.441L45.6719 169.59ZM50.3711 160.906L50.0664 158.352L53.1836 158.129C53.832 158.082 54.3125 157.902 54.625 157.59C54.9297 157.27 55.082 156.77 55.082 156.09L55.082 155.809L58 155.809L58 156.09C58 156.98 57.8359 157.719 57.5078 158.305C57.1797 158.891 56.6953 159.371 56.0547 159.746C56.75 160.434 57.25 161.285 57.5547 162.301C57.8516 163.316 58 164.672 58 166.367L58 168.324C58 169.723 57.9141 170.988 57.7422 172.121C57.5625 173.246 57.2617 174.211 56.8398 175.016C56.418 175.812 55.8437 176.426 55.1172 176.855C54.3906 177.277 53.4687 177.488 52.3516 177.488C51.7109 177.488 51.0859 177.418 50.4766 177.277C49.8672 177.137 49.293 176.957 48.7539 176.738L49.6797 174.289C50.0391 174.422 50.4453 174.547 50.8984 174.664C51.3437 174.781 51.7695 174.84 52.1758 174.84C52.793 174.84 53.2969 174.68 53.6875 174.359C54.0703 174.039 54.3633 173.594 54.5664 173.023C54.7617 172.445 54.8984 171.758 54.9766 170.961C55.0469 170.164 55.082 169.285 55.082 168.324L55.082 166.367C55.082 165.195 55.0234 164.195 54.9062 163.367C54.7891 162.531 54.5664 161.895 54.2383 161.457C53.9023 161.012 53.4141 160.789 52.7734 160.789C52.3984 160.789 51.9961 160.801 51.5664 160.824C51.1289 160.848 50.7305 160.875 50.3711 160.906ZM64.0117 149.598L62.7578 149.598L60.6719 144.477L61.9258 144.477L64.0117 149.598ZM58 148.098C58 148.934 57.8594 149.609 57.5781 150.125C57.2891 150.641 56.8984 151.059 56.4062 151.379C56.9062 151.785 57.2969 152.281 57.5781 152.867C57.8594 153.445 58 154.219 58 155.187L58 156.266L55.082 156.266L55.082 155.164C55.082 154.555 55.0273 154.062 54.918 153.687C54.8086 153.312 54.6016 153.039 54.2969 152.867C53.9922 152.687 53.5469 152.598 52.9609 152.598C52.8359 152.598 52.6523 152.605 52.4102 152.621C52.168 152.629 51.8945 152.645 51.5898 152.668C51.2852 152.684 50.9805 152.707 50.6758 152.738L50.3594 150.16L53.2539 149.937C53.8242 149.898 54.2734 149.727 54.6016 149.422C54.9219 149.117 55.082 148.668 55.082 148.074C55.082 147.355 54.9141 146.875 54.5781 146.633C54.2422 146.383 53.7031 146.258 52.9609 146.258C52.8359 146.258 52.6523 146.266 52.4102 146.281C52.168 146.289 51.8945 146.305 51.5898 146.328C51.2852 146.344 50.9805 146.367 50.6758 146.398L50.3594 143.82L53.2539 143.598C53.793 143.566 54.2344 143.43 54.5781 143.187C54.9141 142.945 55.082 142.543 55.082 141.98C55.082 141.621 54.9883 141.34 54.8008 141.137C54.6055 140.934 54.3516 140.789 54.0391 140.703C53.7187 140.617 53.3711 140.574 52.9961 140.574C52.5742 140.574 52.1406 140.609 51.6953 140.68C51.25 140.75 50.8398 140.828 50.4648 140.914C50.082 141 49.793 141.07 49.5977 141.125L48.8828 138.488C49.4609 138.34 50.0781 138.219 50.7344 138.125C51.3906 138.023 52.043 137.973 52.6914 137.973C53.6133 137.973 54.4805 138.098 55.293 138.348C56.0977 138.598 56.75 139.012 57.25 139.59C57.75 140.168 58 140.961 58 141.969C58 142.687 57.8516 143.285 57.5547 143.762C57.2578 144.23 56.8711 144.621 56.3945 144.934C56.8945 145.348 57.2891 145.812 57.5781 146.328C57.8594 146.844 58 147.434 58 148.098ZM64.3633 130.203L61.7031 131.211C61.4453 130.031 61.0859 129.043 60.625 128.246C60.1719 127.449 59.5859 126.848 58.8672 126.441C58.1562 126.035 57.293 125.832 56.2773 125.832C55.582 125.832 54.8203 125.93 53.9922 126.125C53.1641 126.32 52.3711 126.547 51.6133 126.805L50.7227 124.109C51.5508 123.812 52.418 123.59 53.3242 123.441C54.2305 123.285 55.1055 123.207 55.9492 123.207C57.4648 123.207 58.7969 123.48 59.9453 124.027C61.1016 124.574 62.0508 125.371 62.793 126.418C63.543 127.465 64.0664 128.727 64.3633 130.203ZM55.1172 118.156C55.1172 117.375 55.0547 116.668 54.9297 116.035C54.8047 115.402 54.6016 114.898 54.3203 114.523C54.0312 114.148 53.6445 113.961 53.1602 113.961C52.668 113.961 52.1484 114.172 51.6016 114.594C51.0547 115.016 50.5078 115.602 49.9609 116.352C49.4062 117.102 48.875 117.98 48.3672 118.988L45.7773 117.734C46.2227 116.844 46.7031 116.012 47.2187 115.238C47.7344 114.465 48.293 113.789 48.8945 113.211C49.4961 112.625 50.1406 112.168 50.8281 111.84C51.5156 111.512 52.2578 111.348 53.0547 111.348C54.2031 111.348 55.1406 111.609 55.8672 112.133C56.5937 112.656 57.1289 113.41 57.4727 114.395C57.8086 115.379 57.9766 116.574 57.9766 117.98C57.9766 118.566 57.957 119.117 57.918 119.633C57.8711 120.148 57.793 120.645 57.6836 121.121L54.7773 121.121C54.8789 120.613 54.9609 120.098 55.0234 119.574C55.0859 119.043 55.1172 118.57 55.1172 118.156ZM41.6758 99.7695L57.9883 99.7695L57.9883 102.488L41.6758 102.488L41.6758 99.7695ZM58 90.3594C58 90.7812 57.9492 91.1562 57.8477 91.4844C57.7461 91.8125 57.6289 92.082 57.4961 92.293C58.6211 92.4648 59.6523 92.8281 60.5898 93.3828C61.5352 93.9297 62.3281 94.6836 62.9687 95.6445C63.6172 96.6055 64.0781 97.7891 64.3516 99.1953L61.7031 100.18C61.4453 99 61.0859 98.0117 60.625 97.2148C60.1719 96.418 59.5859 95.8164 58.8672 95.4102C58.1562 95.0039 57.293 94.8008 56.2773 94.8008C55.582 94.8008 54.8203 94.8984 53.9922 95.0937C53.1641 95.2891 52.3711 95.5156 51.6133 95.7734L50.7227 93.0781L53.3008 92.4219C53.8633 92.2734 54.3008 92.0508 54.6133 91.7539C54.9258 91.4492 55.082 91.0273 55.082 90.4883L55.082 90.043L58 90.043L58 90.3594ZM62.2656 82.4609L64.0352 80.6914L65.8047 82.4609L64.0352 84.2305L62.2656 82.4609ZM59.2773 80.4219L61.0469 78.6523L62.8281 80.4219L61.0469 82.2031L59.2773 80.4219ZM59.2773 84.4883L61.0469 82.7187L62.8281 84.4883L61.0469 86.2578L59.2773 84.4883ZM55.082 90.5L55.082 88.5078C55.082 87.6953 55.0195 86.9375 54.8945 86.2344C54.7617 85.5234 54.5742 84.8242 54.332 84.1367C54.0898 83.4492 53.7969 82.7305 53.4531 81.9805C53.1016 81.2227 52.707 80.3828 52.2695 79.4609C52.0508 80.0469 51.8398 80.6016 51.6367 81.125C51.4258 81.6484 51.2383 82.1289 51.0742 82.5664C50.9023 82.9961 50.7656 83.3672 50.6641 83.6797C50.5625 83.9844 50.5117 84.2109 50.5117 84.3594C50.5117 84.8047 50.6484 85.2031 50.9219 85.5547C51.1875 85.8984 51.4844 86.1953 51.8125 86.4453L52.4453 86.9492L51.3203 89.2578L50.6758 88.8711C49.8008 88.332 49.082 87.6914 48.5195 86.9492C47.957 86.207 47.6758 85.3398 47.6758 84.3477C47.6758 83.9258 47.7773 83.4336 47.9805 82.8711C48.1758 82.3086 48.4258 81.6992 48.7305 81.043C49.0273 80.3789 49.3281 79.6953 49.6328 78.9922C49.9297 78.2891 50.1836 77.5898 50.3945 76.8945C50.5977 76.1992 50.707 75.5352 50.7227 74.9023L53.418 74.9023C53.4805 75.3945 53.5977 75.8828 53.7695 76.3672C53.9414 76.8516 54.168 77.3828 54.4492 77.9609C54.7305 78.5391 55.0742 79.207 55.4805 79.9648C56.0117 80.9648 56.4648 81.9062 56.8398 82.7891C57.2148 83.6641 57.5039 84.5586 57.707 85.4727C57.9023 86.3867 58 87.4102 58 88.543L58 90.5L55.082 90.5Z" fill="white"/>
</g>
<defs>
<linearGradient id="paint0_linear_1687_28787" x1="81" y1="29.1953" x2="26.3135" y2="29.6729" gradientUnits="userSpaceOnUse">
<stop stop-color="#2146DD"/>
<stop offset="1" stop-color="#2065FF"/>
</linearGradient>
<linearGradient id="paint1_linear_1687_28787" x1="81" y1="126.5" x2="13" y2="126.5" gradientUnits="userSpaceOnUse">
<stop stop-color="#2060FA"/>
<stop offset="1" stop-color="#2367FF"/>
</linearGradient>
<clipPath id="clip0_1687_28787">
<rect width="81" height="237" fill="white" transform="translate(0 21)"/>
</clipPath>
</defs>
</svg>
