<svg width="48" height="151" viewBox="0 0 48 151" fill="none" xmlns="http://www.w3.org/2000/svg">
<path d="M17 22.6667C17 12.3574 25.3574 4 35.6667 4H47.9167V144H35.6667C25.3573 144 17 135.643 17 125.333V22.6667Z" fill="url(#paint0_linear_3248_50772)"/>
<path d="M8.3335 23.8333C8.3335 10.9467 18.7802 0.5 31.6668 0.5H48.0002V148.083H31.6668C18.7802 148.083 8.3335 137.637 8.3335 124.75V23.8333Z" fill="url(#paint1_linear_3248_50772)"/>
<g clip-path="url(#clip0_3248_50772)">
<g opacity="0.56">
<path d="M34.5619 12.8562C35.0969 12.9753 35.6126 13.1689 36.0938 13.4313C36.554 13.6791 36.9664 14.0068 37.3115 14.3993C37.6436 14.7796 37.8887 15.2277 38.0297 15.7124C38.1773 16.2262 38.1889 16.7695 38.0634 17.2892C37.9803 17.7017 37.8163 18.0936 37.5808 18.4423C37.3693 18.7424 37.115 19.0099 36.8261 19.2364C36.5434 19.4558 36.242 19.6501 35.9255 19.8171L35.0332 20.2885C34.7641 20.429 34.5086 20.5944 34.2701 20.7823C34.0546 20.9458 33.8894 21.1664 33.7931 21.4192C33.7447 21.5319 33.666 21.629 33.5659 21.6998C33.5178 21.7365 33.462 21.7619 33.4027 21.7741C33.3435 21.7862 33.2822 21.7848 33.2236 21.7699L31.9105 21.4893C31.8475 21.476 31.7877 21.4504 31.7347 21.4137C31.6818 21.3771 31.6366 21.3303 31.6019 21.2761C31.5651 21.2253 31.5409 21.1666 31.5312 21.1047C31.5214 21.0427 31.5264 20.9794 31.5457 20.9198C31.6551 20.5116 31.846 20.1299 32.1069 19.7975C32.3419 19.5042 32.6135 19.2421 32.9149 19.0175C33.2061 18.8045 33.5149 18.6167 33.838 18.4564C34.1579 18.2964 34.4553 18.1421 34.7302 17.9906C34.9817 17.8578 35.2178 17.6979 35.4345 17.5136C35.6234 17.3546 35.7545 17.1376 35.8076 16.8964C35.8561 16.6857 35.8529 16.4665 35.7981 16.2573C35.7434 16.0482 35.6388 15.8554 35.4934 15.6955C35.1307 15.2991 34.6457 15.0354 34.1158 14.9464C33.1356 14.7276 32.307 15.0577 31.6299 15.9368C31.5649 16.0331 31.4821 16.116 31.3858 16.1809C31.3337 16.2075 31.2769 16.2233 31.2186 16.2277C31.1603 16.232 31.1018 16.2247 31.0463 16.2062L29.6435 15.8948C29.594 15.8852 29.5469 15.8659 29.505 15.838C29.4631 15.81 29.4272 15.774 29.3994 15.732C29.3688 15.689 29.3482 15.6398 29.339 15.5879C29.3298 15.536 29.3322 15.4827 29.3461 15.4318C29.464 15.0006 29.6855 14.6047 29.9914 14.2787C30.3346 13.8997 30.7421 13.5844 31.195 13.3472C31.6914 13.0866 32.2267 12.9084 32.7803 12.8197C33.3708 12.7158 33.976 12.7282 34.5619 12.8562ZM33.0805 22.8277C33.142 22.8408 33.2003 22.8665 33.2514 22.9032C33.3026 22.9399 33.3456 22.9868 33.3779 23.0409C33.4124 23.0933 33.4359 23.1521 33.447 23.2138C33.4581 23.2756 33.4565 23.3389 33.4424 23.4L33.1057 24.9207C33.0775 25.0421 33.0032 25.1478 32.8984 25.2153C32.7937 25.2829 32.6668 25.307 32.5446 25.2827L31.0576 24.9544C30.9963 24.9413 30.9384 24.9158 30.8873 24.8797C30.8362 24.8435 30.7929 24.7973 30.7601 24.744C30.7252 24.6918 30.7014 24.633 30.6903 24.5712C30.6792 24.5093 30.681 24.4459 30.6956 24.3848L31.0323 22.8613C31.0605 22.7399 31.1348 22.6343 31.2396 22.5667C31.3443 22.4992 31.4712 22.475 31.5934 22.4994L33.0805 22.8277Z" fill="#407BFF"/>
<path d="M38.9722 27.1623C39.3433 27.1011 39.7212 27.0936 40.0945 27.1398C40.4534 27.1806 40.8021 27.2851 41.1242 27.4485C41.4318 27.6059 41.7017 27.8279 41.9154 28.0994C42.1419 28.3904 42.288 28.7358 42.3391 29.101C42.3973 29.3852 42.3973 29.6782 42.3391 29.9624C42.2807 30.2096 42.1861 30.4469 42.0585 30.6666C41.9335 30.8784 41.7908 31.0793 41.632 31.267L41.1803 31.8001C41.0443 31.9596 40.9223 32.1304 40.8156 32.3108C40.7205 32.4711 40.6719 32.6547 40.6753 32.8411C40.6748 32.9286 40.6495 33.0142 40.6023 33.088C40.5809 33.1232 40.5519 33.1534 40.5175 33.1761C40.483 33.1989 40.444 33.2139 40.4031 33.2198L39.4856 33.3713C39.397 33.3853 39.3064 33.3641 39.2331 33.3124C39.1972 33.2889 39.1671 33.2575 39.1452 33.2205C39.1233 33.1835 39.1102 33.142 39.1069 33.0992C39.0685 32.8116 39.0905 32.5192 39.1714 32.2406C39.2442 31.9906 39.3508 31.7518 39.4884 31.5308C39.6198 31.3192 39.769 31.1193 39.9346 30.9332C40.1001 30.748 40.2488 30.574 40.3891 30.4057C40.5155 30.2561 40.6256 30.0934 40.7174 29.9203C40.7978 29.7701 40.8264 29.5975 40.7987 29.4293C40.7759 29.2815 40.7175 29.1415 40.6285 29.0212C40.5396 28.901 40.4227 28.8042 40.2881 28.7391C39.9555 28.5767 39.5779 28.5312 39.2163 28.61C38.8892 28.6583 38.5849 28.8062 38.3449 29.0336C38.1049 29.2611 37.9409 29.557 37.8752 29.881C37.8573 29.9602 37.825 30.0353 37.7798 30.1027C37.7254 30.1623 37.6499 30.1986 37.5693 30.2037L36.593 30.3636C36.5236 30.375 36.4525 30.36 36.3937 30.3215C36.363 30.3016 36.3371 30.2753 36.3177 30.2442C36.2983 30.2132 36.2859 30.1783 36.2815 30.142C36.2476 29.8355 36.289 29.5254 36.4022 29.2385C36.524 28.9069 36.7045 28.5999 36.9352 28.3323C37.1869 28.0386 37.4844 27.7875 37.8162 27.5888C38.1702 27.3729 38.5628 27.228 38.9722 27.1623ZM40.5743 33.9493C40.6173 33.9421 40.6613 33.9436 40.7037 33.9537C40.7461 33.9638 40.7861 33.9824 40.8212 34.0082C40.8563 34.0332 40.886 34.0649 40.9087 34.1015C40.9313 34.1381 40.9464 34.1789 40.953 34.2215L41.127 35.282C41.1342 35.325 41.1327 35.369 41.1226 35.4115C41.1125 35.4539 41.0939 35.4938 41.0681 35.5289C41.0435 35.5644 41.0119 35.5944 40.9752 35.617C40.9385 35.6397 40.8975 35.6546 40.8548 35.6608L39.8167 35.8319C39.7742 35.8389 39.7306 35.8373 39.6887 35.8272C39.6468 35.8171 39.6073 35.7987 39.5726 35.773C39.5367 35.7487 39.5061 35.7172 39.483 35.6805C39.4598 35.6438 39.4445 35.6027 39.4379 35.5598L39.264 34.4964C39.2511 34.409 39.2734 34.3201 39.326 34.2491C39.3786 34.1781 39.4572 34.1308 39.5446 34.1177L40.5743 33.9493Z" fill="#407BFF"/>
<g opacity="0.2">
<path d="M38.9722 27.1623C39.3433 27.1011 39.7212 27.0936 40.0945 27.1398C40.4534 27.1806 40.8021 27.2851 41.1242 27.4485C41.4318 27.6059 41.7017 27.8279 41.9154 28.0994C42.1419 28.3904 42.288 28.7358 42.3391 29.101C42.3973 29.3852 42.3973 29.6782 42.3391 29.9624C42.2807 30.2096 42.1861 30.4469 42.0585 30.6666C41.9335 30.8784 41.7908 31.0793 41.632 31.267L41.1803 31.8001C41.0443 31.9596 40.9223 32.1304 40.8156 32.3108C40.7205 32.4711 40.6719 32.6547 40.6753 32.8411C40.6748 32.9286 40.6495 33.0142 40.6023 33.088C40.5809 33.1232 40.5519 33.1534 40.5175 33.1761C40.483 33.1989 40.444 33.2139 40.4031 33.2198L39.4856 33.3713C39.397 33.3853 39.3064 33.3641 39.2331 33.3124C39.1972 33.2889 39.1671 33.2575 39.1452 33.2205C39.1233 33.1835 39.1102 33.142 39.1069 33.0992C39.0685 32.8116 39.0905 32.5192 39.1714 32.2406C39.2442 31.9906 39.3508 31.7518 39.4884 31.5308C39.6198 31.3192 39.769 31.1193 39.9346 30.9332C40.1001 30.748 40.2488 30.574 40.3891 30.4057C40.5155 30.2561 40.6256 30.0934 40.7174 29.9203C40.7978 29.7701 40.8264 29.5975 40.7987 29.4293C40.7759 29.2815 40.7175 29.1415 40.6285 29.0212C40.5396 28.901 40.4227 28.8042 40.2881 28.7391C39.9555 28.5767 39.5779 28.5312 39.2163 28.61C38.8892 28.6583 38.5849 28.8062 38.3449 29.0336C38.1049 29.2611 37.9409 29.557 37.8752 29.881C37.8573 29.9602 37.825 30.0353 37.7798 30.1027C37.7254 30.1623 37.6499 30.1986 37.5693 30.2037L36.593 30.3636C36.5236 30.375 36.4525 30.36 36.3937 30.3215C36.363 30.3016 36.3371 30.2753 36.3177 30.2442C36.2983 30.2132 36.2859 30.1783 36.2815 30.142C36.2476 29.8355 36.289 29.5254 36.4022 29.2385C36.524 28.9069 36.7045 28.5999 36.9352 28.3323C37.1869 28.0386 37.4844 27.7875 37.8162 27.5888C38.1702 27.3729 38.5628 27.228 38.9722 27.1623ZM40.5743 33.9493C40.6173 33.9421 40.6613 33.9436 40.7037 33.9537C40.7461 33.9638 40.7861 33.9824 40.8212 34.0082C40.8563 34.0332 40.886 34.0649 40.9087 34.1015C40.9313 34.1381 40.9464 34.1789 40.953 34.2215L41.127 35.282C41.1342 35.325 41.1327 35.369 41.1226 35.4115C41.1125 35.4539 41.0939 35.4938 41.0681 35.5289C41.0435 35.5644 41.0119 35.5944 40.9752 35.617C40.9385 35.6397 40.8975 35.6546 40.8548 35.6608L39.8167 35.8319C39.7742 35.8389 39.7306 35.8373 39.6887 35.8272C39.6468 35.8171 39.6073 35.7987 39.5726 35.773C39.5367 35.7487 39.5061 35.7172 39.483 35.6805C39.4598 35.6438 39.4445 35.6027 39.4379 35.5598L39.264 34.4964C39.2511 34.409 39.2734 34.3201 39.326 34.2491C39.3786 34.1781 39.4572 34.1308 39.5446 34.1177L40.5743 33.9493Z" fill="black"/>
</g>
<path d="M48.54 30.1734C48.6233 30.2341 48.6796 30.325 48.6969 30.4267C48.7142 30.5284 48.6911 30.6328 48.6326 30.7177L47.8919 31.7558C47.8311 31.8391 47.7402 31.8955 47.6385 31.9127C47.5369 31.93 47.4325 31.9069 47.3476 31.8484L46.3319 31.1273C46.29 31.098 46.2545 31.0605 46.2275 31.0171C46.2005 30.9737 46.1826 30.9253 46.1748 30.8748C46.16 30.7765 46.1831 30.6762 46.2393 30.5942L46.98 29.5533C47.0401 29.4696 47.1309 29.4132 47.2325 29.3962C47.3312 29.3814 47.4319 29.4055 47.5131 29.4635L48.54 30.1734ZM52.8271 23.1338C53.1933 23.3922 53.5203 23.7022 53.7979 24.0541C54.066 24.389 54.2722 24.7691 54.4067 25.1764C54.5354 25.5657 54.5784 25.9782 54.533 26.3857C54.4804 26.8196 54.316 27.2324 54.056 27.5837C53.8622 27.8678 53.6143 28.1109 53.3265 28.2992C53.0707 28.458 52.7927 28.5781 52.5016 28.6555C52.2195 28.7308 51.9313 28.7815 51.6403 28.807L50.8154 28.8771C50.5691 28.8997 50.3251 28.9429 50.0859 29.0062C49.872 29.0627 49.6778 29.1773 49.5248 29.3373C49.4513 29.4089 49.3604 29.4601 49.2611 29.486C49.2128 29.4974 49.1627 29.4981 49.1142 29.4879C49.0657 29.4777 49.02 29.4569 48.9805 29.4271L48.0827 28.7902C47.997 28.7285 47.9386 28.6359 47.9199 28.532C47.9092 28.483 47.9099 28.4322 47.9221 28.3835C47.9343 28.3349 47.9575 28.2897 47.9901 28.2515C48.1989 27.9777 48.4614 27.7495 48.7616 27.5809C49.0318 27.4328 49.3205 27.3214 49.6202 27.2498C49.9077 27.1803 50.2005 27.1353 50.4956 27.1152C50.7761 27.0983 51.0567 27.0759 51.3148 27.0506C51.5465 27.0306 51.7753 26.9845 51.9966 26.9131C52.1896 26.8544 52.3574 26.7329 52.4736 26.568C52.5779 26.4252 52.6457 26.259 52.6711 26.0839C52.6966 25.9089 52.6788 25.7302 52.6195 25.5636C52.4732 25.1501 52.1927 24.7975 51.8227 24.562C51.1549 24.085 50.4254 24.0691 49.6342 24.5143C49.5544 24.5652 49.466 24.6014 49.3733 24.6209C49.3251 24.6243 49.2768 24.6181 49.231 24.6027C49.1853 24.5873 49.143 24.563 49.1067 24.5311L48.1528 23.8521C48.0833 23.8049 48.035 23.7324 48.0181 23.6501C48.01 23.608 48.011 23.5647 48.0212 23.523C48.0314 23.4814 48.0504 23.4424 48.077 23.4088C48.2992 23.1218 48.5882 22.8935 48.9188 22.7439C49.2982 22.5683 49.7057 22.461 50.1224 22.4268C50.5788 22.3896 51.0382 22.4256 51.4832 22.5334C51.9665 22.6425 52.4234 22.8466 52.8271 23.1338Z" fill="#407BFF"/>
<g opacity="0.6">
<path d="M48.54 30.1733C48.6233 30.234 48.6796 30.3249 48.6969 30.4266C48.7142 30.5283 48.6911 30.6327 48.6326 30.7176L47.8919 31.7557C47.8311 31.839 47.7402 31.8953 47.6385 31.9126C47.5369 31.9299 47.4325 31.9068 47.3476 31.8483L46.3319 31.1272C46.29 31.0979 46.2545 31.0604 46.2275 31.017C46.2005 30.9736 46.1826 30.9252 46.1748 30.8747C46.16 30.7764 46.1831 30.6761 46.2393 30.5941L46.98 29.5532C47.0401 29.4695 47.1309 29.413 47.2325 29.3961C47.3312 29.3812 47.4319 29.4054 47.5131 29.4634L48.54 30.1733ZM52.8271 23.1337C53.1933 23.3921 53.5203 23.7021 53.7979 24.054C54.066 24.3889 54.2722 24.7689 54.4067 25.1763C54.5354 25.5656 54.5784 25.9781 54.533 26.3855C54.4804 26.8194 54.316 27.2322 54.056 27.5836C53.8622 27.8677 53.6143 28.1108 53.3265 28.299C53.0707 28.4579 52.7927 28.578 52.5016 28.6554C52.2195 28.7307 51.9313 28.7814 51.6403 28.8069L50.8154 28.877C50.5691 28.8996 50.3251 28.9428 50.0859 29.0061C49.872 29.0626 49.6778 29.1772 49.5248 29.3372C49.4513 29.4087 49.3604 29.46 49.2611 29.4859C49.2128 29.4973 49.1627 29.4979 49.1142 29.4878C49.0657 29.4776 49.02 29.4568 48.9805 29.4269L48.0827 28.79C47.997 28.7284 47.9386 28.6358 47.9199 28.5319C47.9092 28.4829 47.9099 28.4321 47.9221 28.3834C47.9343 28.3347 47.9575 28.2895 47.9901 28.2513C48.1989 27.9776 48.4614 27.7494 48.7616 27.5808C49.0318 27.4327 49.3205 27.3213 49.6202 27.2497C49.9077 27.1802 50.2005 27.1352 50.4956 27.115C50.7761 27.0982 51.0567 27.0758 51.3148 27.0505C51.5465 27.0305 51.7753 26.9844 51.9966 26.913C52.1896 26.8543 52.3574 26.7328 52.4736 26.5679C52.5779 26.425 52.6457 26.2588 52.6711 26.0838C52.6966 25.9087 52.6788 25.7301 52.6195 25.5635C52.4732 25.15 52.1927 24.7974 51.8227 24.5618C51.1549 24.0849 50.4254 24.069 49.6342 24.5141C49.5544 24.5651 49.466 24.6012 49.3733 24.6208C49.3251 24.6242 49.2768 24.618 49.231 24.6026C49.1853 24.5872 49.143 24.5628 49.1067 24.531L48.1528 23.852C48.0833 23.8048 48.035 23.7323 48.0181 23.65C48.01 23.6079 48.011 23.5645 48.0212 23.5229C48.0314 23.4812 48.0504 23.4423 48.077 23.4087C48.2992 23.1217 48.5882 22.8934 48.9188 22.7437C49.2982 22.5682 49.7057 22.4609 50.1224 22.4267C50.5788 22.3895 51.0382 22.4255 51.4832 22.5333C51.9665 22.6424 52.4234 22.8465 52.8271 23.1337Z" fill="white"/>
</g>
</g>
<g opacity="0.39">
<path d="M35.5171 128.438C34.8581 127.93 32.0858 125.769 31.1432 125.034C30.9558 124.89 30.8381 124.797 30.8291 124.788C30.359 124.434 29.776 124.262 29.1887 124.305C28.6853 124.336 28.191 124.454 27.7274 124.653C27.6515 124.683 27.5746 124.721 27.5005 124.757C26.2413 125.327 25.0872 126.34 24.039 127.807C22.9813 129.231 22.2894 130.893 22.0239 132.647C21.7932 134.312 22.075 135.541 22.8693 136.336C22.9499 136.415 23.0354 136.489 23.1252 136.558C23.8911 137.146 27.7254 140.14 27.811 140.205L27.8336 140.209C27.7389 140.138 27.6495 140.061 27.5663 139.977C26.77 139.184 26.4881 137.955 26.7205 136.291C26.986 134.537 27.6779 132.875 28.7355 131.451C29.8434 129.898 31.0722 128.845 32.4218 128.293C33.7058 127.772 34.7447 127.824 35.5383 128.452L35.5171 128.438Z" fill="#407BFF"/>
<path opacity="0.4" d="M35.5379 128.457C34.7435 127.835 33.7048 127.781 32.4217 128.296C31.1684 128.805 30.0171 129.755 28.9676 131.145L24.2738 127.481C25.2578 126.182 26.3334 125.274 27.4996 124.747C27.5733 124.713 27.6506 124.673 27.7265 124.642C28.1897 124.443 28.6841 124.327 29.1874 124.297C29.7749 124.253 30.3584 124.425 30.8279 124.781L31.142 125.026C32.0849 125.759 34.8572 127.92 35.5162 128.428L35.5379 128.457Z" fill="black"/>
<path opacity="0.3" d="M27.8345 140.201L27.8119 140.198C27.7263 140.133 23.8844 137.137 23.126 136.551C23.0362 136.482 22.9507 136.408 22.8702 136.329C22.0756 135.536 21.7937 134.307 22.0244 132.643C22.2893 130.889 22.9813 129.226 24.0395 127.802C24.1161 127.693 24.1949 127.586 24.2755 127.484L28.9682 131.138C28.8901 131.24 28.8113 131.346 28.735 131.454C27.6773 132.878 26.9854 134.54 26.7199 136.294C26.4892 137.958 26.7711 139.187 27.5657 139.98C27.6497 140.06 27.7396 140.134 27.8345 140.201Z" fill="black"/>
<path d="M39.2672 85.0309C41.9421 83.9426 44.1346 83.6262 45.8446 84.0817C46.5409 84.2645 47.193 84.5865 47.7613 85.0284C47.7453 85.0169 47.7299 85.0045 47.7152 84.9913C47.1641 84.5719 43.8504 81.9954 43.0938 81.3964C42.5163 80.942 41.8506 80.6126 41.139 80.4291C39.4271 79.975 37.2339 80.2905 34.5594 81.3754C30.4002 83.0634 26.8498 85.8991 23.9083 89.8824C20.9668 93.8657 19.1976 98.1028 18.6005 102.594L23.2932 106.247C23.8806 101.751 25.65 97.5135 28.6013 93.5332C31.5527 89.553 35.1079 86.7189 39.2672 85.0309Z" fill="#407BFF"/>
<path opacity="0.2" d="M47.7248 84.9948C47.1631 84.5714 46.5245 84.2611 45.8444 84.0813C44.1361 83.626 41.9436 83.9424 39.267 85.0305C35.108 86.7168 31.5576 89.5525 28.6159 93.5374C28.4932 93.7022 28.3727 93.8698 28.255 94.0352L23.5505 90.3751C23.6682 90.2097 23.7887 90.042 23.9114 89.8773C26.8624 85.8988 30.4128 83.0631 34.5625 81.3703C37.2405 80.2842 39.4337 79.9688 41.1421 80.4241C41.8537 80.6084 42.5193 80.9387 43.0965 81.3939C43.8599 81.9989 47.1733 84.5779 47.7248 84.9948Z" fill="black"/>
<path opacity="0.3" d="M28.2431 94.0284C25.5082 97.8629 23.8592 101.934 23.2961 106.242L18.6034 102.589C19.1685 98.2792 20.8175 94.2081 23.5504 90.3751L28.2431 94.0284Z" fill="black"/>
<path d="M41.5754 93.8596C40.7177 93.2389 39.4544 93.26 37.7856 93.9229C37.6057 94.8362 37.2903 95.7174 36.8497 96.5374C36.3185 97.5253 34.8955 99.5176 32.5806 102.514C30.1833 105.612 28.3413 108.633 27.0544 111.576C25.7799 114.481 24.9119 117.548 24.475 120.69L24.2831 122.258L27.4857 124.75L28.9783 125.912L29.168 124.341L29.1708 124.32C29.6105 121.189 30.477 118.133 31.746 115.237C33.0329 112.294 34.8757 109.274 37.2744 106.178C39.5876 103.181 41.0099 101.188 41.5414 100.198C42.0706 99.2206 42.4194 98.1555 42.5712 97.0542C42.7789 95.5556 42.447 94.4907 41.5754 93.8596Z" fill="#407BFF"/>
<path opacity="0.3" d="M40.8855 101.257C40.1433 102.376 38.9401 104.013 37.2761 106.168C34.8755 109.266 33.0326 112.286 31.7473 115.229C30.4771 118.128 29.6103 121.187 29.1711 124.321L29.1655 124.361L28.9758 125.932L27.4829 124.773L24.2803 122.281L24.4725 120.71C24.9096 117.568 25.7776 114.501 27.0519 111.596C28.3388 108.653 30.1809 105.632 32.5781 102.534C34.2426 100.376 35.4473 98.7399 36.1922 97.6264L40.8855 101.257Z" fill="black"/>
<path opacity="0.4" d="M42.5713 97.0546C42.4197 98.1524 42.0722 99.214 41.5454 100.189C41.3967 100.468 41.1758 100.824 40.8854 101.257L36.1949 97.6067C36.4821 97.1721 36.7021 96.816 36.8549 96.5385C37.2955 95.7186 37.6109 94.8373 37.7908 93.9241C39.4596 93.2612 40.7229 93.2401 41.5806 93.8607C42.4383 94.4814 42.7685 95.546 42.5713 97.0546Z" fill="black"/>
<path d="M30.7534 103.211L23.2959 106.242C23.8834 101.747 25.6528 97.5087 28.6041 93.5285C31.5554 89.5483 35.1058 86.7126 39.2552 85.0216C41.9301 83.9333 44.1226 83.6169 45.8326 84.0724C47.5426 84.5279 48.8027 85.6745 49.6129 87.5122C50.4247 89.3502 50.6552 91.5342 50.3044 94.0642C50.0904 95.5317 49.7191 96.9718 49.1969 98.3598C48.5679 100.02 47.8067 101.626 46.9206 103.164C46.351 104.17 45.068 105.996 43.0715 108.641C41.1639 111.162 39.9483 112.888 39.4248 113.821C38.8331 114.932 38.3469 116.096 37.9725 117.298C37.4135 119.095 36.9879 120.93 36.6992 122.789L28.9868 125.924L29.1765 124.352C29.6136 121.21 30.4816 118.143 31.7559 115.238C33.0428 112.295 34.8856 109.276 37.2843 106.18C39.5975 103.183 41.0199 101.19 41.5513 100.2C42.0772 99.2213 42.4226 98.1558 42.571 97.0546C42.78 95.5477 42.4489 94.4829 41.5778 93.8604C40.7067 93.2379 39.4173 93.269 37.7096 93.9538C35.9626 94.6639 34.4413 95.8814 33.1457 97.6064C31.8859 99.2415 31.0627 101.17 30.7534 103.211Z" fill="#407BFF"/>
<path d="M32.4066 128.31C33.7904 127.745 34.8902 127.851 35.706 128.626C36.5218 129.402 36.8144 130.621 36.5839 132.283C36.3115 134.046 35.6098 135.715 34.5406 137.143C33.4108 138.718 32.1614 139.784 30.7924 140.34C29.4235 140.896 28.3426 140.777 27.5499 139.983C26.7554 139.19 26.4736 137.961 26.7045 136.294C26.97 134.54 27.6619 132.878 28.7196 131.454C29.8303 129.905 31.0593 128.857 32.4066 128.31Z" fill="#407BFF"/>
</g>
<g opacity="0.39">
<path d="M35.5821 128.487C34.9229 127.979 32.1504 125.818 31.2077 125.083C31.0202 124.939 30.9026 124.846 30.8936 124.837C30.4234 124.483 29.8404 124.311 29.253 124.354C28.7496 124.385 28.2553 124.503 27.7917 124.702C27.7158 124.732 27.6388 124.77 27.5648 124.806C26.3055 125.376 25.1514 126.389 24.1033 127.856C23.0457 129.281 22.3538 130.943 22.0884 132.697C21.8578 134.361 22.1397 135.591 22.9341 136.385C23.0147 136.464 23.1002 136.539 23.19 136.607C23.956 137.195 27.7907 140.189 27.8764 140.254L27.899 140.258C27.8042 140.187 27.7148 140.11 27.6315 140.026C26.8352 139.233 26.5532 138.004 26.7855 136.34C27.0509 134.586 27.7427 132.924 28.8003 131.5C29.9082 129.947 31.1369 128.894 32.4866 128.342C33.7706 127.821 34.8095 127.873 35.6033 128.5L35.5821 128.487Z" fill="#407BFF"/>
<path opacity="0.4" d="M35.6027 128.506C34.8083 127.884 33.7695 127.83 32.4864 128.345C31.2331 128.854 30.0817 129.804 29.0323 131.194L24.338 127.531C25.322 126.231 26.3976 125.323 27.5638 124.796C27.6375 124.763 27.7148 124.722 27.7907 124.692C28.2539 124.493 28.7483 124.376 29.2517 124.347C29.8392 124.302 30.4227 124.474 30.8922 124.83L31.2063 125.076C32.1494 125.808 34.922 127.969 35.5811 128.477L35.6027 128.506Z" fill="black"/>
<path opacity="0.3" d="M27.9001 140.25L27.8775 140.247C27.7918 140.182 23.9496 137.187 23.1911 136.6C23.1013 136.532 23.0158 136.457 22.9352 136.378C22.1405 135.585 21.8585 134.357 22.0892 132.692C22.3539 130.938 23.0459 129.276 24.104 127.852C24.1807 127.742 24.2595 127.635 24.3401 127.534L29.0332 131.187C28.9551 131.289 28.8763 131.395 28.8 131.503C27.7424 132.927 27.0506 134.589 26.7852 136.343C26.5545 138.008 26.8366 139.236 27.6312 140.029C27.7153 140.109 27.8051 140.183 27.9001 140.25Z" fill="black"/>
<path d="M39.3296 85.08C42.0046 83.9916 44.1972 83.6751 45.9073 84.1306C46.6037 84.3133 47.2558 84.6353 47.8242 85.0771C47.8082 85.0656 47.7928 85.0532 47.7781 85.04C47.227 84.6206 43.9129 82.0443 43.1562 81.4454C42.5786 80.991 41.9129 80.6617 41.2013 80.4782C39.4892 80.0242 37.2959 80.3397 34.6214 81.4248C30.462 83.113 26.9117 85.9488 23.9703 89.9322C21.0289 93.9156 19.2598 98.1528 18.663 102.644L23.3562 106.297C23.9434 101.801 25.7126 97.5631 28.6638 93.5828C31.615 89.6025 35.1703 86.7682 39.3296 85.08Z" fill="#407BFF"/>
<path opacity="0.2" d="M47.7879 85.0437C47.2262 84.6203 46.5875 84.3101 45.9075 84.1303C44.199 83.6751 42.0064 83.9916 39.3297 85.0798C35.1706 86.7663 31.6202 89.6021 28.6786 93.5872C28.5559 93.7519 28.4354 93.9196 28.3178 94.085L23.6128 90.4251C23.7304 90.2597 23.8509 90.0921 23.9736 89.9273C26.9246 85.9487 30.4749 83.1129 34.6247 81.4199C37.3028 80.3336 39.4961 80.0181 41.2046 80.4733C41.9163 80.6576 42.5819 80.9879 43.1592 81.443C43.9227 82.048 47.2364 84.6268 47.7879 85.0437Z" fill="black"/>
<path opacity="0.3" d="M28.3063 94.0792C25.5715 97.9137 23.9227 101.985 23.3598 106.293L18.6667 102.64C19.2315 98.3304 20.8803 94.2591 23.6131 90.426L28.3063 94.0792Z" fill="black"/>
<path d="M41.6392 93.9096C40.7814 93.289 39.5181 93.3102 37.8493 93.9731C37.6694 94.8864 37.354 95.7676 36.9135 96.5876C36.3823 97.5755 34.9593 99.5678 32.6445 102.565C30.2473 105.663 28.4054 108.683 27.1186 111.626C25.8442 114.531 24.9764 117.598 24.5397 120.74L24.3479 122.308L27.5508 124.8L29.0436 125.962L29.2332 124.391L29.2359 124.371C29.6755 121.239 30.5418 118.183 31.8107 115.287C33.0975 112.344 34.9402 109.324 37.3388 106.228C39.6519 103.231 41.0742 101.238 41.6056 100.248C42.1348 99.2705 42.4836 98.2055 42.6353 97.1041C42.8429 95.6055 42.5109 94.5407 41.6392 93.9096Z" fill="#407BFF"/>
<path opacity="0.3" d="M40.949 101.307C40.2068 102.426 39.0037 104.063 37.3397 106.218C34.9392 109.316 33.0964 112.336 31.8113 115.279C30.5412 118.178 29.6745 121.237 29.2355 124.371L29.2299 124.411L29.0404 125.982L27.5472 124.823L24.3443 122.331L24.5364 120.76C24.9734 117.618 25.8412 114.551 27.1153 111.646C28.4021 108.703 30.2441 105.683 32.6413 102.585C34.3057 100.426 35.5104 98.7902 36.2552 97.6766L40.949 101.307Z" fill="black"/>
<path opacity="0.4" d="M42.6349 97.1032C42.4833 98.201 42.1359 99.2627 41.6091 100.238C41.4604 100.517 41.2396 100.873 40.9491 101.306L36.2581 97.6556C36.5453 97.221 36.7654 96.8649 36.9182 96.5875C37.3587 95.7675 37.6741 94.8862 37.8539 93.973C39.5228 93.31 40.7861 93.2888 41.6439 93.9094C42.5017 94.53 42.832 95.5946 42.6349 97.1032Z" fill="black"/>
<path d="M30.8171 103.26L23.3594 106.292C23.9466 101.796 25.7158 97.5581 28.667 93.5778C31.6182 89.5974 35.1686 86.7616 39.3181 85.0704C41.9931 83.9819 44.1857 83.6655 45.8958 84.1209C47.606 84.5763 48.8662 85.7229 49.6765 87.5605C50.4885 89.3984 50.7192 91.5824 50.3685 94.1124C50.1546 95.5798 49.7834 97.02 49.2612 98.408C48.6323 100.068 47.8712 101.674 46.9852 103.212C46.4156 104.219 45.1326 106.044 43.1362 108.689C41.2286 111.21 40.0131 112.937 39.4896 113.87C38.898 114.981 38.4118 116.145 38.0375 117.347C37.4786 119.143 37.0531 120.979 36.7645 122.838L29.0519 125.972L29.2415 124.401C29.6784 121.259 30.5462 118.192 31.8204 115.287C33.1072 112.344 34.9499 109.325 37.3485 106.229C39.6617 103.232 41.0839 101.238 41.6153 100.249C42.1412 99.2699 42.4866 98.2044 42.6349 97.1032C42.8438 95.5962 42.5126 94.5315 41.6414 93.909C40.7702 93.2865 39.4808 93.3177 37.773 94.0026C36.026 94.7128 34.5047 95.9304 33.2092 97.6554C31.9494 99.2906 31.1262 101.219 30.8171 103.26Z" fill="#407BFF"/>
<path d="M32.4719 128.359C33.8557 127.795 34.9555 127.901 35.7714 128.676C36.5873 129.451 36.88 130.67 36.6496 132.333C36.3774 134.096 35.6757 135.765 34.6065 137.192C33.4768 138.768 32.2274 139.834 30.8584 140.39C29.4894 140.946 28.4085 140.827 27.6157 140.033C26.821 139.24 26.5391 138.011 26.77 136.344C27.0354 134.59 27.7272 132.928 28.7849 131.504C29.8956 129.955 31.1246 128.907 32.4719 128.359Z" fill="#407BFF"/>
</g>
<path d="M27.0547 113.922C26.5443 113.922 26.0977 113.795 25.7148 113.539C25.3275 113.28 25.0267 112.94 24.8125 112.521C24.5983 112.097 24.4912 111.639 24.4912 111.147C24.4912 110.764 24.5664 110.377 24.7168 109.985C24.8626 109.588 25.0973 109.217 25.4209 108.87L26.7744 109.595C26.5602 109.841 26.4053 110.094 26.3096 110.354C26.2139 110.609 26.166 110.853 26.166 111.085C26.166 111.436 26.2526 111.735 26.4258 111.981C26.5944 112.222 26.8109 112.343 27.0752 112.343C27.2712 112.343 27.4489 112.277 27.6084 112.145C27.7679 112.008 27.932 111.84 28.1006 111.639C28.2646 111.439 28.4538 111.24 28.668 111.044C28.8822 110.844 29.1442 110.677 29.4541 110.545C29.764 110.409 30.1423 110.34 30.5889 110.34L30.7871 110.34L30.7871 111.919L30.5957 111.919C30.2767 111.919 30.0146 111.967 29.8096 112.063C29.5999 112.159 29.4222 112.284 29.2764 112.439C29.126 112.589 28.9893 112.751 28.8662 112.924C28.7386 113.093 28.5996 113.255 28.4492 113.41C28.2943 113.56 28.1074 113.683 27.8887 113.779C27.6699 113.874 27.3919 113.922 27.0547 113.922ZM32.8994 112.261C32.5895 112.261 32.3298 112.152 32.1201 111.933C31.9105 111.71 31.8057 111.443 31.8057 111.133C31.8057 110.823 31.9105 110.559 32.1201 110.34C32.3298 110.117 32.5895 110.005 32.8994 110.005C33.2093 110.005 33.4691 110.117 33.6787 110.34C33.8883 110.559 33.9932 110.823 33.9932 111.133C33.9932 111.448 33.8906 111.714 33.6855 111.933C33.4759 112.152 33.2139 112.261 32.8994 112.261ZM26.8086 97.2972L27.8887 96.2103L28.9824 97.2972L27.8887 98.3842L26.8086 97.2972ZM26.8086 99.5941L27.8887 98.5004L28.9824 99.5941L27.8887 100.674L26.8086 99.5941ZM29.5498 94.5287L29.3721 93.0385L31.1904 92.9086C31.5687 92.8812 31.849 92.7764 32.0312 92.5941C32.209 92.4073 32.2979 92.1156 32.2979 91.7191L32.2979 91.5551L34 91.5551L34 91.7191C34 92.2386 33.9043 92.6693 33.7129 93.0111C33.5215 93.3529 33.2389 93.6332 32.8652 93.8519C33.2708 94.253 33.5625 94.7497 33.7402 95.3422C33.9134 95.9346 34 96.7253 34 97.7142L34 98.8558C34 99.6716 33.9499 100.41 33.8496 101.071C33.7448 101.727 33.5693 102.29 33.3232 102.759C33.0771 103.224 32.7422 103.582 32.3184 103.832C31.8945 104.078 31.3568 104.202 30.7051 104.202C30.3314 104.202 29.9668 104.161 29.6113 104.078C29.2559 103.996 28.9209 103.892 28.6064 103.764L29.1465 102.335C29.3561 102.413 29.5931 102.486 29.8574 102.554C30.1172 102.622 30.3656 102.657 30.6025 102.657C30.9626 102.657 31.2565 102.563 31.4844 102.376C31.7077 102.189 31.8786 101.93 31.9971 101.597C32.111 101.26 32.1908 100.859 32.2363 100.394C32.2773 99.9291 32.2979 99.4164 32.2979 98.8558L32.2979 97.7142C32.2979 97.0306 32.2637 96.4473 32.1953 95.9642C32.127 95.4766 31.9971 95.1052 31.8057 94.85C31.6097 94.5902 31.3249 94.4603 30.9512 94.4603C30.7324 94.4603 30.4977 94.4672 30.2471 94.4808C29.9919 94.4945 29.7594 94.5105 29.5498 94.5287ZM37.5068 87.932L36.7754 87.932L35.5586 84.9447L36.29 84.9447L37.5068 87.932ZM34 87.057C34 87.5446 33.918 87.9388 33.7539 88.2396C33.5853 88.5404 33.3574 88.7842 33.0703 88.9711C33.362 89.208 33.5898 89.4974 33.7539 89.8392C33.918 90.1765 34 90.6276 34 91.1927L34 91.8217L32.2979 91.8217L32.2979 91.1791C32.2979 90.8236 32.2659 90.5365 32.2021 90.3177C32.1383 90.099 32.0176 89.9395 31.8398 89.8392C31.6621 89.7344 31.4023 89.682 31.0605 89.682C30.9876 89.682 30.8805 89.6866 30.7393 89.6957C30.598 89.7002 30.4385 89.7094 30.2607 89.723C30.083 89.7321 29.9053 89.7458 29.7275 89.764L29.543 88.2601L31.2314 88.1302C31.5641 88.1075 31.8262 88.0072 32.0176 87.8295C32.2044 87.6517 32.2979 87.3897 32.2979 87.0433C32.2979 86.6241 32.1999 86.3438 32.0039 86.2025C31.8079 86.0567 31.4935 85.9838 31.0605 85.9838C30.9876 85.9838 30.8805 85.9883 30.7393 85.9974C30.598 86.002 30.4385 86.0111 30.2607 86.0248C30.083 86.0339 29.9053 86.0476 29.7275 86.0658L29.543 84.5619L31.2314 84.432C31.5459 84.4138 31.8034 84.334 32.0039 84.1927C32.1999 84.0515 32.2979 83.8168 32.2979 83.4886C32.2979 83.279 32.2432 83.1149 32.1338 82.9965C32.0199 82.878 31.8717 82.7937 31.6895 82.7435C31.5026 82.6934 31.2998 82.6683 31.0811 82.6683C30.835 82.6683 30.582 82.6888 30.3223 82.7299C30.0625 82.7709 29.8232 82.8164 29.6045 82.8666C29.3812 82.9167 29.2126 82.9577 29.0986 82.9896L28.6816 81.4515C29.0189 81.3649 29.3789 81.2943 29.7617 81.2396C30.1445 81.1804 30.5251 81.1508 30.9033 81.1508C31.4411 81.1508 31.9469 81.2237 32.4209 81.3695C32.8903 81.5153 33.2708 81.7569 33.5625 82.0941C33.8542 82.4314 34 82.8939 34 83.4818C34 83.9011 33.9134 84.2497 33.7402 84.5277C33.5671 84.8011 33.3415 85.029 33.0635 85.2113C33.3551 85.4528 33.5853 85.724 33.7539 86.0248C33.918 86.3256 34 86.6696 34 87.057ZM37.7119 76.6185L36.1602 77.2064C36.0098 76.5183 35.8001 75.9418 35.5312 75.4769C35.2669 75.0121 34.9251 74.6612 34.5059 74.4242C34.0911 74.1872 33.5876 74.0687 32.9951 74.0687C32.5895 74.0687 32.1452 74.1257 31.6621 74.2396C31.179 74.3536 30.7165 74.4857 30.2744 74.6361L29.7549 73.0638C30.238 72.8907 30.7438 72.7608 31.2725 72.6742C31.8011 72.583 32.3115 72.5375 32.8037 72.5375C33.6878 72.5375 34.4648 72.697 35.1348 73.016C35.8092 73.335 36.363 73.7998 36.7959 74.4105C37.2334 75.0212 37.5387 75.7572 37.7119 76.6185ZM32.3184 69.5912C32.3184 69.1355 32.2819 68.723 32.209 68.3539C32.1361 67.9847 32.0176 67.6908 31.8535 67.472C31.6849 67.2533 31.4593 67.1439 31.1768 67.1439C30.8896 67.1439 30.5866 67.267 30.2676 67.5131C29.9486 67.7592 29.6296 68.101 29.3105 68.5385C28.987 68.976 28.6771 69.4886 28.3809 70.0765L26.8701 69.3451C27.1299 68.8256 27.4102 68.3402 27.7109 67.889C28.0117 67.4379 28.3376 67.0437 28.6885 66.7064C29.0394 66.3646 29.4154 66.098 29.8164 65.9066C30.2174 65.7152 30.6504 65.6195 31.1152 65.6195C31.7852 65.6195 32.332 65.7722 32.7559 66.0775C33.1797 66.3829 33.4919 66.8226 33.6924 67.3968C33.8883 67.9711 33.9863 68.6683 33.9863 69.4886C33.9863 69.8304 33.9749 70.1517 33.9521 70.4525C33.9248 70.7533 33.8792 71.0427 33.8154 71.3207L32.1201 71.3207C32.1794 71.0245 32.2272 70.7237 32.2637 70.4183C32.3001 70.1084 32.3184 69.8327 32.3184 69.5912ZM24.4775 58.8656L33.9932 58.8656L33.9932 60.4515L24.4775 60.4515L24.4775 58.8656ZM34 53.3763C34 53.6224 33.9704 53.8412 33.9111 54.0326C33.8519 54.224 33.7835 54.3812 33.7061 54.5043C34.3623 54.6045 34.9639 54.8164 35.5107 55.14C36.0622 55.459 36.5247 55.8988 36.8984 56.4593C37.2767 57.0199 37.5456 57.7103 37.7051 58.5306L36.1602 59.1049C36.0098 58.4167 35.8001 57.8402 35.5312 57.3754C35.2669 56.9105 34.9251 56.5596 34.5059 56.3226C34.0911 56.0857 33.5876 55.9672 32.9951 55.9672C32.5895 55.9672 32.1452 56.0241 31.6621 56.1381C31.179 56.252 30.7165 56.3842 30.2744 56.5345L29.7549 54.9623L31.2588 54.5795C31.5869 54.4929 31.8421 54.363 32.0244 54.1898C32.2067 54.0121 32.2978 53.766 32.2978 53.4515L32.2978 53.1918L34 53.1918L34 53.3763ZM36.4883 48.7689L37.5205 47.7367L38.5527 48.7689L37.5205 49.8011L36.4883 48.7689ZM34.7451 47.5795L35.7773 46.5472L36.8164 47.5795L35.7773 48.6185L34.7451 47.5795ZM34.7451 49.9515L35.7773 48.9193L36.8164 49.9515L35.7773 50.9838L34.7451 49.9515ZM32.2978 53.4584L32.2978 52.2963C32.2978 51.8223 32.2614 51.3802 32.1885 50.9701C32.111 50.5554 32.0016 50.1475 31.8603 49.7465C31.7191 49.3454 31.5482 48.9261 31.3477 48.4886C31.1426 48.0466 30.9124 47.5567 30.6572 47.0189C30.5296 47.3607 30.4066 47.6843 30.2881 47.9896C30.165 48.295 30.0557 48.5752 29.96 48.8304C29.8597 49.0811 29.7799 49.2976 29.7207 49.4799C29.6615 49.6576 29.6318 49.7898 29.6318 49.8763C29.6318 50.1361 29.7116 50.3685 29.8711 50.5736C30.026 50.7741 30.1992 50.9473 30.3906 51.0931L30.7598 51.3871L30.1035 52.7338L29.7275 52.5082C29.2171 52.1937 28.7978 51.82 28.4697 51.3871C28.1416 50.9541 27.9775 50.4483 27.9775 49.8695C27.9775 49.6234 28.0368 49.3363 28.1553 49.0082C28.2692 48.6801 28.415 48.3246 28.5928 47.9418C28.7659 47.5544 28.9414 47.1556 29.1191 46.7455C29.2923 46.3353 29.4404 45.9274 29.5635 45.5219C29.682 45.1163 29.7458 44.7289 29.7549 44.3597L31.3271 44.3597C31.3636 44.6469 31.432 44.9317 31.5322 45.2142C31.6325 45.4968 31.7646 45.8067 31.9287 46.1439C32.0928 46.4812 32.2933 46.8708 32.5303 47.3129C32.8402 47.8962 33.1045 48.4454 33.3232 48.9603C33.542 49.4707 33.7106 49.9926 33.8291 50.5258C33.943 51.059 34 51.656 34 52.3168L34 53.4584L32.2978 53.4584Z" fill="white"/>
</g>
<defs>
<linearGradient id="paint0_linear_3248_50772" x1="47.9167" y1="17.5306" x2="16.0162" y2="17.8092" gradientUnits="userSpaceOnUse">
<stop stop-color="#2146DD"/>
<stop offset="1" stop-color="#2065FF"/>
</linearGradient>
<linearGradient id="paint1_linear_3248_50772" x1="48.0002" y1="74.2917" x2="8.3335" y2="74.2917" gradientUnits="userSpaceOnUse">
<stop stop-color="#2060FA"/>
<stop offset="1" stop-color="#2367FF"/>
</linearGradient>
<clipPath id="clip0_3248_50772">
<rect width="47.25" height="138.25" fill="white" transform="translate(0.75 12.75)"/>
</clipPath>
</defs>
</svg>
