<svg width="33" height="32" viewBox="0 0 33 32" fill="none" xmlns="http://www.w3.org/2000/svg">
<g clip-path="url(#clip0_2135_30227)">
<path d="M17.0011 3.85969C6.18612 3.85619 0.769289 16.9299 8.41446 24.5774C10.1117 26.275 12.2743 27.4313 14.6287 27.8998C16.983 28.3684 19.4235 28.1282 21.6414 27.2097C23.8593 26.2912 25.755 24.7356 27.0888 22.7397C28.4225 20.7437 29.1344 18.3971 29.1345 15.9965C29.1345 9.29519 23.7036 3.86202 17.0011 3.85969ZM10.1283 9.91353C10.7128 6.88252 14.6701 6.07052 16.4003 8.62669C18.1305 11.1829 15.908 14.5557 12.877 13.9724C12.4299 13.8865 12.0041 13.7133 11.624 13.4629C11.2439 13.2124 10.9169 12.8894 10.6616 12.5125C10.4063 12.1356 10.2278 11.712 10.1363 11.2661C10.0448 10.8201 10.0421 10.3605 10.1283 9.91353ZM15.1706 20.3995C14.5826 23.4294 10.6253 24.2355 8.89746 21.6782C7.16962 19.1209 9.39562 15.7515 12.4266 16.336C12.8737 16.4224 13.2994 16.5961 13.6794 16.8471C14.0593 17.0981 14.3861 17.4216 14.6409 17.799C14.8958 18.1764 15.0737 18.6003 15.1646 19.0465C15.2555 19.4928 15.2575 19.9525 15.1706 20.3995ZM16.6406 17.5937C15.2966 17.3335 14.935 15.5789 16.0678 14.8089C17.1995 14.0389 18.6998 15.0189 18.4478 16.3652C18.4104 16.5647 18.334 16.7549 18.2228 16.9248C18.1117 17.0946 17.9681 17.2408 17.8003 17.355C17.6324 17.4692 17.4437 17.5491 17.2449 17.59C17.046 17.631 16.8399 17.6322 16.6406 17.5937ZM23.8728 22.0714C23.2883 25.1024 19.331 25.9132 17.6008 23.3582C15.8706 20.8032 18.092 17.4292 21.1241 18.0114C21.5713 18.0972 21.9972 18.2704 22.3774 18.521C22.7576 18.7715 23.0847 19.0946 23.34 19.4717C23.5952 19.8487 23.7737 20.2724 23.8651 20.7185C23.9565 21.1646 23.9592 21.6243 23.8728 22.0714ZM21.578 15.6524C18.547 15.0679 17.7361 11.107 20.2923 9.37569C22.8485 7.64436 26.2201 9.86802 25.638 12.899C25.5526 13.3466 25.3798 13.773 25.1295 14.1537C24.8792 14.5345 24.5562 14.8621 24.1791 15.1178C23.8019 15.3736 23.3781 15.5524 22.9317 15.6442C22.4854 15.7359 22.0254 15.7387 21.578 15.6524ZM18.855 29.1414L21.4963 29.853C22.6069 30.1477 23.7892 29.9893 24.7831 29.4126C25.7769 28.8359 26.5011 27.8882 26.7965 26.7777L27.5431 23.9754C25.4412 26.7758 22.3181 28.6326 18.8538 29.1414M27.7706 6.19886L25.0138 5.46502C26.4068 6.53684 27.5731 7.87459 28.4451 9.40065C29.3171 10.9267 29.8774 12.6107 30.0935 14.355L30.8518 11.4862C31.142 10.3765 30.9806 9.19709 30.4028 8.20625C29.8251 7.2154 28.8781 6.49398 27.7695 6.20003M3.78396 18.1105L3.15279 20.4905C2.85809 21.6012 3.01649 22.7834 3.59318 23.7773C4.16987 24.7712 5.11764 25.4954 6.22812 25.7907L8.68629 26.4464C6.06192 24.383 4.31233 21.4068 3.78396 18.1105ZM15.0831 2.81902L12.5083 2.14702C11.958 2.00043 11.3841 1.96373 10.8196 2.03903C10.2551 2.11432 9.71094 2.30014 9.21828 2.58586C8.72561 2.87158 8.29409 3.25159 7.94837 3.70418C7.60265 4.15677 7.34953 4.67305 7.20346 5.22353L6.56062 7.65252C8.68161 5.01347 11.7295 3.28443 15.0831 2.81902Z" fill="#262626"/>
</g>
<defs>
<clipPath id="clip0_2135_30227">
<rect width="28" height="28" fill="white" transform="translate(3 2)"/>
</clipPath>
</defs>
</svg>
