<svg width="31" height="30" viewBox="0 0 31 30" fill="none" xmlns="http://www.w3.org/2000/svg">
<path d="M21.0553 8.01881L19.1109 2.64844M8.3387 8.01881L10.7776 2.64844M14.9443 24.1299H8.3387C7.34342 24.1299 6.38103 23.7854 5.62569 23.1589C4.87034 22.5325 4.37193 21.6653 4.22064 20.7144L2.47759 11.1121C2.41671 10.7295 2.44216 10.3386 2.55218 9.96635C2.6622 9.59409 2.8542 9.24922 3.11501 8.9554C3.37583 8.66159 3.69928 8.42576 4.0632 8.2641C4.42713 8.10244 4.82291 8.01876 5.22342 8.01881H24.6665C25.067 8.01876 25.4628 8.10244 25.8267 8.2641C26.1906 8.42576 26.5141 8.66159 26.7749 8.9554C27.0357 9.24922 27.2277 9.59409 27.3377 9.96635C27.4477 10.3386 27.4732 10.7295 27.4123 11.1121L27.0415 13.1556" stroke="#224CDF" stroke-width="2" stroke-linecap="round" stroke-linejoin="round"/>
<path d="M24.6679 25.473C23.9312 25.473 23.2246 25.1901 22.7037 24.6865C22.1828 24.1829 21.8901 23.5 21.8901 22.7878C21.8901 22.0756 22.1828 21.3927 22.7037 20.8891C23.2246 20.3855 23.9312 20.1026 24.6679 20.1026M24.6679 25.473C25.4046 25.473 26.1111 25.1901 26.6321 24.6865C27.153 24.1829 27.4457 23.5 27.4457 22.7878C27.4457 22.0756 27.153 21.3927 26.6321 20.8891C26.1111 20.3855 25.4046 20.1026 24.6679 20.1026M24.6679 25.473V27.4869M24.6679 20.1026V18.0887M28.8776 20.4383L27.0734 21.4452M22.2637 24.1304L20.4582 25.1373M20.4582 20.4383L22.2637 21.4452M27.0734 24.1304L28.879 25.1373M12.1665 16.0748C12.1665 16.787 12.4592 17.47 12.9801 17.9735C13.501 18.4771 14.2076 18.76 14.9443 18.76C15.681 18.76 16.3875 18.4771 16.9085 17.9735C17.4294 17.47 17.7221 16.787 17.7221 16.0748C17.7221 15.3627 17.4294 14.6797 16.9085 14.1761C16.3875 13.6726 15.681 13.3896 14.9443 13.3896C14.2076 13.3896 13.501 13.6726 12.9801 14.1761C12.4592 14.6797 12.1665 15.3627 12.1665 16.0748Z" stroke="#224CDF" stroke-width="2" stroke-linecap="round" stroke-linejoin="round"/>
</svg>
