<svg width="21" height="22" viewBox="0 0 21 22" fill="none" xmlns="http://www.w3.org/2000/svg">
<path d="M12.5999 6.69366L7.97314 11.2297C7.53331 11.6647 7.29164 12.2592 7.30131 12.884C7.31449 13.5159 7.57476 14.1176 8.02631 14.5599C8.47943 15.0082 9.08964 15.2656 9.7216 15.2765C10.031 15.283 10.3385 15.2275 10.6261 15.1134C10.9137 14.9993 11.1756 14.8287 11.3964 14.6119L16.0219 10.0758C16.4582 9.64409 16.8023 9.12824 17.0333 8.55952C17.2643 7.9908 17.3773 7.38109 17.3655 6.76737C17.3401 5.50335 16.8204 4.29961 15.9179 3.41425C15.0129 2.5187 13.7979 2.00594 12.5249 1.98237C11.9069 1.97004 11.2925 2.08101 10.7178 2.30881C10.1431 2.53662 9.61962 2.87668 9.17785 3.30912L4.54872 7.84641C3.89466 8.49427 3.37889 9.26814 3.03266 10.1212C2.68643 10.9742 2.51693 11.8886 2.53443 12.809C2.57334 14.7046 3.35326 16.5095 4.70702 17.8369C6.06381 19.1799 7.8854 19.9492 9.7941 19.9853C10.7216 20.0047 11.6436 19.8387 12.5061 19.4972C13.3686 19.1556 14.1543 18.6454 14.8171 17.9964L19.4439 13.4579" stroke="#224CDF" stroke-width="1.4" stroke-linecap="round" stroke-linejoin="round"/>
</svg>
