<svg width="13" height="13" viewBox="0 0 13 13" fill="none" xmlns="http://www.w3.org/2000/svg">
<path fill-rule="evenodd" clip-rule="evenodd" d="M12.6244 1.61714C12.9677 1.27439 12.9679 0.718173 12.6249 0.37515C12.2819 0.0321261 11.7257 0.0323465 11.3829 0.375642L6.49991 5.26641L1.6169 0.375642C1.27415 0.0323469 0.717929 0.0321261 0.374905 0.37515C0.031882 0.718173 0.0321025 1.27439 0.375398 1.61714L5.26616 6.50016L0.375398 11.3832C0.0321028 11.7259 0.031882 12.2821 0.374906 12.6252C0.717929 12.9682 1.27415 12.968 1.6169 12.6247L6.49991 7.73391L11.3829 12.6247C11.7257 12.968 12.2819 12.9682 12.6249 12.6252C12.9679 12.2821 12.9677 11.7259 12.6244 11.3832L7.73366 6.50016L12.6244 1.61714Z" fill="#262626"/>
</svg>
