<svg width="11" height="10" viewBox="0 0 11 10" fill="none" xmlns="http://www.w3.org/2000/svg">
<path fillRule="evenodd" clipRule="evenodd" d="M9.87505 1.51252C10.1203 1.2677 10.1204 0.870403 9.8754 0.625386V0.625386C9.63038 0.380369 9.23308 0.380527 8.98826 0.625737L5.50039 4.11914L2.01252 0.625737C1.7677 0.380526 1.3704 0.380369 1.12539 0.625386V0.625386C0.880369 0.870403 0.880527 1.2677 1.12574 1.51252L4.61914 5.00039L1.12574 8.48826C0.880527 8.73308 0.880369 9.13038 1.12539 9.3754V9.3754C1.3704 9.62041 1.7677 9.62026 2.01252 9.37504L5.50039 5.88164L8.98826 9.37505C9.23308 9.62026 9.63038 9.62041 9.8754 9.3754V9.3754C10.1204 9.13038 10.1203 8.73308 9.87504 8.48826L6.38164 5.00039L9.87505 1.51252Z" fill="#F6F6F6"/>
</svg>
