<svg width="28" height="28" viewBox="0 0 28 28" fill="none" xmlns="http://www.w3.org/2000/svg">
<path d="M2.91699 14.0001C2.91699 8.77575 2.91699 6.16241 4.53983 4.53958C6.16266 2.91675 8.77483 2.91675 14.0003 2.91675C19.2247 2.91675 21.838 2.91675 23.4608 4.53958C25.0837 6.16241 25.0837 8.77458 25.0837 14.0001C25.0837 19.2244 25.0837 21.8377 23.4608 23.4606C21.838 25.0834 19.2258 25.0834 14.0003 25.0834C8.77599 25.0834 6.16266 25.0834 4.53983 23.4606C2.91699 21.8377 2.91699 19.2256 2.91699 14.0001Z" stroke="#262626" stroke-width="2.5" stroke-linecap="round" stroke-linejoin="round"/>
<path d="M20.426 7.5835H20.4143M19.25 14.0002C19.25 15.3925 18.6969 16.7279 17.7123 17.7125C16.7277 18.697 15.3924 19.2502 14 19.2502C12.6076 19.2502 11.2723 18.697 10.2877 17.7125C9.30312 16.7279 8.75 15.3925 8.75 14.0002C8.75 12.6078 9.30312 11.2724 10.2877 10.2879C11.2723 9.30329 12.6076 8.75016 14 8.75016C15.3924 8.75016 16.7277 9.30329 17.7123 10.2879C18.6969 11.2724 19.25 12.6078 19.25 14.0002Z" stroke="#262626" stroke-width="2.5" stroke-linecap="round" stroke-linejoin="round"/>
</svg>
