<svg width="15" height="15" viewBox="0 0 15 15" fill="none" xmlns="http://www.w3.org/2000/svg">
<path fillRule="evenodd" clipRule="evenodd" d="M4.6875 1.875C5.33941 1.87469 5.98181 2.03139 6.56035 2.33185C6.90544 2.51106 7.22175 2.73828 7.50036 3.00568C8.22978 2.30595 9.22097 1.875 10.3125 1.875C12.5561 1.875 14.375 3.69389 14.375 5.9375C14.375 7.89632 13.2275 9.68711 11.8894 11.0384C10.5452 12.3959 8.90132 13.4198 7.69708 13.82C7.56913 13.8625 7.43087 13.8625 7.30292 13.82C6.09868 13.4198 4.45476 12.3959 3.11058 11.0384C1.77248 9.68711 0.625 7.89632 0.625 5.9375C0.625 3.694 2.44405 1.87519 4.6875 1.875ZM5.98425 3.44117C5.58378 3.23319 5.1391 3.12475 4.68785 3.125C3.13459 3.125 1.875 4.38424 1.875 5.9375C1.875 7.41618 2.75877 8.90664 3.9988 10.1589C5.15283 11.3243 6.52303 12.1888 7.5 12.5631C8.47697 12.1888 9.84717 11.3243 11.0012 10.1589C12.2412 8.90664 13.125 7.41618 13.125 5.9375C13.125 4.38424 11.8658 3.125 10.3125 3.125C9.36184 3.125 8.52085 3.59619 8.01108 4.32038C7.89395 4.48678 7.70314 4.58574 7.49965 4.58563C7.29616 4.58551 7.10547 4.48634 6.98852 4.31982C6.72919 3.95053 6.38471 3.64915 5.98425 3.44117Z" fill="#F01A1A"/>
<path d="M4.68785 3.125C5.1391 3.12475 5.58378 3.23319 5.98425 3.44117C6.38471 3.64915 6.72919 3.95053 6.98852 4.31982C7.10547 4.48634 7.29616 4.58551 7.49965 4.58563C7.70314 4.58574 7.89395 4.48678 8.01108 4.32038C8.52085 3.59619 9.36184 3.125 10.3125 3.125C11.8658 3.125 13.125 4.38424 13.125 5.9375C13.125 7.41618 12.2412 8.90664 11.0012 10.1589C9.84717 11.3243 8.47697 12.1888 7.5 12.5631C6.52303 12.1888 5.15283 11.3243 3.9988 10.1589C2.75877 8.90664 1.875 7.41618 1.875 5.9375C1.875 4.38424 3.13459 3.125 4.68785 3.125Z" fill="#F01A1A"/>
</svg>
