<svg width="20" height="22" viewBox="0 0 20 22" fill="none" xmlns="http://www.w3.org/2000/svg">
<path d="M10.1198 21.8501C9.76781 21.8501 9.46819 21.7277 9.22095 21.483C8.97372 21.2382 8.8501 20.9419 8.8501 20.594V13.7729C8.8501 13.4255 8.97372 13.1291 9.22095 12.8839C9.46819 12.6391 9.76781 12.5168 10.1198 12.5168H11.2072V10.9612C11.2072 10.0948 11.5124 9.35976 12.1226 8.75621C12.7323 8.15213 13.4748 7.8501 14.3501 7.8501C15.2254 7.8501 15.9681 8.15213 16.5784 8.75621C17.1886 9.36028 17.4935 10.0953 17.493 10.9612V12.5168H18.5812C18.9321 12.5168 19.2315 12.6391 19.4792 12.8839C19.7265 13.1286 19.8501 13.4252 19.8501 13.7737V20.594C19.8501 20.9414 19.7265 21.2377 19.4792 21.483C19.232 21.7277 18.9326 21.8501 18.5812 21.8501H10.1198ZM10.1198 21.0723H18.5812C18.7221 21.0723 18.8378 21.0275 18.9285 20.9378C19.0191 20.8481 19.0644 20.7335 19.0644 20.594V13.7729C19.0644 13.6334 19.0191 13.5188 18.9285 13.4291C18.8378 13.3394 18.7221 13.2945 18.5812 13.2945H10.119C9.97812 13.2945 9.86236 13.3394 9.77174 13.4291C9.68112 13.5188 9.63581 13.6337 9.63581 13.7737V20.594C9.63581 20.7335 9.68112 20.8481 9.77174 20.9378C9.86236 21.0275 9.97838 21.0723 10.1198 21.0723ZM14.3501 18.3501C14.6817 18.3501 14.9609 18.2376 15.1877 18.0125C15.415 17.788 15.5287 17.5117 15.5287 17.1834C15.5287 16.8552 15.415 16.5788 15.1877 16.3543C14.9603 16.1298 14.6811 16.0173 14.3501 16.0168C14.0191 16.0162 13.7399 16.1288 13.5125 16.3543C13.2852 16.5788 13.1715 16.8552 13.1715 17.1834C13.1715 17.5117 13.2852 17.788 13.5125 18.0125C13.7393 18.2376 14.0185 18.3501 14.3501 18.3501ZM11.993 12.5168H16.7072V10.9612C16.7072 10.3131 16.4781 9.76213 16.0197 9.30843C15.5614 8.85473 15.0049 8.62788 14.3501 8.62788C13.6953 8.62788 13.1388 8.85473 12.6805 9.30843C12.2221 9.76213 11.993 10.3131 11.993 10.9612V12.5168Z" fill="#224CDF"/>
<path fill-rule="evenodd" clip-rule="evenodd" d="M8.85002 1.5499C7.02748 1.5499 5.55002 3.02736 5.55002 4.8499C5.55002 6.67244 7.02748 8.1499 8.85002 8.1499C10.6726 8.1499 12.15 6.67244 12.15 4.8499C12.15 3.02736 10.6726 1.5499 8.85002 1.5499ZM4.15002 4.8499C4.15002 2.25416 6.25428 0.149902 8.85002 0.149902C11.4458 0.149902 13.55 2.25416 13.55 4.8499C13.55 7.44564 11.4458 9.5499 8.85002 9.5499C6.25428 9.5499 4.15002 7.44564 4.15002 4.8499ZM2.85008 12.5579C4.42079 11.6744 6.54354 11.1499 8.85002 11.1499H8.8501V12.5499H8.85002C6.73849 12.5499 4.86124 13.0329 3.53645 13.7781C2.18969 14.5357 1.55002 15.4726 1.55002 16.3499C1.55002 17.6532 1.58764 18.4153 2.29204 18.989C2.67121 19.2978 3.29932 19.5946 4.3639 19.8101C5.42538 20.025 6.87408 20.1499 8.85002 20.1499C8.85004 20.1499 8.85007 20.1499 8.8501 20.1499V21.5499C8.85007 21.5499 8.85004 21.5499 8.85002 21.5499C6.82595 21.5499 5.27465 21.4229 4.08613 21.1823C2.90071 20.9423 2.02882 20.5802 1.40799 20.0746C0.147718 19.0482 0.148955 17.6124 0.14996 16.4472L0.150016 16.3499C0.150016 14.7422 1.30134 13.4291 2.85008 12.5579Z" fill="#224CDF"/>
</svg>
