<svg width="60" height="60" viewBox="0 0 60 60" fill="none" xmlns="http://www.w3.org/2000/svg">
<g filter="url(#filter0_d_1728_26237)">
<path d="M20.0025 10H40.0025V14.9925H45.0025V10C46.3281 10.0007 47.5993 10.5277 48.5364 11.4653C49.4736 12.403 50 13.6744 50 15V45C50 46.3256 49.4736 47.597 48.5364 48.5347C47.5993 49.4723 46.3281 49.9993 45.0025 50V44.9925H40.0025V50H20.0025V44.9925H15.0025V50C13.6764 50 12.4021 49.4732 11.4645 48.5355C10.5268 47.5979 10 46.3261 10 45V15C10 13.6739 10.5268 12.4021 11.4645 11.4645C12.4021 10.5268 13.6739 10 15 10L15.0025 14.9925H20.0025V10ZM25 37.5L36.25 30L25 22.5V37.5ZM45.0025 39.9925V32.4925H40.0025V39.9925H45.0025ZM45.0025 27.4925V19.9925H40.0025V27.4925H45.0025ZM20.0025 39.9925V32.4925H15.0025V39.9925H20.0025ZM20.0025 27.4925V19.9925H15.0025V27.4925H20.0025Z" fill="white"/>
</g>
<defs>
<filter id="filter0_d_1728_26237" x="-15.3" y="-18.3" width="90.6" height="90.6" filterUnits="userSpaceOnUse" color-interpolation-filters="sRGB">
<feFlood flood-opacity="0" result="BackgroundImageFix"/>
<feColorMatrix in="SourceAlpha" type="matrix" values="0 0 0 0 0 0 0 0 0 0 0 0 0 0 0 0 0 0 127 0" result="hardAlpha"/>
<feOffset dy="-3"/>
<feGaussianBlur stdDeviation="12.65"/>
<feComposite in2="hardAlpha" operator="out"/>
<feColorMatrix type="matrix" values="0 0 0 0 0 0 0 0 0 0 0 0 0 0 0 0 0 0 0.44 0"/>
<feBlend mode="normal" in2="BackgroundImageFix" result="effect1_dropShadow_1728_26237"/>
<feBlend mode="normal" in="SourceGraphic" in2="effect1_dropShadow_1728_26237" result="shape"/>
</filter>
</defs>
</svg>
