<svg width="60" height="60" viewBox="0 0 60 60" fill="none" xmlns="http://www.w3.org/2000/svg">
<g filter="url(#filter0_d_1728_26232)">
<path d="M58.1164 53.6834L49.9997 45.6167V14.5834L46.1664 7.53337C45.8836 6.99587 45.4593 6.54584 44.9394 6.2319C44.4195 5.91795 43.8237 5.75201 43.2164 5.75201C42.609 5.75201 42.0132 5.91795 41.4933 6.2319C40.9734 6.54584 40.5491 6.99587 40.2664 7.53337L36.6664 14.6V32.35L6.18304 2.01671C5.94992 1.78166 5.65208 1.62136 5.3275 1.55624C5.00292 1.49113 4.66631 1.52415 4.36057 1.65109C4.05483 1.77803 3.79382 1.99315 3.61082 2.26902C3.42781 2.54489 3.33111 2.869 3.33304 3.20004V16.6667H6.9497V19.3334H3.33304V30H6.9497V32.6667H3.33304V43.75H6.9497V46.4167H3.33304V54.8667C3.33304 55.3087 3.50863 55.7327 3.82119 56.0452C4.13375 56.3578 4.55768 56.5334 4.9997 56.5334H56.933C57.2641 56.5353 57.5882 56.4386 57.8641 56.2556C58.1399 56.0726 58.355 55.8116 58.482 55.5058C58.6089 55.2001 58.6419 54.8635 58.5768 54.5389C58.5117 54.2143 58.3514 53.9165 58.1164 53.6834ZM16.6664 43.3334V28.2334L31.783 43.3334H16.6664ZM46.6664 46.85H39.9997V42.8H46.6664V46.85ZM46.6664 40.1834H39.9997V15.4167L43.233 9.13337L46.6664 15.4334V40.1834Z" fill="white"/>
</g>
<defs>
<filter id="filter0_d_1728_26232" x="-21.967" y="-26.7763" width="105.876" height="105.61" filterUnits="userSpaceOnUse" color-interpolation-filters="sRGB">
<feFlood flood-opacity="0" result="BackgroundImageFix"/>
<feColorMatrix in="SourceAlpha" type="matrix" values="0 0 0 0 0 0 0 0 0 0 0 0 0 0 0 0 0 0 127 0" result="hardAlpha"/>
<feOffset dy="-3"/>
<feGaussianBlur stdDeviation="12.65"/>
<feComposite in2="hardAlpha" operator="out"/>
<feColorMatrix type="matrix" values="0 0 0 0 0 0 0 0 0 0 0 0 0 0 0 0 0 0 0.44 0"/>
<feBlend mode="normal" in2="BackgroundImageFix" result="effect1_dropShadow_1728_26232"/>
<feBlend mode="normal" in="SourceGraphic" in2="effect1_dropShadow_1728_26232" result="shape"/>
</filter>
</defs>
</svg>
