<svg width="60" height="60" viewBox="0 0 60 60" fill="none" xmlns="http://www.w3.org/2000/svg">
<g filter="url(#filter0_d_1728_26230)">
<path d="M24.4762 40.4315L24.4725 40.4203L23.76 40.1878C20.3713 38.99 17.3983 36.8436 15.195 34.004C13.4133 31.7097 12.1891 29.0328 11.6189 26.1844C11.0487 23.3361 11.1481 20.3942 11.9092 17.5908C12.6704 14.7874 14.0726 12.1992 16.005 10.0304C17.9375 7.86155 20.3475 6.17139 23.0449 5.09322C25.7423 4.01505 28.6533 3.57837 31.5483 3.81761C34.4433 4.05684 37.2431 4.96547 39.727 6.4718C42.2108 7.97813 44.3106 10.041 45.8609 12.4976C47.4111 14.9543 48.3693 17.7375 48.66 20.6278C48.7612 21.659 47.91 22.499 46.875 22.499C45.84 22.499 45.0112 21.6553 44.8875 20.6278C44.5528 17.9759 43.5156 15.4616 41.8832 13.3451C40.2508 11.2286 38.0824 9.58668 35.6026 8.58932C33.1227 7.59196 30.4214 7.27536 27.7781 7.67228C25.1348 8.0692 22.6456 9.16523 20.568 10.8469C18.4904 12.5287 16.9 14.735 15.9612 17.2376C15.0224 19.7402 14.7694 22.4483 15.2283 25.0815C15.6873 27.7147 16.8415 30.1775 18.5716 32.2149C20.3017 34.2524 22.5447 35.7906 25.0687 36.6703C25.7054 35.5091 26.7314 34.6097 27.9659 34.1306C29.2005 33.6515 30.5645 33.6233 31.8178 34.051C33.0711 34.4788 34.1334 35.335 34.8174 36.4689C35.5015 37.6028 35.7636 38.9417 35.5575 40.2499C35.3515 41.558 34.6905 42.7515 33.6909 43.6202C32.6914 44.4889 31.4174 44.9771 30.0933 44.9988C28.7692 45.0205 27.4798 44.5744 26.4524 43.7389C25.4249 42.9034 24.7251 41.7322 24.4762 40.4315ZM21.5025 43.3378C17.8298 41.8383 14.6188 39.3945 12.195 36.254C11.5789 37.178 11.2501 38.2636 11.25 39.374V41.249C11.25 48.6403 18.225 56.249 30 56.249C41.775 56.249 48.75 48.6403 48.75 41.249V39.374C48.75 37.8822 48.1574 36.4515 47.1025 35.3966C46.0476 34.3417 44.6168 33.749 43.125 33.749H37.5C38.2865 34.7995 38.8438 36.0033 39.1357 37.2827C39.4276 38.562 39.4477 39.8884 39.1946 41.176C38.9416 42.4636 38.421 43.6838 37.6667 44.7575C36.9123 45.8313 35.9409 46.7347 34.8154 47.4093C33.6898 48.084 32.4352 48.5148 31.1327 48.674C29.8301 48.8331 28.5086 48.717 27.2538 48.3333C25.9989 47.9495 24.8386 47.3065 23.8479 46.446C22.8572 45.5855 22.0581 44.5266 21.5025 43.3378ZM41.25 22.499C41.25 19.0715 39.7162 16.0003 37.2975 13.9378C36.1165 12.9375 34.7419 12.1916 33.2595 11.7468C31.7771 11.302 30.2189 11.1678 28.6823 11.3527C27.1457 11.5376 25.6637 12.0376 24.3292 12.8213C22.9946 13.6051 21.8361 14.6558 20.9262 15.9077C20.0162 17.1596 19.3743 18.5858 19.0407 20.0971C18.7071 21.6084 18.6889 23.1723 18.9873 24.6909C19.2856 26.2096 19.8941 27.6503 20.7747 28.9231C21.6553 30.1958 22.789 31.2732 24.105 32.0878C25.7725 30.736 27.8534 29.9973 30 29.9953C32.1457 29.9952 34.2265 30.7312 35.895 32.0803C37.5315 31.0735 38.8829 29.6643 39.8203 27.9871C40.7577 26.3098 41.2499 24.4205 41.25 22.499Z" fill="white"/>
</g>
<defs>
<filter id="filter0_d_1728_26230" x="-14.05" y="-24.5461" width="88.1" height="103.095" filterUnits="userSpaceOnUse" color-interpolation-filters="sRGB">
<feFlood flood-opacity="0" result="BackgroundImageFix"/>
<feColorMatrix in="SourceAlpha" type="matrix" values="0 0 0 0 0 0 0 0 0 0 0 0 0 0 0 0 0 0 127 0" result="hardAlpha"/>
<feOffset dy="-3"/>
<feGaussianBlur stdDeviation="12.65"/>
<feComposite in2="hardAlpha" operator="out"/>
<feColorMatrix type="matrix" values="0 0 0 0 0 0 0 0 0 0 0 0 0 0 0 0 0 0 0.44 0"/>
<feBlend mode="normal" in2="BackgroundImageFix" result="effect1_dropShadow_1728_26230"/>
<feBlend mode="normal" in="SourceGraphic" in2="effect1_dropShadow_1728_26230" result="shape"/>
</filter>
</defs>
</svg>
