<svg width="18" height="18" viewBox="0 0 18 18" fill="none" xmlns="http://www.w3.org/2000/svg">
<path d="M9.00041 7.40039L9.00041 1.00065M9.00041 1.00065L6.60042 3.40056M9.00041 1.00065L11.4004 3.40056" stroke="#262626" stroke-linecap="round" stroke-linejoin="round"/>
<path d="M1 9.80078H3.52798C4.25198 9.80078 4.61438 9.80078 4.93278 9.94717C5.25117 10.0936 5.48637 10.3688 5.95757 10.9183L6.44237 11.4831C6.91356 12.0327 7.14876 12.3079 7.46716 12.4543C7.78556 12.6007 8.14716 12.6007 8.87195 12.6007H9.12795C9.85195 12.6007 10.2143 12.6007 10.5327 12.4543C10.8511 12.3079 11.0863 12.0327 11.5575 11.4831L12.0423 10.9183C12.5135 10.3688 12.7487 10.0936 13.0671 9.94717C13.3855 9.80078 13.7471 9.80078 14.4719 9.80078H16.9999" stroke="#262626" stroke-linecap="round"/>
<path d="M1.0001 9.00159C1.0001 12.7726 1.0001 14.6582 2.17209 15.8301C3.34248 17.0013 5.22887 17.0013 9.00005 17.0013C12.7712 17.0013 14.6568 17.0013 15.8288 15.8301C17 14.6574 17 12.7726 17 9.00159C17 5.23054 17 3.34582 15.8288 2.17387C15.1752 1.5203 14.3008 1.23151 13 1.10352M5.00007 1.10352C3.70008 1.23151 2.82409 1.5203 2.17209 2.17387C1.3929 2.95224 1.1321 4.04739 1.0441 5.80172" stroke="#262626" stroke-linecap="round"/>
</svg>
