<svg width="27" height="27" viewBox="0 0 27 27" fill="none" xmlns="http://www.w3.org/2000/svg">
<path d="M24.5202 22.7294L19.5115 17.7185C21.0133 15.7615 21.7144 13.3066 21.4727 10.8516C21.231 8.39668 20.0645 6.1256 18.2099 4.49908C16.3552 2.87256 13.9514 2.0124 11.4859 2.09309C9.02038 2.17378 6.67788 3.18928 4.93358 4.93358C3.18928 6.67788 2.17378 9.02038 2.09309 11.4859C2.0124 13.9514 2.87256 16.3552 4.49908 18.2099C6.1256 20.0645 8.39668 21.231 10.8516 21.4727C13.3066 21.7144 15.7615 21.0133 17.7185 19.5115L22.7315 24.5255C22.8492 24.6432 22.989 24.7366 23.1428 24.8003C23.2966 24.864 23.4615 24.8968 23.628 24.8968C23.7945 24.8968 23.9593 24.864 24.1131 24.8003C24.267 24.7366 24.4067 24.6432 24.5244 24.5255C24.6422 24.4078 24.7356 24.268 24.7993 24.1142C24.863 23.9604 24.8958 23.7955 24.8958 23.629C24.8958 23.4625 24.863 23.2977 24.7993 23.1438C24.7356 22.99 24.6422 22.8503 24.5244 22.7325L24.5202 22.7294ZM4.64042 11.8123C4.64042 10.3938 5.06104 9.00722 5.8491 7.82781C6.63715 6.64841 7.75725 5.72917 9.06774 5.18635C10.3782 4.64352 11.8203 4.5015 13.2115 4.77823C14.6027 5.05495 15.8806 5.73801 16.8836 6.74101C17.8866 7.74402 18.5696 9.02192 18.8464 10.4131C19.1231 11.8043 18.9811 13.2464 18.4382 14.5569C17.8954 15.8673 16.9762 16.9874 15.7968 17.7755C14.6174 18.5635 13.2308 18.9842 11.8123 18.9842C9.9108 18.9822 8.08774 18.226 6.74317 16.8814C5.39861 15.5369 4.64237 13.7138 4.64042 11.8123Z" fill="#4D4D4D"/>
</svg>
