<svg width="1200" height="630" viewBox="0 0 1200 630" fill="none" xmlns="http://www.w3.org/2000/svg">
<g clip-path="url(#clip0_24_321)">
<rect width="1200" height="630" rx="80" fill="white"/>
<path d="M847.843 411.612C847.906 418.355 842.457 423.855 835.713 423.855H825.285C818.63 423.855 813.218 418.493 813.155 411.839L811.248 208.096H739.445C732.745 208.096 727.314 202.665 727.314 195.966V193.384C727.314 186.684 732.745 181.254 739.445 181.254H921.396C928.095 181.254 933.526 186.684 933.526 193.384V195.966C933.526 202.665 928.095 208.096 921.396 208.096H845.938L847.843 411.612Z" fill="#1A56DB"/>
<path d="M690.913 411.725C690.913 418.424 685.483 423.855 678.783 423.855H547.374C540.675 423.855 535.244 418.424 535.244 411.725V193.384C535.244 186.684 540.675 181.254 547.374 181.254H678.783C685.483 181.254 690.913 186.684 690.913 193.384V195.966C690.913 202.665 685.483 208.096 678.783 208.096H570.358V283.867H671.761C678.46 283.867 683.891 289.297 683.891 295.997V298.239C683.891 304.938 678.46 310.369 671.761 310.369H570.358V397.013H678.783C685.483 397.013 690.913 402.443 690.913 409.143V411.725Z" fill="#1A56DB"/>
<path d="M472.589 359.252C472.589 373.824 468.605 386.233 460.638 396.479C452.671 406.498 441.234 414.239 426.328 419.704C411.679 425.168 394.331 427.901 374.284 427.901C364.004 427.901 354.109 427.445 344.6 426.534C335.348 425.624 326.867 424.371 319.157 422.778C314.526 421.684 310.22 420.466 306.239 419.126C301.623 417.572 298.725 413.124 298.725 408.254V404.729C298.725 396.175 307.392 390.198 315.624 392.519C320.966 394.025 326.769 395.459 333.035 396.821C346.913 399.781 361.177 401.261 375.826 401.261C389.448 401.261 400.884 399.667 410.137 396.479C419.389 393.291 426.328 388.738 430.954 382.818C435.58 376.898 437.893 369.953 437.893 361.984C437.893 354.015 435.966 347.298 432.111 341.833C428.255 336.369 421.573 331.359 412.064 326.806C402.812 322.024 389.833 317.015 373.128 311.778C361.306 307.907 350.897 303.809 341.902 299.483C333.163 294.929 325.839 289.806 319.928 284.113C314.016 278.421 309.519 271.932 306.435 264.646C303.608 257.36 302.194 248.935 302.194 239.372C302.194 226.394 305.921 215.351 313.374 206.243C320.827 196.908 331.107 189.735 344.215 184.726C357.579 179.717 372.871 177.212 390.09 177.212C405.253 177.212 419.132 178.465 431.725 180.969C439.79 182.573 447.38 184.504 454.496 186.762C460.927 188.802 463.945 195.968 461.383 202.21L459.739 206.213C457.238 212.307 450.337 215.26 444.054 213.279C437.722 211.283 431.042 209.507 424.015 207.951C412.964 205.446 401.398 204.194 389.319 204.194C377.754 204.194 368.116 205.674 360.406 208.634C352.696 211.594 346.913 215.806 343.058 221.271C339.203 226.508 337.275 232.655 337.275 239.714C337.275 247.911 339.203 254.741 343.058 260.206C346.913 265.67 353.21 270.566 361.948 274.892C370.686 279.218 382.508 283.886 397.415 288.895C413.606 294.132 427.227 299.824 438.279 305.972C449.587 311.892 458.068 319.064 463.722 327.489C469.633 335.913 472.589 346.501 472.589 359.252Z" fill="#1A56DB"/>
<path d="M435.683 81.9941C438.644 79.3299 438.094 74.343 434.355 72.8489C404.314 60.845 316.191 25.3798 297.137 17.7104C294.964 16.8357 292.557 17.5071 291.211 19.3874C278.95 36.5083 220.09 119.729 192.354 177.691C190.404 181.765 194.743 186.199 199.265 185.581C216.162 183.274 225.527 193.634 231.824 202.748C234.42 206.505 239.585 205.134 240.446 200.691C256.06 120.064 382.155 96.7143 427.113 108.829C430.105 109.635 433.405 107.909 432.755 104.909C431.093 97.2366 423.096 93.3175 435.683 81.9941Z" fill="#1A56DB"/>
<path d="M285.738 201.391C307.629 163.683 374.429 151.949 408.831 155.71C417.757 156.686 428.275 150.824 426.39 142.127C424.674 134.213 421.621 126.787 418.352 123.431C417.815 122.879 417.189 122.481 416.491 122.148C375.02 102.369 237.384 157.352 259.359 195.495C260.394 197.29 261.918 200.669 263.952 204.678C268.596 213.834 280.619 210.208 285.738 201.391Z" fill="#1A56DB"/>
<path d="M198.471 183.026C209.672 246.709 136.89 243.676 184.401 285.121" stroke="#1A56DB" stroke-width="10.1084" stroke-linecap="round"/>
<g clip-path="url(#clip1_24_321)">
<path d="M389.77 454.846C518.147 446.759 575.765 513.475 614.177 577.157C627.318 551.886 651.578 515.496 695.044 487.193C698.103 486.046 701.196 484.176 704.954 481.905C721.077 472.165 749.425 455.037 839.594 455.857C865.091 453.944 915.506 466.101 953.839 475.343C976.296 480.757 994.606 485.171 1001.33 485.171C1004.31 485.629 1007.42 486.057 1010.55 486.486C1024.43 488.386 1038.65 490.331 1042.77 495.279C1048.84 500.334 1048.84 507.41 1042.77 542.789C1045.27 545.993 1048.76 548.069 1052.07 550.033C1058.15 553.642 1063.59 556.872 1060.97 566.038C1053.8 574.398 978.906 572.175 912.552 570.206C886.456 569.431 879.835 569.537 866.411 569.75C856.188 569.912 842.02 570.135 812.301 570.082C747.48 569.964 715.629 585.168 683.684 600.418C681.751 601.341 679.817 602.265 677.876 603.184C654.669 614.181 634.67 623.656 614.175 623.656C597.284 623.656 579.333 615.012 557.818 604.651C527.833 590.211 490.925 572.436 440.31 570.082C429.612 568.847 384.409 569.455 334.02 570.133C260.623 571.12 176.223 572.255 171.429 568.06C157.545 556.027 175.868 547.383 183.713 543.683C184.435 543.343 185.07 543.044 185.581 542.789C174.462 498.312 187.602 493.258 187.602 493.258C188.418 492.647 196.11 491.266 207.014 489.309C218.869 487.181 234.521 484.371 249.264 481.128C256.654 479.502 264.475 477.743 272.525 475.933C315.123 466.357 364.14 455.339 389.77 454.846ZM647.54 602.772C646.53 601.761 581.836 601.761 580.825 602.772C579.818 603.785 592.945 614.902 614.177 614.902C635.408 614.902 648.547 603.785 647.54 602.772ZM899.816 499.569C803.729 478.603 733.836 463.354 633.389 589.631C632.41 594.1 633.366 595.13 639.454 592.663C738.015 466.041 817.905 486.33 904.185 508.241C945.33 518.689 987.926 529.507 1034.69 524.937C1037.36 522.411 1037.74 521.064 1034.69 518.872C982.769 517.671 939.103 508.142 899.816 499.569ZM575.771 592.663C482.774 483.493 429.68 495.524 345.299 515.84C304.782 525.594 257.016 536.056 195.695 536.056C193.517 537.025 193.341 537.965 196.706 541.111C257.804 543.193 303.007 534.527 341.728 527.105C342.571 526.922 343.416 526.74 344.261 526.556L344.298 526.546C404.789 513.386 471.046 498.973 570.717 592.663C573.749 594.685 576.78 593.674 575.771 592.663ZM881.337 514.734C800.062 495.526 749.496 483.576 652.595 590.642C652.649 593.518 653.775 594.015 656.638 593.674C755.731 501.463 808.915 511.376 889.857 526.465C927.814 533.541 971.876 541.756 1029.64 541.111C1034.39 539.513 1034.69 538.118 1032.67 535.046C968.694 535.379 921.304 524.179 881.337 514.734ZM595.988 590.642C493.23 463.418 424.311 479.016 333.402 499.591C292.852 508.769 247.928 518.937 193.673 517.861C190.84 520.636 190.881 522.413 193.673 525.948C258.272 526.322 307.182 514.766 348.693 504.957C435.796 484.377 490.333 471.492 588.912 592.663C592.547 593.969 594.247 593.629 595.988 590.642ZM553.532 592.663C466.285 513.886 410.64 524.644 339.27 538.443C325.471 541.111 311.085 543.895 295.768 546.165C341.538 541.927 408.875 550.14 428.271 552.506C430.032 552.721 431.399 552.889 432.317 552.994C433.216 553.097 434.455 553.21 435.994 553.351C453.328 554.942 508.973 560.047 553.532 592.663ZM931.586 545.154C931.586 545.154 829.492 517.861 782.993 531.002C734.473 539.089 674.833 586.598 673.822 592.663C741.607 552.422 800.177 545.154 931.586 545.154ZM949.074 485.901C834.596 459.731 713.714 432.096 624.291 579.523C623.533 583.352 624.332 583.465 627.324 580.533C727.554 450.863 810.777 469.914 903.273 491.09C944.171 500.453 986.883 510.232 1033.68 507.753C1037.81 506.641 1037.79 505.478 1034.69 502.699C1006.98 499.14 978.239 492.568 949.074 485.901ZM604.074 580.533C517.767 432.191 393.876 458.963 249.473 490.168C231.516 494.048 213.243 497.999 194.684 501.688C190.374 504.685 189.923 506.242 194.684 508.764C210.5 507.007 224.36 506.01 236.903 505.109C260.434 503.419 279.327 502.064 297.79 496.634C303.034 495.408 308.231 494.172 313.385 492.948C414.526 468.916 499.137 448.812 602.053 581.544C603.561 582.571 603.979 582.478 604.074 580.533Z" fill="#1A56DB"/>
</g>
</g>
<defs>
<clipPath id="clip0_24_321">
<rect width="1200" height="630" rx="80" fill="white"/>
</clipPath>
<clipPath id="clip1_24_321">
<rect width="895.604" height="169.821" fill="white" transform="translate(166.381 454.177)"/>
</clipPath>
</defs>
</svg>
