<svg width="25" height="25" viewBox="0 0 25 25" fill="none" xmlns="http://www.w3.org/2000/svg">
<path fill-rule="evenodd" clip-rule="evenodd" d="M6.78588 4.46484C7.01489 4.46484 7.22382 4.55145 7.3823 4.69342L7.46177 4.77109L10.6185 7.92779C10.7859 8.09521 10.8801 8.3223 10.8801 8.5591C10.8801 8.79591 10.7861 9.02304 10.6187 9.19051C10.4513 9.35799 10.2242 9.4521 9.98737 9.45214C9.75057 9.45218 9.52344 9.35815 9.35597 9.19074L7.67829 7.51306V19.6434C7.67829 19.8802 7.58422 20.1073 7.41678 20.2748C7.24933 20.4422 7.02223 20.5363 6.78543 20.5363C6.54863 20.5363 6.32153 20.4422 6.15408 20.2748C5.98664 20.1073 5.89257 19.8802 5.89257 19.6434V7.50056L4.20284 9.19074C4.11991 9.27363 4.02147 9.33938 3.91314 9.38424C3.8048 9.42909 3.68869 9.45216 3.57143 9.45214C3.45418 9.45212 3.33808 9.42901 3.22975 9.38412C3.12143 9.33923 3.02301 9.27344 2.94012 9.19051C2.85722 9.10759 2.79147 9.00914 2.74662 8.90081C2.70176 8.79247 2.67869 8.67636 2.67871 8.5591C2.67875 8.3223 2.77286 8.09521 2.94034 7.92779L6.09659 4.77154L6.15106 4.72109L6.2082 4.67645C6.364 4.54431 6.56579 4.46484 6.78588 4.46484ZM20.9823 17.8577C21.2191 17.8577 21.4462 17.9518 21.6137 18.1192C21.7811 18.2867 21.8752 18.5138 21.8752 18.7506C21.8752 18.9874 21.7811 19.2145 21.6137 19.3819C21.4462 19.5493 21.2191 19.6434 20.9823 19.6434H10.268C10.0312 19.6434 9.80412 19.5493 9.63667 19.3819C9.46923 19.2145 9.37516 18.9874 9.37516 18.7506C9.37516 18.5138 9.46923 18.2867 9.63667 18.1192C9.80412 17.9518 10.0312 17.8577 10.268 17.8577H20.9823ZM17.4109 14.2863C17.6477 14.2863 17.8748 14.3803 18.0422 14.5478C18.2097 14.7152 18.3037 14.9423 18.3037 15.1791C18.3037 15.4159 18.2097 15.643 18.0422 15.8105C17.8748 15.9779 17.6477 16.072 17.4109 16.072H10.268C10.0312 16.072 9.80412 15.9779 9.63667 15.8105C9.46923 15.643 9.37516 15.4159 9.37516 15.1791C9.37516 14.9423 9.46923 14.7152 9.63667 14.5478C9.80412 14.3803 10.0312 14.2863 10.268 14.2863H17.4109ZM13.8394 10.7148C14.0762 10.7148 14.3034 10.8089 14.4708 10.9764C14.6382 11.1438 14.7323 11.3709 14.7323 11.6077C14.7323 11.8445 14.6382 12.0716 14.4708 12.239C14.3034 12.4065 14.0762 12.5006 13.8394 12.5006H10.268C10.0312 12.5006 9.80412 12.4065 9.63667 12.239C9.46923 12.0716 9.37516 11.8445 9.37516 11.6077C9.37516 11.3709 9.46923 11.1438 9.63667 10.9764C9.80412 10.8089 10.0312 10.7148 10.268 10.7148H13.8394Z" fill="#262626"/>
</svg>
