<svg width="28" height="28" viewBox="0 0 28 28" fill="none" xmlns="http://www.w3.org/2000/svg">
<path fillRule="evenodd" clipRule="evenodd" d="M25.4804 7.06533C25.5313 6.75654 25.4984 6.43974 25.3853 6.14796C25.2721 5.85617 25.0828 5.60008 24.837 5.40635C24.5912 5.21262 24.2979 5.08835 23.9878 5.04649C23.6776 5.00463 23.3619 5.0467 23.0736 5.16833L3.12356 13.5683C1.7329 14.154 1.66173 16.1653 3.12356 16.772C4.57126 17.3752 6.03985 17.927 7.52657 18.4263C8.88923 18.8767 10.3756 19.2932 11.5667 19.411C11.8922 19.8007 12.3017 20.1763 12.7194 20.5193C13.3576 21.0443 14.1252 21.5845 14.9186 22.1025C16.5076 23.1408 18.2704 24.1337 19.4581 24.78C20.8779 25.55 22.5777 24.6633 22.8321 23.1152L25.4804 7.06533ZM5.36006 15.1585L23.0047 7.72917L20.5337 22.7092C19.3682 22.0757 17.6894 21.1272 16.1937 20.1495C15.5044 19.7069 14.8389 19.2283 14.1999 18.7157C14.0291 18.5761 13.8634 18.4306 13.7029 18.2793L18.3241 13.6593C18.543 13.4406 18.666 13.1438 18.6661 12.8343C18.6662 12.5248 18.5434 12.228 18.3246 12.0091C18.1059 11.7902 17.8091 11.6671 17.4996 11.667C17.1902 11.6669 16.8933 11.7897 16.6744 12.0085L11.6146 17.0683C10.7582 16.9587 9.5659 16.6413 8.2569 16.2097C7.2824 15.885 6.31682 15.5341 5.36123 15.1573L5.36006 15.1585Z" fill="#262626"/>
</svg>
