<svg width="30" height="30" viewBox="0 0 30 30" fill="none" xmlns="http://www.w3.org/2000/svg">
<path fill-rule="evenodd" clip-rule="evenodd" d="M26.375 10.0052C26.3042 10.001 26.2288 9.99938 26.1488 10.0002H22.9925C20.4075 10.0002 18.1963 12.0352 18.1963 14.6877C18.1963 17.3402 20.4088 19.3752 22.9925 19.3752H26.1488C26.2288 19.376 26.3046 19.3744 26.3763 19.3702C26.9076 19.3382 27.4091 19.1141 27.7874 18.7397C28.1657 18.3653 28.395 17.8661 28.4325 17.3352C28.4375 17.2602 28.4375 17.179 28.4375 17.104V12.2715C28.4375 12.1965 28.4375 12.1152 28.4325 12.0402C28.395 11.5093 28.1657 11.0101 27.7874 10.6357C27.4091 10.2613 26.9063 10.0372 26.375 10.0052ZM22.7163 15.9377C23.3813 15.9377 23.92 15.3777 23.92 14.6877C23.92 13.9977 23.3813 13.4377 22.7163 13.4377C22.05 13.4377 21.5113 13.9977 21.5113 14.6877C21.5113 15.3777 22.05 15.9377 22.7163 15.9377Z" fill="#224CDF"/>
<path fill-rule="evenodd" clip-rule="evenodd" d="M26.1475 21.25C26.1907 21.2483 26.2337 21.2567 26.2731 21.2748C26.3124 21.2928 26.3469 21.3198 26.3738 21.3536C26.4007 21.3875 26.4193 21.4272 26.4279 21.4696C26.4366 21.512 26.4352 21.5558 26.4237 21.5975C26.1737 22.4875 25.775 23.2475 25.1362 23.885C24.2 24.8225 23.0138 25.2362 21.5487 25.4338C20.1238 25.625 18.305 25.625 16.0075 25.625H13.3675C11.07 25.625 9.25 25.625 7.82625 25.4338C6.36125 25.2362 5.175 24.8212 4.23875 23.8862C3.30375 22.95 2.88875 21.7638 2.69125 20.2987C2.5 18.8738 2.5 17.055 2.5 14.7575V14.6175C2.5 12.32 2.5 10.5 2.69125 9.075C2.88875 7.61 3.30375 6.42375 4.23875 5.4875C5.175 4.5525 6.36125 4.1375 7.82625 3.94C9.25125 3.75 11.07 3.75 13.3675 3.75H16.0075C18.305 3.75 20.125 3.75 21.5487 3.94125C23.0138 4.13875 24.2 4.55375 25.1362 5.48875C25.775 6.12875 26.1737 6.8875 26.4237 7.7775C26.4352 7.81921 26.4366 7.86303 26.4279 7.9054C26.4193 7.94777 26.4007 7.9875 26.3738 8.02135C26.3469 8.05521 26.3124 8.08224 26.2731 8.10025C26.2337 8.11826 26.1907 8.12674 26.1475 8.125H22.9925C19.4462 8.125 16.3212 10.925 16.3212 14.6875C16.3212 18.45 19.4462 21.25 22.9925 21.25H26.1475ZM7.1875 8.75C6.93886 8.75 6.7004 8.84877 6.52459 9.02459C6.34877 9.2004 6.25 9.43886 6.25 9.6875C6.25 9.93614 6.34877 10.1746 6.52459 10.3504C6.7004 10.5262 6.93886 10.625 7.1875 10.625H12.1875C12.4361 10.625 12.6746 10.5262 12.8504 10.3504C13.0262 10.1746 13.125 9.93614 13.125 9.6875C13.125 9.43886 13.0262 9.2004 12.8504 9.02459C12.6746 8.84877 12.4361 8.75 12.1875 8.75H7.1875Z" fill="#224CDF"/>
</svg>
