<svg width="15" height="14" viewBox="0 0 15 14" fill="none" xmlns="http://www.w3.org/2000/svg">
<path d="M6.80039 3.36261C6.03719 2.99102 5.19924 2.79853 4.35039 2.79981C3.47189 2.79981 2.64029 3.00281 1.90039 3.36261V10.3626C2.6636 9.99105 3.50154 9.79856 4.35039 9.79981C5.51869 9.79981 6.60299 10.1568 7.50039 10.7693C8.42864 10.136 9.52666 9.79803 10.6504 9.79981C11.5289 9.79981 12.3605 10.0028 13.1004 10.3626V3.36261C12.3372 2.99102 11.4992 2.79853 10.6504 2.79981C9.77189 2.79981 8.94029 3.00281 8.20039 3.36261V8.39981C8.20039 8.58546 8.12664 8.76351 7.99537 8.89479C7.86409 9.02606 7.68604 9.09981 7.50039 9.09981C7.31474 9.09981 7.13669 9.02606 7.00542 8.89479C6.87414 8.76351 6.80039 8.58546 6.80039 8.39981V3.36261Z" fill="#03543F"/>
</svg>
