<svg width="28" height="28" viewBox="0 0 28 28" fill="none" xmlns="http://www.w3.org/2000/svg">
<rect width="28" height="28" rx="14" fill="white"/>
<path d="M17.586 7.58592C17.7705 7.3949 17.9912 7.24253 18.2352 7.13772C18.4792 7.0329 18.7416 6.97772 19.0072 6.97542C19.2728 6.97311 19.5361 7.02371 19.7819 7.12427C20.0277 7.22484 20.251 7.37334 20.4388 7.56113C20.6266 7.74891 20.7751 7.97222 20.8756 8.21801C20.9762 8.4638 21.0268 8.72716 21.0245 8.99272C21.0222 9.25828 20.967 9.52072 20.8622 9.76473C20.7574 10.0087 20.605 10.2294 20.414 10.4139L19.621 11.2069L16.793 8.37892L17.586 7.58592ZM15.379 9.79292L7 18.1719V20.9999H9.828L18.208 12.6209L15.378 9.79292H15.379Z" fill="#9CA3AF"/>
</svg>
