<svg width="16" height="16" viewBox="0 0 16 16" fill="none" xmlns="http://www.w3.org/2000/svg">
<path fill-rule="evenodd" clip-rule="evenodd" d="M4.79961 1.6001C4.58744 1.6001 4.38395 1.68438 4.23392 1.83441C4.08389 1.98444 3.99961 2.18792 3.99961 2.4001V3.2001H3.19961C2.77526 3.2001 2.3683 3.36867 2.06824 3.66873C1.76818 3.96878 1.59961 4.37575 1.59961 4.8001V12.8001C1.59961 13.2244 1.76818 13.6314 2.06824 13.9315C2.3683 14.2315 2.77526 14.4001 3.19961 14.4001H12.7996C13.224 14.4001 13.6309 14.2315 13.931 13.9315C14.231 13.6314 14.3996 13.2244 14.3996 12.8001V4.8001C14.3996 4.37575 14.231 3.96878 13.931 3.66873C13.6309 3.36867 13.224 3.2001 12.7996 3.2001H11.9996V2.4001C11.9996 2.18792 11.9153 1.98444 11.7653 1.83441C11.6153 1.68438 11.4118 1.6001 11.1996 1.6001C10.9874 1.6001 10.784 1.68438 10.6339 1.83441C10.4839 1.98444 10.3996 2.18792 10.3996 2.4001V3.2001H5.59961V2.4001C5.59961 2.18792 5.51532 1.98444 5.36529 1.83441C5.21527 1.68438 5.01178 1.6001 4.79961 1.6001ZM4.79961 5.6001C4.58744 5.6001 4.38395 5.68438 4.23392 5.83441C4.08389 5.98444 3.99961 6.18792 3.99961 6.4001C3.99961 6.61227 4.08389 6.81575 4.23392 6.96578C4.38395 7.11581 4.58744 7.2001 4.79961 7.2001H11.1996C11.4118 7.2001 11.6153 7.11581 11.7653 6.96578C11.9153 6.81575 11.9996 6.61227 11.9996 6.4001C11.9996 6.18792 11.9153 5.98444 11.7653 5.83441C11.6153 5.68438 11.4118 5.6001 11.1996 5.6001H4.79961Z" fill="#6B7280"/>
</svg>
