<svg width="15" height="14" viewBox="0 0 15 14" fill="none" xmlns="http://www.w3.org/2000/svg">
<path d="M6.79961 1.3999C6.61396 1.3999 6.43591 1.47365 6.30463 1.60493C6.17336 1.7362 6.09961 1.91425 6.09961 2.0999C6.09961 2.28555 6.17336 2.4636 6.30463 2.59488C6.43591 2.72615 6.61396 2.7999 6.79961 2.7999H8.19961C8.38526 2.7999 8.56331 2.72615 8.69458 2.59488C8.82586 2.4636 8.89961 2.28555 8.89961 2.0999C8.89961 1.91425 8.82586 1.7362 8.69458 1.60493C8.56331 1.47365 8.38526 1.3999 8.19961 1.3999H6.79961Z" fill="#03543F"/>
<path fill-rule="evenodd" clip-rule="evenodd" d="M3.2998 3.5001C3.2998 3.12879 3.4473 2.7727 3.70986 2.51015C3.97241 2.2476 4.3285 2.1001 4.6998 2.1001C4.6998 2.65705 4.92105 3.1912 5.31488 3.58502C5.70871 3.97885 6.24285 4.2001 6.7998 4.2001H8.1998C8.75676 4.2001 9.2909 3.97885 9.68473 3.58502C10.0786 3.1912 10.2998 2.65705 10.2998 2.1001C10.6711 2.1001 11.0272 2.2476 11.2898 2.51015C11.5523 2.7727 11.6998 3.12879 11.6998 3.5001V11.2001C11.6998 11.5714 11.5523 11.9275 11.2898 12.19C11.0272 12.4526 10.6711 12.6001 10.2998 12.6001H4.6998C4.3285 12.6001 3.97241 12.4526 3.70986 12.19C3.4473 11.9275 3.2998 11.5714 3.2998 11.2001V3.5001ZM10.0947 7.495C10.2222 7.36298 10.2928 7.18615 10.2912 7.00262C10.2896 6.81908 10.216 6.64351 10.0862 6.51372C9.95639 6.38394 9.78082 6.31032 9.59729 6.30873C9.41375 6.30713 9.23693 6.37769 9.1049 6.5052L6.7998 8.8103L5.8947 7.9052C5.76268 7.77769 5.58586 7.70713 5.40232 7.70873C5.21879 7.71032 5.04322 7.78394 4.91343 7.91372C4.78365 8.04351 4.71003 8.21908 4.70843 8.40262C4.70684 8.58615 4.77739 8.76298 4.9049 8.895L6.3049 10.295C6.43617 10.4262 6.61419 10.4999 6.7998 10.4999C6.98542 10.4999 7.16343 10.4262 7.2947 10.295L10.0947 7.495Z" fill="#03543F"/>
</svg>
