<svg width="15" height="14" viewBox="0 0 15 14" fill="none" xmlns="http://www.w3.org/2000/svg">
<path d="M8.19961 11.9C8.19967 12.0193 8.23021 12.1366 8.28833 12.2407C8.34645 12.3449 8.43022 12.4325 8.53169 12.4952C8.63315 12.5578 8.74896 12.5936 8.86811 12.5989C8.98727 12.6043 9.10581 12.5791 9.21251 12.5258L12.0125 11.1258C12.1288 11.0677 12.2266 10.9784 12.2949 10.8679C12.3633 10.7574 12.3995 10.63 12.3996 10.5V6.46522C12.3995 6.34594 12.369 6.22866 12.3109 6.12451C12.2528 6.02035 12.169 5.93277 12.0675 5.87008C11.9661 5.80739 11.8503 5.77167 11.7311 5.7663C11.612 5.76093 11.4934 5.7861 11.3867 5.83942L8.58671 7.23942C8.47045 7.29751 8.37266 7.38682 8.3043 7.49735C8.23593 7.60788 8.19968 7.73525 8.19961 7.86522V11.9ZM11.1473 4.39322C11.2634 4.33502 11.3611 4.24566 11.4293 4.13514C11.4975 4.02463 11.5337 3.8973 11.5337 3.76742C11.5337 3.63753 11.4975 3.51021 11.4293 3.39969C11.3611 3.28917 11.2634 3.19981 11.1473 3.14162L7.81251 1.47422C7.71535 1.42567 7.60822 1.40039 7.49961 1.40039C7.39099 1.40039 7.28387 1.42567 7.18671 1.47422L3.85191 3.14162C3.73579 3.19981 3.63816 3.28917 3.56993 3.39969C3.50169 3.51021 3.46556 3.63753 3.46556 3.76742C3.46556 3.8973 3.50169 4.02463 3.56993 4.13514C3.63816 4.24566 3.73579 4.33502 3.85191 4.39322L7.18671 6.06062C7.28387 6.10917 7.39099 6.13444 7.49961 6.13444C7.60822 6.13444 7.71535 6.10917 7.81251 6.06062L11.1473 4.39322ZM3.61251 5.83942C3.50581 5.7861 3.38727 5.76093 3.26811 5.7663C3.14896 5.77167 3.03315 5.80739 2.93169 5.87008C2.83022 5.93277 2.74645 6.02035 2.68833 6.12451C2.63021 6.22866 2.59967 6.34594 2.59961 6.46522V10.5C2.59968 10.63 2.63593 10.7574 2.7043 10.8679C2.77266 10.9784 2.87045 11.0677 2.98671 11.1258L5.78671 12.5258C5.8934 12.5791 6.01195 12.6043 6.1311 12.5989C6.25026 12.5936 6.36606 12.5578 6.46753 12.4952C6.569 12.4325 6.65277 12.3449 6.71089 12.2407C6.76901 12.1366 6.79955 12.0193 6.79961 11.9V7.86522C6.79954 7.73525 6.76329 7.60788 6.69492 7.49735C6.62655 7.38682 6.52877 7.29751 6.41251 7.23942L3.61251 5.83942Z" fill="#99154B"/>
</svg>
