<svg width="14" height="14" viewBox="0 0 14 14" fill="none" xmlns="http://www.w3.org/2000/svg">
<path fill-rule="evenodd" clip-rule="evenodd" d="M2.7998 2.7999C2.7998 2.4286 2.9473 2.0725 3.20986 1.80995C3.47241 1.5474 3.8285 1.3999 4.1998 1.3999H7.41001C7.78128 1.39998 8.13731 1.54753 8.3998 1.8101L10.7896 4.1999C11.0522 4.46239 11.1997 4.81843 11.1998 5.1897V11.1999C11.1998 11.5712 11.0523 11.9273 10.7898 12.1899C10.5272 12.4524 10.1711 12.5999 9.7998 12.5999H4.1998C3.8285 12.5999 3.47241 12.4524 3.20986 12.1899C2.9473 11.9273 2.7998 11.5712 2.7998 11.1999V2.7999ZM4.1998 6.9999C4.1998 6.81425 4.27355 6.6362 4.40483 6.50493C4.53611 6.37365 4.71415 6.2999 4.8998 6.2999H9.0998C9.28546 6.2999 9.4635 6.37365 9.59478 6.50493C9.72605 6.6362 9.7998 6.81425 9.7998 6.9999C9.7998 7.18555 9.72605 7.3636 9.59478 7.49488C9.4635 7.62615 9.28546 7.6999 9.0998 7.6999H4.8998C4.71415 7.6999 4.53611 7.62615 4.40483 7.49488C4.27355 7.3636 4.1998 7.18555 4.1998 6.9999ZM4.8998 9.0999C4.71415 9.0999 4.53611 9.17365 4.40483 9.30493C4.27355 9.4362 4.1998 9.61425 4.1998 9.7999C4.1998 9.98555 4.27355 10.1636 4.40483 10.2949C4.53611 10.4262 4.71415 10.4999 4.8998 10.4999H9.0998C9.28546 10.4999 9.4635 10.4262 9.59478 10.2949C9.72605 10.1636 9.7998 9.98555 9.7998 9.7999C9.7998 9.61425 9.72605 9.4362 9.59478 9.30493C9.4635 9.17365 9.28546 9.0999 9.0998 9.0999H4.8998Z" fill="#03543F"/>
</svg>
