<svg width="15" height="14" viewBox="0 0 15 14" fill="none" xmlns="http://www.w3.org/2000/svg">
<path fill-rule="evenodd" clip-rule="evenodd" d="M3.30039 2.1001C2.92909 2.1001 2.57299 2.2476 2.31044 2.51015C2.04789 2.7727 1.90039 3.12879 1.90039 3.5001V10.5001C1.90039 10.8714 2.04789 11.2275 2.31044 11.49C2.57299 11.7526 2.92909 11.9001 3.30039 11.9001H11.7004C12.0717 11.9001 12.4278 11.7526 12.6903 11.49C12.9529 11.2275 13.1004 10.8714 13.1004 10.5001V3.5001C13.1004 3.12879 12.9529 2.7727 12.6903 2.51015C12.4278 2.2476 12.0717 2.1001 11.7004 2.1001H3.30039ZM5.40039 3.5001H9.60039V6.3001H5.40039V3.5001ZM11.0004 9.1001V10.5001H11.7004V9.1001H11.0004ZM9.60039 7.7001H5.40039V10.5001H9.60039V7.7001ZM11.0004 7.7001H11.7004V6.3001H11.0004V7.7001ZM11.7004 4.9001V3.5001H11.0004V4.9001H11.7004ZM4.00039 3.5001V4.9001H3.30039V3.5001H4.00039ZM4.00039 6.3001H3.30039V7.7001H4.00039V6.3001ZM3.30039 9.1001H4.00039V10.5001H3.30039V9.1001Z" fill="#1A56DB"/>
</svg>
